<svg width="98" height="89" viewBox="0 0 98 89" fill="none" xmlns="http://www.w3.org/2000/svg">
<path d="M53.9246 85.2318C70.7433 84.8228 84.3218 81.453 84.253 77.7052C84.1843 73.9574 70.4943 71.2508 53.6756 71.6598C36.8569 72.0688 23.2784 75.4386 23.3471 79.1864C23.4159 82.9342 37.1059 85.6408 53.9246 85.2318Z" fill="#0071F2"/>
<path opacity="0.7" d="M53.9246 85.2318C70.7433 84.8228 84.3218 81.453 84.253 77.7052C84.1843 73.9574 70.4943 71.2508 53.6756 71.6598C36.8569 72.0688 23.2784 75.4386 23.3471 79.1864C23.4159 82.9342 37.1059 85.6408 53.9246 85.2318Z" fill="white"/>
<path d="M83.2236 50.8938C83.2236 50.8938 92.826 40.4597 87.5499 26.6058C86.0667 22.7626 83.7257 19.4403 80.765 16.9771C74.1623 11.4265 57.4536 0.442371 32.3174 4.68456C29.6174 5.12932 27.034 6.24607 24.7469 7.95711C21.0545 10.7435 17.1492 15.8628 18.8121 24.6326C19.3996 27.7318 19.2649 30.9653 18.2982 33.9355C17.3383 36.8796 15.5192 40.4845 12.1336 44.3826C12.1336 44.3826 4.91735 52.4069 11.9366 59.3521C13.4362 60.8229 15.2103 61.8754 17.1209 62.4279C25.8721 65.0058 61.2603 73.5684 83.2236 50.8938Z" fill="#0071F2"/>
<path opacity="0.7" d="M83.2236 50.8938C83.2236 50.8938 92.826 40.4597 87.5499 26.6058C86.0667 22.7626 83.7257 19.4403 80.765 16.9771C74.1623 11.4265 57.4536 0.442371 32.3174 4.68456C29.6174 5.12932 27.034 6.24607 24.7469 7.95711C21.0545 10.7435 17.1492 15.8628 18.8121 24.6326C19.3996 27.7318 19.2649 30.9653 18.2982 33.9355C17.3383 36.8796 15.5192 40.4845 12.1336 44.3826C12.1336 44.3826 4.91735 52.4069 11.9366 59.3521C13.4362 60.8229 15.2103 61.8754 17.1209 62.4279C25.8721 65.0058 61.2603 73.5684 83.2236 50.8938Z" fill="white"/>
<path d="M22.3283 13.6401C22.5334 13.6401 22.6996 13.4487 22.6996 13.2126C22.6996 12.9765 22.5334 12.7852 22.3283 12.7852C22.1233 12.7852 21.957 12.9765 21.957 13.2126C21.957 13.4487 22.1233 13.6401 22.3283 13.6401Z" fill="white"/>
<path d="M23.4357 13.6401C23.6408 13.6401 23.807 13.4487 23.807 13.2126C23.807 12.9765 23.6408 12.7852 23.4357 12.7852C23.2307 12.7852 23.0645 12.9765 23.0645 13.2126C23.0645 13.4487 23.2307 13.6401 23.4357 13.6401Z" fill="white"/>
<path d="M56.0609 11.459H21.8963C20.9148 11.459 20.1191 12.3751 20.1191 13.5051V50.0349C20.1191 51.165 20.9148 52.0811 21.8963 52.0811H56.0609C57.0424 52.0811 57.8381 51.165 57.8381 50.0349V13.5051C57.8381 12.3751 57.0424 11.459 56.0609 11.459Z" fill="#2F2E41"/>
<path d="M56.0325 51.4545L21.835 51.3737C21.5196 51.373 21.2173 51.2283 20.9945 50.9712C20.7716 50.7142 20.6465 50.3659 20.6465 50.0027V16.03C20.6466 15.849 20.6779 15.6699 20.7384 15.503C20.799 15.336 20.8876 15.1845 20.9993 15.0571C21.1109 14.9298 21.2433 14.8292 21.3889 14.7611C21.5345 14.6929 21.6903 14.6587 21.8475 14.6602H56.0393C56.3549 14.6602 56.6576 14.8045 56.8809 15.0613C57.1042 15.3182 57.2298 15.6666 57.2301 16.03V50.0835C57.2301 50.2642 57.1991 50.4431 57.1388 50.61C57.0785 50.7768 56.9902 50.9283 56.8789 51.0557C56.7676 51.1832 56.6355 51.284 56.4903 51.3524C56.345 51.4209 56.1894 51.4556 56.0325 51.4545Z" fill="#0071F2"/>
<path opacity="0.4" d="M56.0325 51.4545L21.835 51.3737C21.5196 51.373 21.2173 51.2283 20.9945 50.9712C20.7716 50.7142 20.6465 50.3659 20.6465 50.0027V16.03C20.6466 15.849 20.6779 15.6699 20.7384 15.503C20.799 15.336 20.8876 15.1845 20.9993 15.0571C21.1109 14.9298 21.2433 14.8292 21.3889 14.7611C21.5345 14.6929 21.6903 14.6587 21.8475 14.6602H56.0393C56.3549 14.6602 56.6576 14.8045 56.8809 15.0613C57.1042 15.3182 57.2298 15.6666 57.2301 16.03V50.0835C57.2301 50.2642 57.1991 50.4431 57.1388 50.61C57.0785 50.7768 56.9902 50.9283 56.8789 51.0557C56.7676 51.1832 56.6355 51.284 56.4903 51.3524C56.345 51.4209 56.1894 51.4556 56.0325 51.4545Z" fill="white"/>
<path d="M24.5725 13.6401C24.7775 13.6401 24.9437 13.4487 24.9437 13.2126C24.9437 12.9765 24.7775 12.7852 24.5725 12.7852C24.3674 12.7852 24.2012 12.9765 24.2012 13.2126C24.2012 13.4487 24.3674 13.6401 24.5725 13.6401Z" fill="white"/>
<path opacity="0.4" d="M30.5621 16.5781H22.5921C22.2413 16.5781 21.957 16.9055 21.957 17.3093V48.8018C21.957 49.2056 22.2413 49.533 22.5921 49.533H30.5621C30.9129 49.533 31.1972 49.2056 31.1972 48.8018V17.3093C31.1972 16.9055 30.9129 16.5781 30.5621 16.5781Z" fill="white"/>
<path d="M26.4818 23.7937C27.8502 23.7937 28.9596 22.5164 28.9596 20.9408C28.9596 19.3652 27.8502 18.0879 26.4818 18.0879C25.1133 18.0879 24.0039 19.3652 24.0039 20.9408C24.0039 22.5164 25.1133 23.7937 26.4818 23.7937Z" fill="white"/>
<path d="M26.4801 20.7317C26.8045 20.7317 27.0675 20.4289 27.0675 20.0553C27.0675 19.6817 26.8045 19.3789 26.4801 19.3789C26.1556 19.3789 25.8926 19.6817 25.8926 20.0553C25.8926 20.4289 26.1556 20.7317 26.4801 20.7317Z" fill="#0071F2"/>
<path d="M25.398 22.3535H27.6879C27.717 22.3537 27.7457 22.3456 27.7713 22.3298C27.7969 22.314 27.8187 22.2911 27.8347 22.2631C27.8507 22.2351 27.8603 22.2029 27.8628 22.1696C27.8652 22.1362 27.8603 22.1027 27.8486 22.072C27.689 21.6602 27.2928 20.9395 26.4801 20.9395C26.4801 20.9395 25.6142 20.9395 25.235 22.0772C25.2244 22.1078 25.2206 22.141 25.2237 22.1737C25.2269 22.2064 25.2369 22.2378 25.253 22.265C25.269 22.2923 25.2907 22.3146 25.3159 22.33C25.3412 22.3454 25.3694 22.3535 25.398 22.3535Z" fill="#0071F2"/>
<path opacity="0.4" d="M25.043 25.9004H22.8516V28.1525H25.043V25.9004Z" fill="white"/>
<path opacity="0.4" d="M30.3587 29.084H22.8516V29.7747H30.3587V29.084Z" fill="white"/>
<path opacity="0.4" d="M30.3294 30.2383H22.8223V30.929H30.3294V30.2383Z" fill="white"/>
<path opacity="0.4" d="M30.3587 31.3926H22.8516V32.0833H30.3587V31.3926Z" fill="white"/>
<path opacity="0.4" d="M30.3587 32.5449H22.8516V33.2357H30.3587V32.5449Z" fill="white"/>
<path opacity="0.4" d="M30.0644 34.2812H23.1459C22.9833 34.2812 22.8516 34.433 22.8516 34.6201V39.7003C22.8516 39.8874 22.9833 40.0392 23.1459 40.0392H30.0644C30.2269 40.0392 30.3587 39.8874 30.3587 39.7003V34.6201C30.3587 34.433 30.2269 34.2812 30.0644 34.2812Z" fill="white"/>
<path opacity="0.4" d="M27.6719 25.9004H25.4805V28.1525H27.6719V25.9004Z" fill="white"/>
<path opacity="0.4" d="M30.3594 25.9004H28.168V28.1525H30.3594V25.9004Z" fill="white"/>
<path opacity="0.4" d="M45.2338 16.5781H33.5611C33.3429 16.5781 33.166 16.7818 33.166 17.033V27.3029C33.166 27.5541 33.3429 27.7577 33.5611 27.7577H45.2338C45.452 27.7577 45.6288 27.5541 45.6288 27.3029V17.033C45.6288 16.7818 45.452 16.5781 45.2338 16.5781Z" fill="white"/>
<path opacity="0.4" d="M34.1621 18.0879V26.1513H44.515V18.0879" stroke="white" stroke-miterlimit="10"/>
<path d="M34.1621 26.1516C34.1621 26.1516 37.2637 25.6473 38.9786 22.7631C38.9786 22.7631 41.1293 18.2511 44.7515 18.3072" stroke="white" stroke-miterlimit="10"/>
<path opacity="0.4" d="M36.709 18.0879V26.1513" stroke="white" stroke-miterlimit="10"/>
<path opacity="0.4" d="M39.3379 18.1348V26.1982" stroke="white" stroke-miterlimit="10"/>
<path opacity="0.4" d="M41.9258 18.1348V26.1982" stroke="white" stroke-miterlimit="10"/>
<path opacity="0.4" d="M34.1621 20.7324H44.515" stroke="white" stroke-miterlimit="10"/>
<path opacity="0.4" d="M34.1621 23.793H44.515" stroke="white" stroke-miterlimit="10"/>
<path d="M59.4023 16.5781H47.5372C47.3247 16.5781 47.1523 16.7765 47.1523 17.0212V27.3146C47.1523 27.5593 47.3247 27.7577 47.5372 27.7577H59.4023C59.6149 27.7577 59.7872 27.5593 59.7872 27.3146V17.0212C59.7872 16.7765 59.6149 16.5781 59.4023 16.5781Z" fill="#0071F2"/>
<path opacity="0.4" d="M57.7763 18.7227H48.9414C48.7095 18.7227 48.5215 18.9391 48.5215 19.2062V25.1935C48.5215 25.4605 48.7095 25.677 48.9414 25.677H57.7763C58.0083 25.677 58.1963 25.4605 58.1963 25.1935V19.2062C58.1963 18.9391 58.0083 18.7227 57.7763 18.7227Z" fill="white"/>
<path d="M49.3398 21.4922V24.7843H57.4378V20.1133" stroke="white" stroke-miterlimit="10"/>
<path d="M54.994 22.4014C54.1858 22.4014 53.4093 21.6624 53.3142 21.5699C52.4086 20.9182 51.9242 21.7745 51.9038 21.811C51.8991 21.8189 51.8938 21.8263 51.8879 21.8331C51.7793 21.9714 51.6479 22.0835 51.5014 22.1629C51.3549 22.2423 51.1962 22.2875 51.0345 22.2958C50.7352 22.3022 50.4446 22.18 50.2194 21.953C49.7169 21.4669 49.3954 21.6194 49.3931 21.6207C49.3631 21.6369 49.3287 21.6388 49.2975 21.6258C49.2663 21.6129 49.2408 21.5862 49.2267 21.5516C49.2126 21.5171 49.211 21.4775 49.2223 21.4415C49.2335 21.4056 49.2567 21.3763 49.2867 21.36C49.3048 21.3496 49.7474 21.1215 50.3802 21.7315C50.5584 21.911 50.7875 22.0093 51.0243 22.0078C51.2837 21.9936 51.5279 21.862 51.7034 21.6416C51.7838 21.5112 52.4064 20.5689 53.458 21.3314L53.4727 21.3444C53.4851 21.3561 54.7314 22.5877 55.6064 21.9022C55.7652 21.7721 55.887 21.5907 55.9562 21.3809C56.1373 20.8596 56.6489 19.6866 57.4775 19.9773C57.4932 19.9828 57.5078 19.9919 57.5204 20.0039C57.5331 20.016 57.5435 20.0308 57.5512 20.0475C57.5589 20.0642 57.5636 20.0825 57.5652 20.1013C57.5667 20.1201 57.565 20.1391 57.5602 20.1571C57.5553 20.1752 57.5475 20.192 57.537 20.2065C57.5265 20.2211 57.5137 20.2331 57.4992 20.2419C57.4847 20.2508 57.4688 20.2562 57.4525 20.258C57.4361 20.2598 57.4196 20.2578 57.404 20.2522C56.7723 20.0281 56.3433 21.042 56.1871 21.4891C56.0996 21.7517 55.9463 21.9785 55.7468 22.1407C55.525 22.3144 55.2622 22.4054 54.994 22.4014Z" fill="#0071F2"/>
<path opacity="0.4" d="M55.4221 29.4297H33.675C33.2774 29.4297 32.9551 29.8008 32.9551 30.2586V40.4437C32.9551 40.9015 33.2774 41.2726 33.675 41.2726H55.4221C55.8197 41.2726 56.142 40.9015 56.142 40.4437V30.2586C56.142 29.8008 55.8197 29.4297 55.4221 29.4297Z" fill="white"/>
<path d="M39.7425 35.3507C39.7425 35.4067 39.7493 35.4653 39.7493 35.5227C39.7495 35.829 39.69 36.1314 39.5752 36.4077C39.4604 36.684 39.2932 36.9272 39.0859 37.1192L40.0764 38.8695C40.5358 38.4864 40.9097 37.9833 41.1675 37.4015C41.4253 36.8197 41.5595 36.1758 41.5593 35.5227C41.5589 35.323 41.5464 35.1235 41.5219 34.9258L39.7425 35.3507Z" fill="#2F2E41"/>
<path d="M41.4445 34.488C41.2078 33.4416 40.6253 32.5432 39.8212 31.9844L38.9395 33.809C39.2901 34.0717 39.5493 34.4679 39.6718 34.9285L41.4445 34.488Z" fill="#F1F2F2"/>
<path d="M45.1137 31.541H44.0734C43.8527 31.541 43.6738 31.747 43.6738 32.0011V39.4546C43.6738 39.7086 43.8527 39.9146 44.0734 39.9146H45.1137C45.3344 39.9146 45.5133 39.7086 45.5133 39.4546V32.0011C45.5133 31.747 45.3344 31.541 45.1137 31.541Z" fill="#0071F2"/>
<path opacity="0.2" d="M45.1137 33.877H44.0734C43.8527 33.877 43.6738 34.0829 43.6738 34.337V39.4524C43.6738 39.7065 43.8527 39.9125 44.0734 39.9125H45.1137C45.3344 39.9125 45.5133 39.7065 45.5133 39.4524V34.337C45.5133 34.0829 45.3344 33.877 45.1137 33.877Z" fill="black"/>
<path d="M48.059 31.541H47.0187C46.798 31.541 46.6191 31.747 46.6191 32.0011V39.4546C46.6191 39.7086 46.798 39.9146 47.0187 39.9146H48.059C48.2797 39.9146 48.4586 39.7086 48.4586 39.4546V32.0011C48.4586 31.747 48.2797 31.541 48.059 31.541Z" fill="#2F2E41"/>
<path opacity="0.2" d="M48.059 35.9863H47.0187C46.798 35.9863 46.6191 36.1923 46.6191 36.4464V39.4531C46.6191 39.7071 46.798 39.9131 47.0187 39.9131H48.059C48.2797 39.9131 48.4586 39.7071 48.4586 39.4531V36.4464C48.4586 36.1923 48.2797 35.9863 48.059 35.9863Z" fill="black"/>
<path d="M50.973 31.541H49.9328C49.7121 31.541 49.5332 31.747 49.5332 32.0011V39.4546C49.5332 39.7086 49.7121 39.9146 49.9328 39.9146H50.973C51.1937 39.9146 51.3726 39.7086 51.3726 39.4546V32.0011C51.3726 31.747 51.1937 31.541 50.973 31.541Z" fill="#0071F2"/>
<path opacity="0.2" d="M50.973 37.5723H49.9328C49.7121 37.5723 49.5332 37.7782 49.5332 38.0323V39.4542C49.5332 39.7083 49.7121 39.9143 49.9328 39.9143H50.973C51.1937 39.9143 51.3726 39.7083 51.3726 39.4542V38.0323C51.3726 37.7782 51.1937 37.5723 50.973 37.5723Z" fill="black"/>
<path d="M53.9906 31.541H52.9504C52.7297 31.541 52.5508 31.747 52.5508 32.0011V39.4546C52.5508 39.7086 52.7297 39.9146 52.9504 39.9146H53.9906C54.2113 39.9146 54.3902 39.7086 54.3902 39.4546V32.0011C54.3902 31.747 54.2113 31.541 53.9906 31.541Z" fill="#2F2E41"/>
<path opacity="0.2" d="M53.9906 34.9258H52.9504C52.7297 34.9258 52.5508 35.1318 52.5508 35.3858V39.4534C52.5508 39.7075 52.7297 39.9135 52.9504 39.9135H53.9906C54.2113 39.9135 54.3902 39.7075 54.3902 39.4534V35.3858C54.3902 35.1318 54.2113 34.9258 53.9906 34.9258Z" fill="black"/>
<path opacity="0.4" d="M39.843 43.5234H33.306C33.1122 43.5234 32.9551 43.7043 32.9551 43.9275V49.1289C32.9551 49.352 33.1122 49.5329 33.306 49.5329H39.843C40.0368 49.5329 40.1939 49.352 40.1939 49.1289V43.9275C40.1939 43.7043 40.0368 43.5234 39.843 43.5234Z" fill="white"/>
<path opacity="0.4" d="M55.7899 43.5234H41.2454C41.0516 43.5234 40.8945 43.7043 40.8945 43.9275V49.1289C40.8945 49.352 41.0516 49.5329 41.2454 49.5329H55.7899C55.9837 49.5329 56.1408 49.352 56.1408 49.1289V43.9275C56.1408 43.7043 55.9837 43.5234 55.7899 43.5234Z" fill="white"/>
<path d="M40.8945 45.6494C41.1984 45.7405 41.4829 45.9022 41.7305 46.1245C41.9781 46.3469 42.1836 46.6251 42.3344 46.9422C42.3344 46.9422 42.9547 47.9849 43.721 47.2198C43.8029 47.135 43.8715 47.0345 43.9236 46.9227C44.141 46.4731 44.8847 45.1359 45.8898 45.4956C45.8898 45.4956 46.7445 45.5881 47.2482 46.6959C47.2482 46.6959 47.7757 47.8389 48.6439 47.4662C48.8285 47.3834 48.9922 47.249 49.1204 47.0752L49.76 46.2372C49.76 46.2372 50.4018 45.3614 51.0165 45.4382C51.0165 45.4382 51.6447 45.4317 52.4337 46.4887C52.4337 46.4887 53.2623 47.8806 54.1972 47.5431C54.1972 47.5431 54.6217 47.3371 54.9387 46.6308C54.9793 46.5373 55.0243 46.4463 55.0734 46.3584C55.2579 46.0365 55.7016 45.347 56.1329 45.334" stroke="white" stroke-miterlimit="10"/>
<path opacity="0.4" d="M40.8945 46.459H56.1397" stroke="white" stroke-miterlimit="10"/>
<path opacity="0.4" d="M43.5137 43.5234V49.5329" stroke="white" stroke-miterlimit="10"/>
<path opacity="0.4" d="M46.0586 43.5234V49.5329" stroke="white" stroke-miterlimit="10"/>
<path opacity="0.4" d="M48.5176 43.5234V49.5329" stroke="white" stroke-miterlimit="10"/>
<path opacity="0.4" d="M51.043 43.5234V49.5329" stroke="white" stroke-miterlimit="10"/>
<path opacity="0.4" d="M53.5898 43.5234V49.5329" stroke="white" stroke-miterlimit="10"/>
<path d="M38.2461 46.7871L38.6503 46.7701L38.6242 45.9999L38.2122 46.0181C38.1497 45.7384 38.0337 45.4784 37.8726 45.257L38.1669 44.8739L37.6643 44.3643L37.3553 44.7683C37.1825 44.664 36.9951 44.5952 36.8018 44.565L36.7825 43.9863L36.1135 44.015L36.1339 44.6158C35.9294 44.6806 35.7373 44.7894 35.5679 44.9364L35.2521 44.5937L34.7926 45.1554L35.122 45.5112C35.0208 45.7128 34.9514 45.9334 34.9171 46.1628L34.5039 46.1811L34.5299 46.9513L34.934 46.9331C34.9821 47.1741 35.0697 47.4023 35.1921 47.6055L34.8525 48.0539L35.354 48.5635L35.6789 48.1399C35.8583 48.2712 36.0576 48.3623 36.2664 48.4084L36.2833 48.9362L36.9523 48.9075L36.9353 48.4006C37.1456 48.3496 37.3454 48.2527 37.524 48.1151L37.8205 48.4357L38.279 47.8753L37.996 47.5678C38.1276 47.3315 38.2129 47.0651 38.2461 46.7871ZM36.6195 47.8297C36.382 47.8349 36.1485 47.7585 35.9487 47.6103C35.749 47.4621 35.5922 47.2488 35.4981 46.9976C35.4041 46.7464 35.3771 46.4686 35.4207 46.1997C35.4643 45.9308 35.5764 45.6829 35.7428 45.4876C35.9092 45.2924 36.1223 45.1586 36.355 45.1033C36.5877 45.048 36.8294 45.0737 37.0494 45.1771C37.2693 45.2806 37.4575 45.4571 37.59 45.6842C37.7225 45.9112 37.7933 46.1786 37.7934 46.4521C37.7949 46.6313 37.7657 46.8091 37.7075 46.9753C37.6493 47.1415 37.5633 47.2929 37.4543 47.4208C37.3453 47.5488 37.2154 47.6507 37.0722 47.7209C36.929 47.791 36.7752 47.828 36.6195 47.8297Z" fill="#0071F2"/>
<path d="M63.9971 66.4863L59.8281 82.5676H60.9646L64.5993 68.4152V82.5676H65.815V68.3331L69.4497 82.5676H70.7685L66.5983 66.4863H63.9971Z" fill="#BCBEC0"/>
<path d="M47.5995 62.5859H46.334V82.8989H47.5995V62.5859Z" fill="#D1D3D4"/>
<path d="M79.244 62.5859H77.9785V82.8989H79.244V62.5859Z" fill="#D1D3D4"/>
<path d="M55.0586 52.2293L58.2632 52.1094L61.8107 57.4776L58.4205 57.6027L55.0586 52.2293Z" fill="#0071F2"/>
<path d="M68.369 44.5194C68.1958 45.059 65.9512 45.6285 65.9512 45.6285C65.9602 45.5946 65.9704 45.5594 65.9783 45.5269C66.0235 45.3267 66.0407 45.1194 66.0293 44.913C66.65 44.2641 67.049 43.3814 67.1544 42.4237C67.1975 42.1079 67.2096 41.7874 67.1907 41.4684L67.7713 40.3984L68.7709 40.5053L68.0758 42.5528L68.2898 43.2148C68.2332 43.5928 68.369 44.5194 68.369 44.5194Z" fill="#F9B499"/>
<path d="M65.9805 45.526C66.0257 45.3258 66.0429 45.1186 66.0314 44.9121C66.6521 44.2633 67.0511 43.3805 67.1566 42.4229L67.3501 42.0449C67.3501 42.0449 68.4221 44.628 65.9805 45.526Z" fill="#F7A48B"/>
<path d="M64.3497 52.6908C62.1719 53.2121 61.0082 51.106 61.0082 51.106L58.7488 47.6862C58.7149 47.6349 58.6929 47.5744 58.6849 47.5105C58.677 47.4466 58.6834 47.3815 58.7036 47.3213C58.8688 46.8273 59.3658 46.3738 59.6091 46.177C59.6534 46.1402 59.7047 46.1163 59.7587 46.1072C59.8127 46.0982 59.8678 46.1042 59.9193 46.1248C60.9448 46.5588 63.031 49.4886 63.0695 49.4599C63.108 49.4313 65.3538 47.1518 65.3538 47.1518L65.5417 46.4741C65.7149 45.5814 65.956 45.6283 65.956 45.6283C65.956 45.6283 68.281 45.0275 68.375 44.5205V44.1816C68.375 44.1816 68.6014 44.166 69.5375 46.1978C69.5375 46.1978 70.3129 47.4894 70.4589 50.0907L70.2189 58.5373H64.0871V57.9965C64.0871 57.9965 63.0355 57.9756 62.7288 57.7097L62.1356 57.7006C62.1056 57.7006 62.0768 57.6869 62.0556 57.6624C62.0344 57.638 62.0224 57.6049 62.0224 57.5703V55.6505C62.0224 55.616 62.0344 55.5828 62.0556 55.5584C62.0768 55.534 62.1056 55.5202 62.1356 55.5202L63.7611 55.5293C63.8226 55.406 63.9055 55.2986 64.0046 55.2138C64.1037 55.1291 64.217 55.0688 64.3373 55.0367L64.3497 52.6908Z" fill="#0071F2"/>
<path opacity="0.2" d="M60.5812 46.5918C60.423 46.8609 60.2458 47.1146 60.0514 47.3503C59.8605 47.5913 59.6519 47.8128 59.4277 48.0124C59.7481 47.4761 60.1356 46.9974 60.5778 46.5918H60.5812Z" fill="black"/>
<path opacity="0.2" d="M63.0674 49.459C63.0277 49.7327 62.9915 49.9959 62.9711 50.2631C62.9598 50.3934 62.9519 50.5303 62.9474 50.6645C62.9428 50.7988 62.9406 50.9343 62.9338 51.0738C62.8499 50.8102 62.8205 50.5277 62.8478 50.2488C62.8587 50.1099 62.8822 49.9728 62.9179 49.8395C62.9509 49.7048 63.0012 49.5765 63.0674 49.459Z" fill="black"/>
<path opacity="0.2" d="M65.3514 47.1523C65.2858 47.3583 65.2178 47.5629 65.1578 47.7701C65.0978 47.9773 65.0311 48.1832 64.9733 48.3905C64.8601 48.8075 64.7469 49.2233 64.6519 49.6468C64.555 50.0676 64.4794 50.4945 64.4255 50.9254C64.4085 51.0322 64.4017 51.1404 64.3926 51.2486C64.3819 51.3567 64.3763 51.4655 64.3757 51.5744C64.3757 51.6839 64.3655 51.7933 64.3757 51.9015C64.3858 52.0097 64.3892 52.1192 64.3938 52.2299C64.3142 51.7975 64.2943 51.3532 64.3349 50.9136C64.3691 50.4733 64.4365 50.0372 64.5364 49.6103C64.6318 49.184 64.749 48.7644 64.8873 48.354C65.0207 47.9429 65.1756 47.5417 65.3514 47.1523Z" fill="black"/>
<path opacity="0.2" d="M65.8496 45.6755C65.9621 45.8753 66.0715 46.0765 66.1779 46.2789C66.2832 46.4835 66.3907 46.6855 66.4937 46.8901L66.419 46.8667C66.8174 46.5852 67.2215 46.3141 67.6279 46.0482C67.8305 45.9179 68.0365 45.7876 68.2426 45.6572C68.4486 45.5269 68.6557 45.407 68.8663 45.2871C68.6727 45.4396 68.478 45.5895 68.2799 45.7315C68.0818 45.8736 67.886 46.0209 67.6856 46.159C67.2849 46.4379 66.8831 46.7103 66.4744 46.9723L66.4246 47.0035L66.3997 46.9488C66.3035 46.739 66.2118 46.5265 66.1179 46.3154C66.0239 46.1043 65.9356 45.8918 65.8496 45.6755Z" fill="black"/>
<path opacity="0.2" d="M63.8008 55.8398C63.8444 56.0759 63.8653 56.3167 63.8631 56.558C63.8659 56.7993 63.845 57.0402 63.8008 57.2761C63.7566 57.0402 63.7357 56.7993 63.7385 56.558C63.7363 56.3167 63.7572 56.0759 63.8008 55.8398Z" fill="black"/>
<path opacity="0.2" d="M64.5703 54.9381C64.9615 54.7437 65.3639 54.5808 65.7747 54.4506C66.1861 54.316 66.6075 54.2261 67.0334 54.1822L66.995 54.2304C66.9734 53.5605 66.9508 52.8906 66.9361 52.2207L66.884 50.2084L66.8727 49.7067V49.4538C66.8727 49.3639 66.8829 49.2805 66.8931 49.1932C66.9307 48.8524 67.0163 48.5209 67.1466 48.2118C67.2763 47.8994 67.473 47.6302 67.7183 47.4298C67.9694 47.2375 68.2596 47.1235 68.5604 47.0988C68.8314 47.0733 69.1026 47.1448 69.337 47.3034C69.5669 47.4603 69.7561 47.6853 69.8848 47.9551C69.951 48.0858 70.0067 48.2232 70.0512 48.3656C70.0931 48.5077 70.1271 48.6536 70.1644 48.7996C70.2018 48.9456 70.2131 49.0954 70.2278 49.244L70.2584 49.6923L70.2097 49.2466C70.1905 49.0993 70.1588 48.9547 70.1327 48.8087C70.1067 48.6627 70.0592 48.5233 70.0139 48.3851C69.9657 48.249 69.907 48.1182 69.8384 47.9942C69.7102 47.7405 69.5258 47.5305 69.3041 47.3855C69.0843 47.2446 68.8325 47.1837 68.582 47.2109C68.2985 47.2415 68.0262 47.3531 67.7896 47.5354C67.5601 47.7267 67.3769 47.9824 67.2576 48.2783C67.132 48.5723 67.0491 48.8879 67.0119 49.2127C67.0021 49.2931 66.9961 49.374 66.9938 49.4551L66.9995 49.7054L67.0108 50.2071L67.0493 52.2181C67.064 52.888 67.0719 53.5579 67.0799 54.2291V54.2747H67.0402C66.6183 54.3089 66.1997 54.3856 65.7894 54.5041C65.3758 54.6201 64.9687 54.765 64.5703 54.9381Z" fill="black"/>
<path opacity="0.2" d="M67.0352 54.2305C67.1721 54.2413 67.3068 54.2761 67.4347 54.3334C67.5632 54.3907 67.6859 54.4641 67.8004 54.5524C67.9145 54.6421 68.0176 54.7491 68.1071 54.8704C68.1976 54.9901 68.2689 55.1273 68.3177 55.2757C68.2237 55.1623 68.1377 55.0476 68.0381 54.9486C67.9406 54.8481 67.8374 54.7554 67.729 54.671C67.5093 54.5012 67.2771 54.3538 67.0352 54.2305Z" fill="black"/>
<path opacity="0.2" d="M64.8457 58.0146C65.0925 57.9651 65.3392 57.9169 65.5849 57.8609C65.8305 57.8048 66.075 57.7527 66.3195 57.6901C66.8074 57.5689 67.2941 57.4386 67.7707 57.2718C68.2498 57.1191 68.7165 56.9185 69.1652 56.6723C69.3886 56.5496 69.599 56.3978 69.7923 56.22C69.9927 56.0486 70.1492 55.8181 70.2451 55.5527C70.1706 55.8328 70.0285 56.0827 69.8354 56.2735C69.6446 56.4659 69.4354 56.6325 69.2116 56.77C68.7614 57.0354 68.2898 57.2498 67.8035 57.4099C67.319 57.5688 66.8279 57.6993 66.332 57.8009C65.8401 57.9019 65.344 57.9732 64.8457 58.0146Z" fill="black"/>
<path opacity="0.2" d="M69.8678 57.2754C69.8124 57.43 69.7425 57.5773 69.6595 57.7146C69.5778 57.8538 69.4857 57.9846 69.3844 58.1056C69.2822 58.2282 69.1656 58.3339 69.0381 58.4197C68.9116 58.5138 68.761 58.5552 68.6113 58.537C68.7482 58.5002 68.8759 58.428 68.9849 58.3258C69.0956 58.2288 69.1993 58.1216 69.295 58.0052C69.4931 57.7745 69.6731 57.523 69.8678 57.2754Z" fill="black"/>
<path d="M62.0319 57.1456C62.0319 57.1456 61.1932 57.4558 60.4189 57.1456C60.4189 57.1456 58.0192 56.0626 58.4029 55.2741C58.4029 55.2741 58.6202 54.2314 60.1404 55.2741C60.1404 55.2741 60.3306 55.3627 60.2434 55.1007L59.9695 54.6863C59.9695 54.6863 60.4596 54.5859 61.1467 55.0056C61.2518 55.0711 61.3504 55.1493 61.4411 55.2389C61.6157 55.4144 61.8157 55.5534 62.0319 55.6494V57.1456Z" fill="#F9B499"/>
<path d="M58.957 54.9375C59.1815 55.0175 59.3984 55.1231 59.6045 55.2529C59.8128 55.3774 60.0097 55.5258 60.192 55.696C59.9676 55.6164 59.751 55.5103 59.5456 55.3793C59.337 55.2553 59.1398 55.1073 58.957 54.9375Z" fill="#F7A48B"/>
<path d="M58.6836 55.3164C59.0807 55.4596 59.449 55.6927 59.7669 56.0019C59.5673 55.934 59.3751 55.8399 59.1941 55.7217C59.0113 55.6091 58.84 55.4731 58.6836 55.3164Z" fill="#F7A48B"/>
<path d="M58.6831 55.8398C58.8251 55.8733 58.9615 55.9327 59.0872 56.0158C59.2138 56.0948 59.3285 56.1969 59.4268 56.3181C59.1424 56.2465 58.8826 56.0801 58.6797 55.8398H58.6831Z" fill="#F7A48B"/>
<path d="M56.7901 43.9761L57.6062 44.5652C57.6613 44.6046 57.7244 44.6265 57.7892 44.6288C57.854 44.6311 57.9182 44.6136 57.9752 44.5782C58.9646 43.9722 59.6064 46.176 59.6064 46.176C58.9136 46.7208 58.7461 47.2186 58.7461 47.2186C57.8835 47.13 56.8693 45.785 56.5694 45.368C56.5441 45.332 56.5303 45.2872 56.5303 45.2409C56.5303 45.1947 56.5441 45.1498 56.5694 45.1138C56.5839 45.0921 56.6021 45.074 56.6229 45.0606C56.6437 45.0472 56.6666 45.0388 56.6903 45.0359C56.714 45.033 56.738 45.0356 56.7608 45.0436C56.7835 45.0516 56.8047 45.0649 56.8229 45.0826L57.3244 45.5609C57.338 45.5741 57.3547 45.5824 57.3725 45.5849C57.3902 45.5873 57.4081 45.5837 57.4241 45.5746C57.4401 45.5655 57.4534 45.5512 57.4624 45.5334C57.4714 45.5157 57.4758 45.4954 57.4749 45.4748L57.4625 45.1464C57.46 45.0882 57.4455 45.0316 57.4203 44.9811C57.3952 44.9305 57.3599 44.8876 57.3176 44.8558L56.5976 44.311C56.5778 44.2962 56.5607 44.2769 56.5475 44.2542C56.5342 44.2316 56.5251 44.2061 56.5207 44.1793C56.5162 44.1526 56.5166 44.125 56.5216 44.0984C56.5267 44.0717 56.5364 44.0465 56.5501 44.0243C56.5769 43.982 56.6169 43.9534 56.6616 43.9444C56.7064 43.9354 56.7524 43.9468 56.7901 43.9761Z" fill="#F9B499"/>
<path d="M52.6884 78.5078L52.4824 79.3263L53.4876 81.0075L54.9489 80.4171L55.0565 80.0248L55.1278 78.5078H52.6884Z" fill="#F9B499"/>
<path d="M59.6705 64.5547H70.4083C70.6463 64.5547 70.8746 64.6636 71.043 64.8574C71.2113 65.0512 71.3059 65.3141 71.3059 65.5882V65.7993C71.3056 66.0732 71.2109 66.3357 71.0426 66.5293C70.8743 66.7228 70.6461 66.8315 70.4083 66.8315H59.666V64.5547H59.6705Z" fill="#D1D3D4"/>
<path d="M45.3164 59.5605H80.3153V62.575C80.3153 62.7323 80.261 62.8831 80.1644 62.9944C80.0678 63.1056 79.9368 63.168 79.8002 63.168H45.8314C45.7638 63.168 45.6968 63.1527 45.6344 63.1229C45.5719 63.0931 45.5151 63.0494 45.4673 62.9944C45.4194 62.9393 45.3815 62.8739 45.3556 62.802C45.3297 62.73 45.3164 62.6529 45.3164 62.575V59.5605Z" fill="#BCBEC0"/>
<path d="M65.7142 44.806C66.5325 44.806 67.1959 43.3921 67.1959 41.6481C67.1959 39.9041 66.5325 38.4902 65.7142 38.4902C64.8958 38.4902 64.2324 39.9041 64.2324 41.6481C64.2324 43.3921 64.8958 44.806 65.7142 44.806Z" fill="#F9B499"/>
<path d="M64.3852 40.249C64.3852 40.249 63.9799 39.2807 64.3852 38.4922C64.3852 38.4922 64.7338 37.5916 65.5171 38.1663C65.5171 38.1663 66.3197 37.6737 66.9343 38.2889C67.3326 38.5964 67.7765 38.8173 68.244 38.9405C68.244 38.9405 69.6024 39.033 69.0726 40.726C69.0726 40.726 68.4036 42.1414 68.2972 43.2179C68.2972 43.2179 67.609 43.1605 67.7799 42.4046L67.6056 41.1013L67.3509 42.0449C67.4213 42.568 67.388 43.1027 67.2536 43.6089C67.1509 43.977 66.9554 44.3017 66.6919 44.5415C66.4284 44.7812 66.1089 44.9253 65.7741 44.9552C65.7036 44.9597 65.6329 44.9597 65.5624 44.9552C65.2652 44.9323 64.9827 44.7982 64.7579 44.5732C64.5331 44.3483 64.3783 44.0449 64.3173 43.7092C64.2835 43.5733 64.2871 43.4286 64.3276 43.2951C64.3682 43.1616 64.4436 43.0458 64.5437 42.9637C64.7852 42.769 65.0714 42.6607 65.3663 42.6526C65.6611 42.6445 65.9515 42.7369 66.2008 42.9181C66.2008 42.9181 67.0702 43.5176 66.9932 42.2104C66.9932 42.2104 67.3928 38.9327 65.8613 39.7785C65.8454 39.7811 65.1425 38.762 64.3852 40.249Z" fill="#2F2E41"/>
<path d="M65.3992 43.9345C65.7049 43.9345 65.9528 43.7139 65.9528 43.4419C65.9528 43.1698 65.7049 42.9492 65.3992 42.9492C65.0935 42.9492 64.8457 43.1698 64.8457 43.4419C64.8457 43.7139 65.0935 43.9345 65.3992 43.9345Z" fill="#F9B499"/>
<path d="M68.4618 41.596C68.554 41.2001 68.4429 40.8219 68.2136 40.7511C67.9844 40.6804 67.7239 40.944 67.6317 41.3398C67.5396 41.7357 67.6507 42.114 67.8799 42.1847C68.1091 42.2555 68.3696 41.9919 68.4618 41.596Z" fill="#F9B499"/>
<path d="M63.9005 77.1055L64.6 78.5665L63.1568 79.7746L62.1776 78.6512L62.0645 77.4339L63.9005 77.1055Z" fill="#F9B499"/>
<path d="M64.2212 77.3073L61.8192 78.7878L57.7306 69.7118L55.3285 78.7878L52.6934 78.5063L54.9301 63.168H69.2414C69.2414 63.168 68.4049 65.3497 64.5709 64.96L61.0789 64.9991L64.2212 77.3073Z" fill="#2F2E41"/>
<path opacity="0.2" d="M57.9283 69.323C57.872 68.7723 57.8862 68.2151 57.9702 67.6692C58.0497 67.1151 58.229 66.5864 58.4965 66.1169C58.7761 65.6487 59.1794 65.2967 59.6466 65.1134C60.11 64.9494 60.6 64.9106 61.0785 65C60.9585 65 60.8397 65 60.7208 65C60.6019 65 60.482 65.0078 60.3654 65.0326L60.1899 65.0587L60.0167 65.1017C59.9587 65.1147 59.9016 65.1326 59.8458 65.1551C59.7903 65.1773 59.7326 65.1929 59.6794 65.219C59.2392 65.4093 58.8613 65.7528 58.5984 66.2017C58.3389 66.6534 58.1593 67.1596 58.0698 67.6913C58.0167 67.958 57.9789 68.2283 57.9566 68.5007C57.933 68.7739 57.9235 69.0485 57.9283 69.323Z" fill="black"/>
<path d="M65.1145 80.0212L60.315 82.5691C60.315 82.5691 59.5713 81.8145 60.4282 80.6819L61.7775 78.6814C61.8055 78.6411 61.8432 78.6114 61.886 78.5958C61.9287 78.5803 61.9744 78.5797 62.0175 78.5941C62.4318 78.74 63.4381 79.1597 63.5105 79.1714C63.5252 79.1714 64.0222 78.4677 64.3029 78.121C64.3198 78.0998 64.3408 78.0836 64.3642 78.0737C64.3876 78.0638 64.4127 78.0604 64.4375 78.0638C64.4622 78.0672 64.4859 78.0774 64.5066 78.0935C64.5273 78.1095 64.5444 78.131 64.5564 78.1562L65.2447 79.5755C65.2632 79.6142 65.2745 79.6569 65.2779 79.7009C65.2814 79.745 65.2768 79.7893 65.2646 79.8312C65.2523 79.8731 65.2327 79.9116 65.2068 79.9443C65.181 79.977 65.1496 80.0032 65.1145 80.0212Z" fill="#0071F2"/>
<path d="M54.6417 82.2859L49.0204 81.3241C49.0204 81.3241 48.7578 80.1277 50.1161 79.6767L52.3744 78.7735C52.42 78.7548 52.4695 78.7528 52.5161 78.7677C52.5627 78.7826 52.6041 78.8138 52.6347 78.857C52.9268 79.274 53.598 80.3466 53.6592 80.4053C53.6784 80.4248 54.4866 80.1133 54.9202 79.9882C54.9462 79.9804 54.9735 79.9801 54.9997 79.9871C55.0259 79.9942 55.0502 80.0084 55.0706 80.0287C55.091 80.0489 55.1068 80.0745 55.1166 80.1034C55.1265 80.1322 55.1302 80.1633 55.1273 80.1941L54.9892 81.9601C54.9862 82.0083 54.9746 82.0553 54.9552 82.0981C54.9359 82.141 54.9091 82.1788 54.8765 82.2094C54.844 82.2399 54.8064 82.2624 54.766 82.2756C54.7256 82.2887 54.6833 82.2922 54.6417 82.2859Z" fill="#0071F2"/>
<path d="M81.3971 58.5371H44.2916C44.0691 58.5371 43.8887 58.7448 43.8887 59.0011V59.0962C43.8887 59.3525 44.0691 59.5602 44.2916 59.5602H81.3971C81.6196 59.5602 81.8001 59.3525 81.8001 59.0962V59.0011C81.8001 58.7448 81.6196 58.5371 81.3971 58.5371Z" fill="#D1D3D4"/>
<path d="M34.1822 26.5194C34.4792 26.5194 34.7199 26.2422 34.7199 25.9003C34.7199 25.5584 34.4792 25.2812 34.1822 25.2812C33.8853 25.2812 33.6445 25.5584 33.6445 25.9003C33.6445 26.2422 33.8853 26.5194 34.1822 26.5194Z" fill="#2F2E41"/>
<path d="M40.3131 21.3514C40.61 21.3514 40.8507 21.0742 40.8507 20.7323C40.8507 20.3904 40.61 20.1133 40.3131 20.1133C40.0161 20.1133 39.7754 20.3904 39.7754 20.7323C39.7754 21.0742 40.0161 21.3514 40.3131 21.3514Z" fill="#2F2E41"/>
<path d="M44.5142 18.9217C44.8112 18.9217 45.0519 18.6446 45.0519 18.3027C45.0519 17.9608 44.8112 17.6836 44.5142 17.6836C44.2173 17.6836 43.9766 17.9608 43.9766 18.3027C43.9766 18.6446 44.2173 18.9217 44.5142 18.9217Z" fill="#0071F2"/>
<path d="M37.9244 24.6619C38.2213 24.6619 38.4621 24.3848 38.4621 24.0429C38.4621 23.701 38.2213 23.4238 37.9244 23.4238C37.6274 23.4238 37.3867 23.701 37.3867 24.0429C37.3867 24.3848 37.6274 24.6619 37.9244 24.6619Z" fill="#0071F2"/>
<path d="M39.4717 31.7695C38.9127 31.4732 38.297 31.3472 37.6836 31.4038C37.0702 31.4604 36.4798 31.6976 35.969 32.0926C35.4581 32.4876 35.0441 33.0272 34.7666 33.6596C34.4891 34.2919 34.3574 34.9958 34.3843 35.7036C34.4111 36.4114 34.5956 37.0994 34.9199 37.7015C35.2442 38.3036 35.6975 38.7996 36.2363 39.1418C36.7751 39.4841 37.3812 39.6611 37.9966 39.6559C38.6119 39.6508 39.2157 39.4635 39.7501 39.1122L38.7619 37.358C38.4984 37.5083 38.2066 37.581 37.9127 37.5697C37.6188 37.5583 37.3319 37.4632 37.0778 37.2928C36.8236 37.1225 36.6101 36.8822 36.4564 36.5936C36.3027 36.3049 36.2136 35.9769 36.197 35.6389C36.1804 35.3008 36.2369 34.9633 36.3614 34.6566C36.4859 34.3498 36.6745 34.0834 36.9104 33.8812C37.1462 33.679 37.422 33.5472 37.7129 33.4978C38.0038 33.4484 38.3009 33.4828 38.5774 33.598L39.4717 31.7695Z" fill="#0071F2"/>
<path d="M42.9268 47.7272C43.0881 47.7272 43.2189 47.5766 43.2189 47.3909C43.2189 47.2052 43.0881 47.0547 42.9268 47.0547C42.7655 47.0547 42.6348 47.2052 42.6348 47.3909C42.6348 47.5766 42.7655 47.7272 42.9268 47.7272Z" fill="#0071F2"/>
<path d="M45.8897 45.858C46.051 45.858 46.1817 45.7075 46.1817 45.5218C46.1817 45.3361 46.051 45.1855 45.8897 45.1855C45.7284 45.1855 45.5977 45.3361 45.5977 45.5218C45.5977 45.7075 45.7284 45.858 45.8897 45.858Z" fill="#0071F2"/>
<path d="M48.2256 47.8502C48.3869 47.8502 48.5177 47.6997 48.5177 47.514C48.5177 47.3283 48.3869 47.1777 48.2256 47.1777C48.0643 47.1777 47.9336 47.3283 47.9336 47.514C47.9336 47.6997 48.0643 47.8502 48.2256 47.8502Z" fill="#0071F2"/>
<path d="M51.042 45.858C51.2033 45.858 51.3341 45.7075 51.3341 45.5218C51.3341 45.3361 51.2033 45.1855 51.042 45.1855C50.8808 45.1855 50.75 45.3361 50.75 45.5218C50.75 45.7075 50.8808 45.858 51.042 45.858Z" fill="#0071F2"/>
<path d="M54.9795 46.7955C55.1408 46.7955 55.2716 46.645 55.2716 46.4593C55.2716 46.2736 55.1408 46.123 54.9795 46.123C54.8183 46.123 54.6875 46.2736 54.6875 46.4593C54.6875 46.645 54.8183 46.7955 54.9795 46.7955Z" fill="#0071F2"/>
<path d="M36.2385 69.8423C36.2385 69.8423 33.592 63.9645 30.9455 64.8898C30.5974 65.0149 30.2852 65.2465 30.0424 65.5598C29.7996 65.8731 29.6352 66.2564 29.5668 66.6688C29.3415 68.0307 29.9607 70.1525 36.2385 69.8423Z" fill="#0071F2"/>
<path opacity="0.4" d="M36.2385 69.8423C36.2385 69.8423 33.592 63.9645 30.9455 64.8898C30.5974 65.0149 30.2852 65.2465 30.0424 65.5598C29.7996 65.8731 29.6352 66.2564 29.5668 66.6688C29.3415 68.0307 29.9607 70.1525 36.2385 69.8423Z" fill="white"/>
<path opacity="0.2" d="M36.2388 69.8423C35.6411 69.6507 35.0536 69.4227 34.4718 69.1763C33.89 68.93 33.3172 68.655 32.7524 68.3592C32.4705 68.2067 32.1943 68.0451 31.9204 67.8757C31.6453 67.7085 31.3781 67.5245 31.1201 67.3244C30.8595 67.1266 30.6148 66.9024 30.3889 66.6545C30.1738 66.4003 29.9689 66.0993 29.918 65.7422C30.0127 66.0809 30.1913 66.3803 30.4319 66.6037C30.6619 66.838 30.9097 67.0482 31.1722 67.2318C31.6969 67.6045 32.2422 67.9376 32.8044 68.2289C33.3614 68.5351 33.9364 68.8062 34.5024 69.0747C34.7888 69.205 35.0774 69.3353 35.3661 69.4657C35.6547 69.596 35.9479 69.7172 36.2388 69.8423Z" fill="black"/>
<path opacity="0.2" d="M31.3457 65.0176C31.5162 65.4095 31.625 65.8331 31.6672 66.2687C31.6889 66.485 31.6924 66.7033 31.6774 66.9204C31.6604 67.1395 31.6158 67.3547 31.5449 67.559C31.5683 67.3459 31.58 67.1313 31.58 66.9165C31.58 66.7027 31.5664 66.4916 31.5438 66.2792C31.5212 66.0667 31.4929 65.8569 31.46 65.6471C31.4272 65.4372 31.3887 65.23 31.3457 65.0176Z" fill="black"/>
<path opacity="0.2" d="M30.8136 67.0156C30.7731 67.1505 30.6991 67.2688 30.6008 67.3558C30.5041 67.4446 30.3945 67.513 30.2771 67.5578C30.1614 67.6019 30.0411 67.6282 29.9194 67.636C29.8594 67.636 29.7983 67.636 29.7383 67.636C29.6783 67.636 29.6194 67.6203 29.5605 67.606C29.6194 67.5878 29.6737 67.5773 29.736 67.5656L29.9069 67.5278C30.0186 67.5004 30.129 67.466 30.2375 67.4249C30.3446 67.3842 30.4478 67.331 30.5453 67.2659C30.6457 67.1993 30.7363 67.1149 30.8136 67.0156Z" fill="black"/>
<path opacity="0.2" d="M33.0703 65.4062C33.1764 65.8883 33.2089 66.388 33.1665 66.8829C33.1434 67.131 33.099 67.3759 33.034 67.614C32.9662 67.8508 32.8657 68.0735 32.7363 68.2735C32.8217 68.0509 32.8903 67.8202 32.9412 67.584C32.9866 67.3479 33.0202 67.1091 33.042 66.8685C33.0623 66.6274 33.0714 66.385 33.0759 66.1413C33.0804 65.8976 33.0793 65.6539 33.0703 65.4062Z" fill="black"/>
<path opacity="0.2" d="M32.1738 67.957C32.0897 68.1231 31.98 68.2702 31.8501 68.391C31.7209 68.5159 31.5773 68.6195 31.4233 68.6986C31.2699 68.777 31.1081 68.8313 30.9422 68.8602C30.8599 68.8756 30.7766 68.8839 30.6932 68.885C30.6104 68.8845 30.5276 68.8789 30.4453 68.868C30.6083 68.8328 30.7668 68.8003 30.9219 68.7507C31.0769 68.7039 31.2284 68.6425 31.3746 68.567C31.5207 68.4945 31.6608 68.4073 31.7935 68.3063C31.929 68.203 32.0562 68.0862 32.1738 67.957Z" fill="black"/>
<path opacity="0.2" d="M34.4168 66.7988C34.5089 67.1655 34.54 67.5488 34.5084 67.9288C34.495 68.1214 34.4569 68.3107 34.3952 68.4905C34.3388 68.6736 34.2383 68.8345 34.1055 68.9545C34.198 68.8038 34.2651 68.6345 34.3036 68.4553C34.3437 68.278 34.3702 68.0971 34.3828 67.9144C34.3986 67.732 34.4054 67.5469 34.4088 67.3605L34.4168 66.7988Z" fill="black"/>
<path opacity="0.2" d="M33.4395 68.6348C33.4098 68.7532 33.3668 68.8667 33.3116 68.9723C33.259 69.0795 33.1972 69.1804 33.1271 69.2734C33.0573 69.3674 32.9783 69.4518 32.8917 69.5249C32.8048 69.6004 32.7054 69.6546 32.5996 69.6839C32.7564 69.5304 32.9014 69.3616 33.0331 69.1795C33.1667 69.0023 33.2935 68.8133 33.4395 68.6348Z" fill="black"/>
<path d="M33.373 76.4648L33.6413 81.6962H38.5585L38.906 76.4648H33.373Z" fill="#2F2E41"/>
<path d="M37.7285 65.7871C37.7285 65.7871 35.751 68.2177 36.1381 75.4497" stroke="#2F2E41" stroke-miterlimit="10"/>
<path d="M36.293 70.3126C36.293 70.3126 38.4561 64.1781 41.166 64.8206C41.5226 64.9081 41.852 65.1053 42.1189 65.3913C42.3858 65.6772 42.5803 66.0413 42.6817 66.4445C43.0145 67.7712 42.5685 69.9529 36.293 70.3126Z" fill="#0071F2"/>
<path d="M36.2217 69.9544C36.2217 69.9544 38.1381 63.713 35.7395 62.1229C35.4222 61.9163 35.0622 61.8126 34.6978 61.823C34.3334 61.8333 33.9783 61.9572 33.6703 62.1816C32.6606 62.9193 31.7369 64.8924 36.2217 69.9544Z" fill="#0071F2"/>
<path opacity="0.2" d="M36.1821 70.0036C35.8957 69.3715 35.6376 68.7224 35.3954 68.0643C35.1531 67.4061 34.9369 66.7388 34.7389 66.0611C34.643 65.7205 34.5555 65.3773 34.4762 65.0315C34.3938 64.6862 34.3276 64.336 34.2781 63.9824C34.225 63.6282 34.2 63.2692 34.2034 62.9098C34.217 62.5553 34.2668 62.1773 34.4593 61.8906C34.3089 62.2015 34.2412 62.5563 34.2646 62.9111C34.2751 63.2649 34.313 63.6168 34.3778 63.9628C34.5003 64.6589 34.6621 65.345 34.8622 66.0168C35.049 66.6932 35.2675 67.3592 35.4905 68.0239C35.6037 68.3562 35.7169 68.6859 35.8301 69.0157C35.9433 69.3454 36.0621 69.6751 36.1821 70.0036Z" fill="black"/>
<path opacity="0.2" d="M35.8971 62.5938C35.7651 63.0049 35.5713 63.3861 35.3244 63.7198C35.2009 63.8871 35.0637 64.0403 34.9146 64.1772C34.7645 64.3129 34.5978 64.4223 34.4199 64.5018C34.5708 64.3756 34.7148 64.239 34.8512 64.0925C34.9825 63.9426 35.1104 63.7902 35.2293 63.6273C35.3481 63.4643 35.4625 63.2949 35.5689 63.1229C35.6753 62.9508 35.7918 62.7749 35.8971 62.5938Z" fill="black"/>
<path opacity="0.2" d="M34.3094 63.4706C34.1963 63.5292 34.0707 63.5482 33.9483 63.5254C33.826 63.5057 33.7076 63.4616 33.5985 63.3951C33.4916 63.328 33.3926 63.2452 33.3042 63.1487C33.2612 63.0992 33.2216 63.0471 33.182 62.9949C33.1423 62.9428 33.1106 62.8829 33.0801 62.8242C33.131 62.862 33.1786 62.9037 33.225 62.9441L33.3665 63.0614C33.4597 63.1372 33.5568 63.2065 33.6574 63.2686C33.7563 63.3313 33.8606 63.3819 33.9687 63.4198C34.0793 63.4568 34.1942 63.4739 34.3094 63.4706Z" fill="black"/>
<path opacity="0.2" d="M36.8286 64.3086C36.5959 64.7274 36.3013 65.0962 35.9582 65.3981C35.7857 65.5499 35.6003 65.6809 35.4046 65.7891C35.2083 65.8942 34.9984 65.962 34.7832 65.9898C34.9826 65.9089 35.1758 65.8086 35.3605 65.6901C35.5413 65.5675 35.7156 65.4326 35.8823 65.2861C36.0499 65.1388 36.2095 64.9811 36.3668 64.8182C36.5241 64.6553 36.6747 64.4845 36.8286 64.3086Z" fill="black"/>
<path opacity="0.2" d="M34.6009 65.295C34.4377 65.339 34.2688 65.3479 34.1028 65.3211C33.9367 65.2993 33.774 65.2511 33.6194 65.1777C33.4644 65.1032 33.3189 65.0045 33.187 64.8845C33.1206 64.8258 33.0582 64.7613 33.0003 64.6916C32.9437 64.6212 32.8871 64.5482 32.8418 64.4727C32.9754 64.5847 33.1044 64.6968 33.2425 64.792C33.6516 65.0887 34.1184 65.2634 34.6009 65.3002V65.295Z" fill="black"/>
<path opacity="0.2" d="M36.91 66.3379C36.7405 66.6658 36.5189 66.9541 36.2568 67.1876C36.1256 67.308 35.98 67.4059 35.8244 67.4783C35.6695 67.5554 35.499 67.5811 35.332 67.5526C35.4912 67.5272 35.6448 67.4675 35.7848 67.3766C35.9249 67.2899 36.0579 67.1887 36.1821 67.0742C36.3089 66.9635 36.4312 66.8423 36.5511 66.7185L36.91 66.3379Z" fill="black"/>
<path opacity="0.2" d="M35.0774 66.7773C34.9819 66.8326 34.8807 66.8737 34.7763 66.8999C34.6722 66.9279 34.5661 66.9449 34.4593 66.9507C34.3517 66.9556 34.2439 66.9469 34.1379 66.9246C34.0314 66.9043 33.9295 66.86 33.8379 66.7943C34.0427 66.8209 34.2491 66.8274 34.4548 66.8138C34.6586 66.7995 34.8634 66.7773 35.0774 66.7773Z" fill="black"/>
<g opacity="0.2">
<path d="M36.293 70.311C36.5726 70.1559 36.8522 70.0022 37.1284 69.8419C37.4045 69.6815 37.6819 69.5265 37.9569 69.3622C38.5059 69.0351 39.0527 68.7028 39.5824 68.3392C40.1195 67.9873 40.636 67.5955 41.1287 67.1662C41.3751 66.9547 41.605 66.7188 41.8158 66.4611C42.0374 66.2134 42.1909 65.8962 42.2572 65.5488C42.2357 65.9098 42.0557 66.2318 41.861 66.508C41.6564 66.7789 41.431 67.028 41.1875 67.2522C40.9468 67.4794 40.6955 67.6913 40.4348 67.8869C40.1767 68.085 39.913 68.2779 39.6424 68.4565C39.1036 68.8123 38.5557 69.1472 37.9954 69.4535C37.4351 69.7597 36.8725 70.0569 36.293 70.311Z" fill="black"/>
<path d="M40.7769 64.9863C40.752 65.2014 40.7328 65.4164 40.7147 65.6288C40.6966 65.8413 40.6852 66.055 40.6818 66.2688C40.6784 66.4825 40.6818 66.6936 40.6966 66.9061C40.7137 67.1199 40.7424 67.3323 40.7826 67.5421C40.6959 67.3466 40.6345 67.1376 40.6003 66.9217C40.5676 66.7066 40.5532 66.4884 40.5573 66.2701C40.5641 65.8306 40.6384 65.3959 40.7769 64.9863Z" fill="black"/>
<path d="M41.4668 66.9199C41.552 67.0099 41.649 67.0839 41.7543 67.1389C41.8566 67.1948 41.9635 67.2384 42.0735 67.2692C42.1855 67.299 42.2989 67.3211 42.4131 67.3357L42.5863 67.3565C42.6452 67.3565 42.6995 67.3656 42.764 67.3774C42.7063 67.3982 42.6508 67.4126 42.5886 67.4269C42.5263 67.4412 42.4697 67.4438 42.4086 67.4478C42.2869 67.4536 42.165 67.4404 42.0464 67.4087C41.9253 67.3765 41.8103 67.3196 41.7068 67.2405C41.6008 67.1636 41.5172 67.0519 41.4668 66.9199Z" fill="black"/>
<path d="M39.0912 65.5547C39.1025 65.801 39.1229 66.0447 39.1444 66.2871C39.1659 66.5295 39.1965 66.7694 39.2372 67.0079C39.2784 67.2448 39.3309 67.4788 39.3946 67.709C39.4648 67.9385 39.5515 68.1608 39.6538 68.3737C39.5089 68.1885 39.3909 67.9777 39.304 67.7494C39.2204 67.5192 39.1571 67.28 39.115 67.0352C39.033 66.547 39.025 66.0461 39.0912 65.5547Z" fill="black"/>
<path d="M40.1855 68C40.3135 68.1146 40.4499 68.2162 40.5931 68.3037C40.7338 68.3907 40.8808 68.464 41.0322 68.5226C41.1832 68.5805 41.3381 68.6241 41.4952 68.6529C41.6537 68.6855 41.8144 68.7012 41.9797 68.7194C41.8993 68.7377 41.8167 68.752 41.7341 68.7624C41.4827 68.7828 41.2303 68.7456 40.9915 68.6529C40.8305 68.5915 40.678 68.5037 40.5387 68.3923C40.4013 68.2873 40.2816 68.1544 40.1855 68Z" fill="black"/>
<path d="M37.8613 67.0859L37.9122 67.645C37.9303 67.8301 37.9519 68.0139 37.9835 68.1937C38.0097 68.3741 38.0507 68.5513 38.1058 68.7229C38.1584 68.8973 38.2386 69.0591 38.3424 69.1999C38.2006 69.0943 38.0876 68.9447 38.0164 68.7685C37.9416 68.5957 37.889 68.4113 37.8602 68.2211C37.7988 67.846 37.7992 67.4609 37.8613 67.0859Z" fill="black"/>
<path d="M38.9824 68.8125C39.1432 68.9767 39.2835 69.1487 39.4352 69.3104C39.5806 69.4781 39.7385 69.6307 39.9072 69.7665C39.7994 69.7476 39.6961 69.7032 39.6039 69.6362C39.5118 69.5719 39.426 69.4963 39.348 69.4107C39.2718 69.3247 39.2025 69.2309 39.1409 69.1305C39.0769 69.0324 39.0237 68.9256 38.9824 68.8125Z" fill="black"/>
<path d="M37.6113 69.6191C37.7438 69.7012 37.8581 69.7886 37.9758 69.8681C38.0347 69.9111 38.089 69.9476 38.1547 69.9867L38.3437 70.104C38.193 70.1265 38.0402 70.0868 37.9124 69.9919C37.8486 69.9473 37.79 69.8935 37.7381 69.8316C37.6847 69.7705 37.6417 69.6985 37.6113 69.6191Z" fill="black"/>
</g>
<path d="M36.1426 75.173C36.1426 75.173 38.5287 67.7 41.8805 70.2205C42.1095 70.3918 42.2833 70.645 42.3751 70.9412C42.7249 72.0816 42.932 74.9762 36.1426 75.173Z" fill="#0071F2"/>
<path opacity="0.4" d="M36.1426 75.173C36.1426 75.173 38.5287 67.7 41.8805 70.2205C42.1095 70.3918 42.2833 70.645 42.3751 70.9412C42.7249 72.0816 42.932 74.9762 36.1426 75.173Z" fill="white"/>
<path opacity="0.2" d="M36.1875 75.0413C36.7308 74.7428 37.2776 74.4509 37.8141 74.1394C38.3507 73.8279 38.8872 73.5125 39.4068 73.1658C39.931 72.8303 40.4365 72.4572 40.9202 72.0489C41.1611 71.845 41.3882 71.6202 41.5994 71.3764C41.8168 71.1381 41.9914 70.8529 42.1133 70.5371C42.0119 70.8658 41.8523 71.1668 41.6446 71.4207C41.4395 71.6778 41.2169 71.9158 40.9791 72.1323C40.4999 72.5583 39.9949 72.9442 39.4679 73.287C38.9404 73.6246 38.4039 73.9387 37.856 74.2345C37.5809 74.3792 37.3059 74.5186 37.0285 74.6542C36.7512 74.7897 36.4694 74.9188 36.1875 75.0413Z" fill="black"/>
<path opacity="0.2" d="M40.6158 69.7656C40.6215 70.1566 40.6067 70.5267 40.6033 70.9021C40.6033 71.0898 40.6033 71.2774 40.6101 71.4638C40.6123 71.6512 40.6421 71.8367 40.6984 72.0125C40.5961 71.8563 40.5324 71.6713 40.5139 71.4768C40.4882 71.2863 40.4764 71.0936 40.4788 70.9008C40.4824 70.5172 40.5285 70.1358 40.6158 69.7656Z" fill="black"/>
<path opacity="0.2" d="M38.9045 70.377L38.978 71.0599C39.0041 71.2866 39.0312 71.5121 39.0675 71.735C39.0985 71.9583 39.1423 72.1791 39.1988 72.3957C39.2502 72.6155 39.3324 72.8242 39.4421 73.0135C39.2905 72.854 39.1741 72.6552 39.1025 72.4335C39.0281 72.2165 38.9735 71.9911 38.9395 71.761C38.8702 71.304 38.8584 70.8379 38.9045 70.377Z" fill="black"/>
<path opacity="0.2" d="M40.1836 73.0195C40.3036 73.099 40.4236 73.1707 40.5447 73.2359C40.6658 73.301 40.7892 73.3662 40.916 73.4118C41.0427 73.4574 41.1695 73.5096 41.2997 73.5421C41.4299 73.5747 41.5623 73.6125 41.697 73.6516C41.419 73.691 41.1369 73.6535 40.8741 73.5421C40.7422 73.4876 40.6161 73.4159 40.4983 73.3284C40.3797 73.2455 40.2735 73.1412 40.1836 73.0195Z" fill="black"/>
<path opacity="0.2" d="M41.3555 72.0137C41.5515 72.0521 41.7457 72.1022 41.9373 72.1636C42.1286 72.2222 42.3131 72.2782 42.5135 72.3212C42.4145 72.3558 42.3109 72.3687 42.2078 72.359C42.1061 72.3516 42.0053 72.3328 41.9067 72.303C41.8086 72.2738 41.7128 72.235 41.6203 72.187C41.5264 72.1416 41.4374 72.0834 41.3555 72.0137Z" fill="black"/>
<path opacity="0.2" d="M37.7283 71.791C37.7611 72.182 37.7837 72.573 37.829 72.9483C37.8512 73.1375 37.8845 73.3248 37.9286 73.5088C37.966 73.6955 38.048 73.8666 38.1652 74.0027C38.0107 73.9024 37.8938 73.74 37.8369 73.5465C37.7733 73.3608 37.7292 73.167 37.7056 72.9692C37.6593 72.5775 37.6669 72.1799 37.7283 71.791Z" fill="black"/>
<path opacity="0.2" d="M38.6816 73.7012C38.8752 73.8641 39.0484 74.0413 39.2284 74.2082C39.3167 74.2942 39.4072 74.3763 39.4989 74.4545C39.5918 74.5347 39.6911 74.6045 39.7955 74.663C39.6738 74.6577 39.555 74.6188 39.4491 74.5496C39.342 74.4857 39.2414 74.4084 39.1491 74.3189C39.0572 74.2316 38.9713 74.1361 38.8922 74.0335C38.8121 73.9315 38.7416 73.8201 38.6816 73.7012Z" fill="black"/>
<path opacity="0.2" d="M37.3379 74.457C37.4794 74.5457 37.6016 74.6434 37.7284 74.7372C37.7907 74.7855 37.8541 74.8298 37.9175 74.8767C37.9808 74.9236 38.0454 74.9666 38.1133 75.0187C37.9513 75.0211 37.7929 74.9646 37.6605 74.8571C37.5937 74.8068 37.5322 74.7478 37.4771 74.6812C37.4197 74.6164 37.3726 74.5406 37.3379 74.457Z" fill="black"/>
<path d="M35.9615 75.21C35.9615 75.21 33.5516 67.5753 30.1671 70.1493C29.9353 70.3249 29.7599 70.5831 29.6679 70.8844C29.317 72.0521 29.1053 75.0093 35.9615 75.21Z" fill="#0071F2"/>
<path opacity="0.2" d="M35.9174 75.0752C35.6322 74.9492 35.3488 74.8189 35.0673 74.6842C34.7855 74.5461 34.507 74.4027 34.2297 74.2541C33.675 73.957 33.1328 73.6312 32.5997 73.2845C32.0673 72.9361 31.5573 72.5441 31.0738 72.1115C30.8337 71.8903 30.6096 71.6471 30.4037 71.3843C30.1936 71.1247 30.0328 70.8176 29.9316 70.4824C30.0553 70.8 30.231 71.0871 30.4489 71.3283C30.6613 71.5774 30.8903 71.807 31.1338 72.0151C31.6222 72.4327 32.1329 72.8144 32.663 73.1581C33.1883 73.5126 33.7282 73.8358 34.2727 74.1525C34.8172 74.4692 35.3673 74.7689 35.9174 75.0752Z" fill="black"/>
<path opacity="0.2" d="M31.4443 69.6875C31.5316 70.0656 31.5776 70.4549 31.5812 70.8461C31.5831 71.0428 31.5713 71.2393 31.5461 71.4339C31.5267 71.6325 31.4623 71.8217 31.3594 71.9826C31.4168 71.803 31.4475 71.6135 31.4499 71.4222C31.4567 71.2306 31.459 71.0403 31.4567 70.8474C31.4533 70.4629 31.4386 70.0785 31.4443 69.6875Z" fill="black"/>
<path opacity="0.2" d="M33.1734 70.3164C33.2181 70.7872 33.2044 71.2629 33.1326 71.7292C33.0994 71.9642 33.0443 72.1945 32.9685 72.416C32.898 72.6424 32.7816 72.8462 32.6289 73.0103C32.7403 72.8168 32.8236 72.6038 32.8757 72.3795C32.9322 72.1578 32.9768 71.9324 33.0092 71.7044C33.0443 71.4763 33.0726 71.2456 33.0987 71.015L33.1734 70.3164Z" fill="black"/>
<path opacity="0.2" d="M31.8789 73.0098C31.789 73.1353 31.6819 73.2431 31.5619 73.3291C31.443 73.4178 31.3158 73.4908 31.1827 73.5467C30.9168 73.6604 30.6313 73.6997 30.3496 73.6614C30.4866 73.6223 30.6213 73.5923 30.7526 73.5506C30.8839 73.5089 31.0129 73.4646 31.1397 73.4125C31.2665 73.3603 31.391 73.2978 31.5144 73.2326C31.6378 73.1675 31.7578 73.0919 31.8789 73.0098Z" fill="black"/>
<path opacity="0.2" d="M30.6986 71.9824C30.6155 72.0523 30.5259 72.1113 30.4315 72.1584C30.3377 72.2062 30.2408 72.2454 30.1417 72.2757C30.042 72.3064 29.9401 72.326 29.8372 72.3343C29.7334 72.3433 29.6291 72.3305 29.5293 72.2965C29.7319 72.2535 29.9176 72.1962 30.11 72.1375C30.3037 72.0738 30.5001 72.022 30.6986 71.9824Z" fill="black"/>
<path opacity="0.2" d="M34.3602 71.7559C34.4221 72.1526 34.4298 72.558 34.3829 72.9575C34.3604 73.1598 34.3163 73.3581 34.2516 73.5479C34.1944 73.7449 34.0764 73.9109 33.9199 74.0144C34.0388 73.875 34.1218 73.7005 34.1599 73.5101C34.2051 73.3224 34.2384 73.1312 34.2595 72.9379C34.307 72.5496 34.3274 72.1547 34.3602 71.7559Z" fill="black"/>
<path opacity="0.2" d="M33.3986 73.707C33.3383 73.8284 33.267 73.942 33.1858 74.0459C33.106 74.1503 33.0198 74.2479 32.9277 74.3378C32.8343 74.4285 32.7326 74.5072 32.6243 74.5724C32.5173 74.6438 32.397 74.6845 32.2734 74.691C32.3793 74.6314 32.4798 74.5598 32.5734 74.4773C32.6674 74.3978 32.7579 74.3144 32.8473 74.227C33.0296 74.0563 33.2039 73.8739 33.3986 73.707Z" fill="black"/>
<path opacity="0.2" d="M34.7512 74.4785C34.7155 74.5628 34.6681 74.6399 34.6109 74.7066C34.555 74.7734 34.4932 74.8333 34.4264 74.8851C34.2923 74.9954 34.1315 75.0542 33.9668 75.0533C34.0358 74.9998 34.1026 74.9568 34.166 74.9086C34.2294 74.8604 34.2951 74.8161 34.3573 74.7652C34.4886 74.6701 34.612 74.5697 34.7512 74.4785Z" fill="black"/>
<path opacity="0.2" d="M36.7932 73.5254C36.8223 73.7034 36.8431 73.8831 36.8555 74.0636L36.8781 74.3243L36.9076 74.5954C36.8021 74.4476 36.7403 74.265 36.731 74.0741C36.7225 73.9809 36.7225 73.887 36.731 73.7939C36.7403 73.7014 36.7613 73.6109 36.7932 73.5254Z" fill="black"/>
<path d="M39.0529 58.2722C38.3895 58.4025 37.6436 58.9721 37.2927 60.7485C37.1476 61.504 37.106 62.281 37.1693 63.0514L37.4149 66.3018C37.4149 66.3018 42.8653 62.6109 40.9579 59.2953C40.5414 58.5615 39.8056 58.1263 39.0529 58.2722Z" fill="#0071F2"/>
<path opacity="0.2" d="M40.1838 58.4883C40.0152 58.7854 39.8443 59.0852 39.6948 59.3928C39.5454 59.7003 39.3847 60.0053 39.2421 60.3168C38.95 60.9411 38.6761 61.5758 38.435 62.2274C38.1906 62.8764 37.9808 63.5418 37.8067 64.2201L37.6834 64.731C37.6403 64.9017 37.6166 65.0764 37.5815 65.2523C37.5034 65.5964 37.4762 65.9496 37.4219 66.295C37.458 65.583 37.5558 64.8771 37.7139 64.1875C37.8769 63.4987 38.0811 62.8237 38.3252 62.1675C38.5741 61.5149 38.8538 60.8784 39.1628 60.2607C39.4685 59.6444 39.8096 59.0522 40.1838 58.4883Z" fill="black"/>
<path opacity="0.2" d="M38.574 58.4492C38.6388 58.7387 38.7366 59.017 38.865 59.2768C38.9292 59.4047 39.0051 59.5244 39.0914 59.6339C39.178 59.7464 39.2714 59.8518 39.3709 59.9493C39.2426 59.8972 39.1242 59.8171 39.0223 59.7134C38.9701 59.6615 38.9216 59.6049 38.8774 59.544C38.8361 59.4816 38.7983 59.4163 38.7642 59.3485C38.6956 59.2125 38.6442 59.0659 38.6114 58.9132C38.5759 58.7622 38.5633 58.6052 38.574 58.4492Z" fill="black"/>
<path opacity="0.2" d="M37.6722 59.5215C37.7095 59.717 37.7559 59.9125 37.8057 60.0949C37.8541 60.2806 37.9162 60.4611 37.9914 60.6345C38.064 60.8067 38.1561 60.9671 38.2653 61.1115C38.3815 61.2529 38.5178 61.3706 38.6683 61.4595C38.4935 61.419 38.3308 61.3269 38.1963 61.1923C38.066 61.0506 37.9587 60.8833 37.8793 60.6984C37.7272 60.3331 37.656 59.9301 37.6722 59.5254V59.5215Z" fill="black"/>
<path opacity="0.2" d="M41.2447 59.9512C40.9436 60.2482 40.5897 60.4657 40.2079 60.5885C40.0173 60.6524 39.8209 60.6901 39.6226 60.7006C39.4251 60.7123 39.2271 60.6904 39.0352 60.6354C39.2286 60.6354 39.4219 60.6201 39.6136 60.5898C39.8049 60.5593 39.9941 60.5127 40.1796 60.4503C40.3636 60.3893 40.5446 60.3167 40.7218 60.2327C40.8938 60.1454 41.0704 60.0554 41.2447 59.9512Z" fill="black"/>
<path opacity="0.2" d="M38.5742 62.084C38.7813 62.144 38.991 62.1914 39.2025 62.226C39.4113 62.2607 39.6219 62.2799 39.833 62.2834C40.043 62.2903 40.2532 62.2764 40.4612 62.2417L40.6185 62.2156L40.7736 62.1765C40.88 62.1583 40.9774 62.1101 41.0849 62.084C40.8958 62.2079 40.6917 62.2984 40.4793 62.3525C40.2666 62.4084 40.0487 62.4334 39.8307 62.4267C39.3949 62.422 38.9655 62.3049 38.5742 62.084Z" fill="black"/>
<path opacity="0.2" d="M37.1387 61.918C37.1978 62.0325 37.2648 62.1415 37.339 62.2438C37.4106 62.3431 37.4906 62.4339 37.5779 62.5149C37.6646 62.5969 37.7578 62.6693 37.8563 62.7312C37.9548 62.7964 38.0612 62.8459 38.1699 62.9046C38.0493 62.9061 37.9296 62.8818 37.8167 62.8329C37.7011 62.7861 37.5934 62.7164 37.4986 62.627C37.4038 62.5375 37.323 62.4299 37.2598 62.309C37.1953 62.1903 37.154 62.0569 37.1387 61.918Z" fill="black"/>
<path opacity="0.2" d="M37.8691 63.7611C38.0638 63.8041 38.2597 63.8315 38.4532 63.8563C38.647 63.8779 38.8415 63.8879 39.0362 63.8863C39.2302 63.8852 39.4239 63.8678 39.6157 63.8341C39.8096 63.799 40.001 63.748 40.1885 63.6816C40.0168 63.8009 39.8301 63.8888 39.635 63.9423C39.4394 63.9977 39.2388 64.0265 39.0373 64.0283C38.6359 64.0357 38.2377 63.9446 37.8691 63.7611Z" fill="black"/>
<path opacity="0.2" d="M37.252 64.1211C37.3362 64.1878 37.4123 64.2672 37.4783 64.357C37.5463 64.4455 37.6048 64.5431 37.6527 64.6476C37.5472 64.6177 37.453 64.5491 37.3844 64.4521C37.3121 64.3598 37.2659 64.2444 37.252 64.1211Z" fill="black"/>
<path opacity="0.2" d="M37.5078 65.4659C37.7512 65.3682 37.9957 65.3043 38.2391 65.2339C38.4824 65.1635 38.7247 65.1036 38.9714 65.0215C38.8686 65.114 38.7541 65.1878 38.6318 65.2404C38.5127 65.2948 38.3901 65.3384 38.2651 65.3708C38.1409 65.405 38.015 65.4302 37.8882 65.4464C37.7621 65.4657 37.6348 65.4722 37.5078 65.4659Z" fill="black"/>
<path d="M39.0753 75.4492H33.2129V76.9076H39.0753V75.4492Z" fill="#2F2E41"/>
<path opacity="0.2" d="M39.0753 75.4492H33.2129V76.9076H39.0753V75.4492Z" fill="black"/>
</svg>
