<svg width="80" height="79" viewBox="0 0 80 79" fill="none" xmlns="http://www.w3.org/2000/svg">
<g clip-path="url(#clip0_1549_558)">
<path d="M72.2658 38.373H5.31055V40.4031H72.2658V38.373Z" fill="#E6E6E6"/>
<path d="M7.35298 37.4534C7.51697 37.2475 7.61935 36.9665 7.61935 36.6546V31.8051C7.61935 31.4899 7.51545 31.2046 7.34922 30.9978C7.26264 30.8908 7.15759 30.8053 7.04215 30.7468C6.93479 30.694 6.81819 30.6641 6.69583 30.6641C6.18559 30.6641 5.77231 31.1747 5.77231 31.8051V36.6546C5.77231 36.9402 5.85776 37.2007 5.99807 37.4008C5.58997 37.6617 5.31055 38.1871 5.31055 38.794H7.96567C7.96567 38.2251 7.71978 37.7285 7.35298 37.4534Z" fill="#3F3D56"/>
<path d="M71.6041 37.2744C71.7975 37.0653 71.9201 36.7589 71.9201 36.4163V31.5668C71.9201 30.9364 71.5069 30.4258 70.9966 30.4258C70.8742 30.4258 70.7576 30.4557 70.6503 30.5085C70.5348 30.567 70.4298 30.6526 70.3432 30.7595C70.177 30.9664 70.0731 31.2516 70.0731 31.5668V36.4163C70.0731 36.7352 70.1804 37.0212 70.3508 37.2282C69.9147 37.4766 69.6113 38.0201 69.6113 38.6523H72.2665C72.2665 38.0578 71.9987 37.5406 71.6041 37.2744Z" fill="#3F3D56"/>
<path d="M6.95326 40.2754H5.31055V41.7901H6.95326V40.2754Z" fill="#E6E6E6"/>
<path d="M7.87143 41.7907H6.13175L6.05556 41.5055L5.76003 40.4029L5.75195 40.373L5.97591 40.276L7.30231 39.7012L7.49279 40.4029L7.79293 41.5055L7.87143 41.7907Z" fill="#E6E6E6"/>
<path d="M71.8246 40.373L71.8165 40.4029L71.5209 41.5055L71.4448 41.7907H69.7051L69.7836 41.5055L70.0837 40.4029L70.2742 39.7012L71.6006 40.276L71.8246 40.373Z" fill="#E6E6E6"/>
<path d="M72.2658 40.2754H70.623V41.7901H72.2658V40.2754Z" fill="#E6E6E6"/>
<path d="M39.25 0H8.54297V14.691H39.25V0Z" fill="#3F3D56"/>
<path d="M39.25 0H8.54297V14.691H39.25V0Z" fill="#3F3D56"/>
<path d="M9.00391 0V14.1205H32.2528C35.8618 14.1205 38.7875 10.5057 38.7875 6.04665V0H9.00391Z" fill="white"/>
<path d="M77.3807 0H2.61934C1.17518 0 0 1.45198 0 3.23629V38.5545C0 40.3389 1.17518 41.7908 2.61934 41.7908H77.3807C78.8248 41.7908 80 40.3389 80 38.5545V3.23629C80 1.45198 78.8248 0 77.3807 0ZM79.7691 38.5545C79.7691 40.1848 78.7001 41.5056 77.3807 41.5056H2.61934C1.29986 41.5056 0.23088 40.1848 0.23088 38.5545V3.23629C0.23088 1.60602 1.29986 0.285262 2.61934 0.285262H61.7974C71.7229 0.285262 79.7691 10.2266 79.7691 22.49V38.5545Z" fill="#3F3D56"/>
<path d="M41.7168 29.8418H37.4305C37.3047 29.8418 37.2031 29.9687 37.2031 30.1256V38.4909H41.9466V30.1256C41.9466 29.9687 41.8438 29.8418 41.7168 29.8418ZM40.0949 33.971C40.0949 34.1122 40.0568 34.2405 39.9922 34.3461C39.8998 34.4973 39.7532 34.5957 39.5881 34.5957C39.4242 34.5957 39.2776 34.4973 39.1852 34.3461C39.1206 34.2405 39.0825 34.1122 39.0825 33.971V32.9996C39.0848 32.6588 39.3111 32.3806 39.5881 32.3806C39.8652 32.3806 40.0926 32.6588 40.0949 32.9996V33.971Z" fill="#2F2E41"/>
<path d="M37.1875 38.2246V39.0305C37.1875 39.1175 37.2441 39.1888 37.3145 39.1888H41.8328C41.9021 39.1888 41.9598 39.1175 41.9598 39.0305V38.2246H37.1875Z" fill="#3F3D56"/>
<path d="M48.8145 16.7871H30.4918C30.1651 16.7871 29.8984 17.1166 29.8984 17.5202V32.796C29.8984 33.2011 30.1651 33.5305 30.4918 33.5305H48.8145C49.1411 33.5305 49.4078 33.2011 49.4078 32.796V17.5202C49.4078 17.1166 49.1411 16.7871 48.8145 16.7871Z" fill="#3F3D56"/>
<path d="M48.66 17.3164H30.6456C30.4703 17.3164 30.3281 17.492 30.3281 17.7086V28.225C30.3281 30.8513 32.0673 33.0001 34.1929 33.0001H48.6612C48.8358 33.0001 48.9786 32.8236 48.9786 32.6079V17.7101C48.9786 17.4936 48.8353 17.3164 48.66 17.3164Z" fill="white"/>
<path d="M45.3445 39.1774L45.2071 38.3744L45.1782 38.2018C45.1598 38.0891 45.0789 38.0078 44.9854 38.0078H34.5993C34.5069 38.0078 34.4261 38.0891 34.4065 38.2018L34.3776 38.3744L34.2403 39.1774C34.2287 39.2501 34.2426 39.3243 34.2807 39.3813C34.3176 39.4384 34.3742 39.4712 34.4331 39.4712H45.1517C45.2117 39.4712 45.2671 39.4384 45.3052 39.3813C45.3422 39.3243 45.3572 39.2501 45.3445 39.1774Z" fill="#3F3D56"/>
<path d="M34.9633 38.1836H34.7184C34.6949 38.1836 34.6758 38.2072 34.6758 38.2362V38.3757C34.6758 38.4047 34.6949 38.4283 34.7184 38.4283H34.9633C34.9868 38.4283 35.0059 38.4047 35.0059 38.3757V38.2362C35.0059 38.2072 34.9868 38.1836 34.9633 38.1836Z" fill="#E6E6E6"/>
<path d="M44.8598 38.5918H44.6149C44.5913 38.5918 44.5723 38.6154 44.5723 38.6444V38.7839C44.5723 38.8129 44.5913 38.8365 44.6149 38.8365H44.8598C44.8833 38.8365 44.9024 38.8129 44.9024 38.7839V38.6444C44.9024 38.6154 44.8833 38.5918 44.8598 38.5918Z" fill="#E6E6E6"/>
<path d="M40.4362 39.0801H37.8805C37.857 39.0801 37.8379 39.1037 37.8379 39.1327V39.2722C37.8379 39.3012 37.857 39.3248 37.8805 39.3248H40.4362C40.4598 39.3248 40.4788 39.3012 40.4788 39.2722V39.1327C40.4788 39.1037 40.4598 39.0801 40.4362 39.0801Z" fill="#E6E6E6"/>
<path d="M10.8114 27.7975C9.42595 22.1212 9.33917 16.4369 10.9728 10.742C10.9802 10.0232 11.4572 9.44757 12.0389 9.45515L22.464 9.60571C23.0458 9.61493 23.5117 10.2042 23.5055 10.923L23.3442 27.9785C23.3367 28.6972 22.8598 29.2729 22.2781 29.2653L11.8529 29.1147C11.2712 29.1055 10.8053 28.5162 10.8114 27.7975Z" fill="#F2F2F2"/>
<path opacity="0.2" d="M12.9744 28.4731C12.3927 28.4639 11.9268 27.8746 11.933 27.1559C10.5475 21.4795 10.4607 15.7952 12.0943 10.1003C12.0976 9.8737 12.1492 9.65216 12.244 9.45813L12.0389 9.45515C11.4572 9.44757 10.9802 10.0232 10.9727 10.742C9.33918 16.4369 9.42594 22.1212 10.8114 27.7975C10.8053 28.5162 11.2712 29.1055 11.8529 29.1147L22.278 29.2653C22.655 29.2692 23.0047 29.0232 23.1944 28.6207L12.9744 28.4731Z" fill="black"/>
<path d="M20.6532 19.1343L13.6669 19.0573C13.4354 19.0544 13.2496 18.8202 13.252 18.5342C13.2543 18.2486 13.4433 18.0193 13.6744 18.0215L20.6607 18.0985C20.8922 18.1019 21.0776 18.3366 21.0748 18.6226C21.072 18.9074 20.8837 19.1359 20.6532 19.1343Z" fill="white"/>
<path d="M15.2253 16.2344L13.6883 16.2175C13.4568 16.2159 13.2702 15.9826 13.2715 15.6966C13.2728 15.4106 13.4616 15.18 13.6931 15.1816L13.6957 15.1817L15.2327 15.1986C15.4642 15.2021 15.6496 15.4367 15.6468 15.7228C15.6441 16.0075 15.4557 16.2361 15.2253 16.2344Z" fill="white"/>
<path d="M20.6212 23.689L13.6348 23.612C13.4033 23.6086 13.2179 23.3739 13.2207 23.0879C13.2235 22.8031 13.4118 22.5745 13.6423 22.5762L20.6286 22.6531C20.8601 22.6548 21.0467 22.888 21.0454 23.1741C21.0441 23.4601 20.8553 23.6906 20.6238 23.689L20.6212 23.689Z" fill="white"/>
<path d="M20.6367 21.4117L13.6503 21.3347C13.4188 21.3325 13.2326 21.0988 13.2344 20.8128C13.2362 20.5267 13.4253 20.2966 13.6568 20.2988L13.6578 20.2989L20.6441 20.3758C20.8756 20.3793 21.061 20.6139 21.0582 20.9C21.0554 21.1847 20.8671 21.4133 20.6367 21.4117Z" fill="white"/>
<path d="M13.4531 12.1066C13.9514 12.1066 14.3554 11.6075 14.3554 10.9918C14.3554 10.3761 13.9514 9.87695 13.4531 9.87695C12.9548 9.87695 12.5508 10.3761 12.5508 10.9918C12.5508 11.6075 12.9548 12.1066 13.4531 12.1066Z" fill="#3F3D56"/>
<path d="M21.0507 12.3918C21.5491 12.3918 21.953 11.8926 21.953 11.2769C21.953 10.6612 21.5491 10.1621 21.0507 10.1621C20.5524 10.1621 20.1484 10.6612 20.1484 11.2769C20.1484 11.8926 20.5524 12.3918 21.0507 12.3918Z" fill="#3F3D56"/>
<path d="M31.563 19.3161C31.7748 19.3161 31.9464 19.0993 31.9464 18.8319C31.9464 18.5644 31.7748 18.3477 31.563 18.3477C31.3513 18.3477 31.1797 18.5644 31.1797 18.8319C31.1797 19.0993 31.3513 19.3161 31.563 19.3161Z" fill="#F2F2F2"/>
<path d="M32.8873 19.3161C33.099 19.3161 33.2706 19.0993 33.2706 18.8319C33.2706 18.5644 33.099 18.3477 32.8873 18.3477C32.6755 18.3477 32.5039 18.5644 32.5039 18.8319C32.5039 19.0993 32.6755 19.3161 32.8873 19.3161Z" fill="#F2F2F2"/>
<path d="M34.2115 19.3161C34.4232 19.3161 34.5948 19.0993 34.5948 18.8319C34.5948 18.5644 34.4232 18.3477 34.2115 18.3477C33.9998 18.3477 33.8281 18.5644 33.8281 18.8319C33.8281 19.0993 33.9998 19.3161 34.2115 19.3161Z" fill="#F2F2F2"/>
<path d="M35.722 19.2146C35.7102 19.2146 35.6984 19.209 35.6896 19.1977L35.4309 18.871C35.4137 18.8493 35.4137 18.8145 35.4309 18.7927L35.6896 18.466C35.7071 18.4439 35.7358 18.4436 35.7537 18.4652C35.7716 18.4868 35.7719 18.5223 35.7544 18.5444L35.5267 18.8319L35.7544 19.1194C35.7719 19.1415 35.7716 19.177 35.7537 19.1986C35.7449 19.2093 35.7334 19.2146 35.722 19.2146Z" fill="#F2F2F2"/>
<path d="M36.1567 19.2146C36.1452 19.2146 36.1338 19.2093 36.125 19.1987C36.1071 19.177 36.1067 19.1416 36.1243 19.1195L36.3519 18.8319L36.1243 18.5444C36.1067 18.5223 36.1071 18.4868 36.125 18.4652C36.1428 18.4435 36.1716 18.444 36.1891 18.4661L36.4477 18.7928C36.465 18.8145 36.465 18.8493 36.4477 18.8711L36.1891 19.1978C36.1802 19.209 36.1684 19.2146 36.1567 19.2146Z" fill="#F2F2F2"/>
<path d="M46.6955 18.4043H46.2145C46.1597 18.4043 46.1152 18.4592 46.1152 18.527V19.1218C46.1152 19.1895 46.1597 19.2444 46.2145 19.2444H46.6955C46.7503 19.2444 46.7952 19.1895 46.7952 19.1218V18.527C46.7952 18.4592 46.7503 18.4043 46.6955 18.4043Z" fill="#F2F2F2"/>
<path d="M45.5177 18.4043H45.0368C44.9819 18.4043 44.9375 18.4592 44.9375 18.527V19.1218C44.9375 19.1895 44.9819 19.2444 45.0368 19.2444H45.5177C45.5726 19.2444 45.6175 19.1895 45.6175 19.1218V18.527C45.6175 18.4592 45.5726 18.4043 45.5177 18.4043Z" fill="#F2F2F2"/>
<path d="M47.8068 18.4316H47.3258C47.271 18.4316 47.2266 18.4865 47.2266 18.5543V19.1491C47.2266 19.2169 47.271 19.2718 47.3258 19.2718H47.8068C47.8617 19.2718 47.9065 19.2169 47.9065 19.1491V18.5543C47.9065 18.4865 47.8617 18.4316 47.8068 18.4316Z" fill="#F2F2F2"/>
<path d="M41.4632 18.6582H39.6132C39.5461 18.6582 39.4922 18.7254 39.4922 18.8078C39.4922 18.8901 39.5461 18.9573 39.6132 18.9573H41.4632C41.5298 18.9573 41.5842 18.8901 41.5842 18.8078C41.5842 18.7254 41.5298 18.6582 41.4632 18.6582Z" fill="#F2F2F2"/>
<path d="M34.9891 4.59124C34.7719 3.7011 34.7583 2.80971 35.0144 1.91665C35.0156 1.80394 35.0904 1.71367 35.1816 1.71486L36.8165 1.73846C36.9077 1.73991 36.9807 1.83232 36.9798 1.94503L36.9545 4.61962C36.9533 4.73233 36.8785 4.8226 36.7873 4.82141L35.1525 4.7978C35.0612 4.79636 34.9882 4.70395 34.9891 4.59124Z" fill="#F2F2F2"/>
<path opacity="0.2" d="M35.3283 4.69719C35.2371 4.69574 35.164 4.60333 35.165 4.49062C34.9477 3.60048 34.9341 2.70909 35.1903 1.81603C35.1908 1.78049 35.1989 1.74575 35.2138 1.71532L35.1816 1.71486C35.0904 1.71367 35.0156 1.80394 35.0144 1.91665C34.7583 2.80971 34.7719 3.7011 34.9891 4.59124C34.9882 4.70395 35.0612 4.79636 35.1525 4.7978L36.7873 4.82142C36.8464 4.82202 36.9012 4.78345 36.931 4.72033L35.3283 4.69719Z" fill="black"/>
<path d="M31.5262 4.59124C31.309 3.7011 31.2954 2.80971 31.5515 1.91665C31.5527 1.80394 31.6275 1.71367 31.7187 1.71486L33.3536 1.73846C33.4448 1.73991 33.5179 1.83232 33.5169 1.94503L33.4916 4.61962C33.4904 4.73233 33.4156 4.8226 33.3244 4.82141L31.6896 4.7978C31.5983 4.79636 31.5253 4.70395 31.5262 4.59124Z" fill="#F2F2F2"/>
<path opacity="0.2" d="M31.8654 4.69719C31.7742 4.69574 31.7012 4.60333 31.7021 4.49062C31.4849 3.60048 31.4713 2.70909 31.7274 1.81603C31.7279 1.78049 31.736 1.74575 31.7509 1.71532L31.7187 1.71486C31.6275 1.71367 31.5527 1.80394 31.5515 1.91665C31.2954 2.80971 31.309 3.7011 31.5262 4.59124C31.5253 4.70395 31.5983 4.79636 31.6896 4.7978L33.3244 4.82142C33.3835 4.82202 33.4384 4.78345 33.4681 4.72033L31.8654 4.69719Z" fill="black"/>
<path d="M28.7548 4.59124C28.5375 3.7011 28.5239 2.80971 28.7801 1.91665C28.7812 1.80394 28.856 1.71367 28.9473 1.71486L30.5821 1.73846C30.6733 1.73991 30.7464 1.83232 30.7454 1.94503L30.7201 4.61962C30.7189 4.73233 30.6441 4.8226 30.5529 4.82141L28.9181 4.7978C28.8269 4.79636 28.7538 4.70395 28.7548 4.59124Z" fill="#F2F2F2"/>
<path opacity="0.2" d="M29.094 4.69719C29.0027 4.69574 28.9297 4.60333 28.9306 4.49062C28.7134 3.60048 28.6998 2.70909 28.9559 1.81603C28.9565 1.78049 28.9646 1.74575 28.9794 1.71532L28.9472 1.71486C28.856 1.71367 28.7812 1.80394 28.7801 1.91665C28.5239 2.80971 28.5375 3.7011 28.7548 4.59124C28.7538 4.70395 28.8269 4.79636 28.9181 4.7978L30.5529 4.82142C30.612 4.82202 30.6669 4.78345 30.6966 4.72033L29.094 4.69719Z" fill="black"/>
<path d="M29.882 2.72018C30.0574 2.72018 30.1995 2.54454 30.1995 2.32787C30.1995 2.11119 30.0574 1.93555 29.882 1.93555C29.7066 1.93555 29.5645 2.11119 29.5645 2.32787C29.5645 2.54454 29.7066 2.72018 29.882 2.72018Z" fill="#3F3D56"/>
<path d="M32.5363 2.72018C32.7116 2.72018 32.8538 2.54454 32.8538 2.32787C32.8538 2.11119 32.7116 1.93555 32.5363 1.93555C32.3609 1.93555 32.2188 2.11119 32.2188 2.32787C32.2188 2.54454 32.3609 2.72018 32.5363 2.72018Z" fill="#3F3D56"/>
<path d="M35.8839 2.72018C36.0593 2.72018 36.2015 2.54454 36.2015 2.32787C36.2015 2.11119 36.0593 1.93555 35.8839 1.93555C35.7086 1.93555 35.5664 2.11119 35.5664 2.32787C35.5664 2.54454 35.7086 2.72018 35.8839 2.72018Z" fill="#3F3D56"/>
<path d="M7.38775 31.8061V36.6556C7.38775 36.9707 7.28444 37.2555 7.11754 37.462C7.00477 37.6014 6.81055 37.4964 6.81055 37.2992V31.1606C6.81055 30.9653 7.00277 30.8581 7.11501 30.9956L7.11762 30.9988C7.28385 31.2056 7.38775 31.4909 7.38775 31.8061Z" fill="#0071F2"/>
<path d="M70.3027 31.5678V36.4173C70.3027 36.7324 70.406 37.0173 70.5729 37.2237C70.6857 37.3632 70.8799 37.2581 70.8799 37.061V30.9223C70.8799 30.727 70.6877 30.6198 70.5755 30.7573L70.5729 30.7605C70.4066 30.9673 70.3027 31.2526 70.3027 31.5678Z" fill="#0071F2"/>
<path d="M58.0669 4.2793H50.1016V15.975H58.0669V4.2793Z" fill="#3F3D56"/>
<path d="M50.5625 15.4043H57.6043V4.84961H50.5625V15.4043Z" fill="white"/>
<path d="M54.0657 5.70508C53.5473 5.70508 53.0613 5.87908 52.6446 6.18146C52.0512 6.61221 51.5964 7.30397 51.3852 8.1298C51.3009 8.46071 51.2559 8.81157 51.2559 9.17671V14.5482H56.9124V5.70508H54.0657Z" fill="#3F3D56"/>
<path d="M55.5482 14.5444H52.2949C52.4525 13.9929 52.7884 13.5452 53.2175 13.3092C53.4326 13.1898 53.6708 13.123 53.9216 13.123C54.1022 13.123 54.277 13.1572 54.4404 13.2225C54.9569 13.4229 55.3687 13.9161 55.5482 14.5444Z" fill="#0071F2"/>
<path d="M51.7176 12.2656C51.5583 12.2656 51.4025 12.2927 51.2559 12.3426V14.5477H53.4446C53.4481 14.5006 53.4492 14.4536 53.4492 14.4051C53.4492 14.0043 53.3592 13.6277 53.2045 13.3083C52.9009 12.6835 52.3491 12.2656 51.7176 12.2656Z" fill="#0071F2"/>
<path d="M56.912 8.12569V6.27796C56.6244 6.01075 56.2655 5.85156 55.8767 5.85156C55.2774 5.85156 54.7493 6.22963 54.4399 6.80386C54.2765 6.73847 54.1017 6.70436 53.9211 6.70436C53.6703 6.70436 53.4322 6.77116 53.217 6.89056C53.2136 6.89244 53.2105 6.89491 53.2071 6.89681C53.206 6.89466 53.2051 6.89237 53.2041 6.89022C53.0644 6.60353 52.8728 6.35963 52.6442 6.18134C52.0509 6.61208 51.596 7.30384 51.3848 8.12968H52.2957C52.5862 9.09976 52.886 9.71777 53.1935 10.0465C52.5569 10.4139 52.3133 11.3897 52.6464 12.1564C53.3024 13.6659 53.8134 13.9793 54.2511 13.6889C54.1869 13.912 54.1511 14.1518 54.1511 14.402C54.1511 14.4503 54.1523 14.4972 54.1557 14.5441H56.912V12.6963C56.6244 12.4291 56.2655 12.27 55.8767 12.27C55.5625 12.27 55.2683 12.3746 55.0145 12.5563L55.02 12.5443C55.3756 11.7613 56.0384 11.2676 56.7651 11.2676H56.912V9.41983C56.6244 9.15261 56.2655 8.99342 55.8767 8.99342C55.5105 8.99342 55.1713 9.13508 54.892 9.37583L54.9032 9.35806C55.3872 8.58875 56.1234 8.12569 56.912 8.12569Z" fill="#0071F2"/>
<path d="M53.9104 6.41797H53.7949V14.5479H53.9104V6.41797Z" fill="#3F3D56"/>
<path d="M58.5485 76.5452L57.6728 76.5361L57.2852 72.2656L58.5776 72.2791L58.5485 76.5452Z" fill="#FFB6B6"/>
<path d="M55.7442 78.2662C55.7423 78.5325 55.916 78.7517 56.1323 78.7541L57.8734 78.7721L58.1782 78.0087L58.2901 78.776L58.947 78.7833L58.7811 76.0469L58.5526 76.0281L57.6203 75.9487L57.3196 75.9238L57.3143 76.6981L55.9157 77.8701C55.8093 77.9595 55.7452 78.1074 55.7442 78.2662Z" fill="#2F2E41"/>
<path d="M68.1266 76.5452L67.2509 76.5361L66.8633 72.2656L68.1557 72.2791L68.1266 76.5452Z" fill="#FFB6B6"/>
<path d="M65.3223 78.2662C65.3204 78.5325 65.4941 78.7517 65.7104 78.7541L67.4515 78.7721L67.7563 78.0087L67.8682 78.776L68.5252 78.7833L68.3593 76.0469L68.1307 76.0281L67.1985 75.9487L66.8977 75.9238L66.8924 76.6981L65.4938 77.8701C65.3874 77.9595 65.3233 78.1074 65.3223 78.2662Z" fill="#2F2E41"/>
<path d="M53.688 15.0091C54.0562 15.433 54.0218 16.1922 53.6164 16.5606L54.615 21.4945L53.5784 22.1713L52.427 16.3005C52.2248 15.9141 52.2536 15.3938 52.5215 15.0456C52.8355 14.6375 53.3577 14.6212 53.688 15.0091Z" fill="#FFB6B6"/>
<path d="M58.8205 42.8594H66.1246C66.1246 42.8594 68.3544 46.8985 67.8458 50.6686L66.7863 61.8218L69.0324 74.86L66.8711 75.1218L63.1416 61.8218L62.633 53.758L61.7007 62.4501L58.8205 74.7289L56.7422 74.7553L57.9712 62.3454L58.4809 50.6519C58.4809 50.6519 58.7923 49.8422 58.5301 49.5223C58.2679 49.2024 58.5688 48.6343 58.5688 48.6343C58.5688 48.6343 58.9705 47.8488 58.6192 47.4783C58.2679 47.1079 58.8205 42.8594 58.8205 42.8594Z" fill="#2F2E41"/>
<path d="M68.686 46.1655C68.686 46.1655 62.0747 43.9663 62.329 46.4797C62.4416 47.5923 58.7538 46.8892 57.6155 46.7237L58.7267 40.7722L56.884 46.6012C56.5484 46.5363 56.3398 46.486 56.3398 46.486L58.7691 39.149C58.7691 39.149 59.0234 32.0277 58.5021 30.2819C57.9808 28.5361 59.2776 27.8387 59.2776 27.8387C60.5586 26.6644 61.1702 25.5044 60.6262 24.3691L63.4309 24.6676L63.6852 26.3725L66.0703 27.8073L64.9081 36.3006C64.9081 36.3006 64.7569 36.5068 64.8567 36.6759C64.9566 36.845 64.9739 36.9797 64.7957 37.1218C64.6175 37.2639 64.7006 37.8169 64.7006 37.8169C64.7006 37.8169 64.7091 38.1588 64.8752 38.1826C65.0414 38.2064 64.9848 38.4121 64.9848 38.4121C64.9848 38.4121 64.9739 38.8272 65.1347 38.7263C65.2428 38.6585 67.642 44.3578 67.825 44.2668C68.008 44.1758 67.9449 44.848 68.1036 44.8784C68.2622 44.9088 68.2633 45.2302 68.3318 45.3814C68.5503 45.8636 68.686 46.1655 68.686 46.1655Z" fill="#0071F2"/>
<path d="M61.1961 30.7261L61.4844 27.4025L57.7236 26.2802L53.9467 17.6797L52.7601 18.308V19.7742C52.7601 19.7742 51.743 21.0309 55.1734 27.0094L56.1505 28.6758L61.4844 31.7706L61.1961 30.7261Z" fill="#0071F2"/>
<path d="M57.9645 10.9533C57.8392 11.5555 58.1992 12.1722 58.7014 12.2127L60.0114 17.0341L61.1799 16.9143L59.59 11.2019C59.5919 10.7418 59.3407 10.3226 58.9632 10.2076C58.5208 10.0728 58.0736 10.4067 57.9645 10.9533Z" fill="#FFB6B6"/>
<path d="M65.9952 29.0028C66.9535 28.2273 67.0713 26.548 66.2354 25.5803L62.2023 20.9113C62.2023 20.9113 62.3544 13.5974 60.7869 13.5796L60.4481 12.2715L58.625 13.3464L58.8466 14.4276C58.8466 14.4276 58.9659 18.9016 60.0369 20.2358C60.0563 22.1205 60.6955 22.62 60.6955 22.62L65.9952 29.0028Z" fill="#0071F2"/>
<path d="M62.3718 24.2389C63.699 24.2389 64.7748 22.9096 64.7748 21.2698C64.7748 19.6301 63.699 18.3008 62.3718 18.3008C61.0446 18.3008 59.9688 19.6301 59.9688 21.2698C59.9688 22.9096 61.0446 24.2389 62.3718 24.2389Z" fill="#FFB6B6"/>
<path d="M68.2109 29.3031C68.1936 29.7296 68.0285 30.139 67.7226 30.3344C67.6257 30.3943 67.5241 30.4399 67.419 30.4727C67.4155 30.43 67.4098 30.3886 67.404 30.3472C67.3082 29.6455 67.0704 28.9766 66.7229 28.4117C66.5578 28.1435 67.015 29.664 67.1304 30.5198C67.0254 30.2602 66.4909 28.5943 66.4562 28.5315C66.4562 28.5344 66.4585 28.543 66.4632 28.5615C66.6363 29.2076 66.7148 29.8922 66.7021 30.574C66.0326 31.7535 65.4496 32.0716 64.9128 31.939C65.0744 31.3998 65.0571 30.7751 64.8389 30.2645C64.7789 30.7666 64.5676 31.233 64.2652 31.5753C64.0112 31.3571 63.7642 31.0675 63.5183 30.7608C63.905 30.1861 64.1728 29.4914 64.2837 28.7569C64.4418 27.7285 64.2906 26.6317 63.8669 25.726C64.0713 27.5645 63.5021 29.4971 62.4181 30.7751C62.1619 30.7266 61.931 30.6011 61.8283 30.3187C61.7324 30.0534 61.7971 29.7396 61.9183 29.4914C62.0372 29.2432 61.6205 28.0437 61.7601 27.8127C62.3443 26.8513 62.8995 26.3892 62.2738 25.4692C61.9864 25.0456 61.5858 24.7204 61.4138 24.2098C61.1968 23.5665 61.4057 22.832 61.6574 22.2102C61.9102 21.5868 62.7518 21.8778 62.1884 21.8207C61.2199 21.7238 61.6424 20.7524 61.43 20.3474C61.3111 20.1206 61.0179 20.1577 60.7985 20.1548C60.7212 19.8339 60.6127 19.5229 60.4764 19.232C60.5111 19.5472 60.5238 19.8667 60.5145 20.1848C60.3391 20.2218 60.0539 20.5856 59.9027 20.7025L59.8473 20.7353C59.6337 20.5841 59.6654 20.3014 59.6643 19.9963C59.662 19.691 59.1863 19.3986 59.3179 19.1405C59.6677 18.4573 59.5552 18.0724 60.204 17.9683C60.8528 17.8642 61.4565 17.5604 61.9356 18.1109C62.3974 16.9699 64.1948 17.9768 64.6288 18.1922C65.0629 18.409 65.4127 18.8683 65.5604 19.416C65.9044 20.6854 65.7301 21.2702 66.3223 22.3898C66.8291 23.3483 67.546 22.8962 67.8819 23.963C68.0932 24.6363 67.8415 25.3808 67.6176 26.0469C67.3936 26.7144 66.9307 28.2334 67.5079 28.125C67.9997 28.0309 68.2387 28.6356 68.2109 29.3031Z" fill="#2F2E41"/>
<path d="M70.4793 76.5277C70.7178 76.5462 70.8496 76.1801 70.6692 75.9667L70.6513 75.8786C70.6536 75.8715 70.656 75.8644 70.6584 75.8574C70.8996 75.1468 71.717 75.1517 71.9561 75.8633C72.1683 76.4949 72.4386 77.1276 72.5051 77.7954C72.5349 78.0902 72.5215 78.3905 72.4686 78.6798C72.9659 77.3376 73.2276 75.8719 73.2276 74.3979C73.2276 74.0276 73.2112 73.6572 73.1776 73.2878C73.15 72.9856 73.112 72.6853 73.0628 72.3878C72.7966 70.7793 72.2203 69.2473 71.3889 67.9677C70.9893 67.6978 70.656 67.2758 70.4547 66.7701C70.3823 66.5877 70.3257 66.3915 70.2988 66.1916C70.3443 66.1989 70.4703 65.3431 70.436 65.2906C70.4994 65.1717 70.6129 65.1127 70.6821 64.9967C71.0264 64.42 71.5007 64.5207 71.7483 65.3044C72.2773 65.6343 72.2824 66.1813 71.9578 66.7074C71.7513 67.0422 71.723 67.4951 71.5418 67.8535C71.5604 67.8829 71.5798 67.9115 71.5984 67.941C71.9403 68.4827 72.2359 69.0649 72.4851 69.6766C72.4147 68.9968 72.5187 68.1778 72.696 67.6499C72.8978 67.0483 73.276 66.5417 73.6092 66.0217C74.0093 65.3971 74.8297 65.6697 74.9002 66.4615C74.9009 66.4692 74.9016 66.4768 74.9022 66.4845C74.8528 66.519 74.8043 66.5556 74.7569 66.5943C74.4869 66.815 74.5802 67.3323 74.9002 67.3933L74.9075 67.3947C74.8896 67.6149 74.859 67.8332 74.8143 68.0478C75.2416 70.0897 74.319 70.8334 73.0017 70.8668C72.9726 70.8852 72.9443 70.9037 72.9152 70.9212C73.0487 71.3855 73.1553 71.8617 73.2343 72.3445C73.3051 72.771 73.3543 73.2021 73.3819 73.6351C73.4162 74.1814 73.4133 74.7305 73.376 75.2758L73.3782 75.2565C73.4729 74.6558 73.7368 74.0948 74.1201 73.7061C74.691 73.1266 75.4976 72.9132 76.1135 72.4474C76.41 72.2232 76.79 72.513 76.7382 72.9377L76.7357 72.958C76.644 73.0041 76.5545 73.0575 76.468 73.1174C76.4185 73.1519 76.3701 73.1885 76.3227 73.2272C76.0527 73.4479 76.146 73.9652 76.466 74.0262L76.4732 74.0276C76.4785 74.0285 76.4829 74.0294 76.4882 74.0303C76.3308 74.4919 76.1116 74.9202 75.8372 75.2897C75.57 77.0721 74.4224 77.2412 73.1948 76.7222H73.194C73.0598 77.4444 72.8637 78.1501 72.6117 78.8226H70.5315C70.524 78.794 70.5173 78.7646 70.5106 78.736C70.7029 78.7507 70.8968 78.7369 71.0862 78.6936C70.9319 78.4596 70.7775 78.2238 70.6232 77.9898C70.6194 77.9852 70.6165 77.9806 70.6135 77.976C70.5352 77.8562 70.4562 77.7374 70.3779 77.6176L70.3778 77.6175C70.3729 77.2498 70.4087 76.8834 70.4793 76.5277Z" fill="#F2F2F2"/>
<path d="M47.2344 78.8299C47.2344 78.924 47.2956 78.9996 47.3718 78.9996H76.6116C76.6878 78.9996 76.749 78.924 76.749 78.8299C76.749 78.7358 76.6878 78.6602 76.6116 78.6602H47.3718C47.2956 78.6602 47.2344 78.7358 47.2344 78.8299Z" fill="#CCCCCC"/>
</g>
<defs>
<clipPath id="clip0_1549_558">
<rect width="80" height="79" fill="white"/>
</clipPath>
</defs>
</svg>
