<svg width="95" height="79" viewBox="0 0 95 79" fill="none" xmlns="http://www.w3.org/2000/svg">
<path d="M92.6647 68.8633H2.33594V68.9107H92.6647V68.8633Z" fill="#EBEBEB"/>
<path d="M83.6125 71.9297H77.6289V71.9771H83.6125V71.9297Z" fill="#EBEBEB"/>
<path d="M62.1738 72.4473H60.6035V72.4947H62.1738V72.4473Z" fill="#EBEBEB"/>
<path d="M77.4488 70.1602H73.9824V70.2076H77.4488V70.1602Z" fill="#EBEBEB"/>
<path d="M19.6154 70.4824H11.8125V70.5298H19.6154V70.4824Z" fill="#EBEBEB"/>
<path d="M22.368 70.4824H21.2246V70.5298H22.368V70.4824Z" fill="#EBEBEB"/>
<path d="M43.0116 71.2852H26.0879V71.3326H43.0116V71.2852Z" fill="#EBEBEB"/>
<path d="M45.1508 60.3695H10.2676C9.99437 60.3689 9.73258 60.2541 9.53961 60.0502C9.34665 59.8463 9.23828 59.5701 9.23828 59.2821V7.58484C9.24059 7.29855 9.35002 7.02479 9.54277 6.8231C9.73551 6.62142 9.99599 6.50811 10.2676 6.50781H45.1508C45.4243 6.50781 45.6867 6.62238 45.8801 6.82632C46.0736 7.03025 46.1822 7.30684 46.1822 7.59525V59.2821C46.1822 59.5705 46.0736 59.8471 45.8801 60.051C45.6867 60.2549 45.4243 60.3695 45.1508 60.3695ZM10.2676 6.54483C10.0056 6.54483 9.75444 6.65453 9.56923 6.84978C9.38403 7.04504 9.27998 7.30986 9.27998 7.58599V59.2821C9.27998 59.5582 9.38403 59.823 9.56923 60.0183C9.75444 60.2135 10.0056 60.3232 10.2676 60.3232H45.1508C45.4127 60.3232 45.6639 60.2135 45.8491 60.0183C46.0343 59.823 46.1384 59.5582 46.1384 59.2821V7.58484C46.1384 7.3087 46.0343 7.04388 45.8491 6.84862C45.6639 6.65337 45.4127 6.54367 45.1508 6.54367L10.2676 6.54483Z" fill="#EBEBEB"/>
<path d="M84.2294 60.3695H49.344C49.0705 60.3692 48.8083 60.2545 48.6149 60.0507C48.4216 59.8468 48.3128 59.5704 48.3125 59.2821V7.58484C48.3154 7.29833 48.4253 7.02458 48.6184 6.82296C48.8115 6.62134 49.0722 6.5081 49.344 6.50781H84.2294C84.5011 6.5078 84.7619 6.62098 84.9549 6.8227C85.1479 7.02442 85.2574 7.29835 85.2598 7.58484V59.2821C85.2599 59.4248 85.2333 59.5662 85.1816 59.6981C85.1299 59.83 85.054 59.9499 84.9584 60.0509C84.8627 60.1519 84.749 60.232 84.6239 60.2867C84.4989 60.3414 84.3648 60.3695 84.2294 60.3695ZM49.344 6.54483C49.082 6.54483 48.8309 6.65453 48.6456 6.84978C48.4604 7.04504 48.3564 7.30986 48.3564 7.58599V59.2821C48.3564 59.5582 48.4604 59.823 48.6456 60.0183C48.8309 60.2135 49.082 60.3232 49.344 60.3232H84.2294C84.4913 60.3232 84.7425 60.2135 84.9277 60.0183C85.1129 59.823 85.217 59.5582 85.217 59.2821V7.58484C85.217 7.3087 85.1129 7.04388 84.9277 6.84862C84.7425 6.65337 84.4913 6.54367 84.2294 6.54367L49.344 6.54483Z" fill="#EBEBEB"/>
<path d="M40.4122 15.5215H12.7031V68.8638H40.4122V15.5215Z" fill="#EBEBEB"/>
<path d="M36.3492 9H16.7656V12.5388H36.3492V9Z" fill="#FAFAFA"/>
<path d="M38.9872 16.8164H14.1289V68.863H38.9872V16.8164Z" fill="white"/>
<path d="M37.7983 40.1211H32.8495C32.7869 40.1208 32.7248 40.1335 32.6669 40.1585C32.6089 40.1836 32.5562 40.2204 32.5117 40.2669C32.4673 40.3135 32.432 40.3688 32.4079 40.4297C32.3837 40.4906 32.3712 40.556 32.3711 40.622C32.3711 40.7558 32.4215 40.8841 32.5112 40.9787C32.6009 41.0733 32.7226 41.1264 32.8495 41.1264H37.7983C37.9252 41.1264 38.0469 41.0733 38.1366 40.9787C38.2264 40.8841 38.2768 40.7558 38.2768 40.622C38.2756 40.4889 38.2247 40.3617 38.1352 40.2679C38.0456 40.1742 37.9246 40.1214 37.7983 40.1211Z" fill="#EBEBEB"/>
<path d="M23.6054 19.7012H17.8457V63.6521H23.6054V19.7012Z" fill="#EBEBEB"/>
<path d="M23.6054 25.916L17.8457 28.9516V36.3971L23.6054 33.3615V25.916Z" fill="#F5F5F5"/>
<path d="M23.6054 34.8789L17.8457 37.9156V40.7661L23.6054 37.7305V34.8789Z" fill="#F5F5F5"/>
<path d="M23.6054 50.3711L17.8457 53.4055V56.256L23.6054 53.2204V50.3711Z" fill="#F5F5F5"/>
<path d="M82.2977 12.5371H44.5527V54.7563H82.2977V12.5371Z" fill="#EBEBEB"/>
<path d="M82.0047 12.8672H44.8457V54.4316H82.0047V12.8672Z" fill="white"/>
<path d="M49.6015 33.893L49.1152 43.9434L61.2685 44.5969L61.7548 34.5466L49.6015 33.893Z" fill="#F0F0F0"/>
<path d="M73.8523 21.9239L61.7656 23.4141L62.8743 33.4094L74.961 31.9192L73.8523 21.9239Z" fill="#F0F0F0"/>
<path d="M71.5949 11.5H55.2561C54.5149 11.5 53.9141 12.1334 53.9141 12.9148V13.2792C53.9141 14.0606 54.5149 14.6941 55.2561 14.6941H71.5949C72.3361 14.6941 72.9369 14.0606 72.9369 13.2792V12.9148C72.9369 12.1334 72.3361 11.5 71.5949 11.5Z" fill="#E6E6E6"/>
<path d="M71.5174 12.6758H55.3344C54.8962 12.6758 54.541 13.0503 54.541 13.5122V13.5666C54.541 14.0285 54.8962 14.403 55.3344 14.403H71.5174C71.9555 14.403 72.3107 14.0285 72.3107 13.5666V13.5122C72.3107 13.0503 71.9555 12.6758 71.5174 12.6758Z" fill="white"/>
<path d="M64.0676 17.7461H48.1172V30.9376H64.0676V17.7461Z" fill="#E6E6E6"/>
<path d="M50.2558 19.3101C49.2331 19.2742 49.1245 19.907 49.5239 20.2899C49.9233 20.6728 53.8122 22.9692 53.946 23.6448C54.0799 24.3204 54.3312 25.328 54.7251 24.4673C55.1191 23.6066 55.8597 23.8368 56.1176 23.1091C56.2987 22.5839 54.4288 22.5377 53.8791 22.1258C52.2617 20.9308 50.8505 19.3332 50.2558 19.3101Z" fill="white"/>
<path d="M61.3067 29.371C61.7654 29.5005 61.8487 29.2622 61.4471 28.8816C61.0455 28.501 57.8337 26.5563 57.6154 25.0386C57.5166 24.3549 57.2313 23.353 56.8352 24.2137C56.439 25.0744 55.7028 24.8454 55.4438 25.573C55.2638 26.0971 57.1336 26.1445 57.6823 26.554C59.2953 27.7525 60.7262 29.209 61.3067 29.371Z" fill="white"/>
<path d="M56.4018 24.4718C56.7431 24.0738 56.2702 23.5 55.5635 23.8355C54.8568 24.171 55.4856 25.5534 56.4018 24.4718Z" fill="white"/>
<path d="M57.4239 24.5254C58.5475 25.9391 61.6935 28.2643 62.1423 28.4344C62.5911 28.6044 62.9532 29.3865 61.6452 28.4795C60.3372 27.5725 57.6203 25.4034 57.4283 25.0379C57.2363 24.6723 57.4239 24.5254 57.4239 24.5254Z" fill="white"/>
<path d="M77.9934 35.0273H62.043V48.2189H77.9934V35.0273Z" fill="#E6E6E6"/>
<path d="M71.6031 36.9808C70.2249 36.9415 70.9206 40.5277 71.1807 42.5337C71.4407 44.5396 71.8292 46.9135 73.9053 46.814C75.9814 46.7145 76.4664 45.2615 76.0439 43.2995C75.3954 40.2836 72.8409 37.012 71.6031 36.9808Z" fill="white"/>
<path d="M68.4322 36.9808C69.8082 36.9415 69.1125 40.5277 68.8547 42.5337C68.5968 44.5396 68.2061 46.9135 66.1301 46.814C64.054 46.7145 63.569 45.2615 63.9914 43.2995C64.6377 40.2836 67.1911 37.012 68.4322 36.9808Z" fill="white"/>
<path d="M71.4438 39.8658C71.3774 39.8654 71.3122 39.8475 71.254 39.8137C71.1871 39.7744 69.6289 38.8258 69.6289 36.4924C69.6342 36.3874 69.6775 36.2885 69.7499 36.2162C69.8222 36.1438 69.9182 36.1035 70.0179 36.1035C70.1176 36.1035 70.2136 36.1438 70.2859 36.2162C70.3583 36.2885 70.4016 36.3874 70.4069 36.4924C70.4069 38.3306 71.5865 39.0699 71.637 39.0999C71.7104 39.145 71.7677 39.2143 71.8001 39.2972C71.8325 39.38 71.8381 39.4718 71.8162 39.5583C71.7942 39.6449 71.7459 39.7214 71.6786 39.7761C71.6113 39.8308 71.5288 39.8607 71.4438 39.8612V39.8658Z" fill="white"/>
<path d="M68.5917 39.8662C68.5072 39.8646 68.4254 39.8341 68.3588 39.7793C68.2921 39.7244 68.2442 39.6482 68.2223 39.5621C68.2004 39.476 68.2056 39.3848 68.2372 39.3021C68.2688 39.2194 68.3251 39.1499 68.3975 39.1038C68.4534 39.0703 69.6286 38.3311 69.6286 36.4963C69.6339 36.3913 69.6772 36.2925 69.7496 36.2201C69.822 36.1478 69.9179 36.1074 70.0176 36.1074C70.1174 36.1074 70.2133 36.1478 70.2857 36.2201C70.358 36.2925 70.4013 36.3913 70.4066 36.4963C70.4066 38.8297 68.8474 39.7783 68.7804 39.8188C68.7223 39.8511 68.6574 39.8674 68.5917 39.8662Z" fill="white"/>
<path d="M73.045 44.6291C73.0434 44.8368 73.1004 45.0404 73.2088 45.2139C73.3171 45.3875 73.4719 45.5232 73.6535 45.604C73.8351 45.6847 74.0353 45.7068 74.2288 45.6674C74.4223 45.628 74.6004 45.529 74.7404 45.3828C74.8805 45.2366 74.9762 45.0499 75.0155 44.8463C75.0547 44.6427 75.0358 44.4314 74.961 44.2391C74.8863 44.0469 74.7591 43.8824 74.5955 43.7664C74.432 43.6505 74.2395 43.5884 74.0424 43.5879C73.7794 43.5873 73.5268 43.6964 73.3399 43.8915C73.153 44.0866 73.047 44.3518 73.045 44.6291Z" fill="#F5F5F5"/>
<path d="M67.7089 40.5426C67.54 41.0956 67.6168 41.6127 67.8779 41.6994C68.1391 41.7862 68.4869 41.4114 68.6548 40.8607C68.8227 40.3101 68.747 39.7906 68.4847 39.7039C68.2225 39.6171 67.8768 39.9919 67.7089 40.5426Z" fill="#F5F5F5"/>
<path d="M20.6289 71.4021L21.8557 58.1816L25.3221 59.1765L22.7818 71.4021L24.047 72.1864C23.4664 72.4186 22.8344 72.468 22.2276 72.3288C21.6209 72.1896 21.0655 71.8676 20.6289 71.4021Z" fill="#F9B499"/>
<path d="M28.3 59.0314L28.1211 71.4027C28.1211 71.4027 28.9397 72.7528 31.6072 72.2275L30.4693 71.4027L31.1453 63.5269L31.2945 58.2598L28.3 59.0314Z" fill="#F9B499"/>
<path d="M28.1699 16.599C28.1699 16.599 29.0576 16.3294 29.5437 14.9551C29.5642 15.4174 29.5359 15.8807 29.4593 16.3364C29.369 16.7475 29.3994 17.1778 29.5464 17.5704C29.6933 17.9629 29.95 18.2991 30.2822 18.5344C30.3195 18.5598 30.359 18.5853 30.4007 18.6096C30.4007 18.6096 29.4197 18.2926 28.7965 18.2926C28.6108 18.1114 28.3994 17.9619 28.1699 17.8495V16.599Z" fill="#2F2E41"/>
<path d="M22.7812 58.6956C22.7812 58.6956 26.4023 60.1706 31.7506 58.0883L29.7941 32.1367H25.8734L22.7812 58.6956Z" fill="#2F2E41"/>
<path d="M25.8735 32.1371C25.8735 32.1371 28.338 32.9273 29.7941 32.1371L29.2685 20.5548L28.902 19.0879L25.5662 20.0978L25.0176 27.5792L25.8735 32.1371Z" fill="#0071F2"/>
<path d="M28.7966 20.0972C28.7966 20.0972 29.7567 28.6475 29.8105 35.7355L31.1448 63.5265C31.1448 63.5265 33.5457 63.5831 34.5058 62.7953C34.5058 62.7953 33.5457 36.3544 31.9447 30.842L31.891 25.7218C31.891 25.7218 34.7725 29.942 35.5735 29.8286C35.5735 29.8286 35.7864 30.1664 36.6401 29.042L40.643 24.4851L38.9345 22.4595L36.053 25.4974L32.7457 20.0972C32.7457 20.0972 31.1975 18.3932 28.7955 18.2891H24.651L22.0734 18.8559C22.0734 18.8559 22.2062 29.9466 21.0595 37.4199L17.1641 61.554C17.1641 61.554 21.2724 63.1852 23.4066 63.0163C23.4066 63.0163 25.8086 41.5834 25.8086 34.6828C25.8086 34.6828 26.1224 24.9317 25.7856 21.0319C25.7856 21.0319 26.1839 20.1643 26.7468 20.6849C26.7468 20.6849 27.2153 21.276 27.4052 21.2194C27.4052 21.2194 27.8243 21.2194 28.1656 20.4096C28.17 20.4061 28.3906 19.7039 28.7966 20.0972Z" fill="#0071F2"/>
<path opacity="0.6" d="M28.7966 20.0972C28.7966 20.0972 29.7567 28.6475 29.8105 35.7355L31.1448 63.5265C31.1448 63.5265 33.5457 63.5831 34.5058 62.7953C34.5058 62.7953 33.5457 36.3544 31.9447 30.842L31.891 25.7218C31.891 25.7218 34.7725 29.942 35.5735 29.8286C35.5735 29.8286 35.7864 30.1664 36.6401 29.042L40.643 24.4851L38.9345 22.4595L36.053 25.4974L32.7457 20.0972C32.7457 20.0972 31.1975 18.3932 28.7955 18.2891H24.651L22.0734 18.8559C22.0734 18.8559 22.2062 29.9466 21.0595 37.4199L17.1641 61.554C17.1641 61.554 21.2724 63.1852 23.4066 63.0163C23.4066 63.0163 25.8086 41.5834 25.8086 34.6828C25.8086 34.6828 26.1224 24.9317 25.7856 21.0319C25.7856 21.0319 26.1839 20.1643 26.7468 20.6849C26.7468 20.6849 27.2153 21.276 27.4052 21.2194C27.4052 21.2194 27.8243 21.2194 28.1656 20.4096C28.17 20.4061 28.3906 19.7039 28.7966 20.0972Z" fill="#D5E7FD"/>
<path d="M60.2208 71.2904C60.2208 71.2904 55.1567 73.1414 56.2771 73.9338H63.5335L63.0167 70.8242L60.2208 71.2904Z" fill="#0071F2"/>
<path d="M69.2746 71.4154C69.2746 71.4154 64.2106 73.2664 65.332 74.06H72.5885L72.0717 70.9492L69.2746 71.4154Z" fill="#0071F2"/>
<path d="M63.0166 70.8252C62.9925 70.8796 62.5865 71.7414 61.6658 71.8536C60.833 71.9554 60.28 71.3573 60.2207 71.2914V69.5469H63.0166V70.8252Z" fill="#F9B499"/>
<path d="M72.0724 70.9475C72.0483 71.0019 71.6412 71.8637 70.7216 71.9759C69.8888 72.0777 69.3357 71.4797 69.2754 71.4137V68.5898H72.0724V70.9475Z" fill="#F9B499"/>
<path d="M59.4746 70.0053H63.3898L65.3166 46.2193L68.9213 69.4812L72.5885 69.546L71.0972 37.4238L60.0957 38.9462L59.4746 70.0053Z" fill="#0071F2"/>
<path d="M48.4238 30.5772L49.2282 33.6891L57.7597 30.8653L59.0764 28.6615C59.3403 31.8108 59.3403 34.9786 59.0764 38.128L57.7597 54.9023C57.7597 54.9023 60.6576 57.3814 63.7191 56.862L64.597 38.9366L68.1423 56.9314C68.1423 56.9314 73.2821 56.4571 74.2653 55.2458L71.4233 26.6L73.0626 18.9474C73.0626 18.9474 72.9529 17.897 71.7459 17.3209L67.1625 14.9575C67.1625 14.9575 63.2264 14.7851 59.4539 17.3787C59.4539 17.3787 57.978 17.5673 57.4864 19.8937L54.9747 27.6377L48.4238 30.5772Z" fill="#0071F2"/>
<path opacity="0.6" d="M48.4238 30.5772L49.2282 33.6891L57.7597 30.8653L59.0764 28.6615C59.3403 31.8108 59.3403 34.9786 59.0764 38.128L57.7597 54.9023C57.7597 54.9023 60.6576 57.3814 63.7191 56.862L64.597 38.9366L68.1423 56.9314C68.1423 56.9314 73.2821 56.4571 74.2653 55.2458L71.4233 26.6L73.0626 18.9474C73.0626 18.9474 72.9529 17.897 71.7459 17.3209L67.1625 14.9575C67.1625 14.9575 63.2264 14.7851 59.4539 17.3787C59.4539 17.3787 57.978 17.5673 57.4864 19.8937L54.9747 27.6377L48.4238 30.5772Z" fill="#D5E7FD"/>
<path d="M70.4754 20.4772L70.2275 20.4598C70.5566 15.1753 66.9663 14.686 66.9355 14.6814L66.9641 14.4199C66.997 14.4292 70.8211 14.9498 70.4754 20.4772Z" fill="#2F2E41"/>
<path d="M25.6312 14.4609L25.325 17.6839C25.3141 17.7979 25.3358 17.9128 25.3876 18.0136C25.6575 18.5411 26.5793 20.2475 27.4725 20.8201C27.4725 20.8201 28.2702 19.8738 28.1561 17.6434L28.1671 16.6023L25.6312 14.4609Z" fill="#F9B499"/>
<path d="M31.6423 22.8833H31.3932C31.3932 20.5765 28.9243 18.1899 28.9023 18.168L29.3665 18.2374C29.4587 18.3276 31.6423 20.462 31.6423 22.8833Z" fill="#2F2E41"/>
<path d="M22.5976 21.401L22.3496 21.3767C22.3573 21.2899 22.5471 19.2654 23.6905 18.377L23.8979 18.4533C22.8456 19.2735 22.6053 21.3824 22.5976 21.401Z" fill="#2F2E41"/>
<path d="M23.6454 27.6068C23.5537 27.6066 23.4621 27.6009 23.3711 27.5895L23.3897 27.4588C23.3996 27.4588 24.3532 27.5987 24.4464 27.0238L24.25 23.8714L24.374 23.8633L24.5693 27.0296V27.0365C24.498 27.527 23.9768 27.6068 23.6454 27.6068Z" fill="#E1E1E1"/>
<path d="M23.1178 27.9623C23.3317 27.9623 23.5052 27.8173 23.5052 27.6384C23.5052 27.4595 23.3317 27.3145 23.1178 27.3145C22.9039 27.3145 22.7305 27.4595 22.7305 27.6384C22.7305 27.8173 22.9039 27.9623 23.1178 27.9623Z" fill="#2F2E41"/>
<path d="M22.073 18.8574C22.073 18.8574 20.4621 18.8979 20.3381 21.3886L18.0536 29.6508C18.0536 29.6508 16.9738 32.8356 19.5404 32.4897L24.3137 30.3276L23.765 27.963L21.972 28.583C21.972 28.583 22.1739 24.5537 22.073 18.8574Z" fill="#0071F2"/>
<path opacity="0.6" d="M22.073 18.8574C22.073 18.8574 20.4621 18.8979 20.3381 21.3886L18.0536 29.6508C18.0536 29.6508 16.9738 32.8356 19.5404 32.4897L24.3137 30.3276L23.765 27.963L21.972 28.583C21.972 28.583 22.1739 24.5537 22.073 18.8574Z" fill="#D5E7FD"/>
<path opacity="0.1" d="M23.1176 30.8691C23.1176 30.8691 21.2621 39.0203 20.4688 41.0818C20.4688 41.0818 21.6758 33.9764 21.6911 31.5158L23.1176 30.8691Z" fill="black"/>
<path opacity="0.1" d="M21.9707 28.5819L22.0771 25.6875L22.4744 28.4072L21.9707 28.5819Z" fill="black"/>
<path d="M23.8223 28.2163C24.6118 28.0823 25.3848 27.8557 26.1266 27.5407C26.1266 27.5407 27.7418 27.1046 28.8007 27.6391C28.8007 27.6391 29.3933 28.1701 27.2711 28.2175C27.2711 28.2175 26.8925 28.6455 28.3761 28.5842L30.7221 28.59C30.7221 28.59 31.3673 29.1476 28.8007 29.3905C27.9132 29.6275 26.9774 29.5632 26.1266 29.2066L24.2316 29.9528L23.8223 28.2163Z" fill="#F9B499"/>
<path d="M38.9336 22.4595L39.4899 21.5432C39.5474 20.5551 39.9593 19.627 40.6421 18.9473V23.1987C40.6421 23.1987 40.6136 23.3595 40.1692 23.378L39.9497 23.6603L38.9336 22.4595Z" fill="#F9B499"/>
<path d="M52.4122 11.8047H40.6426V27.1908H52.4122V11.8047Z" fill="#0071F2"/>
<path d="M49.7785 24.0256C50.7979 24.2997 51.9435 24.818 51.7032 22.694C51.5177 21.0548 49.7818 16.9017 48.6669 16.3938C47.5521 15.886 47.0868 16.1544 46.9113 17.8642C46.7335 19.6827 46.48 23.1371 49.7785 24.0256Z" fill="#2F2E41"/>
<path d="M49.4188 19.8983L49.9444 19.7549C49.7853 19.1047 49.4791 18.8294 49.2509 18.7137C49.0952 18.6317 48.9199 18.6002 48.7472 18.6235C48.1514 18.6651 47.662 18.4118 47.2933 17.8669C47.0324 17.4635 46.8599 17.0039 46.7885 16.5215L46.252 16.599C46.3355 17.1727 46.5414 17.719 46.8544 18.1966C47.3361 18.9081 48.0098 19.2516 48.801 19.1903H48.8317C48.8877 19.1788 49.241 19.1684 49.4188 19.8983Z" fill="#E6E6E6"/>
<path d="M47.8322 18.6364C47.8267 19.2296 48.0008 19.8091 48.3292 20.2907C48.3764 20.3601 48.4861 20.2907 48.439 20.2236C48.1227 19.7619 47.9543 19.2059 47.9583 18.6364C47.9563 18.6203 47.9488 18.6055 47.9372 18.5948C47.9256 18.584 47.9107 18.5781 47.8953 18.5781C47.8798 18.5781 47.8649 18.584 47.8533 18.5948C47.8417 18.6055 47.8342 18.6203 47.8322 18.6364Z" fill="#E6E6E6"/>
<path d="M48.008 19.5347C48.5263 19.7277 48.9893 20.0572 49.3528 20.4919C49.7163 20.9266 49.9685 21.4521 50.0852 22.0184C50.1017 22.1029 50.2246 22.067 50.2081 21.9826C50.0852 21.3941 49.8217 20.8485 49.4426 20.3976C49.0635 19.9468 48.5814 19.6055 48.042 19.4062C47.9641 19.3785 47.9323 19.5069 48.008 19.5347Z" fill="#E6E6E6"/>
<path d="M49.1727 20.2498C48.856 20.9508 48.7368 21.7329 48.8293 22.5033C48.8392 22.5877 48.9664 22.5889 48.9555 22.5033C48.8631 21.7568 48.9754 20.9981 49.2792 20.3168C49.3143 20.2393 49.2046 20.1711 49.1694 20.2498H49.1727Z" fill="#E6E6E6"/>
<path d="M43.2743 24.0256C42.2549 24.2997 41.1104 24.818 41.3507 22.694C41.5361 21.0548 43.2721 16.9017 44.3858 16.3938C45.4996 15.886 45.967 16.1544 46.1415 17.8642C46.3204 19.6827 46.5739 23.1371 43.2743 24.0256Z" fill="#2F2E41"/>
<path d="M43.5627 19.7564C43.6066 19.3874 44.0817 19.178 44.2825 19.1896C44.3154 19.1896 44.3495 19.1896 44.3824 19.1896C45.9735 19.1896 46.6154 17.5422 46.7438 16.5496C46.825 15.918 46.7493 14.1029 46.7438 14.0254L46.2017 14.0508C46.2017 14.0694 46.2796 15.8925 46.2017 16.4721C46.1732 16.7035 45.8725 18.6817 44.3001 18.6158C44.0319 18.619 43.7704 18.7041 43.5473 18.861C43.4071 18.9481 43.287 19.067 43.1957 19.209C43.1044 19.3511 43.0442 19.5128 43.0195 19.6824L43.5627 19.7564Z" fill="#E6E6E6"/>
<path d="M45.1933 18.6374C45.1973 19.2069 45.029 19.7629 44.7127 20.2246C44.6655 20.294 44.7753 20.3611 44.8224 20.2917C45.1499 19.8096 45.3236 19.2303 45.3184 18.6374C45.3184 18.6196 45.3117 18.6025 45.2998 18.59C45.2878 18.5774 45.2717 18.5703 45.2548 18.5703C45.2379 18.5703 45.2217 18.5774 45.2098 18.59C45.1978 18.6025 45.1911 18.6196 45.1911 18.6374H45.1933Z" fill="#E6E6E6"/>
<path d="M45.1091 19.4069C44.5698 19.6055 44.0877 19.9463 43.7085 20.3969C43.3294 20.8474 43.0659 21.3927 42.9431 21.9809C42.9255 22.0653 43.0528 22.0966 43.0649 22.0167C43.1816 21.4504 43.4337 20.925 43.7973 20.4902C44.1608 20.0555 44.6237 19.726 45.1421 19.533C45.2189 19.5052 45.186 19.3757 45.1091 19.4046V19.4069Z" fill="#E6E6E6"/>
<path d="M43.8689 20.3168C44.1726 20.9981 44.285 21.7568 44.1926 22.5033C44.1816 22.5889 44.3089 22.5877 44.3188 22.5033C44.412 21.7332 44.2935 20.951 43.9775 20.2498C43.9435 20.1711 43.8338 20.2393 43.8678 20.3168H43.8689Z" fill="#E6E6E6"/>
<path d="M49.2795 17.72C48.6308 17.8454 48.0231 18.1432 47.514 18.5853C47.4503 18.6397 47.5403 18.7334 47.6039 18.679C48.099 18.2525 48.6895 17.9669 49.319 17.8495C49.3991 17.8345 49.3651 17.7049 49.285 17.72H49.2795Z" fill="#E6E6E6"/>
<path d="M45.3788 18.4427C45.026 18.0233 44.5449 17.7474 44.0192 17.663C43.9391 17.6503 43.9095 17.7787 43.9852 17.7914C44.4896 17.8704 44.9512 18.1347 45.2888 18.5376C45.3426 18.6024 45.4326 18.5075 45.3788 18.4427Z" fill="#E6E6E6"/>
<path d="M64.2656 30.6926L68.3114 18.9472L67.0539 18.4844L68.7481 17.4305C68.7481 17.4305 68.3662 15.1249 66.9441 14.5488C66.9441 14.5488 67.4368 15.8214 67.1636 16.8868C66.8564 17.5373 66.6349 18.2289 66.5052 18.9425C66.5052 18.9425 64.4291 26.9456 64.2656 30.6926Z" fill="#0071F2"/>
<path opacity="0.1" d="M64.2656 30.6926L68.3114 18.9472L67.0539 18.4844L68.7481 17.4305C68.7481 17.4305 68.3662 15.1249 66.9441 14.5488C66.9441 14.5488 67.4368 15.8214 67.1636 16.8868C66.8564 17.5373 66.6349 18.2289 66.5052 18.9425C66.5052 18.9425 64.4291 26.9456 64.2656 30.6926Z" fill="black"/>
<path d="M63.0083 18.6323L61.7508 18.2852C61.7508 18.2852 61.1495 16.735 63.3968 14.9512C63.3968 14.9512 63.0138 25.674 64.2746 30.6843C64.2746 30.6843 61.9231 20.9309 61.978 19.4386L63.0083 18.6323Z" fill="#0071F2"/>
<path opacity="0.1" d="M63.0083 18.6323L61.7508 18.2852C61.7508 18.2852 61.1495 16.735 63.3968 14.9512C63.3968 14.9512 63.0138 25.674 64.2746 30.6843C64.2746 30.6843 61.9231 20.9309 61.978 19.4386L63.0083 18.6323Z" fill="black"/>
<path d="M63.342 17.3131L64.0092 16.619L64.6072 16.7868L65.7615 16.25L65.7177 16.892L66.7579 18.0778C66.7579 18.0778 64.436 26.7611 64.2648 30.6875C64.2648 30.6944 63.2334 28.3495 63.342 17.3131Z" fill="#0071F2"/>
<path d="M64.5726 17.134L64.2402 28.3477L64.3027 28.3497L64.6352 17.1361L64.5726 17.134Z" fill="#2F2E41"/>
<path opacity="0.1" d="M64.1793 18.2086C64.2902 18.2086 64.3801 18.1138 64.3801 17.9969C64.3801 17.8799 64.2902 17.7852 64.1793 17.7852C64.0684 17.7852 63.9785 17.8799 63.9785 17.9969C63.9785 18.1138 64.0684 18.2086 64.1793 18.2086Z" fill="black"/>
<path opacity="0.1" d="M63.9801 20.105C64.091 20.105 64.1809 20.0103 64.1809 19.8933C64.1809 19.7764 64.091 19.6816 63.9801 19.6816C63.8692 19.6816 63.7793 19.7764 63.7793 19.8933C63.7793 20.0103 63.8692 20.105 63.9801 20.105Z" fill="black"/>
<path opacity="0.1" d="M63.9801 22.0035C64.091 22.0035 64.1809 21.9087 64.1809 21.7918C64.1809 21.6749 64.091 21.5801 63.9801 21.5801C63.8692 21.5801 63.7793 21.6749 63.7793 21.7918C63.7793 21.9087 63.8692 22.0035 63.9801 22.0035Z" fill="black"/>
<path d="M66.7582 10.8921L66.9436 14.5535C66.4268 16.5202 64.6075 16.7897 64.6075 16.7897L63.5332 14.8231L63.7823 14.0306L66.1964 10.6758L66.7582 10.8921Z" fill="#F9B499"/>
<path d="M59.2251 24.0493C59.2251 23.9788 59.0792 16.966 63.588 14.6465V14.938C59.2273 17.1811 59.4731 23.9684 59.4731 24.0378L59.2251 24.0493Z" fill="#2F2E41"/>
<path d="M59.3978 25.8453C59.8699 25.8453 60.2526 25.4419 60.2526 24.9442C60.2526 24.4464 59.8699 24.043 59.3978 24.043C58.9257 24.043 58.543 24.4464 58.543 24.9442C58.543 25.4419 58.9257 25.8453 59.3978 25.8453Z" fill="#D1D3D4"/>
<path opacity="0.1" d="M59.3963 25.4197C59.6454 25.4197 59.8473 25.2068 59.8473 24.9442C59.8473 24.6816 59.6454 24.4688 59.3963 24.4688C59.1472 24.4688 58.9453 24.6816 58.9453 24.9442C58.9453 25.2068 59.1472 25.4197 59.3963 25.4197Z" fill="black"/>
<path d="M48.424 30.5781C48.424 30.5781 47.003 30.5932 45.8727 31.0559C45.8727 31.0559 44.1972 31.0559 44.7678 31.5857C44.7678 31.5857 45.4645 32.0161 46.3753 31.5857C46.3753 31.5857 45.0684 33.3731 43.7747 34.1308C43.7747 34.1308 43.1525 34.4952 43.7747 34.7601C43.7747 34.7601 43.1646 35.1905 43.4982 35.4542C43.4982 35.4542 43.7999 36.0836 44.4594 35.4542C44.4594 35.4542 44.5055 36.1483 45.1266 35.7342L45.6215 35.2888C45.6215 35.2888 45.831 35.9505 46.5267 35.3883C46.5267 35.3883 48.5216 34.3194 48.8629 32.2717L48.424 30.5781Z" fill="#F9B499"/>
<path d="M66.6373 40.5391L65.5488 32.2699L76.7929 30.4062L77.8364 38.6754L66.6373 40.5391Z" fill="#2F2E41"/>
<path d="M68.7429 27.0247C68.7297 27.0247 67.4602 26.747 67.5238 25.8435L68.1152 22.8184L68.1756 22.8322L67.5852 25.8528C67.526 26.6938 68.7429 26.9576 68.755 26.961L68.7429 27.0247Z" fill="#E1E1E1"/>
<path d="M62.7782 17.8957L64.0094 16.6231L64.6074 16.7909L63.5331 14.8242C63.5331 14.8242 62.4259 15.641 62.7782 17.8957Z" fill="#2F2E41"/>
<path d="M64.918 16.718C64.918 16.718 66.5321 16.0135 66.9447 14.5547C67.2697 15.2845 67.3472 16.1099 67.1641 16.8927L66.7603 18.0819L65.7201 16.8961L64.918 16.718Z" fill="#2F2E41"/>
<path d="M68.8768 27.3407C69.0719 27.3407 69.2301 27.1739 69.2301 26.9682C69.2301 26.7625 69.0719 26.5957 68.8768 26.5957C68.6816 26.5957 68.5234 26.7625 68.5234 26.9682C68.5234 27.1739 68.6816 27.3407 68.8768 27.3407Z" fill="#2F2E41"/>
<path d="M70.3729 27.5106C70.568 27.5106 70.7262 27.3439 70.7262 27.1381C70.7262 26.9324 70.568 26.7656 70.3729 26.7656C70.1777 26.7656 70.0195 26.9324 70.0195 27.1381C70.0195 27.3439 70.1777 27.5106 70.3729 27.5106Z" fill="#2F2E41"/>
<path d="M21.3459 27.7044C21.1648 27.7044 20.7566 27.6743 20.4988 27.4314C20.4296 27.3649 20.3743 27.284 20.3365 27.1938C20.2987 27.1035 20.2792 27.006 20.2793 26.9073L20.4922 23.8613L20.6162 23.8717L20.4033 26.9096C20.4041 26.9896 20.4206 27.0685 20.4517 27.1413C20.4829 27.2142 20.5281 27.2795 20.5843 27.333C20.8762 27.6095 21.4249 27.5713 21.4304 27.5644L21.4391 27.6951C21.4082 27.7 21.3771 27.7031 21.3459 27.7044Z" fill="#E1E1E1"/>
<path d="M21.819 27.9467C22.0329 27.9467 22.2063 27.8016 22.2063 27.6227C22.2063 27.4439 22.0329 27.2988 21.819 27.2988C21.6051 27.2988 21.4316 27.4439 21.4316 27.6227C21.4316 27.8016 21.6051 27.9467 21.819 27.9467Z" fill="#2F2E41"/>
<path d="M25.3255 17.6836C25.3255 17.6836 24.6298 17.8305 24.5146 18.7849C24.5023 18.8812 24.5136 18.9792 24.5475 19.0695L25.5186 21.6724C25.5186 21.6724 26.0255 20.0806 26.7465 20.6879C26.7465 20.6879 27.192 21.3439 27.4048 21.3161C27.4048 21.3161 27.734 21.4595 28.173 20.5595C28.173 20.5595 28.4528 19.8284 28.7995 20.2506L29.5468 20.8198C29.5468 20.8198 29.4941 18.269 28.173 17.8467C28.173 17.8467 28.2915 19.7705 27.4784 20.8198C27.4784 20.8198 26.6521 20.4855 25.3935 18.0133C25.3333 17.9159 25.3091 17.7986 25.3255 17.6836Z" fill="#0071F2"/>
<path opacity="0.1" d="M25.3255 17.6836C25.3255 17.6836 24.6298 17.8305 24.5146 18.7849C24.5023 18.8812 24.5136 18.9792 24.5475 19.0695L25.5186 21.6724C25.5186 21.6724 26.0255 20.0806 26.7465 20.6879C26.7465 20.6879 27.192 21.3439 27.4048 21.3161C27.4048 21.3161 27.734 21.4595 28.173 20.5595C28.173 20.5595 28.4528 19.8284 28.7995 20.2506L29.5468 20.8198C29.5468 20.8198 29.4941 18.269 28.173 17.8467C28.173 17.8467 28.2915 19.7705 27.4784 20.8198C27.4784 20.8198 26.6521 20.4855 25.3935 18.0133C25.3333 17.9159 25.3091 17.7986 25.3255 17.6836Z" fill="black"/>
<path d="M24.3132 23.998C24.2841 23.9981 24.2559 23.9874 24.2336 23.9677C24.2113 23.948 24.1963 23.9206 24.1914 23.8904C23.7668 21.4726 22.7342 21.5188 22.7232 21.5223H22.6947C22.5101 21.4885 22.3209 21.4953 22.1389 21.542C21.9569 21.5888 21.786 21.6746 21.6369 21.7942C20.8545 22.4235 20.6768 23.8696 20.6746 23.8846C20.6729 23.9019 20.668 23.9186 20.6601 23.9339C20.6523 23.9491 20.6416 23.9625 20.6287 23.9733C20.6158 23.9841 20.6009 23.992 20.5851 23.9967C20.5692 24.0013 20.5526 24.0025 20.5363 24.0003C20.5034 23.9962 20.4735 23.9786 20.4529 23.9513C20.4323 23.924 20.4229 23.8892 20.4266 23.8545C20.4343 23.7909 20.6175 22.2858 21.4844 21.5883C21.6571 21.448 21.8553 21.3465 22.0666 21.29C22.278 21.2335 22.4981 21.2232 22.7133 21.2597C22.8714 21.2597 23.9873 21.306 24.4317 23.843C24.4375 23.8771 24.4303 23.9123 24.4116 23.9409C24.3929 23.9695 24.3642 23.9892 24.3319 23.9957C24.3258 23.9972 24.3195 23.9979 24.3132 23.998Z" fill="#2F2E41"/>
<path d="M31.6489 24.549C32.1022 24.549 32.4697 24.1616 32.4697 23.6837C32.4697 23.2058 32.1022 22.8184 31.6489 22.8184C31.1956 22.8184 30.8281 23.2058 30.8281 23.6837C30.8281 24.1616 31.1956 24.549 31.6489 24.549Z" fill="#D1D3D4"/>
<path opacity="0.1" d="M31.648 24.1942C31.9152 24.1942 32.1319 23.9658 32.1319 23.684C32.1319 23.4022 31.9152 23.1738 31.648 23.1738C31.3807 23.1738 31.1641 23.4022 31.1641 23.684C31.1641 23.9658 31.3807 24.1942 31.648 24.1942Z" fill="black"/>
<path d="M20.6299 71.4023C20.6299 71.4023 19.7575 73.8028 20.6299 74.0272H26.5553C26.5899 74.0276 26.6237 74.0166 26.6519 73.9956C26.6802 73.9747 26.7015 73.9448 26.7128 73.9104C26.724 73.876 26.7248 73.8387 26.7148 73.8038C26.7049 73.7689 26.6848 73.7382 26.6574 73.716C26.3392 73.4534 25.6281 72.9884 24.048 72.1902C24.048 72.1867 22.323 73.052 20.6299 71.4023Z" fill="#2F2E41"/>
<path d="M28.1225 71.3145C28.1225 71.3145 27.1876 73.8028 28.0589 74.0273H33.9843C34.0186 74.027 34.0519 74.0155 34.0797 73.9945C34.1075 73.9734 34.1284 73.9438 34.1396 73.9097C34.1508 73.8755 34.1517 73.8386 34.1421 73.804C34.1326 73.7693 34.1131 73.7386 34.0864 73.7161C33.7681 73.4535 33.1899 73.022 31.6098 72.2272C31.6032 72.2272 29.9276 72.7883 28.1225 71.3145Z" fill="#2F2E41"/>
<path d="M28.1697 17.8465V16.5983C28.1697 16.5983 27.0559 16.2512 26.3438 15.3535C26.3438 15.3535 26.3613 17.2184 28.1697 17.8465Z" fill="#F7A48B"/>
<path d="M27.6571 16.6927C28.8376 16.6927 29.7946 15.2207 29.7946 13.4049C29.7946 11.5892 28.8376 10.1172 27.6571 10.1172C26.4765 10.1172 25.5195 11.5892 25.5195 13.4049C25.5195 15.2207 26.4765 16.6927 27.6571 16.6927Z" fill="#F9B499"/>
<path d="M20.3391 21.3916C20.3391 21.3916 18.3244 19.3324 19.9078 16.9493C20.0988 16.6712 20.3198 16.4173 20.5662 16.1927C21.1324 15.664 22.6127 14.1868 22.9561 12.9165C22.9561 12.9165 23.7791 9.21462 27.0326 9.14983C27.0326 9.14983 29.9196 8.60264 30.105 10.663C30.105 10.663 30.2345 12.7881 29.8033 13.8513C29.8033 13.8513 30.0041 12.2317 29.0626 10.9175C29.0626 10.9175 28.7005 13.3874 27.2038 13.5389C27.2038 13.5389 28.334 12.7881 28.334 11.7898C28.334 11.7898 27.2674 13.0623 26.0593 13.0831C26.0593 13.0831 25.9375 12.6586 25.5776 12.6111C25.5776 12.6111 25.3845 13.6696 25.6401 14.4621L25.334 17.6851C25.334 17.6851 24.7711 17.9453 24.6591 18.2912L22.0739 18.8569C22.0739 18.8569 20.4773 18.8859 20.3391 21.3916Z" fill="#2F2E41"/>
<path d="M25.5687 14.4669C25.8741 14.4669 26.1217 14.0515 26.1217 13.5391C26.1217 13.0267 25.8741 12.6113 25.5687 12.6113C25.2632 12.6113 25.0156 13.0267 25.0156 13.5391C25.0156 14.0515 25.2632 14.4669 25.5687 14.4669Z" fill="#F9B499"/>
<path d="M63.7821 14.0279L63.5879 14.6468V14.9383C63.5879 14.9383 65.0144 14.9811 65.518 12.8652L63.7821 14.0279Z" fill="#F7A48B"/>
<path d="M63.7832 14.0275C65.1261 14.0275 66.2148 12.2934 66.2148 10.1544C66.2148 8.01531 65.1261 6.28125 63.7832 6.28125C62.4402 6.28125 61.3516 8.01531 61.3516 10.1544C61.3516 12.2934 62.4402 14.0275 63.7832 14.0275Z" fill="#F9B499"/>
<path d="M60.9466 6.28271C60.9466 6.28271 59.9667 6.67372 60.6087 7.77851C60.6087 7.77851 61.9935 8.98857 64.4251 7.03003C64.5597 7.32603 64.7612 7.5827 65.0118 7.77753C65.2624 7.97236 65.5545 8.09941 65.8625 8.14755C65.8625 8.14755 66.1917 9.26853 66.2027 9.7116L67.2353 8.98163C67.2353 8.98163 67.7345 6.03399 66.2148 5.96226C66.2148 5.96226 66.2828 4.7522 64.56 5.21494C64.56 5.21494 63.1412 5.71354 61.9935 5.32137C61.9935 5.32137 61.1496 4.46646 60.7776 5.32137C60.7776 5.32137 60.7096 5.64181 60.9466 6.28271Z" fill="#2F2E41"/>
<path d="M67.3098 10.0917C67.4857 9.52111 67.3798 8.9734 67.0732 8.86831C66.7666 8.76322 66.3754 9.14054 66.1994 9.71108C66.0235 10.2816 66.1294 10.8293 66.436 10.9344C66.7426 11.0395 67.1338 10.6622 67.3098 10.0917Z" fill="#F9B499"/>
<path d="M43.7754 34.7623C44.2462 34.4149 44.6976 34.039 45.1273 33.6367" stroke="#F7A48B" stroke-miterlimit="10"/>
<path d="M43.6797 35.3989C43.7631 35.5146 44.6179 34.5984 45.2159 34.2051" stroke="#F7A48B" stroke-miterlimit="10"/>
<path d="M44.459 35.4579C44.459 35.4579 44.5468 35.6892 45.7757 34.1992" stroke="#F7A48B" stroke-miterlimit="10"/>
<path d="M46.5264 34.418C46.5264 34.418 46.3135 34.7454 45.6211 35.2925" stroke="#F7A48B" stroke-miterlimit="10"/>
<path d="M72.5883 37.3008C72.5828 37.4038 72.5421 37.5012 72.4737 37.575C72.4053 37.6488 72.3139 37.694 72.2164 37.7022C72.2164 37.7022 70.9193 38.0273 71.3155 39.95C71.3155 39.95 71.513 40.2507 71.8202 39.95C71.8202 39.95 71.7105 41.1774 72.0836 41.1542C72.0836 41.1542 72.4556 41.2237 72.5883 41.0617C72.5883 41.0617 72.8528 41.3856 73.227 41.0617C73.227 41.0617 73.5189 41.3393 73.7679 41.0386C73.7679 41.0386 74.3693 41.3393 74.5448 41.0386L74.7259 39.0465C74.7259 39.0465 74.8356 38.2968 74.4834 37.841L74.5053 37.4072L72.5883 37.3008Z" fill="#F9B499"/>
<path d="M72.5879 41.0621V39.2539" stroke="#F7A48B" stroke-miterlimit="10"/>
<path d="M73.2266 41.0621V39.2539" stroke="#F7A48B" stroke-miterlimit="10"/>
<path d="M73.7686 41.0389L73.6621 39.2539" stroke="#F7A48B" stroke-miterlimit="10"/>
<path d="M71.8203 39.9514L72.2406 38.6777" stroke="#F7A48B" stroke-miterlimit="10"/>
<path d="M72.1278 37.2752L74.7921 37.4233C74.7921 37.4233 76.5093 30.8883 76.0232 29.1125L73.0671 18.9473L71.4277 26.5998L73.01 30.6927L72.1278 37.2752Z" fill="#0071F2"/>
<path opacity="0.6" d="M72.1278 37.2752L74.7921 37.4233C74.7921 37.4233 76.5093 30.8883 76.0232 29.1125L73.0671 18.9473L71.4277 26.5998L73.01 30.6927L72.1278 37.2752Z" fill="#D5E7FD"/>
<path d="M70.8769 27.1708C70.7397 27.1708 70.6421 27.1627 70.6289 27.1616V27.0968C70.6421 27.0968 71.882 27.1997 71.9566 26.6468L72.0927 23.3301H72.1553L72.0181 26.6502C71.961 27.1083 71.261 27.1708 70.8769 27.1708Z" fill="#E1E1E1"/>
<path d="M72.0034 23.3364C71.9573 22.0638 71.5403 21.3697 71.2001 21.0065C71.0263 20.8251 70.8076 20.6987 70.569 20.6419C70.3304 20.585 70.0814 20.5999 69.8504 20.6849C68.6818 21.1152 68.2692 22.8378 68.2659 22.8551L68.0234 22.7926C68.041 22.7163 68.4733 20.9139 69.7681 20.4361C70.0436 20.3356 70.3402 20.3185 70.6244 20.3868C70.9085 20.4551 71.1688 20.6061 71.3757 20.8225C71.7488 21.2147 72.2031 21.969 72.2535 23.3271L72.0034 23.3364Z" fill="#2F2E41"/>
</svg>
