<svg width="89" height="80" viewBox="0 0 89 80" fill="none" xmlns="http://www.w3.org/2000/svg">
<path d="M11.4625 71.17C18.3089 76.0997 30.5452 77.8218 35.6657 78.0818C49.5889 78.7918 67.0391 79.5626 79.0328 69.8627C86.0869 64.1505 79.775 47.4368 78.8467 41.5126C77.9184 35.5883 87.5724 36.6474 82.5599 22.8952C77.5473 9.14307 60.6522 1.31868 48.0294 1.52955C35.4066 1.74041 35.0345 11.4732 26.1227 15.7046C17.211 19.936 13.684 14.6503 7.18701 23.7445C0.690063 32.8388 10.528 46.1692 12.0186 50.4007C12.841 52.7284 9.30675 55.328 8.37127 57.0231C4.83187 63.4101 7.0102 67.9707 11.4625 71.17Z" fill="#0071F2"/>
<path opacity="0.8" d="M11.4625 71.17C18.3089 76.0997 30.5452 77.8218 35.6657 78.0818C49.5889 78.7918 67.0391 79.5626 79.0328 69.8627C86.0869 64.1505 79.775 47.4368 78.8467 41.5126C77.9184 35.5883 87.5724 36.6474 82.5599 22.8952C77.5473 9.14307 60.6522 1.31868 48.0294 1.52955C35.4066 1.74041 35.0345 11.4732 26.1227 15.7046C17.211 19.936 13.684 14.6503 7.18701 23.7445C0.690063 32.8388 10.528 46.1692 12.0186 50.4007C12.841 52.7284 9.30675 55.328 8.37127 57.0231C4.83187 63.4101 7.0102 67.9707 11.4625 71.17Z" fill="white"/>
<path d="M6.80664 64.7973C7.36279 67.3617 9.08777 69.4703 11.4717 71.1807C18.3182 76.1104 30.5544 77.8324 35.6749 78.0925C49.5981 78.8024 67.0484 79.5733 79.042 69.8733C80.584 68.6269 81.4825 66.8603 81.9431 64.7949L6.80664 64.7973Z" fill="#0071F2"/>
<path opacity="0.6" d="M6.80664 64.7973C7.36279 67.3617 9.08777 69.4703 11.4717 71.1807C18.3182 76.1104 30.5544 77.8324 35.6749 78.0925C49.5981 78.8024 67.0484 79.5733 79.042 69.8733C80.584 68.6269 81.4825 66.8603 81.9431 64.7949L6.80664 64.7973Z" fill="white"/>
<path d="M18.5598 55.9297H14.2422V58.0091H18.5598V55.9297Z" fill="#EBEBEB"/>
<path d="M16.1516 58.5527H11.834V60.6321H16.1516V58.5527Z" fill="#EBEBEB"/>
<path d="M57.4914 42.6875H53.1738V44.7669H57.4914V42.6875Z" fill="#EBEBEB"/>
<path d="M55.0832 45.3105H50.7656V47.3899H55.0832V45.3105Z" fill="#EBEBEB"/>
<path d="M83.1418 58.5527H78.8242V60.6321H83.1418V58.5527Z" fill="#EBEBEB"/>
<path d="M80.7336 17.957H76.416V20.0364H80.7336V17.957Z" fill="#EBEBEB"/>
<path d="M83.1418 20.5781H78.8242V22.6575H83.1418V20.5781Z" fill="#EBEBEB"/>
<path d="M52.675 42.6875H48.3574V44.7669H52.675V42.6875Z" fill="#EBEBEB"/>
<path d="M18.5598 17.957H14.2422V20.0364H18.5598V17.957Z" fill="#EBEBEB"/>
<path d="M76.3801 16.2836H54.9062V5.45898H76.3801V16.2836ZM55.5601 15.5397H75.7273V6.20171H55.559L55.5601 15.5397Z" fill="#EBEBEB"/>
<path d="M65.7162 6.11328H65.0645V15.6293H65.7162V6.11328Z" fill="#EBEBEB"/>
<path d="M49.3211 63.1358C48.9727 62.7457 48.5214 62.2747 47.9847 62.4434C47.4821 62.6016 47.2898 63.226 47.2004 63.7461C47.0842 64.4162 46.9948 65.0933 46.9012 65.7693C46.8077 66.4453 46.7183 67.1341 46.6319 67.8171C46.5836 68.2025 46.5363 68.5879 46.488 68.9733L46.417 69.5521C46.3944 69.7418 46.3667 69.9304 46.3574 70.1214C46.3585 70.1356 46.3643 70.1488 46.3737 70.1582C46.3831 70.1675 46.3953 70.1724 46.4078 70.1718C46.4174 70.171 46.4267 70.1669 46.4342 70.16C46.4417 70.1531 46.4472 70.1437 46.4499 70.1331C46.5147 69.8121 46.5414 69.4771 46.5826 69.1502C46.6237 68.8234 46.6658 68.4942 46.708 68.165C46.7923 67.5137 46.8779 66.8619 46.965 66.2098C47.052 65.5577 47.1408 64.9059 47.2312 64.2546C47.3093 63.7028 47.3453 63.0163 47.775 62.652C47.8912 62.5599 48.0262 62.5036 48.167 62.4884C48.3078 62.4733 48.4497 62.4997 48.5789 62.5653C48.8616 62.6883 49.0868 62.9167 49.3088 63.151C49.3181 63.1604 49.3283 63.144 49.3211 63.1358Z" fill="#BCBEC0"/>
<path d="M48.8447 62.7366C48.8447 62.7366 48.1251 62.4437 47.7787 63.0376C47.4323 63.6316 47.8476 65.1463 51.0961 65.9921C51.0014 64.8346 50.7374 63.7033 50.3148 62.6452C49.6178 60.9172 48.377 61.5698 48.8447 62.7366Z" fill="#D1D3D4"/>
<path d="M50.9098 65.7459C50.8607 65.6419 50.8061 65.5414 50.7464 65.4449C50.6919 65.35 50.6374 65.2551 50.5809 65.1602C50.5397 65.0887 50.4966 65.0184 50.4544 64.9482C50.4533 64.9303 50.4554 64.9124 50.4606 64.8954C50.4666 64.8638 50.47 64.8317 50.4709 64.7994C50.4791 64.7303 50.4883 64.6611 50.4976 64.5908C50.5068 64.5206 50.5161 64.4538 50.5274 64.3847C50.5356 64.3106 50.55 64.2376 50.5706 64.1668C50.5706 64.1562 50.5572 64.1504 50.5562 64.1668C50.5486 64.2064 50.539 64.2456 50.5274 64.2839C50.5192 64.3144 50.512 64.346 50.5058 64.3765C50.4894 64.4468 50.475 64.5182 50.4606 64.5885C50.4462 64.6588 50.4369 64.7197 50.4277 64.7853C50.4225 64.8169 50.4184 64.8486 50.4143 64.8802C50.3568 64.7853 50.2982 64.6928 50.2365 64.6014C50.0638 64.3425 49.8818 64.093 49.6927 63.8493C49.7101 63.4604 49.7019 63.0749 49.777 62.6919C49.777 62.6813 49.7657 62.6755 49.7636 62.6919C49.6781 63.0526 49.6373 63.4253 49.6423 63.7989L49.4367 63.5424C49.2784 63.3479 49.117 63.1581 48.9525 62.9707C48.9453 62.9636 48.935 62.9707 48.9422 62.9824C49.2157 63.3186 49.4758 63.6677 49.7286 64.0238C49.5303 64.0201 49.332 64.0287 49.1345 64.0496C48.9145 64.0672 48.6955 64.1 48.4765 64.134C48.4673 64.134 48.4704 64.1527 48.4765 64.1504C48.6957 64.1144 48.9163 64.0914 49.1375 64.0812C49.3493 64.0707 49.5601 64.0812 49.7718 64.0812C49.9089 64.2734 50.0442 64.4686 50.1779 64.667H50.0011C49.8983 64.667 49.8037 64.6764 49.705 64.6857C49.5035 64.7044 49.3032 64.7385 49.1057 64.7877C49.0964 64.7877 49.0985 64.8064 49.1057 64.8041C49.3051 64.7795 49.5045 64.7572 49.706 64.749H50.1429C50.1703 64.7524 50.1979 64.7492 50.2241 64.7396L50.4863 65.1286C50.5552 65.2317 50.623 65.3359 50.6919 65.4413C50.7608 65.5468 50.8214 65.6663 50.8975 65.767C50.9001 65.7693 50.9034 65.7705 50.9067 65.7705C50.9101 65.7705 50.9133 65.7693 50.916 65.767C50.9181 65.7643 50.9192 65.7607 50.9192 65.7571C50.9192 65.7534 50.9181 65.7499 50.916 65.7471L50.9098 65.7459Z" fill="#BCBEC0"/>
<path d="M49.1552 63.5777C49.0401 63.5601 48.9239 63.5535 48.8078 63.558C48.6916 63.558 48.5755 63.558 48.4603 63.5672C48.4584 63.5672 48.4566 63.5681 48.4552 63.5696C48.4539 63.5711 48.4531 63.5732 48.4531 63.5753C48.4531 63.5775 48.4539 63.5795 48.4552 63.5811C48.4566 63.5826 48.4584 63.5834 48.4603 63.5834C48.5785 63.573 48.6957 63.5707 48.814 63.573C48.9322 63.5753 49.0411 63.5869 49.1552 63.5834C49.1583 63.5834 49.1594 63.5777 49.1552 63.5777Z" fill="#BCBEC0"/>
<path d="M50.1754 63.8749C50.1888 63.7495 50.2022 63.6218 50.2258 63.4977C50.2268 63.4964 50.2274 63.4947 50.2274 63.493C50.2274 63.4912 50.2268 63.4896 50.2258 63.4883H50.2155C50.1981 63.6125 50.1775 63.7366 50.1611 63.8608C50.1528 63.9229 50.1456 63.985 50.1384 64.0483C50.1288 64.1066 50.1244 64.1658 50.1251 64.2251C50.1255 64.2266 50.1262 64.228 50.1272 64.2291C50.1281 64.2303 50.1292 64.2312 50.1305 64.2319C50.1317 64.2325 50.133 64.2329 50.1344 64.2329C50.1358 64.233 50.1372 64.2327 50.1384 64.2322C50.1399 64.2317 50.1412 64.2308 50.1423 64.2295C50.1434 64.2283 50.1442 64.2268 50.1446 64.2251C50.1547 64.1669 50.1602 64.1077 50.1611 64.0483C50.1662 63.9955 50.1662 63.9358 50.1754 63.8749Z" fill="#BCBEC0"/>
<path d="M49.9605 62.4738C49.9317 62.598 49.904 62.7221 49.8844 62.8475C49.8742 62.9108 49.8649 62.9752 49.8577 63.0385C49.8478 63.1003 49.844 63.1631 49.8464 63.2259H49.8577C49.8709 63.1675 49.8795 63.1079 49.8834 63.0478C49.8906 62.9869 49.8988 62.9248 49.9081 62.8639C49.9276 62.735 49.9482 62.6073 49.9759 62.4797C49.978 62.4691 49.9605 62.4644 49.9605 62.4738Z" fill="#BCBEC0"/>
<path d="M45.7303 69.984C45.7132 69.7497 45.6937 69.5154 45.6717 69.2811C45.6286 68.8196 45.5796 68.3592 45.5247 67.9C45.4713 67.4419 45.4219 66.9827 45.3551 66.5258C45.3312 66.314 45.2896 66.1053 45.2307 65.9026C45.21 65.8153 45.1719 65.7346 45.1193 65.667C45.0666 65.5993 45.001 65.5464 44.9275 65.5125C44.545 65.3613 44.287 65.8135 44.1328 66.1334C44.1328 66.1427 44.141 66.1497 44.1462 66.1415C44.2387 65.9893 44.4936 65.5652 44.7835 65.5851C44.9789 65.598 45.1351 65.755 45.2287 66.3102C45.462 67.6914 45.6728 70.4948 45.6964 70.6787C45.7098 70.776 45.7704 70.7713 45.7704 70.667C45.7714 70.4409 45.7457 70.2113 45.7303 69.984Z" fill="#BCBEC0"/>
<path d="M44.2404 65.972C44.2404 65.972 44.5745 64.6272 43.8364 65.2996C42.6028 66.4242 42.5586 68.8527 42.5586 68.8527C42.5586 68.8527 44.7451 67.4059 45.0165 66.4524C45.4205 65.0255 44.2404 65.972 44.2404 65.972Z" fill="#D1D3D4"/>
<path d="M44.6518 66.6247C44.4801 66.6646 44.3064 66.6903 44.1378 66.7196L43.8921 66.7583C43.8366 66.7676 43.7811 66.7735 43.7245 66.7817C43.888 66.5252 44.0514 66.2709 44.2077 66.0097C44.2138 66.0003 44.2005 65.9898 44.1933 65.998C44.064 66.1504 43.9422 66.3107 43.8283 66.4783C43.7965 66.374 43.7636 66.2698 43.7317 66.1667C43.6908 66.0478 43.6565 65.9261 43.6289 65.8023C43.6299 65.8011 43.6305 65.7994 43.6305 65.7977C43.6305 65.7959 43.6299 65.7943 43.6289 65.793H43.6186M43.6186 65.793C43.6484 65.9101 43.669 66.0413 43.6978 66.1655C43.7254 66.285 43.7597 66.4024 43.8006 66.5169C43.7204 66.6341 43.6433 66.7513 43.5693 66.8801C43.5312 66.763 43.485 66.6458 43.4511 66.5169C43.4511 66.5076 43.4346 66.5169 43.4377 66.5169C43.4768 66.654 43.4973 66.7958 43.5343 66.9328C43.484 67.016 43.4315 67.1004 43.3863 67.1847C43.2979 67.3393 43.2146 67.4975 43.1334 67.6533C43.1271 67.6564 43.1219 67.6617 43.1184 67.6685C43.1149 67.6752 43.1133 67.683 43.1139 67.6908C42.9761 67.9626 42.8445 68.239 42.715 68.5179C42.7143 68.5186 42.7138 68.5195 42.7134 68.5205C42.7131 68.5216 42.7129 68.5226 42.7129 68.5237C42.7129 68.5248 42.7131 68.5259 42.7134 68.5269C42.7138 68.5279 42.7143 68.5288 42.715 68.5296C42.7157 68.5303 42.7165 68.531 42.7174 68.5314C42.7183 68.5318 42.7192 68.532 42.7202 68.532C42.7211 68.532 42.7221 68.5318 42.7229 68.5314C42.7238 68.531 42.7246 68.5303 42.7253 68.5296C42.8548 68.2543 42.9987 67.986 43.1488 67.7224C43.17 67.7201 43.1914 67.7201 43.2126 67.7224L43.2886 67.7048C43.3452 67.6908 43.4007 67.6732 43.4572 67.658C43.5683 67.6264 43.6772 67.5971 43.7903 67.5748C43.7996 67.5748 43.7903 67.5561 43.7903 67.5584C43.6577 67.5877 43.5251 67.6041 43.3914 67.6217C43.3287 67.6299 43.265 67.6392 43.2023 67.651H43.193C43.2722 67.5151 43.3513 67.3803 43.4326 67.2468C43.5138 67.1132 43.5929 66.9855 43.6752 66.8567C43.7512 66.8438 43.8263 66.8215 43.9013 66.8051L44.1552 66.7489C44.3249 66.7103 44.4924 66.6681 44.6631 66.6318C44.6631 66.6318 44.6579 66.6189 44.6507 66.62L43.6186 65.793Z" fill="#BCBEC0"/>
<path d="M43.3359 66.7593L43.3061 66.6515C43.2869 66.5773 43.2705 66.5023 43.2568 66.4266C43.2568 66.416 43.2403 66.4266 43.2424 66.4266C43.2568 66.5027 43.2722 66.5777 43.2876 66.6538C43.3017 66.7299 43.3206 66.8046 43.3441 66.8776C43.3453 66.8812 43.3477 66.8843 43.3507 66.886C43.3538 66.8877 43.3573 66.8881 43.3606 66.887C43.3621 66.8864 43.3636 66.8855 43.3648 66.8844C43.3661 66.8832 43.3671 66.8817 43.3679 66.8801C43.3687 66.8785 43.3691 66.8767 43.3693 66.8749C43.3694 66.873 43.3693 66.8712 43.3688 66.8694C43.3606 66.8342 43.3472 66.7921 43.3359 66.7593Z" fill="#BCBEC0"/>
<path d="M44.8718 66.3147C44.769 66.3311 44.6724 66.3393 44.5717 66.3498C44.4709 66.3603 44.3712 66.3756 44.2715 66.392M44.2715 66.4025C44.3743 66.3943 44.4719 66.3861 44.5717 66.3709C44.6714 66.3557 44.7773 66.3393 44.8729 66.3311C44.8821 66.3311 44.8811 66.3123 44.8729 66.3147L44.2715 66.4025Z" fill="#BCBEC0"/>
<path d="M47.3379 68.2825C47.2989 67.2926 47.2444 66.3039 47.157 65.3175C47.1138 64.8266 47.0645 64.3357 47.0038 63.8472C46.9504 63.3671 46.8672 62.8918 46.755 62.425C46.6801 62.0617 46.5401 61.7199 46.3438 61.4211C46.2465 61.2759 46.1183 61.1613 45.9714 61.0881C45.8245 61.015 45.6636 60.9856 45.504 61.0029C45.1236 61.0567 44.8173 61.3297 44.5531 61.6261C44.256 61.9588 43.9836 62.322 43.7081 62.6804L43.5025 62.9522C43.4963 62.9604 43.5025 62.9721 43.5127 62.9639C43.7821 62.6125 44.0617 62.2692 44.3536 61.9424C44.624 61.6401 44.9026 61.3098 45.2788 61.1844C45.4528 61.1213 45.6391 61.1164 45.8155 61.1704C45.9556 61.2209 46.0817 61.3122 46.1814 61.4351C46.3808 61.6982 46.5218 62.012 46.5926 62.3501C46.826 63.2603 46.9103 64.2139 46.9966 65.1534C47.083 66.093 47.1447 67.0653 47.1868 68.0248C47.229 68.9842 47.2618 69.9531 47.3431 70.9137C47.3533 71.0308 47.3667 71.148 47.3801 71.2651C47.3883 71.3448 47.4973 71.3448 47.4911 71.2651C47.4171 70.2705 47.377 69.2771 47.3379 68.2825Z" fill="#BCBEC0"/>
<path d="M44.5015 61.7369C44.5015 61.7369 44.998 60.6907 44.411 60.3545C43.824 60.0183 41.8636 62.5147 41.291 66.1639C41.291 66.1639 44.4593 64.566 45.5346 62.974C46.6099 61.3819 45.3907 61.034 44.5015 61.7369Z" fill="#D1D3D4"/>
<path d="M44.9678 62.5838C44.6122 62.5838 44.2565 62.5533 43.9008 62.5557L44.1012 62.2944C44.2006 62.1785 44.2937 62.0556 44.3798 61.9266C44.385 61.9184 44.3737 61.9055 44.3665 61.9125C44.2696 62.0073 44.1795 62.1107 44.0971 62.2218C44.0077 62.3296 43.9193 62.4374 43.8309 62.5463C43.6941 62.715 43.5595 62.8849 43.4289 63.0559V62.3811C43.4289 62.1023 43.4289 61.8212 43.4474 61.5435C43.4474 61.5318 43.4341 61.533 43.433 61.5435C43.4156 61.8235 43.3909 62.1023 43.3786 62.3823C43.3724 62.5194 43.3693 62.6576 43.3683 62.7958V63.125L43.3056 63.2035C43.0218 63.5737 42.7515 63.9568 42.4832 64.3469C42.4842 64.325 42.4842 64.3031 42.4832 64.2813C42.4811 64.2381 42.477 64.1951 42.4708 64.1524C42.4616 64.0599 42.4503 63.9673 42.439 63.8748C42.4277 63.7822 42.4153 63.7002 42.402 63.6135C42.3886 63.5268 42.367 63.4179 42.3598 63.3183C42.3598 63.3066 42.3434 63.3089 42.3464 63.3183C42.3612 63.4164 42.3708 63.5154 42.3752 63.6147C42.3835 63.7037 42.3906 63.7939 42.3978 63.883C42.405 63.972 42.4112 64.061 42.4194 64.1513C42.4211 64.1944 42.4249 64.2374 42.4307 64.2801C42.4295 64.3019 42.4319 64.3238 42.4379 64.3445C42.44 64.3624 42.4452 64.3795 42.4534 64.3949L42.3177 64.5964C42.1378 64.8682 41.962 65.1412 41.7852 65.4165C41.7852 65.4247 41.7852 65.4364 41.7954 65.4282C41.963 65.1798 42.1347 64.9362 42.3094 64.6948C42.439 64.6948 42.5726 64.6948 42.7032 64.6878C42.8337 64.6808 42.9776 64.6878 43.1144 64.6878C43.1236 64.6878 43.1226 64.6714 43.1144 64.6714H42.7032C42.5777 64.6714 42.4503 64.6644 42.3249 64.6714C42.478 64.4594 42.6333 64.2485 42.7885 64.0376L42.9581 63.8033C43.011 63.8103 43.0645 63.8103 43.1174 63.8033H43.6561C43.8977 63.8033 44.1393 63.7904 44.3819 63.7893C44.3911 63.7893 44.3901 63.7729 44.3819 63.7729C44.1403 63.7729 43.8977 63.7576 43.6561 63.7506C43.5389 63.7506 43.4217 63.7424 43.3045 63.7412H43.0085L43.4084 63.2023C43.4115 63.2001 43.414 63.1968 43.4156 63.193C43.5451 63.0184 43.6746 62.8415 43.8062 62.6705L43.8607 62.6002C44.2297 62.6131 44.5988 62.585 44.9678 62.5932C44.9781 62.6014 44.9771 62.5838 44.9678 62.5838Z" fill="#BCBEC0"/>
<path d="M44.785 63.3008H44.6987C44.6978 63.3023 44.6973 63.3041 44.6973 63.306C44.6973 63.3078 44.6978 63.3097 44.6987 63.3112H44.785C44.7953 63.3181 44.7943 63.3008 44.785 63.3008Z" fill="#BCBEC0"/>
<path d="M44.5933 63.3032C44.4792 63.3032 44.365 63.3032 44.2509 63.2951H44.0793C44.0264 63.287 43.9728 63.287 43.9199 63.2951V63.3067C43.9724 63.3184 44.0259 63.3227 44.0793 63.3194H44.5933C44.6025 63.3206 44.6025 63.3044 44.5933 63.3032Z" fill="#BCBEC0"/>
<path d="M43.5976 64.5219C43.3659 64.4771 43.1315 64.4528 42.8965 64.4492L43.5976 64.5219ZM42.8965 64.4551C43.1298 64.4808 43.3622 64.4949 43.5935 64.5371C43.6027 64.5371 43.6068 64.523 43.5935 64.5219L42.8965 64.4551Z" fill="#BCBEC0"/>
<path d="M42.6441 63.3607C42.6453 63.3373 42.6429 63.3139 42.6369 63.2916C42.6307 63.2389 42.6235 63.1873 42.6163 63.1346C42.603 63.0362 42.5875 62.9366 42.5711 62.8382C42.5711 62.8288 42.5557 62.8312 42.5567 62.8382C42.568 62.9401 42.5772 63.0421 42.5855 63.1451C42.5855 63.1955 42.5927 63.2459 42.5968 63.2963C42.5957 63.3448 42.602 63.3931 42.6153 63.4392C42.6176 63.4436 42.6214 63.4469 42.6259 63.4482C42.6303 63.4495 42.635 63.4488 42.6389 63.4462L42.6451 63.4392C42.6499 63.4133 42.6495 63.3864 42.6441 63.3607Z" fill="#BCBEC0"/>
<path d="M47.3088 60.3903C47.1947 60.156 47.0508 59.8315 46.7681 59.8525C46.5337 59.8689 46.4289 60.1407 46.3785 60.3657C46.2243 61.0603 46.214 61.7925 46.1832 62.5048C46.1205 64.0102 46.0629 65.5167 46.0547 67.0232V68.2767C46.0547 68.702 46.0547 69.1308 46.0814 69.556C46.0822 69.5601 46.0836 69.564 46.0856 69.5674C46.0877 69.5709 46.0903 69.5738 46.0934 69.5761C46.0964 69.5784 46.0999 69.58 46.1034 69.5807C46.107 69.5815 46.1107 69.5815 46.1143 69.5806C46.1197 69.5797 46.1248 69.5768 46.1287 69.5724C46.1325 69.5679 46.1351 69.5622 46.1359 69.556C46.1359 69.1928 46.1266 68.8273 46.1256 68.463C46.1246 68.0987 46.1256 67.7519 46.1318 67.3969C46.1421 66.6769 46.1589 65.9568 46.1822 65.2367C46.2058 64.5209 46.2336 63.8063 46.2593 63.0905C46.2723 62.7321 46.286 62.3748 46.3004 62.0186C46.3137 61.6672 46.3271 61.3251 46.3621 60.9807C46.3816 60.7886 46.4063 60.5953 46.4422 60.4055C46.4596 60.264 46.51 60.1305 46.5882 60.0189C46.6422 59.9588 46.7131 59.9225 46.7884 59.9163C46.8636 59.9101 46.9384 59.9344 46.9994 59.9849C47.1283 60.0907 47.2296 60.2345 47.2924 60.4008C47.3006 60.409 47.313 60.3996 47.3088 60.3903Z" fill="#BCBEC0"/>
<path d="M47.2303 60.2756C47.2303 60.2756 46.998 59.3384 47.512 59.807C48.3683 60.5872 48.3992 62.2824 48.3992 62.2824C48.3992 62.2824 46.8767 61.2749 46.6876 60.6095C46.4059 59.6196 47.2303 60.2756 47.2303 60.2756Z" fill="#D1D3D4"/>
<path d="M48.0797 61.5878C48.0663 61.562 48.0509 61.5363 48.0365 61.5105C48.0386 61.484 48.0386 61.4573 48.0365 61.4308V61.3137C48.0353 61.2355 48.0377 61.1573 48.0437 61.0794C48.0437 61.0772 48.043 61.0751 48.0416 61.0736C48.0403 61.072 48.0384 61.0712 48.0365 61.0712C48.0346 61.0712 48.0328 61.072 48.0314 61.0736C48.0301 61.0751 48.0293 61.0772 48.0293 61.0794C48.0293 61.1567 48.0232 61.234 48.0211 61.3137V61.48C47.9615 61.3746 47.9008 61.2703 47.8371 61.1672C47.8186 61.1368 47.7991 61.1087 47.7806 61.0782C47.7711 60.9766 47.7694 60.8743 47.7754 60.7724C47.7754 60.6635 47.7754 60.5557 47.7816 60.4468C47.7816 60.4446 47.7808 60.4425 47.7795 60.441C47.7781 60.4394 47.7763 60.4386 47.7744 60.4386C47.7725 60.4386 47.7707 60.4394 47.7693 60.441C47.768 60.4425 47.7672 60.4446 47.7672 60.4468C47.7672 60.5639 47.759 60.6729 47.7538 60.7865C47.7538 60.8646 47.7538 60.9454 47.7538 61.029C47.6068 60.7947 47.4454 60.5815 47.2923 60.3624C47.2917 60.3616 47.2909 60.3609 47.2901 60.3604C47.2892 60.3598 47.2883 60.3595 47.2873 60.3594C47.2864 60.3593 47.2854 60.3594 47.2845 60.3597C47.2836 60.36 47.2827 60.3606 47.282 60.3613C47.2812 60.3619 47.2806 60.3628 47.2802 60.3638C47.2797 60.3647 47.2794 60.3658 47.2793 60.3669C47.2792 60.368 47.2793 60.3691 47.2796 60.3701C47.2799 60.3711 47.2803 60.3721 47.281 60.373C47.3838 60.5135 47.4732 60.6588 47.5647 60.8052C47.3858 60.7572 47.2039 60.7303 47.0209 60.6998C47.019 60.6998 47.0171 60.7007 47.0158 60.7022C47.0144 60.7038 47.0137 60.7058 47.0137 60.708C47.0137 60.7102 47.0144 60.7123 47.0158 60.7138C47.0171 60.7154 47.019 60.7162 47.0209 60.7162C47.2131 60.749 47.4023 60.8041 47.5935 60.8521L47.8104 61.2036L47.8967 61.3476H47.8885L47.8289 61.3383L47.7024 61.3254C47.6151 61.3172 47.5266 61.3125 47.4393 61.3066C47.43 61.3066 47.43 61.323 47.4393 61.3242C47.5259 61.3256 47.6123 61.3323 47.6983 61.3441L47.834 61.3629L47.8936 61.3711H47.9049L48.0509 61.6171C48.1373 61.7624 48.2144 61.917 48.3059 62.0576C48.3059 62.0658 48.3213 62.0576 48.3182 62.0482C48.2465 61.8897 48.1669 61.7359 48.0797 61.5878Z" fill="#BCBEC0"/>
<path d="M47.6984 60.5304V60.4202C47.6965 60.342 47.6993 60.2637 47.7067 60.1859C47.7067 60.1838 47.7059 60.1817 47.7046 60.1801C47.7032 60.1786 47.7014 60.1777 47.6995 60.1777C47.6976 60.1777 47.6957 60.1786 47.6944 60.1801C47.693 60.1817 47.6923 60.1838 47.6923 60.1859C47.6923 60.2621 47.6851 60.3371 47.682 60.4132V60.5831C47.6789 60.6009 47.6789 60.6192 47.682 60.637C47.682 60.6388 47.6826 60.6406 47.6838 60.6419C47.685 60.6433 47.6865 60.644 47.6882 60.644C47.6898 60.644 47.6914 60.6433 47.6925 60.6419C47.6937 60.6406 47.6943 60.6388 47.6943 60.637C47.6964 60.6202 47.6964 60.6033 47.6943 60.5866L47.6984 60.5304Z" fill="#BCBEC0"/>
<path d="M47.5126 60.9166C47.4554 60.9061 47.3977 60.8995 47.3399 60.897C47.2771 60.8912 47.2144 60.8843 47.1517 60.875C47.1498 60.875 47.148 60.8759 47.1466 60.8774C47.1453 60.8789 47.1445 60.881 47.1445 60.8831C47.1445 60.8852 47.1453 60.8873 47.1466 60.8888C47.148 60.8903 47.1498 60.8912 47.1517 60.8912C47.272 60.9005 47.3913 60.9247 47.5115 60.9294C47.5177 60.9328 47.5187 60.9166 47.5126 60.9166Z" fill="#BCBEC0"/>
<path d="M47.9906 60.9236V61.1169C47.9875 61.1359 47.9875 61.1554 47.9906 61.1743M47.9968 61.1743C47.9988 61.1655 47.9988 61.1562 47.9968 61.1474V60.9553C47.9947 60.9433 47.9947 60.9309 47.9968 60.9189C48.0122 60.9072 47.9803 60.9072 47.9906 60.9189L47.9968 61.1743Z" fill="#BCBEC0"/>
<path d="M47.3428 65.3855C47.0231 65.1113 46.7353 64.7177 46.3046 64.6978C45.9489 64.6826 45.7001 64.9872 45.5572 65.3269C45.4854 65.5072 45.4273 65.6941 45.3835 65.8857C45.319 66.1426 45.2584 66.4004 45.2015 66.6589C45.0905 67.1673 44.9959 67.6816 44.9168 68.1982C44.8736 68.4864 44.8335 68.7758 44.8016 69.0651C44.7602 69.359 44.7351 69.6556 44.7266 69.9531C44.7264 69.9592 44.7274 69.9652 44.7293 69.9708C44.7313 69.9764 44.7343 69.9815 44.738 69.9858C44.7418 69.9901 44.7462 69.9934 44.7512 69.9957C44.7561 69.9979 44.7614 69.999 44.7667 69.9988C44.7757 69.9986 44.7843 69.9951 44.7914 69.9887C44.7985 69.9824 44.8035 69.9736 44.8057 69.9637C44.8489 69.7212 44.8674 69.4705 44.8993 69.2256C44.9311 68.9808 44.963 68.7324 45.0021 68.4864C45.0754 67.9952 45.1604 67.5063 45.257 67.0197C45.3485 66.5605 45.439 66.0942 45.5654 65.6467C45.659 65.3269 45.808 64.9532 46.1123 64.8372C46.5739 64.6627 46.9933 65.1078 47.3315 65.3972C47.3408 65.4054 47.3511 65.3937 47.3428 65.3855Z" fill="#BCBEC0"/>
<path d="M47.0164 65.1252C47.0164 65.1252 46.7213 64.1646 47.148 63.976C47.7874 63.6937 49.462 65.8434 49.134 69.1306C49.134 69.1306 47.8408 68.3187 46.8858 67.405C45.9308 66.4912 45.6851 65.2963 46.1066 64.9894C46.5281 64.6824 47.0164 65.1252 47.0164 65.1252Z" fill="#D1D3D4"/>
<path d="M48.9313 68.4311C48.887 68.3163 48.8351 68.2055 48.7761 68.0996C48.7216 67.9824 48.6661 67.8747 48.6085 67.7634C48.4975 67.5466 48.3875 67.3299 48.2734 67.1144L48.2169 67.0101C48.2156 66.9967 48.2182 66.9831 48.224 66.9714L48.2436 66.8765C48.258 66.8051 48.2683 66.7336 48.2806 66.661C48.3032 66.5204 48.3248 66.3775 48.3587 66.2393C48.3587 66.2382 48.3585 66.2371 48.3582 66.2361C48.3578 66.2351 48.3573 66.2342 48.3566 66.2335C48.3559 66.2327 48.3551 66.2321 48.3543 66.2317C48.3534 66.2313 48.3525 66.231 48.3515 66.231C48.3506 66.231 48.3496 66.2313 48.3488 66.2317C48.3479 66.2321 48.3471 66.2327 48.3464 66.2335C48.3458 66.2342 48.3452 66.2351 48.3449 66.2361C48.3445 66.2371 48.3443 66.2382 48.3443 66.2393C48.3176 66.381 48.2785 66.5192 48.2415 66.6575C48.224 66.7242 48.2045 66.7922 48.1891 66.8613C48.1863 66.8855 48.1808 66.9091 48.1726 66.9316C48.0349 66.675 47.8951 66.4185 47.745 66.1713C47.7549 66.1373 47.7598 66.1017 47.7594 66.0659C47.7616 66.0176 47.7665 65.9694 47.7738 65.9218C47.7851 65.814 47.7964 65.7051 47.8098 65.5973C47.8343 65.3849 47.8686 65.1741 47.9126 64.9658C47.9126 64.9553 47.9002 64.953 47.8982 64.9658C47.8519 65.1732 47.8015 65.3805 47.7676 65.5902C47.7501 65.6933 47.7347 65.7976 47.7224 65.9007C47.7162 65.9534 47.7111 66.0061 47.707 66.0577C47.7095 66.0732 47.7095 66.0891 47.707 66.1045C47.6597 66.0307 47.6134 65.9558 47.5651 65.8831C47.4171 65.6617 47.2639 65.445 47.1097 65.2294C47.1086 65.2276 47.1069 65.2263 47.105 65.2258C47.1031 65.2254 47.1011 65.2258 47.0994 65.2271C47.0978 65.2283 47.0966 65.2303 47.0963 65.2325C47.0959 65.2347 47.0963 65.2369 47.0974 65.2388C47.3616 65.6212 47.6043 66.0223 47.8242 66.4396L47.9506 66.6739H47.9033C47.8488 66.6657 47.7943 66.6622 47.7399 66.6563C47.6309 66.6446 47.523 66.6329 47.414 66.6235C47.196 66.6036 46.9771 66.5884 46.7591 66.5626C46.7572 66.5626 46.7554 66.5634 46.7541 66.565C46.7527 66.5665 46.752 66.5686 46.752 66.5708C46.752 66.573 46.7527 66.575 46.7541 66.5766C46.7554 66.5781 46.7572 66.579 46.7591 66.579C46.9791 66.6071 47.1991 66.6469 47.4181 66.6832L47.7419 66.7325C47.8241 66.7516 47.9078 66.7614 47.9917 66.7617L48.2487 67.2374C48.2296 67.235 48.2103 67.235 48.1912 67.2374H47.4613C47.452 67.2374 47.4531 67.2538 47.4613 67.2538C47.6042 67.2538 47.746 67.2643 47.8879 67.2725L48.0935 67.2866L48.1963 67.2948C48.2254 67.3018 48.2556 67.3018 48.2847 67.2948L48.5037 67.6989C48.5705 67.8231 48.6383 67.9473 48.7093 68.0703C48.7741 68.2016 48.8473 68.3273 48.9282 68.4463C48.9282 68.4463 48.9395 68.4405 48.9313 68.4311Z" fill="#BCBEC0"/>
<path d="M48.3197 65.7699C48.3063 65.8755 48.2867 65.98 48.2611 66.0827C48.2375 66.1893 48.2107 66.2947 48.1799 66.399C48.1792 66.3998 48.1787 66.4007 48.1783 66.4017C48.1779 66.4027 48.1777 66.4038 48.1777 66.4049C48.1777 66.406 48.1779 66.407 48.1783 66.408C48.1787 66.4091 48.1792 66.41 48.1799 66.4107C48.1816 66.4119 48.1836 66.4124 48.1855 66.4124C48.1875 66.4124 48.1895 66.4119 48.1912 66.4107C48.22 66.3065 48.2457 66.2022 48.2683 66.0968C48.2909 65.9913 48.3053 65.8824 48.3279 65.7769C48.3288 65.7756 48.3292 65.7739 48.3292 65.7723C48.3292 65.7706 48.3288 65.769 48.3279 65.7676C48.3279 65.7676 48.3207 65.7676 48.3197 65.7746V65.7699Z" fill="#BCBEC0"/>
<path d="M47.3693 66.4132C47.3499 66.3932 47.3245 66.3823 47.2983 66.3828L47.177 66.364L46.9488 66.3324C46.7915 66.3113 46.6332 66.2937 46.4759 66.2715C46.474 66.2715 46.4722 66.2723 46.4709 66.2739C46.4695 66.2754 46.4688 66.2775 46.4688 66.2797C46.4688 66.2819 46.4695 66.2839 46.4709 66.2855C46.4722 66.287 46.474 66.2879 46.4759 66.2879C46.624 66.3078 46.772 66.3336 46.9211 66.3558C46.993 66.3675 47.066 66.3793 47.139 66.3886L47.2418 66.4015C47.2828 66.401 47.3236 66.4089 47.3621 66.4249C47.3693 66.4296 47.3744 66.4238 47.3693 66.4132Z" fill="#BCBEC0"/>
<path d="M48.3154 67.8604C48.2414 67.8534 48.1663 67.85 48.0923 67.8477H47.9247C47.9011 67.85 47.8774 67.85 47.8538 67.8477C47.8435 67.8477 47.8425 67.8662 47.8538 67.8639C47.8757 67.8615 47.8977 67.8615 47.9196 67.8639H47.9782L48.0913 67.8708C48.1653 67.8708 48.2403 67.8812 48.3154 67.8812C48.3267 67.8777 48.3267 67.8615 48.3154 67.8604Z" fill="#BCBEC0"/>
<path d="M48.773 67.4936L48.7977 67.3495C48.8131 67.2546 48.8285 67.1597 48.8429 67.0648C48.8429 67.0627 48.8422 67.0606 48.8408 67.059C48.8395 67.0575 48.8376 67.0566 48.8357 67.0566C48.8338 67.0566 48.832 67.0575 48.8307 67.059C48.8293 67.0606 48.8285 67.0627 48.8285 67.0648C48.8111 67.1574 48.7926 67.2499 48.7741 67.3425C48.7648 67.3882 48.7556 67.435 48.7473 67.4807C48.7451 67.5025 48.7414 67.5241 48.736 67.5452C48.73 67.5671 48.7276 67.5901 48.7288 67.6131C48.7288 67.6213 48.7401 67.6272 48.7453 67.6131C48.7606 67.5754 48.77 67.535 48.773 67.4936Z" fill="#BCBEC0"/>
<path d="M48.6031 70.3301L48.5311 71.6914L48.3183 75.7096H43.9586L43.7458 71.6914L43.6738 70.3301H48.6031Z" fill="#6D6E71"/>
<path d="M48.6031 70.3301L48.5311 71.6914H43.7458L43.6738 70.3301H48.6031Z" fill="#263238"/>
<path d="M48.9343 69.3672H43.3379V70.7296H48.9343V69.3672Z" fill="#6D6E71"/>
<path d="M36.2709 1.5332H34.9551V11.6092H36.2709V1.5332Z" fill="#2F2E41"/>
<path d="M38.0159 1.5332H37.5801V11.6092H38.0159V1.5332Z" fill="#2F2E41"/>
<path d="M39.0433 1.5332H38.6074V11.6092H39.0433V1.5332Z" fill="#2F2E41"/>
<path d="M39.1759 63.4952C39.1759 63.74 39.0454 63.9403 38.8912 63.9403C38.737 63.9403 38.6074 63.7412 38.6074 63.4952C38.6074 63.2492 38.737 63.0488 38.8912 63.0488C39.0454 63.0488 39.1759 63.2503 39.1759 63.4952Z" fill="#A6A6A6"/>
<path d="M40.3363 51.6699H39.9004V62.2637H40.3363V51.6699Z" fill="#2F2E41"/>
<path d="M39.9018 62.2637H40.3376L38.8398 63.6987V63.2958L39.9018 62.2637Z" fill="#2F2E41"/>
<path d="M38.2624 51.6699H37.6055V63.7621H38.2624V51.6699Z" fill="#C7C7C7"/>
<path d="M36.6763 65.2552C36.833 65.2552 36.96 65.0564 36.96 64.8112C36.96 64.566 36.833 64.3672 36.6763 64.3672C36.5196 64.3672 36.3926 64.566 36.3926 64.8112C36.3926 65.0564 36.5196 65.2552 36.6763 65.2552Z" fill="#A6A6A6"/>
<path d="M37.6057 63.7617H38.2626L36.625 65.0996V64.5525L37.6057 63.7617Z" fill="#C7C7C7"/>
<path d="M40.1514 63.4952C40.1514 63.74 40.0219 63.9403 39.8677 63.9403C39.7135 63.9403 39.584 63.7412 39.584 63.4952C39.584 63.2492 39.7135 63.0488 39.8677 63.0488C40.0219 63.0488 40.1514 63.2503 40.1514 63.4952Z" fill="#A6A6A6"/>
<path d="M41.3656 51.6699H40.9297V62.2637H41.3656V51.6699Z" fill="#2F2E41"/>
<path d="M40.9301 62.2637H41.365L39.8672 63.6987V63.2958L40.9301 62.2637Z" fill="#2F2E41"/>
<path d="M59.2981 70.5691C59.2981 70.5691 59.3094 71.4172 59.0391 72.0334C59.0391 72.0334 60.5811 73.4263 61.8876 72.0463V70.3301C61.8876 70.3301 61.0056 70.7003 59.2981 70.5691Z" fill="#F9B499"/>
<path d="M59.0382 72.034C59.0382 72.034 58.8079 72.0433 58.2775 72.3022C58.0366 72.4228 57.7894 72.5261 57.5373 72.6115C56.3695 72.9969 53.303 74.1028 53.8026 74.9439H62.593C62.593 74.9439 62.5498 72.519 61.8868 71.959C61.8847 71.959 60.352 72.9009 59.0382 72.034Z" fill="#0071F2"/>
<path opacity="0.2" d="M59.0382 72.034C59.0382 72.034 58.8079 72.0433 58.2775 72.3022C58.0366 72.4228 57.7894 72.5261 57.5373 72.6115C56.3695 72.9969 53.303 74.1028 53.8026 74.9439H62.593C62.593 74.9439 62.5498 72.519 61.8868 71.959C61.8847 71.959 60.352 72.9009 59.0382 72.034Z" fill="black"/>
<path d="M62.5932 74.9434H53.8027V75.4471H62.5932V74.9434Z" fill="#2F2E41"/>
<path opacity="0.2" d="M62.5932 74.9434H53.8027V75.4471H62.5932V74.9434Z" fill="black"/>
<path d="M26.4062 38.2404L44.1516 32.7812L50.8274 35.1664L35.0075 40.2413L26.4062 38.2404Z" fill="#D1D3D4"/>
<path d="M36.0312 30.6307V37.2379L49.9226 32.9397V27.6445L36.0312 30.6307Z" fill="#D1D3D4"/>
<path d="M36.0312 30.6319L49.9226 27.8695V21.9395L36.0312 24.0224V30.6319Z" fill="#939598"/>
<path d="M35.2874 13.2024L35.0078 39.1287L50.7825 34.4427V10.9707L35.2874 13.2024ZM36.0307 37.2391V14.4594L49.6003 12.5464L49.7545 33.0018L36.0307 37.2391Z" fill="#E6E7E8"/>
<path d="M43.2344 23.2602L48.6519 22.5151V12.6406L43.2344 13.4208V23.2602Z" fill="#D1D3D4"/>
<path d="M48.6523 12.6402L49.7657 12.4844L49.923 22.2534L48.6523 22.5147V12.6402Z" fill="#BCBEC0"/>
<path d="M26.4062 11.9258L35.2871 13.2015L35.0075 39.1313L26.4062 37.1773V11.9258Z" fill="#BCBEC0"/>
<path d="M26.4062 11.9255L41.6114 10.0137L50.777 10.9696L35.2871 13.2013L26.4062 11.9255Z" fill="#D1D3D4"/>
<path d="M43.2336 23.2593L42.8398 23.196V13.4598L43.2336 13.4199V23.2593Z" fill="#BCBEC0"/>
<path d="M42.5508 29.6392C42.5508 29.6392 43.3526 24.4237 44.9655 22.8773C45.0492 22.7994 45.1456 22.7411 45.249 22.7057C45.3525 22.6702 45.4611 22.6584 45.5686 22.6708C45.6761 22.6832 45.7804 22.7196 45.8755 22.778C45.9707 22.8363 46.0548 22.9155 46.1231 23.0109L46.1406 23.0367C46.5034 23.5791 47.4379 24.2843 48.0937 24.2351" stroke="#0071F2" stroke-width="4" stroke-miterlimit="10"/>
<path d="M42.0237 29.1107L41.8242 29.0545C41.8705 28.839 42.9766 23.7406 44.6975 22.1615C45.2773 21.6296 45.8858 21.7221 46.4101 22.4215C46.7422 22.8655 47.6509 23.552 47.9706 23.2873L48.0919 23.477C47.617 23.8683 46.588 23.0213 46.2539 22.5738C45.8005 21.9693 45.3204 21.892 44.827 22.3395C43.1596 23.873 42.035 29.058 42.0237 29.1107Z" fill="#2F2E41"/>
<path d="M47.6873 22.2578C47.6873 22.2578 47.3532 24.2728 48.4018 25.169C48.3464 24.6762 48.4005 24.1755 48.5591 23.7128C48.5591 23.7128 47.6884 23.4469 47.6873 22.2578Z" fill="#2F2E41"/>
<path opacity="0.2" d="M47.6873 22.2578C47.6873 22.2578 47.3532 24.2728 48.4018 25.169C48.3464 24.6762 48.4005 24.1755 48.5591 23.7128C48.5591 23.7128 47.6884 23.4469 47.6873 22.2578Z" fill="black"/>
<path d="M42.841 29.2432C42.841 29.2432 42.7588 29.5947 44.0438 30.3104C44.0438 30.3104 46.2725 33.0236 47.4506 34.9261C47.8021 34.3893 48.2052 33.8989 48.6523 33.4641L49.3719 32.7507L45.0985 29.1565C45.0985 29.1565 45.3524 27.0232 44.858 26.004C44.7833 25.858 44.6756 25.7375 44.5461 25.6551C44.4167 25.5726 44.2702 25.5313 44.1219 25.5354C43.5812 25.5354 42.5306 25.6046 42.5491 26.0485C42.5551 26.1152 42.5824 26.1769 42.6259 26.2221C42.6693 26.2672 42.7257 26.2926 42.7845 26.2934L43.4774 26.277C43.4814 26.2773 43.4854 26.2785 43.489 26.2805C43.4927 26.2826 43.4959 26.2854 43.4986 26.2889C43.5013 26.2924 43.5033 26.2965 43.5046 26.3008C43.5059 26.3052 43.5064 26.3099 43.5061 26.3145C43.5066 26.3172 43.5066 26.32 43.5061 26.3227C43.3769 26.6963 43.2643 27.0771 43.169 27.4637C43.0151 28.0451 42.9054 28.6404 42.841 29.2432Z" fill="#F9B499"/>
<path d="M35.009 40.2401C35.009 40.2401 34.8394 56.2158 35.009 56.156C35.1786 56.0963 50.7836 49.6706 50.7836 49.6706L50.834 35.1641L35.009 40.2401Z" fill="#E6E7E8"/>
<path d="M35.9551 41.0653V54.2704L50.0962 49.1416L49.9153 36.5879L35.9551 41.0653Z" stroke="#D1D3D4" stroke-miterlimit="10"/>
<path d="M44.7637 38.2402V51.0763" stroke="#D1D3D4" stroke-miterlimit="10"/>
<path d="M43.6268 47.5224C43.5812 47.5224 43.5376 47.5018 43.5054 47.4651C43.4732 47.4284 43.4551 47.3787 43.4551 47.3268V43.4456C43.4551 43.3938 43.4732 43.344 43.5054 43.3073C43.5376 43.2706 43.5812 43.25 43.6268 43.25C43.6723 43.25 43.716 43.2706 43.7481 43.3073C43.7803 43.344 43.7984 43.3938 43.7984 43.4456V47.3291C43.7976 47.3805 43.7792 47.4295 43.7471 47.4656C43.7151 47.5017 43.6719 47.5221 43.6268 47.5224Z" fill="#D1D3D4"/>
<path d="M45.7557 46.7947C45.7101 46.7947 45.6665 46.7741 45.6343 46.7374C45.6021 46.7007 45.584 46.6509 45.584 46.5991V42.7191C45.584 42.6672 45.6021 42.6174 45.6343 42.5807C45.6665 42.544 45.7101 42.5234 45.7557 42.5234C45.8012 42.5234 45.8449 42.544 45.8771 42.5807C45.9092 42.6174 45.9273 42.6672 45.9273 42.7191V46.5991C45.9273 46.6509 45.9092 46.7007 45.8771 46.7374C45.8449 46.7741 45.8012 46.7947 45.7557 46.7947Z" fill="#D1D3D4"/>
<path d="M26.4062 38.2402L35.0075 40.2411V56.157L26.4062 54.2709V38.2402Z" fill="#BCBEC0"/>
<path d="M52.0586 28.4353C52.0586 28.4353 52.6055 29.219 52.7895 30.5991C53.2702 30.2555 53.8484 30.1355 54.4045 30.264C54.4045 30.264 55.6525 30.0133 55.8725 28.8418C55.4787 28.3223 55.1903 27.7103 55.0275 27.0494C54.6942 26.9278 54.3968 26.7036 54.1683 26.4016C53.9397 26.0996 53.7888 25.7315 53.7322 25.3379C53.7322 25.3379 53.6489 26.0033 53.1092 26.063C53.1092 26.063 53.6047 27.4021 52.0586 28.4353Z" fill="#F9B499"/>
<path d="M52.0586 28.435C52.2492 28.7593 52.4085 29.1061 52.5335 29.4694C52.5335 29.4694 53.7013 27.8528 53.1719 26.7949C53.1719 26.7949 53.1637 27.7778 52.0586 28.435Z" fill="#F7A48B"/>
<path d="M52.2839 28.3113C53.3833 27.5879 53.6003 25.6707 52.7686 24.0289C51.9368 22.3872 50.3713 21.6427 49.2719 22.3661C48.1725 23.0894 47.9555 25.0067 48.7873 26.6484C49.619 28.2901 51.1845 29.0346 52.2839 28.3113Z" fill="#F9B499"/>
<path d="M47.8297 21.4384C47.8297 21.4384 46.5858 24.7689 51.4555 24.0285C51.4555 24.0285 52.0538 23.936 52.4835 25.3383H53.7294C53.7294 25.3383 53.7294 26.4957 55.0247 27.0498C55.0247 27.0498 54.8088 26.1876 55.2961 24.8919C55.2961 24.8919 56.3241 20.8843 53.1064 19.5886C53.1064 19.5886 51.1532 18.6069 50.1006 20.575C50.1026 20.575 48.4249 19.7737 47.8297 21.4384Z" fill="#2F2E41"/>
<path d="M50.7773 38.0083L53.481 37.1777" stroke="#ED1C24" stroke-miterlimit="10"/>
<path d="M36.0312 27.6465C36.0312 27.6465 36.721 28.5497 36.0312 30.6326" stroke="#D1D3D4" stroke-miterlimit="10"/>
<path d="M36.0312 27.1241C36.0312 27.1241 37.4242 27.1675 36.6717 30.5027L38.0924 30.2063C38.0924 30.2063 38.6938 27.7895 38.0585 26.3626C37.9826 26.1975 37.877 26.0524 37.7486 25.937C37.6201 25.8215 37.4718 25.7382 37.3132 25.6925C36.9102 25.5754 36.3037 25.4231 36.0312 25.5309V27.1241Z" fill="#2F2E41"/>
<path d="M36.0312 24.5343C36.0312 24.5343 39.8616 23.5315 40.1566 26.0573L40.2872 29.0774" stroke="#BCBEC0" stroke-miterlimit="10"/>
<path d="M38.5508 23.6426C38.5508 23.6426 41.6111 24.4626 40.8761 29.083" stroke="#E6E7E8" stroke-miterlimit="10"/>
<path d="M51.6375 71.6562C51.6375 71.6562 51.7289 72.7375 51.291 73.2366C51.291 73.2366 52.4362 74.2277 54.1026 73.1194L54.0049 71.8308C54.0049 71.8308 52.5914 72.5524 51.6375 71.6562Z" fill="#F9B499"/>
<path d="M51.2979 73.2375C51.2979 73.2375 50.9895 73.1637 50.457 73.4214C50.2165 73.5423 49.9696 73.646 49.7178 73.7318C48.549 74.1173 45.4835 75.2231 45.9821 76.0643H54.7725C54.7725 76.0643 54.7725 73.685 54.1094 73.125C54.1043 73.125 52.6055 74.1044 51.2979 73.2375Z" fill="#0071F2"/>
<path d="M54.767 76.0645H45.9766V76.5682H54.767V76.0645Z" fill="#2F2E41"/>
<path d="M53.108 26.0637C53.4804 26.0637 53.7823 25.5392 53.7823 24.8922C53.7823 24.2452 53.4804 23.7207 53.108 23.7207C52.7355 23.7207 52.4336 24.2452 52.4336 24.8922C52.4336 25.5392 52.7355 26.0637 53.108 26.0637Z" fill="#F9B499"/>
<path d="M44.4355 30.6504C44.6154 30.8226 47.7693 33.3882 47.7693 33.3882L48.8302 32.2893L49.3792 32.7509L47.6933 35.1665L44.4355 30.6504Z" fill="#F7A48B"/>
<path d="M41.7275 27.7383C41.7275 27.7383 41.3996 28.187 41.9568 28.522C41.9568 28.522 42.808 29.1944 42.8398 28.3357C42.8398 28.3357 43.1349 28.2982 42.9714 27.7383C42.9714 27.7383 43.2983 27.6317 43.2336 27.0506C43.2336 27.0506 43.6581 26.91 43.2418 26.3137C43.2418 26.3137 41.7275 24.6139 41.9239 26.0642C41.9239 26.0642 41.4654 26.5129 41.7923 27.0506C41.7923 27.0506 41.4325 27.4407 41.7275 27.7383Z" fill="#F9B499"/>
<path d="M41.9258 26.0625L43.2355 27.0489" stroke="#F7A48B" stroke-miterlimit="10"/>
<path d="M41.793 27.0488L42.9721 27.7365" stroke="#F7A48B" stroke-miterlimit="10"/>
<path d="M41.7285 27.7383L42.8408 28.3357" stroke="#F7A48B" stroke-miterlimit="10"/>
<g opacity="0.2">
<path d="M37.4035 30.36L37.3542 30.3436C37.7232 28.9507 37.7088 27.8647 37.312 27.1149C37.0998 26.6999 36.7526 26.3969 36.3457 26.2715L36.356 26.2129C36.7763 26.3438 37.1352 26.6566 37.3562 27.0845C37.7613 27.8495 37.7767 28.9518 37.4035 30.36Z" fill="black"/>
</g>
<path d="M36.0312 24.5336C36.0312 24.5336 38.5519 23.9561 39.1903 26.0566C39.1903 26.0566 39.6159 28.1864 39.1903 30.0151C38.8321 30.1263 38.4635 30.1884 38.0924 30.2001C38.0924 30.2001 38.4943 27.5877 37.9248 26.3167C37.7944 26.0369 37.573 25.8266 37.308 25.7309C36.899 25.5679 36.466 25.4979 36.0333 25.5247L36.0312 24.5336Z" fill="#0071F2"/>
<g opacity="0.2">
<path d="M38.6142 30.2618L38.5649 30.2477C38.5741 30.2067 39.453 26.1744 38.0827 25.5043C38.0724 25.4985 37.0064 24.969 36.2015 25.0791L36.1953 25.0205C37.0177 24.9034 38.093 25.4446 38.1033 25.4504C39.5137 26.1404 38.6533 30.0942 38.6142 30.2618Z" fill="black"/>
</g>
<path d="M42.1205 31.2067C42.1205 31.2067 44.4747 39.01 46.5728 39.0791C46.5728 39.0791 47.5216 39.3064 48.8241 38.8027L50.7773 38.0072C50.7773 38.0072 50.6488 34.6099 48.8241 33.3212C48.8241 33.3212 47.7529 34.1952 47.6872 34.6099C47.6872 34.6099 45.0298 30.7639 43.5639 29.9954C43.4832 29.9522 43.4053 29.9029 43.3305 29.8478C42.8165 29.4811 40.9044 28.2569 39.3049 29.0886C39.3049 29.0886 38.3879 29.2749 38.5513 29.6486C38.5513 29.6486 37.5305 29.9157 38.5318 30.416C38.5318 30.4078 39.5999 31.5675 42.1205 31.2067Z" fill="#F9B499"/>
<path d="M38.5527 29.6406L39.8295 29.9019" stroke="#F7A48B" stroke-miterlimit="10"/>
<path d="M52.7889 30.5999C52.7889 30.5999 49.5949 32.2306 48.8301 33.3189C48.8301 33.3189 50.3649 34.4025 50.6126 38.5016C50.6126 38.5016 51.1791 43.7334 54.556 43.1875C54.556 43.1875 57.4457 42.7974 57.0058 39.8699C57.0006 39.8722 54.9539 28.8426 52.7889 30.5999Z" fill="#0071F2"/>
<path d="M55.8723 28.8419C55.8723 28.8419 56.0625 28.3838 56.669 29.2074C56.669 29.2074 60.2444 33.6016 61.0287 38.7632C61.0287 38.7632 59.8537 41.1519 58.7147 39.1475C58.5276 38.8451 58.3827 38.5116 58.285 38.1587C57.9571 36.7319 56.6998 31.6265 54.4043 30.2641C54.4043 30.2641 55.7047 29.9642 55.8723 28.8419Z" fill="#0071F2"/>
<path d="M53.0337 30.4579C53.0337 30.4579 53.7831 30.4134 54.3485 31.3166C54.3485 31.3166 55.5461 33.0937 56.863 39.8064C56.863 39.8064 57.488 42.0884 54.9858 43.0725C54.9858 43.0725 51.4218 44.6575 50.5768 38.0784C50.5768 38.0784 49.0656 38.5587 48.6523 38.8516C48.6523 38.8516 49.0461 44.9797 49.0461 45.0605C49.0461 45.1413 49.1931 46.2636 49.7328 46.5155C49.7328 46.5155 49.5858 52.8111 50.6169 58.2398C50.662 59.1043 50.7651 59.9635 50.9253 60.8101C51.0548 61.4302 51.136 62.0621 51.1679 62.6985L51.6346 71.6581C51.6376 71.7151 51.6542 71.7701 51.6827 71.8172C51.7111 71.8643 51.7503 71.9016 51.796 71.9252C52.165 72.1149 53.1447 72.5051 54.002 71.8396C54.002 71.8396 55.8185 67.8659 56.1608 61.6477C56.1608 61.6477 57.0203 57.8989 57.7316 56.3877C57.7316 56.3877 58.223 59.129 58.518 64.9782C58.518 64.9782 58.6959 69.2706 59.0177 70.3237C59.0379 70.3895 59.0744 70.4473 59.1227 70.4901C59.171 70.5328 59.2291 70.5589 59.2901 70.5651C59.9254 70.6318 62.2713 70.783 62.52 69.4545C62.52 69.4545 62.7904 65.3414 62.2497 61.0326C62.2497 61.0326 61.9063 57.0589 62.1027 54.764C62.1027 54.764 62.8069 46.9384 61.8395 44.0155C61.7677 43.7872 61.7735 43.5364 61.856 43.3127C62.0071 42.8815 62.0441 41.7429 61.0222 38.7602C61.0222 38.7602 59.8123 41.2204 58.6486 39.032C58.5138 38.7733 58.4101 38.4951 58.3402 38.2049C57.9239 36.4969 56.2205 28.7147 53.0337 30.4579Z" fill="#2F2E41"/>
<mask id="mask0_1548_42" style="mask-type:luminance" maskUnits="userSpaceOnUse" x="48" y="30" width="15" height="43">
<path d="M53.0337 30.4579C53.0337 30.4579 53.7831 30.4134 54.3485 31.3166C54.3485 31.3166 55.5461 33.0937 56.863 39.8064C56.863 39.8064 57.488 42.0884 54.9858 43.0725C54.9858 43.0725 51.1822 44.7126 50.5768 38.0784C50.5768 38.0784 49.0656 38.5587 48.6523 38.8516C48.6523 38.8516 49.0461 44.9797 49.0461 45.0605C49.0461 45.1413 49.1931 46.2636 49.7328 46.5155C49.7328 46.5155 49.5858 52.8111 50.6169 58.2398C50.662 59.1043 50.7651 59.9635 50.9253 60.8101C51.0548 61.4302 51.136 62.0621 51.1679 62.6985L51.6346 71.6581C51.6376 71.7151 51.6542 71.7701 51.6827 71.8172C51.7111 71.8643 51.7503 71.9016 51.796 71.9252C52.165 72.1149 53.1447 72.5051 54.002 71.8396C54.002 71.8396 55.8185 67.8659 56.1608 61.6477C56.1608 61.6477 57.0203 57.8989 57.7316 56.3877C57.7316 56.3877 58.223 59.129 58.518 64.9782C58.518 64.9782 58.6959 69.2706 59.0177 70.3237C59.0379 70.3895 59.0744 70.4473 59.1227 70.4901C59.171 70.5328 59.2291 70.5589 59.2901 70.5651C59.9254 70.6318 62.2713 70.783 62.52 69.4545C62.52 69.4545 62.7904 65.3414 62.2497 61.0326C62.2497 61.0326 61.9063 57.0589 62.1027 54.764C62.1027 54.764 62.8069 46.9384 61.8395 44.0155C61.7677 43.7872 61.7735 43.5364 61.856 43.3127C62.0071 42.8815 62.0441 41.7429 61.0222 38.7602C61.0222 38.7602 59.8123 41.2204 58.6486 39.032C58.5138 38.7733 58.4101 38.4951 58.3402 38.2049C57.9239 36.4969 56.2205 28.7147 53.0337 30.4579Z" fill="white"/>
</mask>
<g mask="url(#mask0_1548_42)">
<path opacity="0.2" d="M57.7383 56.3922L59.6699 51.5352C59.6699 51.5352 59.5763 53.9953 59.1559 57.5812C59.1559 57.5812 59.0613 68.6553 61.0803 69.5644C61.3061 69.7033 61.5617 69.767 61.8178 69.7484C62.0739 69.7297 62.3202 69.6295 62.5288 69.459C62.5288 69.459 62.5452 70.9819 59.3008 70.5696C59.3008 70.5696 58.9554 70.5543 58.8218 69.1298C58.8197 69.1298 58.1546 58.9484 57.7383 56.3922Z" fill="black"/>
</g>
<g opacity="0.2">
<path d="M50.0957 46.6112C50.5953 46.6874 51.0949 46.7413 51.5966 46.7647C52.0982 46.7881 52.5999 46.801 53.1005 46.7893C53.6012 46.7776 54.1008 46.7471 54.5983 46.6897C55.0959 46.6323 55.5914 46.5608 56.0828 46.4554C56.5746 46.3566 57.0615 46.2284 57.5415 46.0712C57.6618 46.0348 57.782 45.995 57.9003 45.954C58.0185 45.913 58.1388 45.8708 58.257 45.824C58.4914 45.7267 58.7288 45.6354 58.9591 45.5264C59.1894 45.4175 59.4176 45.3015 59.6479 45.1879C59.7609 45.1281 59.872 45.0625 59.984 44.9993L60.1526 44.9044L60.3171 44.8013C60.759 44.5294 61.1867 44.2286 61.598 43.9004C60.8226 44.6431 59.957 45.2539 59.028 45.7139C58.0993 46.1745 57.1263 46.5091 56.129 46.7108C55.1316 46.916 54.1191 47.0106 53.1057 46.9931C52.0934 46.9857 51.0846 46.8577 50.0957 46.6112Z" fill="black"/>
</g>
<path d="M36.0312 24.2609L42.8407 23.1972V13.4609L36.0312 14.459V24.2609Z" fill="#D1D3D4"/>
<path d="M39.2158 69.7812H28.2871V74.8327H39.2158V69.7812Z" fill="#0071F2"/>
<path d="M39.6976 68.4121H27.8047V69.7816H39.6976V68.4121Z" fill="#0071F2"/>
<path opacity="0.1" d="M39.2168 69.7812H28.2871V70.7454H39.2168V69.7812Z" fill="black"/>
<path d="M35.0219 69.2598H32.6328V70.3047H35.0219V69.2598Z" fill="#2F2E41"/>
<path d="M35.8811 68.4124H35.3147V67.5947H32.1875V68.4124H31.6211V66.9492H35.8811V68.4124Z" fill="#2F2E41"/>
</svg>
