<svg width="88" height="84" viewBox="0 0 88 84" fill="none" xmlns="http://www.w3.org/2000/svg">
<path d="M18.0708 71.5386C18.0708 71.5386 8.57923 63.6661 8.19603 47.567C8.07711 42.5816 10.2594 37.911 13.8881 35.548L14.0589 35.4386C16.6185 33.8226 18.9775 31.7787 21.0663 29.367C22.4893 27.7199 24.2051 25.6313 26.1292 23.0936C26.1292 23.0936 43.9079 -7.08974 63.8608 4.98336C63.8608 4.98336 83.8137 12.7229 79.0821 49.7172C79.0821 49.7172 75.062 86.2686 33.2718 79.6951C29.7184 79.1503 26.2741 77.8415 23.1012 75.8303C21.3611 74.717 19.567 73.3 18.0708 71.5386Z" fill="#0071F2"/>
<path opacity="0.7" d="M18.0708 71.5386C18.0708 71.5386 8.57923 63.6661 8.19603 47.567C8.07711 42.5816 10.2594 37.911 13.8881 35.548L14.0589 35.4386C16.6185 33.8226 18.9775 31.7787 21.0663 29.367C22.4893 27.7199 24.2051 25.6313 26.1292 23.0936C26.1292 23.0936 43.9079 -7.08974 63.8608 4.98336C63.8608 4.98336 83.8137 12.7229 79.0821 49.7172C79.0821 49.7172 75.062 86.2686 33.2718 79.6951C29.7184 79.1503 26.2741 77.8415 23.1012 75.8303C21.3611 74.717 19.567 73.3 18.0708 71.5386Z" fill="white"/>
<mask id="mask0_1548_301" style="mask-type:luminance" maskUnits="userSpaceOnUse" x="8" y="2" width="72" height="79">
<path d="M18.0708 71.5386C18.0708 71.5386 8.57923 63.6661 8.19603 47.567C8.07711 42.5816 10.2594 37.911 13.8881 35.548L14.0589 35.4386C16.6185 33.8226 18.9775 31.7787 21.0663 29.367C22.4893 27.7199 24.2051 25.6313 26.1292 23.0936C26.1292 23.0936 43.9079 -7.08974 63.8608 4.98336C63.8608 4.98336 83.8137 12.7229 79.0821 49.7172C79.0821 49.7172 75.062 86.2686 33.2718 79.6951C29.7184 79.1503 26.2741 77.8415 23.1012 75.8303C21.3611 74.717 19.567 73.3 18.0708 71.5386Z" fill="white"/>
</mask>
<g mask="url(#mask0_1548_301)">
<path d="M67.5202 42.7324H16.1367V81.3565H67.5202V42.7324Z" fill="#E6E6E6"/>
<path d="M115.962 42.7324H67.5215V81.3565H115.962V42.7324Z" fill="#E6E6E6"/>
<path d="M46.9219 76.4264C49.5474 76.4264 51.6758 74.0963 51.6758 71.222C51.6758 68.3477 49.5474 66.0176 46.9219 66.0176C44.2964 66.0176 42.168 68.3477 42.168 71.222C42.168 74.0963 44.2964 76.4264 46.9219 76.4264Z" fill="#B3B3B3"/>
<path opacity="0.2" d="M47.2626 75.3305C49.0752 75.3305 50.5447 73.5522 50.5447 71.3586C50.5447 69.165 49.0752 67.3867 47.2626 67.3867C45.4499 67.3867 43.9805 69.165 43.9805 71.3586C43.9805 73.5522 45.4499 75.3305 47.2626 75.3305Z" fill="black"/>
<path d="M5.48242 32.1309V74.2914L16.1368 81.3569V42.7328L5.48242 32.1309Z" fill="#CCCCCC"/>
<path d="M114.195 29.3086H4.36719L15.4587 41.362H115.397L114.195 29.3086Z" fill="#CCCCCC"/>
<path d="M115.396 41.3633H15.459V42.7323H115.396V41.3633Z" fill="#999999"/>
<path d="M19.9865 33.1444C19.9865 33.1444 18.4019 30.9525 20.6655 31.2268L39.9069 30.6781C39.9069 30.6781 44.1851 29.8565 45.2147 31.9082C46.1351 32.938 46.9589 34.0873 47.6715 35.3352C47.6715 35.3352 49.188 38.3488 46.4721 38.6231H27.1982C26.5762 38.6248 25.9581 38.503 25.3686 38.2627C24.4792 37.8937 23.2341 37.2135 22.3772 36.0203L19.9865 33.1444Z" fill="#E6E6E6"/>
<path d="M24.6928 37.9944C24.4617 37.8516 24.262 37.6441 24.1104 37.3892C23.5808 36.5048 22.6538 34.3977 25.9766 34.5712H42.3485C42.3485 34.5712 44.3966 34.2403 44.6406 36.0214C44.6406 36.0214 46.0107 38.6242 41.9388 38.6242H27.2004C26.3326 38.6962 25.4652 38.4784 24.6928 37.9944Z" fill="#B3B3B3"/>
<path d="M54.8459 33.1444C54.8459 33.1444 53.2612 30.9525 55.5249 31.2268L74.7652 30.6781C74.7652 30.6781 79.0434 29.8565 80.0731 31.9082C80.9953 32.9376 81.8209 34.0868 82.5349 35.3352C82.5349 35.3352 84.0515 38.3488 81.3345 38.6231H62.0566C61.4345 38.6248 60.8165 38.503 60.227 38.2627C59.3376 37.8937 58.0924 37.2135 57.2356 36.0203L54.8459 33.1444Z" fill="#E6E6E6"/>
<path d="M59.5516 37.9944C59.3207 37.8517 59.1214 37.6442 58.9702 37.3892C58.4396 36.5048 57.5137 34.3977 60.8354 34.5712H77.2084C77.2084 34.5712 79.2555 34.2403 79.5005 36.0214C79.5005 36.0214 80.8696 38.6242 76.7987 38.6242H62.0602C61.1922 38.6964 60.3244 38.4785 59.5516 37.9944Z" fill="#B3B3B3"/>
<path d="M25.1917 44.9244C24.9435 44.6464 24.7483 44.3063 24.6198 43.9277C24.4913 43.5492 24.4326 43.1413 24.4476 42.7324H44.862V44.1864C44.862 44.1864 45.0927 49.6725 34.0683 48.8877C33.096 48.815 32.1337 48.6087 31.1999 48.2726C29.3957 47.6355 26.4155 46.4042 25.1917 44.9244Z" fill="#808080"/>
<path d="M43.0651 47.2801H50.5817C50.5817 47.2801 53.7144 47.1153 53.4877 51.498L54.1678 68.7608C54.1678 68.7608 55.0724 75.8841 51.9041 76.9788C51.9041 76.9788 48.7348 77.2531 47.1502 74.7881C47.1502 74.7881 45.3389 72.3218 47.1502 70.6784C47.1502 70.6784 48.9605 69.3094 49.6405 72.3218C49.6405 72.3218 50.9985 73.9664 50.9985 70.4053L50.1508 52.9655C50.1352 52.6421 50.0193 52.3378 49.8263 52.1134C49.6334 51.889 49.3775 51.761 49.1099 51.7551L40.0483 51.5398C39.587 51.5295 39.1475 51.3005 38.8244 50.9021C38.5012 50.5036 38.3202 49.9676 38.3203 49.4093L38.363 48.8595C38.363 48.8595 41.4713 48.5409 43.0651 47.2801Z" fill="#CCCCCC"/>
<path d="M49.9714 52.321C49.9247 52.2066 52.1294 52.8683 53.4873 51.498L53.5443 52.9286C53.5443 52.9286 52.2991 54.1587 50.1768 53.5141C50.1768 53.5141 50.3028 53.139 49.9714 52.321Z" fill="#2F2E41"/>
<path d="M54.4817 57.7973C54.2736 57.7977 54.0733 57.7015 53.922 57.5285C53.7707 57.3555 53.68 57.1189 53.6686 56.8674L53.5365 53.9915C53.53 53.8468 53.5479 53.7021 53.5891 53.5662C53.6304 53.4302 53.6941 53.3058 53.7764 53.2006C53.8586 53.0954 53.9577 53.0116 54.0677 52.9543C54.1776 52.8969 54.296 52.8673 54.4157 52.8672C54.6491 52.8672 54.873 52.9794 55.0381 53.1792C55.2032 53.379 55.2959 53.6499 55.2959 53.9324V56.812C55.2961 56.9414 55.2751 57.0696 55.2342 57.1893C55.1934 57.3089 55.1334 57.4175 55.0578 57.5091C54.9821 57.6006 54.8923 57.6732 54.7935 57.7226C54.6946 57.7721 54.5887 57.7975 54.4817 57.7973Z" fill="#2F2E41"/>
<path d="M55.2949 54.1535H62.343C62.343 54.1535 64.3494 54.236 64.1228 50.9492H66.5267L66.3579 53.6996C66.3579 53.6996 66.1648 56.4279 62.9955 56.7022L55.299 56.8117L55.2949 54.1535Z" fill="#CCCCCC"/>
<path d="M66.8423 49.3066H63.2207V50.95H66.8423V49.3066Z" fill="#2F2E41"/>
<path d="M67.5218 47.9355H61.8633V49.3046H67.5218V47.9355Z" fill="#CCCCCC"/>
<path d="M48.5724 42.7324C48.5724 42.7324 48.5074 45.4718 51.2233 46.5678C51.2233 46.5678 54.171 49.0279 61.8625 48.622H67.522V42.7324H48.5724Z" fill="#808080"/>
<path d="M44.3145 26.0234H42.7421C42.5512 26.0234 42.3965 26.2107 42.3965 26.4417V29.4406C42.3965 29.6715 42.5512 29.8588 42.7421 29.8588H44.3145C44.5054 29.8588 44.6601 29.6715 44.6601 29.4406V26.4417C44.6601 26.2107 44.5054 26.0234 44.3145 26.0234Z" fill="#E6E6E6"/>
<path d="M48.6153 26.0234H47.0429C46.852 26.0234 46.6973 26.2107 46.6973 26.4417V29.4406C46.6973 29.6715 46.852 29.8588 47.0429 29.8588H48.6153C48.8062 29.8588 48.9609 29.6715 48.9609 29.4406V26.4417C48.9609 26.2107 48.8062 26.0234 48.6153 26.0234Z" fill="#E6E6E6"/>
<path d="M46.6971 27.1172H44.6602V29.3092H46.6971V27.1172Z" fill="#0071F2"/>
<path d="M45.1133 27.1175V19.9954C45.1133 18.6151 45.5664 17.2914 46.3729 16.3154C47.1794 15.3393 48.2733 14.791 49.4139 14.791C50.5545 14.791 51.6483 15.3393 52.4548 16.3154C53.2614 17.2914 53.7145 18.6151 53.7145 19.9954V21.3657H52.8088V19.9954C52.8088 18.9058 52.4511 17.8608 51.8145 17.0903C51.1778 16.3199 50.3143 15.887 49.4139 15.887C48.968 15.8868 48.5264 15.993 48.1144 16.1994C47.7024 16.4058 47.328 16.7084 47.0126 17.0899C46.6973 17.4714 46.4471 17.9244 46.2764 18.4229C46.1058 18.9215 46.0179 19.4558 46.0179 19.9954V27.1175H45.1133Z" fill="#0071F2"/>
<path d="M51.9034 20.8164H54.6193V23.6456C54.6193 23.6958 54.6028 23.744 54.5735 23.7795C54.5441 23.815 54.5043 23.835 54.4628 23.835H52.0589C52.0174 23.835 51.9775 23.815 51.9482 23.7795C51.9188 23.744 51.9023 23.6958 51.9023 23.6456V20.8164H51.9034Z" fill="#2F2E41"/>
<path d="M4.36719 29.3086V30.9434L15.4587 42.7311V41.362L4.36719 29.3086Z" fill="#B3B3B3"/>
</g>
<path d="M68.7773 69.4255L69.5122 65.4844L70.2675 65.7451L69.5763 69.6838L68.7773 69.4255Z" fill="white"/>
<path d="M71.1584 65.071L70.6177 65.8189C70.5778 65.8747 70.5258 65.9158 70.4676 65.9375C70.4093 65.9593 70.3472 65.9608 70.2883 65.9419L69.5118 65.6861C69.4486 65.6648 69.3921 65.6211 69.3497 65.5606C69.3073 65.5 69.2809 65.4255 69.2739 65.3466L69.1885 64.3084C69.1885 64.3084 69.2302 64.1694 68.782 63.9775L67.3803 63.6823C67.3633 63.6789 67.347 63.6714 67.3324 63.6603C67.3178 63.6492 67.3052 63.6347 67.2952 63.6176C67.2853 63.6006 67.2783 63.5813 67.2746 63.561C67.2708 63.5406 67.2705 63.5195 67.2736 63.499L67.4413 62.3809C67.4448 62.3602 67.4516 62.3405 67.4615 62.323C67.4713 62.3056 67.484 62.2907 67.4987 62.2792C67.5133 62.2678 67.5298 62.26 67.547 62.2563C67.5642 62.2526 67.5818 62.2532 67.5988 62.2579L69.4081 62.7499C69.4081 62.7499 69.8045 62.51 70.4073 62.8348C70.4337 62.8483 70.4611 62.8643 70.4876 62.8803L71.567 63.5334C71.567 63.5334 72.2145 63.7942 72.431 64.579C72.431 64.579 73.17 66.1891 73.1801 66.8927C73.1796 66.9366 73.1698 66.9796 73.1516 67.0175C73.1333 67.0554 73.1073 67.087 73.076 67.1091C73.0447 67.1313 73.0092 67.1432 72.973 67.1439C72.9367 67.1446 72.9009 67.1339 72.8691 67.1129C72.6873 66.9659 72.5371 66.7686 72.431 66.5373C72.431 66.5373 71.7957 65.44 71.3576 65.0612C71.3298 65.0315 71.2935 65.0159 71.2564 65.0178C71.2193 65.0196 71.1842 65.0387 71.1584 65.071Z" fill="#0071F2"/>
<path d="M36.4834 71.8758L44.1546 72.6667C44.3167 72.6839 44.4695 72.7661 44.5886 72.9004L45.4018 73.8242L45.5034 73.9374C45.6108 74.0591 45.7276 74.1683 45.852 74.2634C45.91 74.3076 45.9699 74.3482 46.0309 74.3864C46.1367 74.4521 46.2473 74.5056 46.3613 74.5463C46.3948 74.5586 46.4273 74.5696 46.4629 74.5782C47.099 74.7651 47.7703 74.6446 48.3342 74.2424C48.3539 74.2289 48.3702 74.2093 48.3816 74.1857C48.3929 74.162 48.3989 74.1351 48.3989 74.1077C48.3989 74.0804 48.3929 74.0535 48.3816 74.0298C48.3702 74.0062 48.3539 73.9866 48.3342 73.9731L47.1633 73.1981L47.0433 73.1182C46.9648 73.0726 46.8922 73.0133 46.8278 72.9423C46.7487 72.8525 46.6979 72.7321 46.6842 72.6019C46.6705 72.4717 46.6947 72.3398 46.7526 72.2288L47.1927 71.5252C47.4123 71.0812 47.7792 71.4367 47.7792 71.4367L48.4785 71.9693C48.9583 72.4133 49.1728 72.3248 49.1728 72.3248C49.6129 72.0578 48.1462 70.1106 48.1462 70.1106C47.6329 69.3111 46.9722 69.8437 46.9722 69.8437L45.788 70.7491C45.1913 71.2103 44.4046 71.0861 44.4046 71.0861L36.5668 70.1549C36.4136 70.1365 36.2603 70.19 36.1389 70.3045C36.0174 70.419 35.937 70.5857 35.9142 70.77C35.9022 70.8764 35.8964 70.9836 35.8969 71.091C35.8969 71.091 35.8238 71.7872 36.4834 71.8758ZM36.2639 71.032C36.2639 70.9347 36.2877 70.8395 36.3324 70.7586C36.3771 70.6777 36.4406 70.6146 36.5149 70.5774C36.5892 70.5402 36.6709 70.5304 36.7498 70.5494C36.8286 70.5684 36.9011 70.6152 36.958 70.6841C37.0148 70.7529 37.0535 70.8405 37.0692 70.936C37.0849 71.0314 37.0769 71.1304 37.0461 71.2203C37.0153 71.3102 36.9632 71.387 36.8963 71.4411C36.8295 71.4951 36.7509 71.524 36.6705 71.524C36.5626 71.524 36.4592 71.4722 36.383 71.3799C36.3067 71.2876 36.2639 71.1625 36.2639 71.032Z" fill="#2F2E41"/>
<path opacity="0.2" d="M46.5329 72.0535L45.8733 73.3857L44.9219 72.6747L45.5795 71.3438L46.5329 72.0535Z" fill="black"/>
<path opacity="0.2" d="M46.0312 74.3862C46.137 74.4519 46.2476 74.5055 46.3616 74.5461L47.1636 73.1992L47.0436 73.1193C46.9651 73.0737 46.8925 73.0144 46.8281 72.9434L46.0312 74.3862Z" fill="black"/>
<path d="M45.172 74.3433L45.3194 74.5266C45.3498 74.5646 45.3908 74.5875 45.4344 74.5909C45.478 74.5943 45.521 74.578 45.5552 74.545L45.851 74.2634C45.7266 74.1683 45.6098 74.0591 45.5024 73.9374L45.4007 73.8242L45.1873 74.0272C45.168 74.0458 45.1521 74.0691 45.1408 74.0957C45.1294 74.1222 45.1228 74.1513 45.1214 74.1811C45.12 74.2109 45.1237 74.2408 45.1324 74.2687C45.1412 74.2967 45.1547 74.3221 45.172 74.3433Z" fill="#2F2E41"/>
<path opacity="0.2" d="M45.172 74.3433L45.3194 74.5266C45.3498 74.5646 45.3908 74.5875 45.4344 74.5909C45.478 74.5943 45.521 74.578 45.5552 74.545L45.851 74.2634C45.7266 74.1683 45.6098 74.0591 45.5024 73.9374L45.4007 73.8242L45.1873 74.0272C45.168 74.0458 45.1521 74.0691 45.1408 74.0957C45.1294 74.1222 45.1228 74.1513 45.1214 74.1811C45.12 74.2109 45.1237 74.2408 45.1324 74.2687C45.1412 74.2967 45.1547 74.3221 45.172 74.3433Z" fill="black"/>
<path d="M36.2376 40.6412C36.9416 38.1712 36.2793 35.6542 34.7583 35.0194C33.2374 34.3845 31.4337 35.8722 30.7297 38.3422C30.0258 40.8121 30.6881 43.3291 32.209 43.9639C33.73 44.5988 35.5336 43.1111 36.2376 40.6412Z" fill="#F9B499"/>
<path d="M34.2818 36.7257C33.9696 36.9183 33.629 37.0345 33.2796 37.0676C33.2006 37.0759 33.1239 37.1034 33.054 37.1487C32.9841 37.1939 32.9225 37.2559 32.873 37.3309L32.0832 38.5327C32.0832 38.5327 31.6899 38.4712 31.6665 38.0406H30.7364C30.7364 38.0406 30.03 39.3014 28.2695 37.9705L28.6111 37.0922C28.7383 36.7649 28.8154 36.4123 28.8387 36.0516C28.8642 35.6691 29.0095 35.0835 29.5899 34.5977C29.5879 34.5952 30.6145 34.9507 34.2818 36.7257Z" fill="#2F2E41"/>
<path d="M28.2689 37.9688L27.3887 38.6785C27.3887 38.6785 29.1492 41.5199 29.882 42.8509C29.882 42.8509 30.4075 41.8939 30.6586 41.9283C30.6586 41.9283 30.0721 40.3292 30.8212 38.0389H30.7358C30.7358 38.0389 29.9562 39.2997 28.2689 37.9688Z" fill="#F9B499"/>
<path d="M29.5879 34.5951L34.2818 36.7256L37.8028 38.6777C39.1242 39.5658 39.6517 39.4883 39.6517 39.4883C40.1813 39.2337 37.4359 37.0799 37.4359 37.0799C38.2429 34.8658 38.0966 33.1744 38.0966 33.1744C37.9177 30.4301 33.9007 30.6233 32.4106 30.7918C31.9501 30.8393 31.5162 31.0728 31.1786 31.4548C30.9605 31.7115 30.763 31.9928 30.5891 32.2949C30.3342 32.7355 30.1091 33.2003 29.9162 33.6849C29.7027 34.2114 29.5879 34.5951 29.5879 34.5951Z" fill="#0071F2"/>
<path opacity="0.2" d="M29.918 33.6849L30.6895 34.1511C30.6895 34.1511 31.5026 33.0871 30.5878 32.2949C30.3339 32.7356 30.1099 33.2005 29.918 33.6849Z" fill="black"/>
<path d="M30.6589 41.9289C30.4813 42.0167 30.3249 42.1577 30.2046 42.3386C30.2046 42.3386 29.9383 41.7235 30.4607 40.0703C30.4607 40.0703 30.3347 40.6521 30.6589 41.9289Z" fill="#F7A48B"/>
<path d="M9.83116 66.6779C9.88097 66.9005 9.92569 67.1244 9.96228 67.3507C10.0731 68.0297 10.5722 69.8244 12.8185 70.4862C13.5783 70.7085 14.3669 70.7469 15.1391 70.5993C15.5912 70.515 16.0344 70.3706 16.4604 70.1688C18.657 69.1306 23.4953 66.5795 28.9262 62.0245L27.061 72.1529L26.508 75.158C26.508 75.158 28.3376 75.8677 32.5955 74.9796C32.9465 74.8829 33.2897 74.7487 33.6211 74.5786C33.7996 74.4839 33.9575 74.3405 34.0823 74.1595C34.2072 73.9785 34.2957 73.7649 34.3408 73.5355C34.7128 71.6806 35.8055 66.0961 36.704 60.1561C36.704 60.1561 37.1695 60.5325 37.7967 59.8104C37.9367 59.6463 38.062 59.4649 38.1707 59.2692C38.1707 59.2692 39.5399 57.0391 39.4383 54.1681C39.4383 54.066 39.4291 53.9615 39.421 53.8581C39.421 53.8581 39.1282 52.5272 37.4409 52.3488C37.3107 52.3969 37.1717 52.3974 37.0413 52.3501C36.9109 52.3028 36.795 52.21 36.7081 52.0831L30.6856 44.7999C30.6424 44.7474 30.6115 44.6818 30.5963 44.61C30.5811 44.5382 30.5821 44.4627 30.5992 44.3915L30.6114 44.3448C30.626 44.2844 30.6291 44.2207 30.6202 44.1587C30.6114 44.0967 30.591 44.0379 30.5606 43.9868L29.8836 42.8515L27.3903 38.6791C27.3903 38.6791 26.9837 37.6815 26.4521 38.5807L25.948 39.486C25.948 39.486 23.8673 40.2733 22.3274 41.1614C22.3274 41.1614 21.006 41.8711 20.1268 43.2033L16.313 48.7952C16.313 48.7952 15.0659 50.3106 14.9185 51.195C14.9185 51.195 14.9185 51.9946 13.8919 52.7043C13.8919 52.7043 12.4251 53.7696 12.4251 55.0119L12.2788 56.3441C12.2788 56.3441 8.6531 61.407 9.83116 66.6779Z" fill="#0071F2"/>
<g opacity="0.2">
<path d="M22.9875 48.3974H22.9946C23.004 48.3953 23.0123 48.3889 23.0178 48.3795C23.0233 48.37 23.0256 48.3584 23.0241 48.347C22.6094 45.5671 23.5028 43.4759 24.3241 42.2114C24.8584 41.3866 25.5029 40.6756 26.231 40.108C26.2391 40.1019 26.245 40.0922 26.2472 40.0809C26.2495 40.0696 26.2481 40.0577 26.2432 40.0477C26.2408 40.0426 26.2377 40.0381 26.2339 40.0345C26.2301 40.031 26.2257 40.0283 26.2211 40.0268C26.2164 40.0253 26.2116 40.025 26.2068 40.0258C26.202 40.0267 26.1975 40.0287 26.1934 40.0318C25.4585 40.6044 24.8079 41.3216 24.2682 42.1536C23.4367 43.4329 22.5321 45.5486 22.9519 48.3618C22.9534 48.3719 22.9577 48.381 22.9643 48.3875C22.9708 48.3941 22.979 48.3976 22.9875 48.3974Z" fill="black"/>
</g>
<path opacity="0.2" d="M25.9203 52.1704C25.9203 52.1704 24.3793 52.9687 24.2329 52.9687C24.0866 52.9687 22.7693 51.0166 22.3281 47.998C22.3281 47.998 22.6951 49.2416 25.9203 52.1704Z" fill="black"/>
<path opacity="0.3" d="M25.8526 52.0658C25.8755 52.044 25.9045 52.034 25.9334 52.0379C25.9623 52.0419 25.9888 52.0594 26.0071 52.0867C26.8569 53.3721 29.3045 54.3414 29.3289 54.3512C29.3491 54.3595 29.367 54.3744 29.3807 54.3943C31.0304 56.8544 33.8958 57.7794 34.5432 57.9615C34.5707 56.7314 35.5516 55.4226 35.5932 55.3673C36.4328 54.1827 36.441 52.9846 36.441 52.9699C36.4395 52.9513 36.4412 52.9325 36.4461 52.9148C36.451 52.897 36.4589 52.8807 36.4692 52.8669C36.4796 52.8531 36.4923 52.842 36.5064 52.8344C36.5205 52.8269 36.5358 52.823 36.5512 52.823C36.5667 52.823 36.582 52.8269 36.5961 52.8344C36.6102 52.842 36.6229 52.8531 36.6332 52.8669C36.6436 52.8807 36.6515 52.897 36.6564 52.9148C36.6613 52.9325 36.663 52.9513 36.6615 52.9699C36.6615 53.0228 36.6615 54.2762 35.7579 55.5456C35.7477 55.5592 34.7059 56.9516 34.7648 58.1116C35.0474 59.6922 36.3434 60.1141 36.3637 60.1203C36.3777 60.1244 36.3909 60.1319 36.4026 60.1423C36.4142 60.1526 36.424 60.1657 36.4315 60.1807C36.439 60.1956 36.4439 60.2122 36.446 60.2295C36.4482 60.2468 36.4475 60.2644 36.444 60.2814C36.4378 60.31 36.424 60.3354 36.4047 60.3536C36.3854 60.3718 36.3617 60.3819 36.3373 60.3823H36.3098C36.2519 60.3638 34.901 59.9333 34.5636 58.2456C34.0554 58.1103 30.9928 57.1939 29.2303 54.5973C28.9253 54.4743 26.6831 53.5406 25.8353 52.2601C25.8255 52.2462 25.8181 52.23 25.8136 52.2126C25.8091 52.1951 25.8076 52.1766 25.8092 52.1584C25.8108 52.1402 25.8155 52.1226 25.823 52.1067C25.8305 52.0907 25.8405 52.0768 25.8526 52.0658Z" fill="black"/>
<g opacity="0.2">
<path d="M16.0922 64.643C18.8569 64.2912 20.9295 62.5235 20.9508 62.5051L25.9375 58.3229C26.8615 57.3708 27.1959 57.3597 27.1999 57.3597C27.1999 57.3597 27.205 57.3597 27.2081 57.3597C27.5252 57.2785 27.7163 57.1555 27.7773 56.9907C27.7886 56.9609 27.7948 56.9287 27.7957 56.896C27.7966 56.8633 27.7921 56.8306 27.7824 56.8C27.7824 56.6328 27.8159 56.5233 27.884 56.4778C28.0162 56.3855 28.2438 56.5491 28.2459 56.5516C28.4065 56.6586 28.5325 56.6746 28.623 56.5922C28.8557 56.3867 28.7399 55.6192 28.7246 55.5392C28.7378 55.2625 28.7897 55.1013 28.8761 55.0718C29.0865 55.0017 29.4859 55.6241 29.6262 55.8701C29.6317 55.8797 29.6402 55.8863 29.6497 55.8884C29.6593 55.8904 29.6691 55.8879 29.677 55.8812C29.681 55.878 29.6845 55.8738 29.6872 55.869C29.6898 55.8641 29.6917 55.8587 29.6927 55.853C29.6936 55.8473 29.6936 55.8414 29.6927 55.8357C29.6917 55.83 29.6899 55.8245 29.6872 55.8197C29.6333 55.7237 29.1546 54.8861 28.8568 54.9869C28.7327 55.0275 28.6657 55.2096 28.6535 55.5405C28.653 55.5441 28.653 55.5479 28.6535 55.5515C28.689 55.7705 28.747 56.372 28.5793 56.5208C28.5132 56.5786 28.4136 56.5626 28.2814 56.4741C28.2723 56.4667 28.0162 56.2834 27.8464 56.4003C27.7539 56.4642 27.7072 56.602 27.7092 56.8099C27.7078 56.8172 27.7078 56.8247 27.7092 56.832C27.7168 56.8512 27.7208 56.8722 27.7208 56.8935C27.7208 56.9148 27.7168 56.9359 27.7092 56.955C27.6736 57.0461 27.5567 57.174 27.201 57.2662C27.1532 57.2662 26.7944 57.3191 25.8979 58.2503L20.9173 62.4325C20.897 62.451 18.8386 64.205 16.0932 64.5556C16.0837 64.5569 16.0749 64.5626 16.0689 64.5716C16.0628 64.5805 16.0598 64.592 16.0607 64.6036C16.0617 64.6134 16.0653 64.6225 16.071 64.6296C16.0767 64.6368 16.0841 64.6414 16.0922 64.643Z" fill="black"/>
</g>
<g opacity="0.3">
<path d="M13.525 65.529C13.5419 65.5293 13.5586 65.5247 13.5738 65.5157C13.589 65.5068 13.6022 65.4936 13.6124 65.4773C14.7874 63.6113 15.2468 61.2779 15.2468 61.2569C15.2503 61.2399 15.2509 61.2222 15.2486 61.2048C15.2463 61.1875 15.2412 61.1709 15.2335 61.156C15.2259 61.1411 15.2158 61.1282 15.2039 61.1181C15.1921 61.108 15.1787 61.1008 15.1645 61.097C15.1361 61.0893 15.1063 61.0954 15.0815 61.114C15.0568 61.1327 15.0391 61.1624 15.0324 61.1967C15.0324 61.22 14.5841 63.4994 13.4386 65.3174C13.4298 65.3313 13.4233 65.3472 13.4196 65.3642C13.4159 65.3812 13.4151 65.3989 13.417 65.4163C13.419 65.4336 13.4238 65.4504 13.4312 65.4655C13.4386 65.4806 13.4483 65.4938 13.4599 65.5044C13.4786 65.5214 13.5016 65.5301 13.525 65.529Z" fill="black"/>
</g>
<path d="M20.558 54.8064C20.558 54.8064 17.7058 54.3906 15.3578 54.4792C15.1498 54.993 14.9797 55.5281 14.8496 56.0783L18.0423 56.1336L20.558 54.8064Z" fill="#2F2E41"/>
<path d="M14.2591 54.5664C14.0596 55.0634 13.9134 55.5892 13.8241 56.1311L12.4326 56.3205C12.3925 56.3263 12.3518 56.3224 12.313 56.3091C12.2742 56.2957 12.2379 56.2732 12.2063 56.2427C12.1747 56.2123 12.1485 56.1746 12.129 56.1318C12.1096 56.0889 12.0974 56.0419 12.0931 55.9933C12.0833 55.8418 12.0957 55.6894 12.1297 55.5431C12.1297 55.5431 12.2028 54.9219 12.8635 54.8333L14.2591 54.5664Z" fill="#2F2E41"/>
<path d="M15.1387 70.5982C16.0921 72.5171 18.6596 76.3143 18.6596 76.3143C19.0998 77.291 20.1996 76.4915 20.1996 76.4915L27.0626 72.1518L28.9278 62.0234C23.4969 66.5747 18.6617 69.1295 16.4621 70.1677C16.0354 70.3697 15.5915 70.514 15.1387 70.5982Z" fill="#0071F2"/>
<path opacity="0.2" d="M15.1387 70.5982C16.0921 72.5171 18.6596 76.3143 18.6596 76.3143C19.0998 77.291 20.1996 76.4915 20.1996 76.4915L27.0626 72.1518L28.9278 62.0234C23.4969 66.5747 18.6617 69.1295 16.4621 70.1677C16.0354 70.3697 15.5915 70.514 15.1387 70.5982Z" fill="black"/>
<path opacity="0.2" d="M19.5002 68.5468C20.1914 68.6821 22.3686 68.3007 24.3019 67.8911H24.308C26.0777 67.5221 27.642 67.1371 27.6745 67.1297C27.684 67.1275 27.6939 67.1299 27.7021 67.1363C27.7102 67.1427 27.716 67.1527 27.7182 67.1642C27.72 67.1757 27.7181 67.1877 27.7128 67.1975C27.7075 67.2074 27.6992 67.2144 27.6897 67.2171C27.5596 67.249 26.0634 67.6144 24.3751 67.9699C24.49 68.0929 25.0348 68.441 27.5342 68.3709C27.543 68.3726 27.551 68.3781 27.5568 68.3863C27.5625 68.3945 27.5657 68.405 27.5657 68.4158C27.5657 68.4265 27.5625 68.437 27.5568 68.4452C27.551 68.4534 27.543 68.4589 27.5342 68.4606C27.3045 68.4668 27.0921 68.4693 26.8939 68.4693C24.7522 68.4693 24.3599 68.1199 24.2877 67.9871C22.6329 68.3327 20.8053 68.6648 19.8722 68.6648C19.7431 68.667 19.6139 68.6572 19.486 68.6353C19.4764 68.6335 19.4679 68.6272 19.4621 68.6177C19.4564 68.6083 19.454 68.5965 19.4555 68.5849C19.4561 68.5787 19.4577 68.5727 19.4604 68.5673C19.463 68.5619 19.4666 68.5573 19.4708 68.5537C19.475 68.5501 19.4798 68.5476 19.4849 68.5464C19.49 68.5452 19.4952 68.5453 19.5002 68.5468Z" fill="black"/>
<g opacity="0.3">
<path d="M29.1493 73.0743C29.1744 73.0742 29.1987 73.0638 29.2183 73.0448C29.2379 73.0258 29.2515 72.9993 29.2571 72.9697L30.7238 64.8033C32.0167 58.4586 31.7707 57.6763 31.7403 57.6074L31.5492 57.7403C31.5472 57.7363 31.5455 57.7322 31.5441 57.728C31.5542 57.76 31.7657 58.589 30.5114 64.7393L29.0436 72.9094C29.0405 72.9266 29.0402 72.9443 29.0427 72.9616C29.0453 72.9788 29.0506 72.9953 29.0585 73.0101C29.0663 73.0248 29.0765 73.0375 29.0884 73.0475C29.1004 73.0575 29.1138 73.0645 29.128 73.0681L29.1493 73.0743Z" fill="black"/>
</g>
<path d="M37.7969 59.8123C38.8133 60.2649 49.98 60.8689 49.98 60.8689C51.0798 60.8689 53.6474 62.1998 53.6474 62.1998C54.8945 63.1765 54.9687 62.6439 54.9687 62.6439C55.2615 62.0288 53.2814 61.2231 53.2814 60.8689C53.2814 60.5146 54.3802 61.046 54.3802 61.046C56.1407 61.661 56.2881 61.3129 56.2881 61.3129C56.7282 60.602 53.7937 59.7138 53.7937 59.7138C53.2072 59.2698 54.9118 59.6253 54.9118 59.6253C57.2771 60.2465 57.0931 59.6253 57.0931 59.6253C57.3137 58.8257 54.0133 58.2931 54.0133 58.2931V58.116C57.6074 58.3817 57.2405 57.7605 57.2405 57.7605C57.1673 57.2279 55.847 57.1455 55.847 57.1455L53.3993 56.5932C52.8555 56.4517 53.1808 55.9289 53.4085 55.646C53.5934 55.4212 53.7475 55.1621 53.8649 54.8785C54.1891 54.074 53.9401 53.7714 53.9401 53.7714C53.7368 53.2289 53.3394 53.7087 53.1015 54.0728C52.9175 54.3531 52.7051 54.6044 52.4693 54.8206C51.7652 55.4745 50.9949 56.0169 50.1772 56.4345C49.6436 56.7888 48.5123 56.4345 48.5123 56.4345C44.1141 55.6313 39.4384 54.1662 39.4384 54.1662C39.5401 57.0372 38.175 59.271 38.175 59.271C38.065 59.467 37.9383 59.6484 37.7969 59.8123Z" fill="#F9B499"/>
<path d="M36.0665 64.1445L39.4381 68.1779L42.1825 69.9898C42.2845 70.0573 42.3931 70.109 42.5057 70.1436C42.8656 70.2543 43.5222 70.4548 43.1563 70.9874C43.1563 70.9874 42.8229 71.5372 41.6316 71.0858C41.5199 71.046 41.4133 70.988 41.3145 70.9136C41.1904 70.8164 40.915 70.675 40.4495 70.8041C40.4495 70.8041 39.6007 71.21 38.3535 70.4105L36.592 70.1448L35.1426 69.3748L36.0665 64.1445Z" fill="#F9B499"/>
<path d="M42.2566 72.2653C42.3473 72.3957 42.4092 72.5519 42.4365 72.7192C42.468 72.9222 42.4477 73.1596 42.2057 73.2112C42.2057 73.2112 41.8175 73.2998 41.4942 72.8127C41.4942 72.8127 41.2482 74.365 40.2206 73.3896L39.9218 73.0624C39.9218 73.0624 39.5609 73.7439 38.9744 73.2998C38.9744 73.2998 38.5343 73.8324 37.9468 72.5901C37.9468 72.5901 37.214 70.4596 38.2406 70.8151C38.2406 70.8151 38.8718 70.4793 39.4369 71.269C39.4369 71.269 39.9279 70.5481 40.4412 71.4363L40.8813 71.9689C40.8813 71.9689 41.0246 70.4448 42.2566 72.2653Z" fill="#F9B499"/>
<path d="M39.4375 71.2656C39.5511 71.8809 39.7134 72.4815 39.9223 73.0591C39.8095 72.4435 39.6471 71.8428 39.4375 71.2656Z" fill="#F7A48B"/>
<path d="M38.2441 70.8105C38.4406 71.6585 38.6859 72.4887 38.978 73.2953C38.7803 72.4478 38.5351 71.6177 38.2441 70.8105Z" fill="#F7A48B"/>
<path d="M40.8848 71.9648C41.0489 72.2843 41.2549 72.5693 41.4946 72.8087C41.3305 72.4893 41.1245 72.2043 40.8848 71.9648Z" fill="#F7A48B"/>
<path d="M39.2052 70.7075C38.6309 70.1682 38.0891 69.58 37.584 68.9473C38.017 69.6644 38.5693 70.264 39.2052 70.7075Z" fill="#F7A48B"/>
<path d="M17.4968 74.5486L17.266 74.8045L14.1852 75.7812L12.502 71.3431L13.6546 70.6542C13.6546 70.6542 14.5562 70.7416 15.1427 70.5977C15.3968 71.0749 15.6658 71.56 15.9497 72.0528C16.4661 72.9483 16.9835 73.7798 17.4968 74.5486Z" fill="#F9B499"/>
<path d="M17.633 75.6926C17.633 75.6926 17.8536 74.8931 17.2671 74.8045L16.3868 74.3605C16.3868 74.3605 15.8735 74.0948 15.4334 74.716C15.4334 74.716 14.5531 75.9583 14.0398 74.8045C14.0398 74.8045 13.1992 72.743 12.7388 71.1992C12.7388 71.1992 11.1785 71.9643 10.959 72.5855C10.959 72.5855 12.4359 74.8956 13.1952 77.0568C13.3415 77.472 13.5669 77.8395 13.8528 78.1294C14.4688 78.758 15.5513 79.8515 16.2404 80.4665C16.5061 80.7051 16.8248 80.8418 17.1553 80.8589L20.6386 81.0151C20.6386 81.0151 20.9395 79.9536 19.1739 79.0655C19.1739 79.0655 17.7072 78.6214 17.633 77.5562V75.6926Z" fill="#0071F2"/>
<path d="M20.6405 81.0193C20.6405 81.0193 20.6405 81.4621 19.9808 81.4621L17.1195 81.3735C16.8779 81.4006 16.6344 81.361 16.4072 81.2576C16.1801 81.1543 15.9753 80.9899 15.8083 80.777C15.8083 80.777 14.0214 79.3267 12.0474 76.7989C12.0474 76.7989 9.26847 73.4777 10.9558 72.5859C11.8389 73.9689 12.5892 75.469 13.192 77.0572C13.3378 77.4728 13.5632 77.8405 13.8496 78.1298C13.8496 78.1298 15.5013 79.7449 16.2372 80.467C16.2372 80.467 16.7536 80.8803 17.152 80.8594L20.6405 81.0193Z" fill="#2F2E41"/>
<path d="M26.1406 77.2906C27.1672 78.0889 28.7946 78.6646 28.7946 78.6646C29.9848 78.5318 29.8832 77.2021 29.8832 77.2021C29.8832 76.2254 30.4687 76.314 30.4687 76.314H30.7411L30.7634 76.2254L31.0033 75.2598C27.7954 75.7161 26.5096 75.1602 26.5096 75.1602L26.1406 77.2906Z" fill="#F9B499"/>
<path d="M25.4805 79.8646C25.4805 79.8646 29.8258 80.9384 31.2041 81.1967C33.7889 81.6777 37.0039 81.1438 37.6016 81.0368C37.6337 81.0316 37.6629 81.0118 37.6833 80.9814C37.7037 80.951 37.7137 80.9123 37.7114 80.8732C37.69 80.5325 37.3444 79.6555 34.5787 78.8891C33.6431 78.4572 32.7932 77.7916 32.0843 76.9358C32.0843 76.9358 31.6442 76.3146 31.1309 76.3146H30.4692C30.4692 76.3146 29.8837 76.226 29.8837 77.2027C29.8837 77.2027 29.9854 78.5324 28.7971 78.6652C28.7971 78.6652 27.1708 78.0896 26.1432 77.2913C25.8446 78.1169 25.6224 78.9799 25.4805 79.8646Z" fill="#0071F2"/>
<path d="M26.1413 81.3954L28.9284 81.7337C34.1366 82.1802 37.5834 81.3954 37.5834 81.3954C37.9503 81.3266 37.7094 80.8739 37.7094 80.8739C37.7118 80.9129 37.7018 80.9516 37.6814 80.982C37.661 81.0124 37.6317 81.0323 37.5997 81.0375C37.002 81.1445 33.787 81.6783 31.2021 81.1974C29.8269 80.9403 25.4816 79.8652 25.4816 79.8652C25.1146 81.4631 26.1413 81.3954 26.1413 81.3954Z" fill="#2F2E41"/>
<path d="M31.2025 38.2335C31.6887 38.2335 32.0828 37.6574 32.0828 36.9468C32.0828 36.2362 31.6887 35.6602 31.2025 35.6602C30.7164 35.6602 30.3223 36.2362 30.3223 36.9468C30.3223 37.6574 30.7164 38.2335 31.2025 38.2335Z" fill="#F9B499"/>
<path d="M15.9743 57.4536C15.9913 57.4537 16.0081 57.4487 16.0231 57.4389C18.3503 56.0447 20.7377 54.8026 23.1748 53.7179C23.1893 53.7128 23.2028 53.7042 23.2145 53.6926C23.2261 53.6809 23.2357 53.6665 23.2426 53.6503C23.2495 53.634 23.2535 53.6162 23.2545 53.5979C23.2555 53.5797 23.2534 53.5614 23.2483 53.5442C23.2433 53.527 23.2353 53.5112 23.2251 53.4978C23.2148 53.4844 23.2023 53.4737 23.1885 53.4664C23.1746 53.459 23.1597 53.4552 23.1446 53.4551C23.1295 53.455 23.1145 53.4586 23.1006 53.4658C20.6559 54.5553 18.2608 55.8015 15.9255 57.199C15.9035 57.2127 15.8859 57.2348 15.8755 57.2619C15.8651 57.2891 15.8625 57.3196 15.8681 57.3488C15.8737 57.3779 15.8872 57.4039 15.9065 57.4227C15.9257 57.4415 15.9496 57.4519 15.9743 57.4524V57.4536Z" fill="#0071F2"/>
<g opacity="0.3">
<path d="M15.9743 57.4536C15.9913 57.4537 16.0081 57.4487 16.0231 57.4389C18.3503 56.0447 20.7377 54.8026 23.1748 53.7179C23.1893 53.7128 23.2028 53.7042 23.2145 53.6926C23.2261 53.6809 23.2357 53.6665 23.2426 53.6503C23.2495 53.634 23.2535 53.6162 23.2545 53.5979C23.2555 53.5797 23.2534 53.5614 23.2483 53.5442C23.2433 53.527 23.2353 53.5112 23.2251 53.4978C23.2148 53.4844 23.2023 53.4737 23.1885 53.4664C23.1746 53.459 23.1597 53.4552 23.1446 53.4551C23.1295 53.455 23.1145 53.4586 23.1006 53.4658C20.6559 54.5553 18.2608 55.8015 15.9255 57.199C15.9035 57.2127 15.8859 57.2348 15.8755 57.2619C15.8651 57.2891 15.8625 57.3196 15.8681 57.3488C15.8737 57.3779 15.8872 57.4039 15.9065 57.4227C15.9257 57.4415 15.9496 57.4519 15.9743 57.4524V57.4536Z" fill="black"/>
</g>
<path d="M58.0723 74.3652L58.9352 79.4626C58.9352 79.4626 59.1507 81.6767 60.3379 81.8133H70.7535C70.7535 81.8133 71.6683 81.9437 71.778 79.7222L72.3564 74.3677L58.0723 74.3652Z" fill="#0071F2"/>
<path opacity="0.3" d="M58.0723 74.3652L58.2664 75.5141C58.2664 75.5141 68.6342 75.0701 71.9885 77.7873L72.3574 74.3652H58.0723Z" fill="black"/>
<path d="M58.6106 65.2219C58.6106 65.2219 57.6398 66.3978 58.3951 67.8346C58.3951 67.8346 58.6106 68.227 59.259 68.6181C59.259 68.6181 59.5386 68.7313 59.752 69.4792C59.7814 69.5837 59.8032 69.6911 59.8171 69.8002L59.9472 70.7683H61.4566L60.986 68.8838C60.937 68.7044 60.93 68.512 60.9659 68.3281C61.0018 68.1442 61.0791 67.9759 61.1893 67.842C61.304 67.7014 61.3981 67.5384 61.4678 67.3598C61.6436 66.8886 61.8296 66.0214 61.2503 65.2527C61.0877 65.041 60.8906 64.8726 60.6713 64.7582C60.452 64.6438 60.2154 64.586 59.9767 64.5884C59.8197 64.5826 59.6641 64.6249 59.5243 64.7114L60.0712 66.1248C60.0857 66.1631 60.0873 66.2066 60.0757 66.2463C60.0642 66.286 60.0403 66.3188 60.0092 66.3376L59.3831 66.7164C59.3672 66.7261 59.35 66.732 59.3323 66.7336C59.3147 66.7352 59.2969 66.7325 59.2801 66.7258C59.2633 66.719 59.2477 66.7083 59.2343 66.6943C59.221 66.6802 59.21 66.6631 59.2021 66.6439L58.6106 65.2219Z" fill="#CCCCCC"/>
<path opacity="0.2" d="M60.123 69.5323L60.3711 70.7734H60.9748L60.6628 69.2715L60.123 69.5323Z" fill="black"/>
<path d="M65.5246 68.6939L65.4375 70.7676L65.5451 70.7742L65.6322 68.7005L65.5246 68.6939Z" fill="#2F2E41"/>
<path d="M69.7627 69.7426L68.5115 69.3379L68.4007 69.8422L68.5643 69.8951L68.3438 71.1645L69.2697 71.4007L69.4801 70.1916L69.6519 70.2481L69.7627 69.7426Z" fill="#2F2E41"/>
<path d="M64.0079 59.2148H62.3887V71.0997H64.0079V59.2148Z" fill="#2F2E41"/>
<path opacity="0.2" d="M64.0075 59.2148H63.1445V71.0997H64.0075V59.2148Z" fill="black"/>
<path d="M57.2617 70.7734H72.9018L72.5877 74.8228H57.8787L57.2617 70.7734Z" fill="#0071F2"/>
<path d="M66.1335 68.1263L66.3368 68.146L66.5888 64.4693C66.597 64.3403 66.5629 64.2126 66.4938 64.1139C66.4248 64.0151 66.3263 63.9532 66.2199 63.9416L65.6242 63.8826C65.5168 63.8717 65.4102 63.9129 65.3279 63.9971C65.2455 64.0812 65.1942 64.2016 65.1851 64.3316L64.933 68.0095L65.1953 68.0353V68.3244L64.7887 68.2874L64.748 68.9394L66.3622 69.0845L66.4028 68.4338L66.1131 68.408L66.1335 68.1263Z" fill="#0071F2"/>
<g opacity="0.2">
<path d="M65.4664 64.1706L65.2168 67.6719L65.3241 67.6831L65.5737 64.1818L65.4664 64.1706Z" fill="black"/>
</g>
<g opacity="0.2">
<path d="M65.898 64.1706L65.6484 67.6719L65.7558 67.6831L66.0053 64.1818L65.898 64.1706Z" fill="black"/>
</g>
<g opacity="0.2">
<path d="M66.3296 64.1706L66.0801 67.6719L66.1874 67.6831L66.437 64.1818L66.3296 64.1706Z" fill="black"/>
</g>
</svg>
