<svg width="80" height="83" viewBox="0 0 80 83" fill="none" xmlns="http://www.w3.org/2000/svg">
<g clip-path="url(#clip0_1550_639)">
<path d="M12.9517 9.45508C12.3095 9.45636 11.6938 9.90713 11.2396 10.7085C10.7855 11.5099 10.53 12.5964 10.5293 13.7297V60.2022C10.53 61.3355 10.7855 62.422 11.2396 63.2234C11.6938 64.0247 12.3095 64.4755 12.9517 64.4768H67.5397C68.1819 64.4755 68.7977 64.0247 69.2518 63.2234C69.706 62.422 69.9614 61.3355 69.9621 60.2022V13.7297C69.9614 12.5964 69.706 11.5099 69.2518 10.7085C68.7977 9.90713 68.1819 9.45636 67.5397 9.45508H12.9517Z" fill="white"/>
<path d="M67.5404 64.6443H12.9525C12.2852 64.6429 11.6454 64.1746 11.1736 63.3419C10.7017 62.5093 10.4363 61.3804 10.4355 60.2029V13.7304C10.4363 12.5529 10.7017 11.424 11.1736 10.5914C11.6454 9.75876 12.2852 9.2904 12.9525 9.28906H67.5404C68.2077 9.2904 68.8475 9.75876 69.3193 10.5914C69.7912 11.424 70.0566 12.5529 70.0574 13.7304V60.2029C70.0566 61.3804 69.7912 62.5093 69.3193 63.3419C68.8475 64.1746 68.2077 64.6429 67.5404 64.6443ZM12.9525 9.62253C12.3353 9.62375 11.7436 10.0569 11.3071 10.8271C10.8707 11.5972 10.6252 12.6413 10.6245 13.7304V60.2029C10.6252 61.292 10.8707 62.3361 11.3071 63.1063C11.7436 63.8764 12.3353 64.3096 12.9525 64.3108H67.5404C68.1576 64.3096 68.7493 63.8764 69.1858 63.1063C69.6222 62.3361 69.8677 61.292 69.8684 60.2029V13.7304C69.8677 12.6413 69.6222 11.5972 69.1858 10.8271C68.7493 10.0569 68.1576 9.62375 67.5404 9.62253H12.9525Z" fill="#3F3D56"/>
<path d="M28.7025 62.0399C28.7067 61.8533 28.3827 61.6791 27.9789 61.6508C27.575 61.6226 27.2442 61.7509 27.24 61.9375C27.2358 62.1241 27.5598 62.2983 27.9637 62.3266C28.3675 62.3549 28.6983 62.2265 28.7025 62.0399Z" fill="#E6E6E6"/>
<path d="M33.3607 61.6063C33.3649 61.4197 33.0409 61.2455 32.6371 61.2172C32.2332 61.189 31.9024 61.3173 31.8982 61.5039C31.894 61.6905 32.218 61.8647 32.6219 61.893C33.0257 61.9213 33.3565 61.7929 33.3607 61.6063Z" fill="#3F3D56"/>
<path d="M26.9135 59.5047C26.9177 59.3181 26.5937 59.144 26.1898 59.1157C25.7859 59.0874 25.4552 59.2157 25.451 59.4024C25.4468 59.589 25.7708 59.7632 26.1746 59.7914C26.5785 59.8197 26.9093 59.6914 26.9135 59.5047Z" fill="#FF6584"/>
<path d="M24.6625 58.5785C24.6733 58.4119 24.5372 58.2477 24.3585 58.2118C24.1799 58.1758 24.0263 58.2818 24.0156 58.4484C24.0048 58.6149 24.1409 58.7791 24.3196 58.8151C24.4982 58.851 24.6518 58.745 24.6625 58.5785Z" fill="#E6E6E6"/>
<path d="M23.5883 56.6351C23.5991 56.4685 23.463 56.3043 23.2843 56.2684C23.1057 56.2325 22.9521 56.3384 22.9414 56.505C22.9306 56.6716 23.0667 56.8358 23.2454 56.8717C23.424 56.9076 23.5775 56.8017 23.5883 56.6351Z" fill="#3F3D56"/>
<path d="M29.6625 59.9437C29.6733 59.7771 29.5372 59.6129 29.3585 59.577C29.1799 59.5411 29.0263 59.647 29.0156 59.8136C29.0048 59.9802 29.1409 60.1444 29.3196 60.1803C29.4982 60.2162 29.6518 60.1103 29.6625 59.9437Z" fill="#E6E6E6"/>
<path d="M27.5317 60.7699C27.5424 60.6033 27.4063 60.4391 27.2277 60.4032C27.049 60.3672 26.8955 60.4732 26.8847 60.6398C26.874 60.8064 27.0101 60.9705 27.1887 61.0065C27.3674 61.0424 27.5209 60.9365 27.5317 60.7699Z" fill="#FF6584"/>
<path d="M30.9809 62.1019C30.9916 61.9353 30.8555 61.7711 30.6769 61.7352C30.4982 61.6993 30.3447 61.8052 30.3339 61.9718C30.3232 62.1384 30.4593 62.3026 30.6379 62.3385C30.8166 62.3744 30.9701 62.2685 30.9809 62.1019Z" fill="#3F3D56"/>
<path d="M4.97668e-07 55.2062C-4.35402e-05 55.2323 0.00283547 55.2581 0.00847089 55.2822C0.0141063 55.3064 0.0223878 55.3283 0.0328382 55.3467C0.0432887 55.3651 0.0557016 55.3798 0.069364 55.3897C0.0830265 55.3996 0.0976683 55.4047 0.112447 55.4046H79.8876C79.9174 55.4046 79.946 55.3837 79.9671 55.3465C79.9882 55.3093 80 55.2588 80 55.2062C80 55.1536 79.9882 55.1031 79.9671 55.0659C79.946 55.0287 79.9174 55.0078 79.8876 55.0078H0.112441C0.0976631 55.0077 0.0830227 55.0128 0.0693612 55.0228C0.0556996 55.0327 0.0432865 55.0473 0.0328368 55.0658C0.0223871 55.0842 0.0141061 55.1061 0.00847089 55.1302C0.00283565 55.1543 -4.3035e-05 55.1801 4.97668e-07 55.2062Z" fill="#CCCCCC"/>
<path d="M27.2689 51.7016C27.2145 51.706 27.1607 51.6808 27.1148 51.6295C27.0688 51.5781 27.0329 51.5031 27.0119 51.4146C26.991 51.326 26.9859 51.2282 26.9975 51.1345C27.009 51.0407 27.0367 50.9554 27.0766 50.8903L27.0948 50.7628C27.0924 50.7526 27.09 50.7424 27.0876 50.7322C27.0328 50.504 26.9411 50.3095 26.8239 50.1731C26.7067 50.0366 26.5693 49.9643 26.4289 49.9652C26.2885 49.9661 26.1514 50.0403 26.0348 50.1782C25.9182 50.3162 25.8273 50.5119 25.7735 50.7408C25.5586 51.6542 25.285 52.5691 25.2176 53.5348C25.188 53.9617 25.2005 54.3944 25.2546 54.8138C24.7499 52.8708 24.4877 50.759 24.4861 48.6215C24.4859 48.0852 24.5028 47.5492 24.5366 47.0162C24.5646 46.5792 24.6033 46.1453 24.6529 45.7146C24.9235 43.3773 25.5043 41.1867 26.3478 39.3225C26.7561 38.9294 27.0863 38.325 27.2938 37.5906C27.369 37.3266 27.4222 37.0448 27.4516 36.754C27.4056 36.7646 27.278 35.527 27.3127 35.451C27.2485 35.2792 27.1337 35.1937 27.0636 35.026C26.715 34.192 26.2347 34.3377 25.9839 35.471C25.4483 35.948 25.4431 36.7391 25.7718 37.5C25.9809 37.9841 26.0096 38.6391 26.1931 39.1573C26.1742 39.1999 26.1546 39.2412 26.1357 39.2839C25.7907 40.0668 25.4899 40.9074 25.2378 41.7938C25.2992 40.8008 25.226 39.7963 25.0244 38.8629C24.82 37.993 24.437 37.2604 24.0997 36.5084C23.6946 35.6051 22.8638 35.9993 22.7924 37.1444C22.7917 37.1554 22.791 37.1665 22.7904 37.1776C22.8405 37.2275 22.8895 37.2804 22.9375 37.3364C22.9978 37.4075 23.0445 37.509 23.0715 37.6277C23.0985 37.7464 23.1046 37.8768 23.0889 38.0017C23.0732 38.1266 23.0365 38.2402 22.9836 38.3277C22.9307 38.4151 22.8641 38.4724 22.7924 38.4919L22.7851 38.4939C22.8029 38.8125 22.8345 39.1282 22.8795 39.4384C22.4467 42.3913 23.3809 43.4668 24.7148 43.5151C24.7443 43.5417 24.773 43.5684 24.8024 43.5937C24.5491 44.8603 24.3902 46.1796 24.3298 47.5184C24.2955 48.3083 24.2976 49.1018 24.3358 49.8912L24.3336 49.8632C24.2369 48.9855 23.9716 48.1935 23.5823 47.621C23.0042 46.783 22.1875 46.4745 21.5638 45.8009C21.4976 45.7258 21.4205 45.6857 21.3417 45.6854C21.263 45.685 21.1858 45.7245 21.1193 45.799C21.0528 45.8735 20.9998 45.98 20.9665 46.106C20.9332 46.2319 20.921 46.372 20.9313 46.5098C20.9321 46.5196 20.933 46.5294 20.9339 46.5392C21.0268 46.6061 21.1174 46.683 21.2049 46.7697C21.255 46.8196 21.304 46.8725 21.352 46.9285C21.4123 46.9996 21.459 47.1011 21.486 47.2198C21.513 47.3386 21.5191 47.4689 21.5034 47.5938C21.4877 47.7187 21.4511 47.8323 21.3981 47.9198C21.3452 48.0073 21.2786 48.0645 21.207 48.084L21.1996 48.086C21.1943 48.0873 21.1898 48.0886 21.1845 48.09C21.3434 48.7593 21.5663 49.3753 21.8436 49.9111C22.1142 52.4888 23.2762 52.7334 24.5193 51.9828H24.52C24.6564 53.0286 24.854 54.0465 25.1097 55.0203H27.2161C27.2236 54.979 27.2304 54.9363 27.2372 54.895C27.0422 54.9167 26.8465 54.8961 26.6544 54.8338C26.8106 54.4954 26.9669 54.1543 27.1232 53.8159C27.1267 53.8096 27.13 53.8029 27.133 53.7959C27.2123 53.6228 27.2923 53.4509 27.3716 53.2777L27.3716 53.2775C27.3759 52.7466 27.3413 52.2169 27.2689 51.7016Z" fill="#F2F2F2"/>
<path d="M16.7524 49.6389C16.6644 49.6461 16.5771 49.6052 16.5026 49.522C16.4281 49.4388 16.3699 49.3171 16.3359 49.1735C16.3019 49.03 16.2937 48.8714 16.3124 48.7193C16.3312 48.5673 16.376 48.4291 16.4407 48.3234C16.4516 48.2474 16.4594 48.1927 16.4702 48.1167C16.4663 48.1001 16.4624 48.0836 16.4585 48.0671C16.3697 47.6971 16.221 47.3818 16.031 47.1605C15.841 46.9393 15.6182 46.822 15.3906 46.8235C15.1629 46.825 14.9406 46.9452 14.7516 47.1689C14.5625 47.3926 14.4151 47.71 14.3279 48.081C13.9794 49.562 13.5358 51.0455 13.4265 52.6114C13.3784 53.3035 13.3987 54.0052 13.4865 54.6851C12.6681 51.5347 12.2431 48.1105 12.2403 44.6448C12.2402 43.7752 12.2675 42.9062 12.3224 42.0419C12.3677 41.3333 12.4305 40.6299 12.5109 39.9314C12.9496 36.1418 13.8914 32.5898 15.2591 29.5671C15.921 28.9298 16.4564 27.9497 16.793 26.759C16.9149 26.3309 17.0011 25.874 17.0488 25.4024C16.9741 25.4197 16.7672 23.4129 16.8236 23.2898C16.7195 23.0111 16.5332 22.8726 16.4196 22.6007C15.8544 21.2484 15.0756 21.4845 14.669 23.3222C13.8006 24.0957 13.7922 25.3784 14.3251 26.6121C14.6641 27.397 14.7107 28.459 15.0081 29.2993C14.9775 29.3684 14.9457 29.4354 14.9151 29.5045C14.3557 30.7739 13.8681 32.137 13.4593 33.5742C13.5587 31.9641 13.4401 30.3353 13.1132 28.8219C12.7818 27.4114 12.1608 26.2236 11.6139 25.0042C10.957 23.5396 9.60991 24.1788 9.49417 26.0354C9.49306 26.0534 9.49196 26.0714 9.4909 26.0893C9.57213 26.1702 9.65164 26.256 9.72945 26.3468C9.82718 26.4621 9.90292 26.6267 9.94672 26.8192C9.99053 27.0117 10.0004 27.223 9.97493 27.4255C9.94951 27.628 9.89001 27.8123 9.80423 27.9541C9.71845 28.0959 9.6104 28.1887 9.49422 28.2203L9.48233 28.2235C9.51127 28.7402 9.56242 29.2521 9.63534 29.7551C8.93374 34.5429 10.4485 36.2867 12.6112 36.3651C12.659 36.4083 12.7055 36.4515 12.7533 36.4925C12.3426 38.5462 12.085 40.6854 11.9869 42.8562C11.9314 44.137 11.9347 45.4236 11.9967 46.7034L11.9931 46.6581C11.8364 45.2349 11.4061 43.9508 10.775 43.0226C9.83768 41.6639 8.5134 41.1635 7.50217 40.0714C7.01539 39.5456 6.39163 40.225 6.47658 41.2209C6.47794 41.2368 6.47931 41.2527 6.48072 41.2686C6.63146 41.3769 6.77823 41.5017 6.92018 41.6422C7.00141 41.7231 7.08093 41.809 7.15873 41.8997C7.25647 42.015 7.3322 42.1796 7.37601 42.3721C7.41981 42.5646 7.42964 42.7759 7.40422 42.9784C7.37879 43.1809 7.31929 43.3652 7.23352 43.507C7.14774 43.6488 7.03968 43.7416 6.92351 43.7732L6.9116 43.7765C6.90304 43.7786 6.89569 43.7808 6.88713 43.783C7.1447 44.8682 7.5062 45.867 7.9558 46.7358C8.3945 50.9154 10.2787 51.312 12.2942 50.0948H12.2954C12.5166 51.7905 12.837 53.4411 13.2515 55.0199H16.6669C16.6791 54.9529 16.6901 54.8838 16.7011 54.8168C16.385 54.8519 16.0676 54.8186 15.7561 54.7175C16.0095 54.1688 16.2629 53.6158 16.5163 53.0672C16.5219 53.0569 16.5273 53.0461 16.5322 53.0347C16.6607 52.7539 16.7905 52.4753 16.919 52.1945L16.9191 52.1941C16.926 51.3333 16.87 50.4746 16.7526 49.639L16.7524 49.6389Z" fill="#F2F2F2"/>
<path d="M63.4956 3.00842C63.2663 -0.0927628 59.2125 0.105064 58.8298 3.02278C58.6267 2.79869 58.1102 2.95379 57.9176 3.21137C57.725 3.46894 57.6015 3.84759 57.4806 4.21516C57.3156 4.7257 57.1446 5.2545 57.108 5.83988C57.0699 6.42412 57.2 7.08597 57.5002 7.34612C57.7383 7.55343 58.2623 7.41344 58.5241 7.32062C58.7068 7.25654 58.8601 7.20041 58.9902 7.14537C59.0339 6.78224 59.0037 6.40355 58.905 6.07574C59.0102 6.11259 59.1094 6.19005 59.1956 6.30258C59.2818 6.41511 59.3528 6.5599 59.4036 6.72658C59.4241 6.79639 60.1668 16.6614 60.1668 16.6614C60.3698 16.7046 60.5747 16.7136 60.7787 16.6884C60.9052 15.4743 60.9283 14.2336 60.847 13.0075C61.0621 13.7083 61.2322 14.4492 61.3543 15.2165C61.4242 15.6457 61.4817 16.0809 61.5265 16.5204C63.294 15.9372 65.6832 13.9284 66.1192 10.5175C66.1168 10.5065 66.1144 10.4955 66.112 10.4845C66.0881 10.3802 66.0856 10.2646 66.1047 10.1574C66.1239 10.0502 66.1636 9.95814 66.217 9.89691C66.2704 9.83568 66.3343 9.80914 66.3976 9.82181C66.4609 9.83449 66.5197 9.8856 66.564 9.96639C66.6172 10.0632 66.6648 10.1459 66.7049 10.21C66.55 8.03168 65.6136 6.07153 63.4956 3.00842Z" fill="#2F2E41"/>
<path d="M37.6862 78.9591L36.6953 78.0449L38.2666 70.7148L39.7292 72.0642L37.6862 78.9591Z" fill="#A0616A"/>
<path d="M33.6896 78.8714C33.6283 79.0788 33.6161 79.3207 33.6557 79.5439C33.6953 79.7671 33.7835 79.9535 33.9008 80.0622L35.8712 81.8797L36.5772 80.9537L36.343 82.3141L37.0862 83.0008L38.1868 78.3886L37.9359 78.1233L36.9138 77.0368L36.5837 76.6875L36.2129 77.9388L34.0711 78.4048C33.9909 78.4223 33.9142 78.4739 33.8478 78.5552C33.7813 78.6365 33.727 78.745 33.6896 78.8714Z" fill="#2F2E41"/>
<path d="M36.6719 51.9739L35.9512 50.4654L38.9793 44.7324L40.0431 46.959L36.6719 51.9739Z" fill="#A0616A"/>
<path d="M32.9901 49.2194C32.8888 49.3703 32.8256 49.586 32.8143 49.819C32.803 50.0521 32.8446 50.2836 32.9299 50.4626L34.3631 53.462L35.2153 53.0771L34.7064 54.1794L35.2467 55.3118L37.2557 51.7794L37.0805 51.3661L36.3678 49.6773L36.1373 49.1333L35.5255 50.0434L33.4434 49.0426C33.3654 49.0052 33.2834 49.0017 33.2044 49.0325C33.1254 49.0633 33.0519 49.1274 32.9901 49.2194Z" fill="#2F2E41"/>
<path d="M68.4589 46.3216C68.4589 46.3216 71.519 57.8794 58.8467 54.765C58.8467 54.765 52.0952 41.5618 52.2902 39.9732C52.2902 39.9732 49.4167 34.8207 49.5573 34.7269C49.6979 34.6331 49.7846 34.4294 49.5523 34.4479C49.3199 34.4664 49.3199 33.8561 49.3199 33.8561C49.3199 33.8561 44.1268 43.7938 39.754 48.7252L38.2422 45.724C38.2422 45.724 38.8318 42.4696 39.1152 42.4696C39.3987 42.4696 39.4964 42.5898 39.5421 41.9461C39.5877 41.3024 39.362 40.7497 39.6638 40.6926C39.9656 40.6355 46.2215 27.7338 46.2215 27.7338C46.2215 27.7338 46.8964 23.4843 48.9586 24.3068C51.0207 25.1294 61.7362 40.5022 61.7362 40.5022L68.4589 46.3216Z" fill="#2F2E41"/>
<path d="M63.2997 55.14L46.5582 54.8949L39.2826 75.2362L37.2266 73.3156L37.6823 72.9762C37.6823 72.9762 37.5444 70.149 37.7134 69.4332C37.8824 68.7175 38.3853 68.9328 38.3853 68.9328L42.6271 51.6712C42.9197 50.139 43.4944 48.8236 44.2597 47.9346C45.025 47.0456 45.9369 46.634 46.8501 46.7655C50.36 45.8622 56.0576 46.584 61.9769 47.4703L63.2997 55.14Z" fill="#2F2E41"/>
<path d="M53.6058 20.5197C53.9245 20.6059 54.2115 20.9081 54.4058 21.362C54.6002 21.816 54.6864 22.3858 54.6463 22.9503C54.6371 23.0648 54.6226 23.1777 54.6028 23.288L58.0428 27.8924L57.333 31.7946L53.007 24.5881C52.7542 24.4082 52.5423 24.0857 52.4043 23.671C52.2663 23.2562 52.2099 22.7725 52.2441 22.2953C52.265 22.0241 52.316 21.7628 52.3942 21.5264C52.4723 21.29 52.5761 21.083 52.6995 20.9173C52.823 20.7517 52.9637 20.6305 53.1137 20.5609C53.2637 20.4912 53.42 20.4743 53.5737 20.5112C53.5844 20.5138 53.5951 20.5166 53.6058 20.5197Z" fill="#A0616A"/>
<path d="M68.7827 20.8069L67.5459 26.8493L62.7091 38.9107C62.7091 38.9107 62.6694 38.8807 62.5976 38.8273C62.1818 38.5105 60.6719 37.3468 59.2517 36.0246C57.9185 34.7824 56.6628 33.4002 56.4681 32.4498C56.4473 32.3498 56.4284 32.2531 56.4114 32.1597V32.158C56.3208 31.6741 56.264 31.1724 56.2423 30.6641C56.2262 30.2723 56.2404 30.0622 56.2102 30.0372C56.1866 30.0189 56.1374 30.1089 56.0288 30.3123C56.0212 30.3256 56.0146 30.339 56.007 30.3507C55.614 31.0459 55.1311 30.9559 55.2492 30.6258C55.3702 30.2873 55.3069 30.294 55.1292 29.9405C54.997 29.6771 54.567 28.6467 54.3554 28.1381C54.2826 27.963 54.2363 27.8497 54.2363 27.8497L54.3091 27.6479L54.5103 27.091L55.4675 24.4433L55.5204 24.2983C55.5204 24.2983 57.4877 25.1003 57.7494 25.8622C58.0121 26.6242 57.3535 26.5992 58.0121 26.6242C58.6706 26.6492 59.3424 25.0686 58.8615 26.6409C58.3806 28.2115 58.5072 28.76 59.1024 28.5116C59.3443 28.4099 59.727 28.7317 60.0955 29.1485V29.1502C60.3259 29.4144 60.5483 29.6999 60.7617 30.0055C60.9894 30.329 61.1434 30.5741 61.1434 30.5741L64.8794 17.1988L65.2933 15.7182C65.4194 15.2677 65.5952 14.8661 65.8103 14.5368C66.0254 14.2076 66.2756 13.9574 66.5462 13.8008L66.6756 14.1993C67.4816 16.2938 68.1865 18.5041 68.7827 20.8069Z" fill="#0071F2"/>
<path d="M68.9886 39.9858C70.1338 40.456 68.9155 55.1659 67.5505 55.2118C57.6293 55.5453 60.65 45.723 60.1181 44.7827C59.5861 43.8406 59.1061 44.5159 59.5861 43.0503C59.9357 41.9832 60.4544 42.1416 60.462 41.5431C60.4658 41.3196 60.3987 40.9928 60.2248 40.456C59.5861 38.4819 59.5861 37.8933 59.5861 37.8933C59.4269 37.3005 59.314 36.6723 59.2507 36.0259C59.147 35.0647 59.1343 34.0799 59.2129 33.1114C59.3328 31.6906 59.6343 30.3365 60.0944 29.1515V29.1498C60.1426 29.0231 60.1927 28.8947 60.2456 28.768C60.3656 28.4796 61.0308 28.5346 61.0308 28.5346L62.4481 18.0304L61.628 13.8421L65.5124 10.6309L66.5451 13.8021L66.6746 14.2006C67.4805 16.2951 68.1854 18.5055 68.7816 20.8082C69.3552 23.0608 69.8267 25.5618 69.8437 27.7376C69.889 33.4115 69.3344 35.0989 69.3344 35.0989C69.3344 35.0989 70.6809 36.8746 70.0072 37.96C69.3344 39.0471 67.8434 39.5156 68.9886 39.9858Z" fill="#0071F2"/>
<path d="M51.391 19.1382L50.7572 19.9878C50.632 20.1567 50.5499 20.4063 50.5288 20.6819C50.5077 20.9575 50.5494 21.2366 50.6446 21.4581L52.1711 24.9985L53.0724 27.0872C53.168 27.3077 53.3092 27.4525 53.4651 27.4897C53.6211 27.5269 53.779 27.4535 53.9043 27.2856L54.5388 26.435C54.6635 26.2656 54.7452 26.0162 54.7662 25.741C54.7871 25.4658 54.7456 25.1872 54.6507 24.9657L54.5572 24.7475L52.7081 20.4605L52.2229 19.3367C52.1757 19.2272 52.1167 19.1352 52.0494 19.066C51.982 18.9968 51.9075 18.9517 51.8303 18.9333C51.753 18.9148 51.6745 18.9235 51.5991 18.9586C51.5237 18.9938 51.453 19.0548 51.391 19.1382Z" fill="#3F3D56"/>
<path d="M51.7237 19.0738L51.041 19.9143C50.9808 19.9838 50.9296 20.075 50.8908 20.1819C50.852 20.2888 50.8265 20.4091 50.816 20.5346C50.8055 20.6602 50.8102 20.7883 50.8298 20.9105C50.8493 21.0326 50.8834 21.1461 50.9296 21.2433L51.8233 23.1434L52.2995 24.1556L52.6172 24.8309L53.3278 26.3417C53.4283 26.5444 53.5675 26.6748 53.719 26.708C53.8704 26.7413 54.0235 26.675 54.1491 26.522L54.6607 25.8922L54.8309 25.6827C54.9157 25.5829 54.982 25.441 55.0213 25.275C55.0606 25.1089 55.0712 24.9261 55.0518 24.7494C55.0347 24.6026 54.9971 24.4656 54.9425 24.351L52.8427 19.886L52.545 19.2541C52.4446 19.0511 52.3054 18.9205 52.1539 18.8873C52.0024 18.854 51.8492 18.9204 51.7237 19.0738Z" fill="#0071F2"/>
<path d="M52.1585 23.7678C52.4772 23.854 52.7642 24.1562 52.9586 24.6101C53.1529 25.064 53.2392 25.6338 53.199 26.1983C53.1899 26.3128 53.1753 26.4258 53.1556 26.5361L56.5956 31.1405L55.8857 35.0426L51.5598 27.8361C51.307 27.6563 51.095 27.3338 50.957 26.919C50.819 26.5043 50.7627 26.0205 50.7968 25.5433C50.8178 25.2721 50.8688 25.0109 50.9469 24.7744C51.025 24.538 51.1288 24.3311 51.2523 24.1654C51.3757 23.9997 51.5165 23.8786 51.6665 23.8089C51.8165 23.7392 51.9728 23.7224 52.1265 23.7593C52.1372 23.7618 52.1479 23.7647 52.1585 23.7678Z" fill="#A0616A"/>
<path d="M66.1894 16.9391C66.4901 17.0471 66.7741 17.2681 67.022 17.5871C67.27 17.9061 67.4761 18.3156 67.6264 18.7877C67.7767 19.2599 67.8675 19.7836 67.8929 20.3232C67.9182 20.8628 67.8773 21.4058 67.7731 21.9151L66.0989 30.0971L61.2613 42.1596C61.2613 42.1596 55.4598 37.8354 55.0205 35.698C54.5813 33.5606 54.9779 32.8231 54.5813 33.5606C54.1846 34.2981 53.6817 34.2107 53.8021 33.8732C53.9225 33.5357 53.8591 33.5429 53.6818 33.1893C53.5046 32.8358 52.7891 31.0984 52.7891 31.0984L54.073 27.5468C54.073 27.5468 56.0403 28.3482 56.3024 29.1106C56.5645 29.8731 55.9058 29.8481 56.5645 29.8731C57.2233 29.898 57.8953 28.3168 57.4141 29.8886C56.9329 31.4605 57.0598 32.0085 57.6551 31.7594C58.2505 31.5103 59.6956 33.8226 59.6956 33.8226L63.8463 18.9668C64.0551 18.2196 64.3982 17.6154 64.8221 17.2485C65.246 16.8817 65.7268 16.7729 66.1894 16.9391Z" fill="#0071F2"/>
<path d="M63.7144 12.0124C64.917 9.89028 64.917 6.44956 63.7144 4.3274C62.5117 2.20523 60.5619 2.20523 59.3592 4.3274C58.1566 6.44956 58.1566 9.89028 59.3592 12.0124C60.5619 14.1346 62.5117 14.1346 63.7144 12.0124Z" fill="#A0616A"/>
<path d="M65.138 2.25061C64.9087 -0.850575 60.8549 -0.652748 60.4722 2.26496C60.2691 2.04088 59.7526 2.19598 59.56 2.45356C59.3674 2.71113 59.2439 3.08978 59.123 3.45735C58.958 3.96789 57.8033 5.69512 57.6303 5.19154C57.2409 4.05824 56.4773 6.53469 57.0633 8.19272C57.2039 8.59027 59.9197 7.95207 60.1814 7.85926C60.0513 7.9143 60.3641 7.79517 60.1814 7.85926C60.2235 7.49956 60.6477 5.6411 60.5474 5.31793C60.6526 5.35478 60.7518 5.43224 60.838 5.54477C60.9242 5.65729 60.9953 5.80208 61.046 5.96876C61.0665 6.03857 61.8092 15.9036 61.8092 15.9036C62.0122 15.9468 62.2171 15.9558 62.4211 15.9305C62.5477 14.7164 62.5707 13.4758 62.4894 12.2497C62.7045 12.9505 62.8746 13.6914 62.9967 14.4587C63.0666 14.8879 63.1241 15.3231 63.1689 15.7626C64.9364 15.1794 67.3256 13.1706 67.7616 9.75964C65.3783 8.35945 67.256 5.31371 65.138 2.25061Z" fill="#2F2E41"/>
<path d="M38.1819 17.8353C38.2214 17.3563 37.9371 16.8867 37.5469 16.7866C37.1566 16.6864 36.8083 16.9935 36.7688 17.4725C36.7293 17.9515 37.0136 18.4211 37.4038 18.5213C37.7941 18.6214 38.1424 18.3143 38.1819 17.8353Z" fill="#E6E6E6"/>
<path d="M42.8284 17.0345C42.8679 16.5555 42.5836 16.086 42.1934 15.9858C41.8031 15.8856 41.4548 16.1927 41.4153 16.6717C41.3758 17.1507 41.6601 17.6203 42.0503 17.7205C42.4406 17.8207 42.7889 17.5135 42.8284 17.0345Z" fill="#3F3D56"/>
<path d="M36.9104 11.1966C36.9499 10.7176 36.6656 10.2481 36.2754 10.1479C35.8852 10.0477 35.5368 10.3548 35.4973 10.8338C35.4578 11.3129 35.7421 11.7824 36.1324 11.8826C36.5226 11.9828 36.8709 11.6757 36.9104 11.1966Z" fill="#FF6584"/>
<path d="M34.891 8.47774C34.8929 8.03798 34.7539 7.6796 34.5805 7.67729C34.4071 7.67498 34.2651 8.0296 34.2632 8.46936C34.2613 8.90913 34.4003 9.2675 34.5737 9.26981C34.747 9.27213 34.8891 8.9175 34.891 8.47774Z" fill="#E6E6E6"/>
<path d="M34.2054 3.41524C34.2073 2.97548 34.0683 2.6171 33.895 2.61479C33.7216 2.61248 33.5795 2.9671 33.5776 3.40686C33.5757 3.84663 33.7148 4.205 33.8881 4.20731C34.0615 4.20963 34.2036 3.855 34.2054 3.41524Z" fill="#3F3D56"/>
<path d="M39.5297 12.3274C39.5315 11.8876 39.3925 11.5292 39.2192 11.5269C39.0458 11.5246 38.9037 11.8792 38.9018 12.319C38.9 12.7587 39.039 13.1171 39.2123 13.1194C39.3857 13.1217 39.5278 12.7671 39.5297 12.3274Z" fill="#E6E6E6"/>
<path d="M37.2855 14.3039C37.2874 13.8642 37.1484 13.5058 36.975 13.5035C36.8017 13.5012 36.6596 13.8558 36.6577 14.2955C36.6558 14.7353 36.7948 15.0937 36.9682 15.096C37.1416 15.0983 37.2836 14.7437 37.2855 14.3039Z" fill="#FF6584"/>
<path d="M40.4105 17.9602C40.4124 17.5204 40.2734 17.162 40.1 17.1597C39.9267 17.1574 39.7846 17.512 39.7827 17.9518C39.7808 18.3915 39.9198 18.7499 40.0932 18.7522C40.2666 18.7545 40.4086 18.3999 40.4105 17.9602Z" fill="#3F3D56"/>
<path d="M51.1368 22.6359C51.1792 22.5824 51.1521 22.3871 51.0763 22.1999C51.0004 22.0126 50.9045 21.9042 50.862 21.9577C50.8196 22.0113 50.8467 22.2065 50.9225 22.3938C50.9984 22.5811 51.0943 22.6895 51.1368 22.6359Z" fill="#3F3D56"/>
<path d="M50.8516 21.9699C50.8941 21.9164 50.867 21.7211 50.7911 21.5338C50.7152 21.3466 50.6193 21.2382 50.5769 21.2917C50.5344 21.3453 50.5615 21.5405 50.6374 21.7278C50.7132 21.915 50.8092 22.0235 50.8516 21.9699Z" fill="#3F3D56"/>
</g>
<defs>
<clipPath id="clip0_1550_639">
<rect width="80" height="83" fill="white"/>
</clipPath>
</defs>
</svg>
