<svg width="350" height="207" viewBox="0 0 350 207" fill="none" xmlns="http://www.w3.org/2000/svg">
<path d="M71.8752 175.55C71.8752 175.55 34.1245 155.681 32.6004 115.05C32.1274 102.468 40.8071 90.6802 55.2395 84.7165L55.9187 84.4402C66.099 80.3617 75.4811 75.2033 83.789 69.1166C89.4487 64.9598 96.2728 59.6884 103.926 53.2839C103.926 53.2839 174.636 -22.8932 253.994 7.57705C253.994 7.57705 333.352 27.1103 314.534 120.477C314.534 120.477 298.545 212.726 132.334 196.135C118.201 194.76 104.502 191.457 91.8824 186.381C84.9614 183.572 77.826 179.995 71.8752 175.55Z" fill="#0071F2"/>
<path opacity="0.7" d="M71.8752 175.55C71.8752 175.55 34.1245 155.681 32.6004 115.05C32.1274 102.468 40.8071 90.6802 55.2395 84.7165L55.9187 84.4402C66.099 80.3617 75.4811 75.2033 83.789 69.1166C89.4487 64.9598 96.2728 59.6884 103.926 53.2839C103.926 53.2839 174.636 -22.8932 253.994 7.57705C253.994 7.57705 333.352 27.1103 314.534 120.477C314.534 120.477 298.545 212.726 132.334 196.135C118.201 194.76 104.502 191.457 91.8824 186.381C84.9614 183.572 77.826 179.995 71.8752 175.55Z" fill="white"/>
<mask id="mask0_1584_41" style="mask-type:luminance" maskUnits="userSpaceOnUse" x="32" y="0" width="286" height="199">
<path d="M71.8752 175.55C71.8752 175.55 34.1245 155.681 32.6004 115.05C32.1274 102.468 40.8071 90.6802 55.2395 84.7165L55.9187 84.4402C66.099 80.3617 75.4811 75.2033 83.789 69.1166C89.4487 64.9598 96.2728 59.6884 103.926 53.2839C103.926 53.2839 174.636 -22.8932 253.994 7.57705C253.994 7.57705 333.352 27.1103 314.534 120.477C314.534 120.477 298.545 212.726 132.334 196.135C118.201 194.76 104.502 191.457 91.8824 186.381C84.9614 183.572 77.826 179.995 71.8752 175.55Z" fill="white"/>
</mask>
<g mask="url(#mask0_1584_41)">
<path d="M268.553 102.85H64.1865V200.329H268.553V102.85Z" fill="#E6E6E6"/>
<path d="M461.219 102.85H268.557V200.329H461.219V102.85Z" fill="#E6E6E6"/>
<path d="M186.627 187.887C197.07 187.887 205.535 182.006 205.535 174.752C205.535 167.498 197.07 161.617 186.627 161.617C176.185 161.617 167.72 167.498 167.72 174.752C167.72 182.006 176.185 187.887 186.627 187.887Z" fill="#B3B3B3"/>
<path opacity="0.2" d="M187.978 185.121C195.187 185.121 201.032 180.633 201.032 175.097C201.032 169.56 195.187 165.072 187.978 165.072C180.768 165.072 174.924 169.56 174.924 175.097C174.924 180.633 180.768 185.121 187.978 185.121Z" fill="black"/>
<path d="M21.8105 76.0918V182.497L64.186 200.329V102.849L21.8105 76.0918Z" fill="#CCCCCC"/>
<path d="M454.189 68.9746H17.3721L61.4859 99.3951H458.967L454.189 68.9746Z" fill="#CCCCCC"/>
<path d="M458.964 99.3945H61.4863V102.85H458.964V99.3945Z" fill="#999999"/>
<path d="M79.4924 78.6541C79.4924 78.6541 73.1898 73.122 82.1929 73.8143L158.721 72.4297C158.721 72.4297 175.737 70.3559 179.832 75.5342C183.492 78.1332 186.769 81.0337 189.603 84.1832C189.603 84.1832 195.635 91.7891 184.833 92.4814H108.175C105.701 92.4855 103.243 92.1783 100.898 91.5718C97.3611 90.6404 92.4088 88.9237 89.0008 85.9123L79.4924 78.6541Z" fill="#E6E6E6"/>
<path d="M98.2135 90.8904C97.2943 90.5298 96.5002 90.0063 95.8971 89.363C93.7908 87.1309 90.1039 81.813 103.319 82.2507H168.435C168.435 82.2507 176.581 81.4156 177.551 85.9109C177.551 85.9109 183.001 92.4799 166.806 92.4799H108.187C104.736 92.6616 101.286 92.1118 98.2135 90.8904Z" fill="#B3B3B3"/>
<path d="M218.14 78.6541C218.14 78.6541 211.837 73.122 220.84 73.8143L297.364 72.4297C297.364 72.4297 314.38 70.3559 318.475 75.5342C322.143 78.132 325.427 81.0326 328.267 84.1832C328.267 84.1832 334.298 91.7891 323.492 92.4814H246.819C244.345 92.4855 241.886 92.1783 239.542 91.5718C236.005 90.6404 231.052 88.9237 227.644 85.9123L218.14 78.6541Z" fill="#E6E6E6"/>
<path d="M236.858 90.8904C235.94 90.5301 235.147 90.0064 234.546 89.363C232.435 87.1309 228.752 81.813 241.964 82.2507H307.084C307.084 82.2507 315.226 81.4156 316.2 85.9109C316.2 85.9109 321.645 92.4799 305.454 92.4799H246.835C243.383 92.662 239.931 92.1122 236.858 90.8904Z" fill="#B3B3B3"/>
<path d="M100.199 108.382C99.2117 107.68 98.4356 106.822 97.9245 105.866C97.4134 104.911 97.1797 103.881 97.2397 102.85H178.433V106.519C178.433 106.519 179.351 120.365 135.504 118.384C131.637 118.201 127.809 117.68 124.095 116.832C116.919 115.224 105.066 112.116 100.199 108.382Z" fill="#808080"/>
<path d="M171.281 114.326H201.177C201.177 114.326 213.637 113.91 212.735 124.971L215.44 168.539C215.44 168.539 219.038 186.517 206.437 189.28C206.437 189.28 193.832 189.972 187.529 183.751C187.529 183.751 180.325 177.527 187.529 173.379C187.529 173.379 194.729 169.924 197.434 177.527C197.434 177.527 202.835 181.677 202.835 172.69L199.463 128.675C199.401 127.859 198.94 127.091 198.173 126.525C197.405 125.958 196.388 125.635 195.323 125.62L159.283 125.077C157.448 125.051 155.7 124.473 154.415 123.467C153.13 122.462 152.41 121.109 152.41 119.7L152.58 118.312C152.58 118.312 164.942 117.508 171.281 114.326Z" fill="#CCCCCC"/>
<path d="M198.751 127.05C198.565 126.761 207.334 128.431 212.735 124.973L212.961 128.583C212.961 128.583 208.009 131.688 199.568 130.061C199.568 130.061 200.069 129.114 198.751 127.05Z" fill="#2F2E41"/>
<path d="M216.689 140.872C215.861 140.873 215.064 140.63 214.462 140.194C213.861 139.757 213.5 139.16 213.455 138.525L212.929 131.267C212.903 130.902 212.974 130.537 213.138 130.194C213.303 129.851 213.556 129.537 213.883 129.271C214.21 129.006 214.605 128.794 215.042 128.649C215.479 128.505 215.95 128.43 216.426 128.43C217.354 128.43 218.245 128.713 218.901 129.217C219.558 129.721 219.927 130.405 219.927 131.118V138.386C219.927 138.712 219.844 139.036 219.681 139.338C219.519 139.64 219.28 139.914 218.98 140.145C218.679 140.376 218.322 140.559 217.929 140.684C217.535 140.809 217.114 140.873 216.689 140.872Z" fill="#2F2E41"/>
<path d="M219.923 131.677H247.955C247.955 131.677 255.935 131.885 255.034 123.59H264.595L263.924 130.531C263.924 130.531 263.155 137.417 250.55 138.109L219.939 138.386L219.923 131.677Z" fill="#CCCCCC"/>
<path d="M265.852 119.443H251.448V123.591H265.852V119.443Z" fill="#2F2E41"/>
<path d="M268.553 115.984H246.047V119.44H268.553V115.984Z" fill="#CCCCCC"/>
<path d="M193.189 102.85C193.189 102.85 192.93 109.763 203.732 112.529C203.732 112.529 215.456 118.738 246.047 117.714H268.557V102.85H193.189Z" fill="#808080"/>
<path d="M176.25 60.6797H169.996C169.236 60.6797 168.621 61.1523 168.621 61.7352V69.3039C168.621 69.8868 169.236 70.3594 169.996 70.3594H176.25C177.009 70.3594 177.624 69.8868 177.624 69.3039V61.7352C177.624 61.1523 177.009 60.6797 176.25 60.6797Z" fill="#E6E6E6"/>
<path d="M193.358 60.6797H187.104C186.345 60.6797 185.729 61.1523 185.729 61.7352V69.3039C185.729 69.8868 186.345 70.3594 187.104 70.3594H193.358C194.117 70.3594 194.733 69.8868 194.733 69.3039V61.7352C194.733 61.1523 194.117 60.6797 193.358 60.6797Z" fill="#E6E6E6"/>
<path d="M185.726 63.4414H177.624V68.9735H185.726V63.4414Z" fill="#0071F2"/>
<path d="M179.428 63.4418V45.467C179.428 41.9834 181.23 38.6424 184.438 36.1792C187.645 33.7159 191.996 32.332 196.532 32.332C201.069 32.332 205.419 33.7159 208.627 36.1792C211.835 38.6424 213.637 41.9834 213.637 45.467V48.9253H210.035V45.467C210.035 42.717 208.612 40.0796 206.08 38.1351C203.548 36.1905 200.113 35.0981 196.532 35.0981C194.759 35.0977 193.003 35.3656 191.364 35.8865C189.725 36.4074 188.236 37.1711 186.982 38.134C185.728 39.0969 184.733 40.24 184.054 41.4983C183.375 42.7565 183.026 44.105 183.026 45.467V63.4418H179.428Z" fill="#0071F2"/>
<path d="M206.437 47.541H217.239V54.6813C217.239 54.8081 217.173 54.9297 217.056 55.0193C216.94 55.109 216.781 55.1593 216.616 55.1593H207.055C206.89 55.1593 206.732 55.109 206.615 55.0193C206.498 54.9297 206.433 54.8081 206.433 54.6813V47.541H206.437Z" fill="#2F2E41"/>
<path d="M17.3721 68.9746V73.1004L61.4859 102.85V99.3951L17.3721 68.9746Z" fill="#B3B3B3"/>
</g>
<path d="M273.549 170.216L276.472 160.27L279.475 160.928L276.726 170.868L273.549 170.216Z" fill="white"/>
<path d="M283.017 159.225L280.866 161.113C280.708 161.253 280.501 161.357 280.269 161.412C280.038 161.467 279.791 161.471 279.556 161.423L276.468 160.777C276.217 160.724 275.992 160.613 275.823 160.461C275.655 160.308 275.55 160.12 275.522 159.92L275.182 157.3C275.182 157.3 275.348 156.95 273.565 156.465L267.99 155.72C267.923 155.712 267.858 155.693 267.8 155.665C267.742 155.637 267.692 155.6 267.652 155.557C267.613 155.514 267.585 155.465 267.57 155.414C267.555 155.363 267.554 155.309 267.566 155.258L268.233 152.436C268.247 152.383 268.274 152.334 268.313 152.29C268.353 152.246 268.403 152.208 268.461 152.179C268.52 152.15 268.585 152.131 268.653 152.121C268.722 152.112 268.792 152.113 268.86 152.125L276.055 153.367C276.055 153.367 277.632 152.762 280.029 153.581C280.135 153.615 280.244 153.656 280.349 153.696L284.642 155.345C284.642 155.345 287.217 156.003 288.078 157.983C288.078 157.983 291.018 162.047 291.058 163.823C291.056 163.933 291.017 164.042 290.944 164.138C290.872 164.233 290.768 164.313 290.644 164.369C290.519 164.425 290.378 164.455 290.234 164.457C290.09 164.458 289.947 164.431 289.821 164.378C289.098 164.008 288.5 163.509 288.078 162.926C288.078 162.926 285.552 160.156 283.809 159.2C283.699 159.125 283.554 159.086 283.407 159.091C283.259 159.095 283.12 159.143 283.017 159.225Z" fill="#0071F2"/>
<path d="M145.104 176.403L175.614 178.399C176.259 178.443 176.867 178.65 177.34 178.989L180.575 181.321L180.979 181.606C181.406 181.913 181.87 182.189 182.365 182.429C182.596 182.541 182.834 182.643 183.077 182.739C183.497 182.905 183.937 183.04 184.391 183.143C184.524 183.174 184.654 183.202 184.795 183.224C187.325 183.695 189.995 183.391 192.238 182.376C192.316 182.342 192.381 182.292 192.426 182.233C192.471 182.173 192.495 182.105 192.495 182.036C192.495 181.967 192.471 181.899 192.426 181.84C192.381 181.78 192.316 181.73 192.238 181.696L187.581 179.74L187.103 179.539C186.791 179.424 186.502 179.274 186.246 179.095C185.932 178.868 185.73 178.564 185.675 178.236C185.621 177.907 185.717 177.574 185.947 177.294L187.698 175.518C188.571 174.398 190.03 175.295 190.03 175.295L192.812 176.639C194.72 177.76 195.573 177.536 195.573 177.536C197.323 176.863 191.49 171.948 191.49 171.948C189.448 169.93 186.82 171.275 186.82 171.275L182.111 173.559C179.738 174.724 176.609 174.41 176.609 174.41L145.435 172.06C144.826 172.013 144.217 172.149 143.734 172.438C143.25 172.727 142.93 173.147 142.84 173.612C142.792 173.881 142.769 174.152 142.771 174.423C142.771 174.423 142.48 176.18 145.104 176.403ZM144.231 174.273C144.231 174.028 144.326 173.788 144.503 173.584C144.681 173.379 144.933 173.22 145.229 173.126C145.524 173.032 145.85 173.008 146.163 173.056C146.477 173.103 146.765 173.222 146.991 173.395C147.217 173.569 147.371 173.79 147.434 174.031C147.496 174.272 147.464 174.522 147.342 174.749C147.219 174.976 147.012 175.17 146.746 175.306C146.48 175.442 146.168 175.515 145.848 175.515C145.419 175.515 145.008 175.384 144.704 175.152C144.401 174.919 144.231 174.603 144.231 174.273Z" fill="#2F2E41"/>
<path opacity="0.2" d="M185.071 176.85L182.447 180.212L178.663 178.418L181.279 175.059L185.071 176.85Z" fill="black"/>
<path opacity="0.2" d="M183.077 182.735C183.498 182.901 183.938 183.036 184.391 183.139L187.581 179.739L187.104 179.538C186.791 179.423 186.502 179.273 186.247 179.094L183.077 182.735Z" fill="black"/>
<path d="M179.665 182.63L180.252 183.093C180.373 183.189 180.536 183.247 180.709 183.255C180.882 183.264 181.054 183.223 181.19 183.14L182.366 182.429C181.871 182.189 181.407 181.913 180.979 181.606L180.575 181.32L179.726 181.833C179.649 181.88 179.586 181.938 179.541 182.005C179.496 182.072 179.47 182.146 179.464 182.221C179.458 182.296 179.473 182.372 179.508 182.442C179.543 182.513 179.596 182.577 179.665 182.63Z" fill="#2F2E41"/>
<path opacity="0.2" d="M179.665 182.63L180.252 183.093C180.373 183.189 180.536 183.247 180.709 183.255C180.882 183.264 181.054 183.223 181.19 183.14L182.366 182.429C181.871 182.189 181.407 181.913 180.979 181.606L180.575 181.32L179.726 181.833C179.649 181.88 179.586 181.938 179.541 182.005C179.496 182.072 179.47 182.146 179.464 182.221C179.458 182.296 179.473 182.372 179.508 182.442C179.543 182.513 179.596 182.577 179.665 182.63Z" fill="black"/>
<path d="M144.123 97.5717C146.923 91.3379 144.289 84.9856 138.24 83.3834C132.191 81.7811 125.017 85.5357 122.217 91.7694C119.417 98.0032 122.051 104.356 128.101 105.958C134.15 107.56 141.324 103.805 144.123 97.5717Z" fill="#F9B499"/>
<path d="M136.352 87.6891C135.11 88.1752 133.756 88.4684 132.366 88.5521C132.052 88.5729 131.746 88.6425 131.468 88.7567C131.19 88.8709 130.946 89.0273 130.749 89.2165L127.608 92.2495C127.608 92.2495 126.043 92.0943 125.95 91.0078H122.251C122.251 91.0078 119.441 94.1898 112.439 90.8308L113.798 88.6142C114.304 87.788 114.611 86.8981 114.703 85.9879C114.804 85.0224 115.383 83.5447 117.691 82.3184C117.683 82.3122 121.766 83.2094 136.352 87.6891Z" fill="#2F2E41"/>
<path d="M112.432 90.8242L108.931 92.6155C108.931 92.6155 115.933 99.7868 118.847 103.146C118.847 103.146 120.937 100.731 121.936 100.817C121.936 100.817 119.603 96.7817 122.583 91.0012H122.243C122.243 91.0012 119.142 94.1832 112.432 90.8242Z" fill="#F9B499"/>
<path d="M117.683 82.3128L136.352 87.6898L150.356 92.6165C155.611 94.8579 157.709 94.6623 157.709 94.6623C159.816 94.0197 148.896 88.5838 148.896 88.5838C152.106 82.9958 151.524 78.7272 151.524 78.7272C150.812 71.8012 134.836 72.2886 128.909 72.7139C127.078 72.8339 125.352 73.4232 124.009 74.3872C123.142 75.035 122.357 75.745 121.665 76.5075C120.651 77.6195 119.756 78.7926 118.988 80.0155C118.139 81.3442 117.683 82.3128 117.683 82.3128Z" fill="#0071F2"/>
<path opacity="0.2" d="M118.988 80.0159L122.057 81.1924C122.057 81.1924 125.291 78.5071 121.652 76.5078C120.643 77.6201 119.752 78.7933 118.988 80.0159Z" fill="black"/>
<path d="M121.935 100.818C121.229 101.039 120.607 101.395 120.128 101.852C120.128 101.852 119.069 100.299 121.147 96.127C121.147 96.127 120.646 97.5954 121.935 100.818Z" fill="#F7A48B"/>
<path d="M39.1005 163.28C39.2986 163.842 39.4765 164.407 39.6221 164.978C40.0627 166.692 42.0477 171.221 50.982 172.891C54.004 173.452 57.1405 173.549 60.2115 173.177C62.0099 172.964 63.7724 172.6 65.467 172.09C74.2032 169.47 93.4464 163.031 115.047 151.536L107.628 177.098L105.429 184.682C105.429 184.682 112.706 186.473 129.641 184.232C131.037 183.988 132.402 183.649 133.72 183.22C134.429 182.981 135.057 182.619 135.554 182.162C136.051 181.705 136.403 181.166 136.582 180.587C138.062 175.906 142.407 161.811 145.981 146.82C145.981 146.82 147.833 147.77 150.327 145.948C150.884 145.534 151.382 145.076 151.815 144.582C151.815 144.582 157.26 138.953 156.856 131.708C156.856 131.45 156.82 131.186 156.787 130.925C156.787 130.925 155.623 127.566 148.912 127.116C148.394 127.237 147.841 127.239 147.323 127.119C146.804 127 146.343 126.766 145.997 126.446L122.044 108.064C121.872 107.932 121.75 107.766 121.689 107.585C121.629 107.403 121.633 107.213 121.701 107.033L121.749 106.915C121.807 106.763 121.819 106.602 121.784 106.446C121.749 106.289 121.668 106.141 121.547 106.012L118.855 103.147L108.938 92.6163C108.938 92.6163 107.321 90.0986 105.207 92.3679L103.201 94.6528C103.201 94.6528 94.9261 96.6397 88.8014 98.8811C88.8014 98.8811 83.5459 100.672 80.049 104.034L64.8808 118.147C64.8808 118.147 59.9204 121.972 59.3342 124.204C59.3342 124.204 59.3342 126.222 55.2511 128.013C55.2511 128.013 49.4175 130.702 49.4175 133.837L48.8353 137.199C48.8353 137.199 34.4151 149.977 39.1005 163.28Z" fill="#0071F2"/>
<g opacity="0.2">
<path d="M91.4252 117.147H91.4535C91.4908 117.142 91.5239 117.125 91.5458 117.102C91.5677 117.078 91.5766 117.048 91.5707 117.02C89.9213 110.004 93.4749 104.726 96.7413 101.535C98.8663 99.4529 101.43 97.6586 104.325 96.2261C104.358 96.2107 104.381 96.1861 104.39 96.1577C104.399 96.1292 104.393 96.0992 104.374 96.074C104.365 96.0611 104.352 96.0498 104.337 96.0407C104.322 96.0316 104.305 96.025 104.286 96.0212C104.268 96.0174 104.248 96.0166 104.229 96.0187C104.21 96.0209 104.192 96.0259 104.176 96.0336C101.253 97.479 98.6654 99.289 96.519 101.389C93.2121 104.617 89.6141 109.957 91.2837 117.057C91.2895 117.082 91.3069 117.106 91.3328 117.122C91.3588 117.139 91.3915 117.147 91.4252 117.147Z" fill="black"/>
</g>
<path opacity="0.2" d="M103.089 126.669C103.089 126.669 96.9599 128.684 96.3778 128.684C95.7956 128.684 90.5563 123.757 88.8018 116.139C88.8018 116.139 90.2612 119.277 103.089 126.669Z" fill="black"/>
<path opacity="0.3" d="M102.822 126.404C102.913 126.349 103.028 126.324 103.143 126.334C103.258 126.344 103.363 126.388 103.436 126.457C106.816 129.701 116.551 132.148 116.648 132.172C116.728 132.193 116.799 132.231 116.854 132.281C123.415 138.49 134.811 140.825 137.387 141.284C137.496 138.18 141.397 134.876 141.563 134.737C144.902 131.747 144.934 128.723 144.934 128.686C144.928 128.639 144.935 128.592 144.955 128.547C144.974 128.502 145.005 128.461 145.047 128.426C145.088 128.391 145.138 128.363 145.195 128.344C145.251 128.325 145.311 128.315 145.373 128.315C145.434 128.315 145.495 128.325 145.551 128.344C145.607 128.363 145.658 128.391 145.699 128.426C145.74 128.461 145.772 128.502 145.791 128.547C145.81 128.592 145.817 128.639 145.812 128.686C145.812 128.82 145.812 131.983 142.218 135.187C142.177 135.221 138.033 138.735 138.268 141.663C139.392 145.652 144.546 146.717 144.627 146.732C144.683 146.743 144.735 146.762 144.782 146.788C144.828 146.814 144.867 146.847 144.897 146.885C144.926 146.923 144.946 146.964 144.955 147.008C144.963 147.052 144.96 147.096 144.946 147.139C144.922 147.211 144.867 147.275 144.79 147.321C144.713 147.367 144.619 147.393 144.522 147.394H144.413C144.182 147.347 138.81 146.26 137.467 142.001C135.446 141.66 123.265 139.347 116.255 132.793C115.043 132.483 106.124 130.127 102.753 126.895C102.714 126.86 102.684 126.819 102.666 126.775C102.648 126.731 102.643 126.684 102.649 126.638C102.655 126.592 102.674 126.548 102.704 126.508C102.733 126.467 102.774 126.432 102.822 126.404Z" fill="black"/>
<g opacity="0.2">
<path d="M64.0038 158.145C75 157.257 83.243 152.796 83.3279 152.75L103.161 142.194C106.836 139.792 108.166 139.764 108.182 139.764C108.182 139.764 108.203 139.764 108.215 139.764C109.476 139.559 110.236 139.248 110.479 138.832C110.524 138.757 110.548 138.676 110.552 138.593C110.555 138.511 110.537 138.428 110.499 138.351C110.499 137.929 110.632 137.653 110.903 137.538C111.429 137.305 112.334 137.718 112.342 137.724C112.981 137.994 113.482 138.034 113.842 137.826C114.768 137.308 114.307 135.371 114.246 135.169C114.299 134.471 114.505 134.064 114.849 133.989C115.686 133.812 117.274 135.383 117.832 136.004C117.854 136.028 117.888 136.045 117.926 136.05C117.964 136.055 118.003 136.049 118.034 136.032C118.05 136.024 118.064 136.013 118.075 136.001C118.085 135.989 118.093 135.975 118.097 135.961C118.1 135.946 118.1 135.932 118.097 135.917C118.093 135.903 118.085 135.889 118.075 135.877C117.861 135.635 115.956 133.521 114.772 133.775C114.279 133.878 114.012 134.337 113.963 135.172C113.961 135.181 113.961 135.191 113.963 135.2C114.105 135.753 114.335 137.271 113.668 137.646C113.406 137.792 113.009 137.752 112.484 137.528C112.447 137.51 111.429 137.047 110.754 137.342C110.386 137.504 110.2 137.851 110.208 138.376C110.202 138.394 110.202 138.413 110.208 138.432C110.238 138.48 110.254 138.533 110.254 138.587C110.254 138.641 110.238 138.694 110.208 138.742C110.066 138.972 109.601 139.295 108.186 139.528C107.996 139.528 106.569 139.661 103.004 142.011L83.1945 152.566C83.1136 152.613 74.9272 157.04 64.0079 157.925C63.97 157.928 63.9351 157.942 63.911 157.965C63.8868 157.988 63.8751 158.017 63.8785 158.046C63.8825 158.071 63.8969 158.094 63.9195 158.112C63.9421 158.129 63.9717 158.141 64.0038 158.145Z" fill="black"/>
</g>
<g opacity="0.3">
<path d="M53.7918 160.383C53.859 160.384 53.9255 160.372 53.9859 160.35C54.0463 160.327 54.0989 160.294 54.1395 160.253C58.8128 155.543 60.6401 149.654 60.6401 149.601C60.6539 149.558 60.6562 149.514 60.6471 149.47C60.638 149.426 60.6176 149.384 60.5871 149.347C60.5566 149.309 60.5166 149.276 60.4695 149.251C60.4223 149.225 60.369 149.207 60.3127 149.198C60.1996 149.178 60.081 149.194 59.9827 149.241C59.8843 149.288 59.814 149.363 59.7871 149.449C59.7871 149.508 58.0043 155.261 53.4482 159.849C53.4131 159.884 53.3875 159.924 53.3728 159.967C53.3581 160.01 53.3546 160.055 53.3625 160.099C53.3704 160.143 53.3895 160.185 53.4188 160.223C53.4481 160.261 53.4869 160.294 53.5331 160.321C53.6074 160.364 53.6988 160.386 53.7918 160.383Z" fill="black"/>
</g>
<path d="M81.7672 133.318C81.7672 133.318 70.4234 132.269 61.0848 132.492C60.2575 133.789 59.5811 135.14 59.0635 136.528L71.7616 136.668L81.7672 133.318Z" fill="#2F2E41"/>
<path d="M56.7108 132.717C55.9174 133.971 55.3359 135.298 54.9805 136.666L49.4461 137.144C49.2866 137.158 49.125 137.149 48.9705 137.115C48.816 137.081 48.6718 137.024 48.5462 136.948C48.4206 136.871 48.3161 136.776 48.2388 136.667C48.1615 136.559 48.1129 136.441 48.0958 136.318C48.0571 135.936 48.1063 135.551 48.2414 135.182C48.2414 135.182 48.5324 133.614 51.1602 133.39L56.7108 132.717Z" fill="#2F2E41"/>
<path d="M60.2119 173.176C64.004 178.019 74.2158 187.603 74.2158 187.603C75.9663 190.068 80.3405 188.05 80.3405 188.05L107.637 177.097L115.055 151.535C93.455 163.022 74.2239 169.47 65.4755 172.09C63.7783 172.599 62.0131 172.964 60.2119 173.176Z" fill="#0071F2"/>
<path opacity="0.2" d="M60.2119 173.176C64.004 178.019 74.2158 187.603 74.2158 187.603C75.9663 190.068 80.3405 188.05 80.3405 188.05L107.637 177.097L115.055 151.535C93.455 163.022 74.2239 169.47 65.4755 172.09C63.7783 172.599 62.0131 172.964 60.2119 173.176Z" fill="black"/>
<path opacity="0.2" d="M77.5545 167.998C80.3036 168.34 88.963 167.377 96.6522 166.344H96.6765C103.715 165.412 109.937 164.441 110.066 164.422C110.104 164.416 110.143 164.422 110.176 164.439C110.208 164.455 110.231 164.48 110.24 164.509C110.247 164.538 110.239 164.568 110.218 164.593C110.197 164.618 110.164 164.636 110.127 164.642C109.609 164.723 103.658 165.645 96.9433 166.542C97.4001 166.853 99.567 167.731 109.508 167.554C109.543 167.559 109.575 167.573 109.598 167.593C109.62 167.614 109.633 167.64 109.633 167.668C109.633 167.695 109.62 167.721 109.598 167.742C109.575 167.763 109.543 167.777 109.508 167.781C108.594 167.797 107.749 167.803 106.961 167.803C98.4431 167.803 96.8827 166.921 96.5956 166.586C90.0141 167.458 82.7454 168.296 79.0342 168.296C78.5204 168.302 78.0068 168.277 77.498 168.222C77.4599 168.217 77.4258 168.201 77.4031 168.177C77.3804 168.154 77.3709 168.124 77.3767 168.095C77.379 168.079 77.3856 168.064 77.3961 168.05C77.4066 168.037 77.4207 168.025 77.4375 168.016C77.4543 168.007 77.4734 168 77.4936 167.997C77.5138 167.994 77.5345 167.995 77.5545 167.998Z" fill="black"/>
<g opacity="0.3">
<path d="M115.933 179.426C116.033 179.426 116.129 179.4 116.207 179.352C116.285 179.304 116.339 179.237 116.361 179.162L122.195 158.552C127.337 142.539 126.359 140.564 126.238 140.391L125.478 140.726C125.47 140.716 125.463 140.706 125.457 140.695C125.498 140.776 126.339 142.868 121.35 158.39L115.512 179.01C115.5 179.053 115.499 179.098 115.509 179.142C115.519 179.185 115.54 179.227 115.571 179.264C115.603 179.301 115.643 179.333 115.691 179.358C115.738 179.384 115.791 179.401 115.848 179.411L115.933 179.426Z" fill="black"/>
</g>
<path d="M150.327 145.958C154.37 147.1 198.783 148.624 198.783 148.624C203.157 148.624 213.369 151.983 213.369 151.983C218.329 154.448 218.624 153.104 218.624 153.104C219.789 151.552 211.913 149.518 211.913 148.624C211.913 147.73 216.284 149.071 216.284 149.071C223.286 150.624 223.872 149.745 223.872 149.745C225.622 147.951 213.951 145.709 213.951 145.709C211.618 144.589 218.398 145.486 218.398 145.486C227.805 147.053 227.074 145.486 227.074 145.486C227.951 143.468 214.824 142.124 214.824 142.124V141.677C229.119 142.347 227.66 140.779 227.66 140.779C227.369 139.435 222.117 139.227 222.117 139.227L212.382 137.833C210.22 137.476 211.513 136.157 212.419 135.443C213.154 134.875 213.767 134.221 214.234 133.506C215.524 131.475 214.533 130.712 214.533 130.712C213.725 129.343 212.144 130.553 211.198 131.472C210.466 132.18 209.621 132.814 208.683 133.36C205.883 135.01 202.819 136.379 199.567 137.433C197.445 138.327 192.945 137.433 192.945 137.433C175.452 135.406 156.856 131.708 156.856 131.708C157.26 138.954 151.831 144.592 151.831 144.592C151.394 145.086 150.889 145.544 150.327 145.958Z" fill="#F9B499"/>
<path d="M143.447 156.891L156.857 167.07L167.772 171.643C168.178 171.813 168.61 171.944 169.058 172.031C170.489 172.31 173.1 172.816 171.645 174.161C171.645 174.161 170.319 175.548 165.581 174.409C165.137 174.309 164.713 174.162 164.32 173.974C163.826 173.729 162.731 173.372 160.879 173.698C160.879 173.698 157.504 174.723 152.543 172.705L145.537 172.034L139.772 170.091L143.447 156.891Z" fill="#F9B499"/>
<path d="M168.063 177.384C168.424 177.713 168.67 178.107 168.779 178.53C168.904 179.042 168.823 179.641 167.861 179.771C167.861 179.771 166.317 179.995 165.031 178.766C165.031 178.766 164.053 182.683 159.966 180.222L158.777 179.396C158.777 179.396 157.342 181.116 155.009 179.995C155.009 179.995 153.259 181.339 150.922 178.204C150.922 178.204 148.007 172.827 152.09 173.724C152.09 173.724 154.601 172.876 156.849 174.869C156.849 174.869 158.801 173.05 160.843 175.292L162.593 176.636C162.593 176.636 163.163 172.789 168.063 177.384Z" fill="#F9B499"/>
<path d="M156.856 174.859C157.308 176.412 157.954 177.928 158.785 179.386C158.336 177.832 157.69 176.316 156.856 174.859Z" fill="#F7A48B"/>
<path d="M152.106 173.715C152.888 175.855 153.863 177.95 155.025 179.986C154.239 177.847 153.264 175.752 152.106 173.715Z" fill="#F7A48B"/>
<path d="M162.609 176.627C163.262 177.433 164.081 178.152 165.035 178.757C164.382 177.951 163.563 177.231 162.609 176.627Z" fill="#F7A48B"/>
<path d="M155.927 173.45C153.642 172.089 151.487 170.605 149.479 169.008C151.201 170.818 153.397 172.331 155.927 173.45Z" fill="#F7A48B"/>
<path d="M69.5904 183.149L68.6727 183.795L56.4193 186.26L49.7246 175.059L54.309 173.321C54.309 173.321 57.8949 173.541 60.2275 173.178C61.2382 174.382 62.3082 175.606 63.4374 176.85C65.4911 179.11 67.5488 181.209 69.5904 183.149Z" fill="#F9B499"/>
<path d="M70.1283 186.036C70.1283 186.036 71.0056 184.018 68.6729 183.794L65.172 182.674C65.172 182.674 63.1304 182.003 61.3799 183.571C61.3799 183.571 57.8789 186.706 55.8374 183.794C55.8374 183.794 52.4941 178.591 50.6627 174.695C50.6627 174.695 44.4572 176.626 43.584 178.194C43.584 178.194 49.458 184.024 52.4779 189.479C53.06 190.527 53.9562 191.454 55.0935 192.186C57.5434 193.772 61.8489 196.532 64.5898 198.084C65.6463 198.686 66.9137 199.031 68.2282 199.075L82.0825 199.469C82.0825 199.469 83.2792 196.79 76.257 194.548C76.257 194.548 70.4234 193.428 70.1283 190.739V186.036Z" fill="#0071F2"/>
<path d="M82.0912 199.477C82.0912 199.477 82.0912 200.595 79.4675 200.595L68.0873 200.372C67.1264 200.44 66.1578 200.34 65.2544 200.079C64.3511 199.818 63.5366 199.403 62.8723 198.866C62.8723 198.866 55.7652 195.206 47.9143 188.826C47.9143 188.826 36.8616 180.444 43.5725 178.193C47.085 181.684 50.0689 185.47 52.4664 189.478C53.0463 190.527 53.9429 191.455 55.082 192.185C55.082 192.185 61.6514 196.261 64.5783 198.084C64.5783 198.084 66.632 199.127 68.2167 199.074L82.0912 199.477Z" fill="#2F2E41"/>
<path d="M103.97 190.068C108.053 192.083 114.525 193.536 114.525 193.536C119.259 193.201 118.855 189.845 118.855 189.845C118.855 187.38 121.184 187.603 121.184 187.603H122.267L122.356 187.38L123.31 184.943C110.551 186.095 105.437 184.691 105.437 184.691L103.97 190.068Z" fill="#F9B499"/>
<path d="M101.347 196.562C101.347 196.562 118.629 199.273 124.111 199.925C134.392 201.138 147.179 199.791 149.556 199.521C149.683 199.508 149.8 199.458 149.881 199.381C149.962 199.304 150.002 199.207 149.992 199.108C149.907 198.248 148.533 196.035 137.533 194.101C133.812 193.01 130.432 191.331 127.612 189.171C127.612 189.171 125.862 187.603 123.82 187.603H121.188C121.188 187.603 118.86 187.379 118.86 189.844C118.86 189.844 119.264 193.2 114.538 193.536C114.538 193.536 108.07 192.083 103.983 190.068C102.795 192.152 101.911 194.33 101.347 196.562Z" fill="#0071F2"/>
<path d="M103.97 200.424L115.055 201.278C135.77 202.405 149.479 200.424 149.479 200.424C150.938 200.251 149.98 199.108 149.98 199.108C149.989 199.207 149.949 199.304 149.868 199.381C149.787 199.458 149.671 199.508 149.543 199.521C147.166 199.791 134.379 201.138 124.099 199.925C118.629 199.276 101.346 196.562 101.346 196.562C99.887 200.595 103.97 200.424 103.97 200.424Z" fill="#2F2E41"/>
<path d="M124.099 91.4965C126.032 91.4965 127.6 90.0426 127.6 88.2492C127.6 86.4558 126.032 85.002 124.099 85.002C122.165 85.002 120.598 86.4558 120.598 88.2492C120.598 90.0426 122.165 91.4965 124.099 91.4965Z" fill="#F9B499"/>
<path d="M63.5354 140C63.6031 140 63.6698 139.987 63.7294 139.963C72.9854 136.444 82.4805 133.309 92.1738 130.572C92.2315 130.559 92.2852 130.537 92.3315 130.508C92.3779 130.478 92.4159 130.442 92.4433 130.401C92.4707 130.36 92.4868 130.315 92.4908 130.269C92.4947 130.223 92.4863 130.177 92.4662 130.133C92.446 130.09 92.4145 130.05 92.3736 130.016C92.3326 129.982 92.2831 129.955 92.2281 129.937C92.1731 129.918 92.1137 129.908 92.0536 129.908C91.9935 129.908 91.934 129.917 91.8787 129.935C82.1554 132.685 72.6295 135.83 63.3413 139.357C63.2538 139.392 63.1838 139.448 63.1425 139.516C63.1011 139.584 63.0907 139.662 63.1131 139.735C63.1354 139.809 63.1891 139.874 63.2656 139.922C63.3421 139.969 63.4371 139.996 63.5354 139.997V140Z" fill="#0071F2"/>
<g opacity="0.3">
<path d="M63.5354 140C63.6031 140 63.6698 139.987 63.7294 139.963C72.9854 136.444 82.4805 133.309 92.1738 130.572C92.2315 130.559 92.2852 130.537 92.3315 130.508C92.3779 130.478 92.4159 130.442 92.4433 130.401C92.4707 130.36 92.4868 130.315 92.4908 130.269C92.4947 130.223 92.4863 130.177 92.4662 130.133C92.446 130.09 92.4145 130.05 92.3736 130.016C92.3326 129.982 92.2831 129.955 92.2281 129.937C92.1731 129.918 92.1137 129.908 92.0536 129.908C91.9935 129.908 91.934 129.917 91.8787 129.935C82.1554 132.685 72.6295 135.83 63.3413 139.357C63.2538 139.392 63.1838 139.448 63.1425 139.516C63.1011 139.584 63.0907 139.662 63.1131 139.735C63.1354 139.809 63.1891 139.874 63.2656 139.922C63.3421 139.969 63.4371 139.996 63.5354 139.997V140Z" fill="black"/>
</g>
<path d="M230.971 182.684L234.403 195.548C234.403 195.548 235.26 201.136 239.982 201.481H281.407C281.407 201.481 285.046 201.81 285.482 196.203L287.783 182.69L230.971 182.684Z" fill="#0071F2"/>
<path opacity="0.3" d="M230.971 182.684L231.743 185.583C231.743 185.583 272.978 184.462 286.319 191.32L287.787 182.684H230.971Z" fill="black"/>
<path d="M233.113 159.608C233.113 159.608 229.253 162.576 232.256 166.202C232.256 166.202 233.113 167.192 235.693 168.179C235.693 168.179 236.804 168.465 237.653 170.352C237.77 170.616 237.857 170.887 237.912 171.163L238.43 173.606H244.433L242.561 168.85C242.366 168.397 242.339 167.912 242.481 167.447C242.624 166.983 242.932 166.559 243.37 166.22C243.826 165.866 244.2 165.454 244.477 165.003C245.177 163.814 245.917 161.626 243.612 159.686C242.966 159.151 242.182 158.726 241.309 158.438C240.437 158.149 239.496 158.003 238.547 158.009C237.923 157.994 237.304 158.101 236.748 158.32L238.923 161.887C238.98 161.983 238.987 162.093 238.941 162.193C238.895 162.294 238.8 162.376 238.676 162.424L236.186 163.38C236.123 163.404 236.054 163.419 235.984 163.423C235.914 163.427 235.843 163.42 235.776 163.403C235.709 163.386 235.648 163.359 235.594 163.324C235.541 163.288 235.498 163.245 235.466 163.197L233.113 159.608Z" fill="#CCCCCC"/>
<path opacity="0.2" d="M239.125 170.486L240.111 173.619H242.513L241.272 169.828L239.125 170.486Z" fill="black"/>
<path d="M260.608 168.37L260.262 173.604L260.69 173.62L261.036 168.387L260.608 168.37Z" fill="#2F2E41"/>
<path d="M277.462 171.019L272.485 169.998L272.045 171.271L272.696 171.404L271.818 174.608L275.501 175.204L276.338 172.153L277.021 172.295L277.462 171.019Z" fill="#2F2E41"/>
<path d="M254.581 144.445H248.141V174.441H254.581V144.445Z" fill="#2F2E41"/>
<path opacity="0.2" d="M254.577 144.445H251.145V174.441H254.577V144.445Z" fill="black"/>
<path d="M227.749 173.617H289.954L288.705 183.837H230.203L227.749 173.617Z" fill="#0071F2"/>
<path d="M263.03 166.939L263.838 166.989L264.841 157.71C264.873 157.384 264.738 157.062 264.463 156.813C264.188 156.563 263.797 156.407 263.373 156.378L261.004 156.229C260.577 156.201 260.153 156.305 259.826 156.518C259.498 156.73 259.294 157.034 259.258 157.362L258.255 166.644L259.298 166.71V167.439L257.681 167.346L257.52 168.991L263.939 169.358L264.101 167.715L262.949 167.65L263.03 166.939Z" fill="#0071F2"/>
<g opacity="0.2">
<path d="M260.376 156.952L259.384 165.789L259.811 165.817L260.803 156.981L260.376 156.952Z" fill="black"/>
</g>
<g opacity="0.2">
<path d="M262.093 156.954L261.101 165.791L261.528 165.819L262.52 156.983L262.093 156.954Z" fill="black"/>
</g>
<g opacity="0.2">
<path d="M263.809 156.952L262.816 165.789L263.243 165.817L264.236 156.981L263.809 156.952Z" fill="black"/>
</g>
</svg>
