<svg width="102" height="85" viewBox="0 0 102 85" fill="none" xmlns="http://www.w3.org/2000/svg">
<g clip-path="url(#clip0_1569_41)">
<path d="M64.7831 47.2071C65.1401 47.1137 65.4535 46.8485 65.6557 46.4685C65.8579 46.0886 65.9327 45.6245 65.8639 45.1762C65.8485 45.0772 65.8262 44.9801 65.7971 44.886L69.5052 40.8856L67.0809 40.0273L63.9313 43.9577C63.6004 44.1552 63.345 44.5077 63.2201 44.939C63.0953 45.3703 63.1111 45.8458 63.2641 46.2626C63.3941 46.6123 63.6153 46.8963 63.8914 47.068C64.1674 47.2396 64.4819 47.2887 64.7831 47.2071Z" fill="#FFB6B6"/>
<path d="M88.8636 75.5746L88.9984 71.7822C90.4034 70.8423 91.9705 70.3459 93.5636 70.3359C91.371 72.5793 91.6451 76.9037 90.1585 79.9205C89.6891 80.857 89.0574 81.6492 88.31 82.2386C87.5627 82.828 86.719 83.1993 85.8414 83.3252L84.0065 84.7311C83.7548 82.9745 83.8103 81.1706 84.1692 79.4435C84.5282 77.7164 85.1821 76.1073 86.0859 74.7269C86.599 73.9588 87.1874 73.2746 87.8371 72.6905C88.2766 74.1406 88.8636 75.5746 88.8636 75.5746Z" fill="#F2F2F2"/>
<path d="M84.1355 82.7796L82.474 82.7795L81.6836 74.7598L84.1357 74.7599L84.1355 82.7796Z" fill="#FFB6B6"/>
<path d="M84.5602 84.7954L79.2031 84.7951V84.7103C79.2032 84.0183 79.4229 83.3546 79.8139 82.8653C80.2049 82.3759 80.7353 82.101 81.2883 82.1009H81.2884L82.2669 81.1719L84.0927 82.1011L84.5603 82.1011L84.5602 84.7954Z" fill="#2F2E41"/>
<path d="M76.4166 82.7796L74.7552 82.7795L73.9648 74.7598L76.417 74.7599L76.4166 82.7796Z" fill="#FFB6B6"/>
<path d="M76.8415 84.7954L71.4844 84.7951V84.7103C71.4844 84.0183 71.7041 83.3546 72.0951 82.8653C72.4862 82.3759 73.0165 82.101 73.5695 82.1009H73.5696L74.5482 81.1719L76.3739 82.1011L76.8416 82.1011L76.8415 84.7954Z" fill="#2F2E41"/>
<path d="M75.6976 38.9355L86.5043 39.2736C88.5567 40.6687 88.5878 43.6882 87.9154 47.2731C87.9154 47.2731 88.1424 49.4039 87.6883 49.9721C87.2343 50.5403 87.0073 50.5403 87.2343 51.5347C87.4613 52.5291 86.2619 54.1531 86.4076 54.3355C86.5532 54.5178 86.8938 55.5121 86.8938 55.5121L85.7587 63.6091C85.7587 63.6091 84.9641 77.6723 84.7371 77.9564C84.5101 78.2405 84.283 77.9564 84.5101 78.6666C84.7371 79.3769 84.9641 79.0928 84.7371 79.3769C84.536 79.6483 84.3465 79.9328 84.1695 80.2292H81.4252C81.4252 80.2292 81.2183 78.8087 81.2183 78.6666C81.2183 78.5246 80.9913 77.6723 80.9913 77.5302C80.9913 77.3882 81.1919 77.1371 81.1919 77.1371C81.2612 76.8483 81.3081 76.5518 81.3318 76.2518C81.3318 75.9677 82.0129 65.0296 82.0129 65.0296L80.6507 50.8244L77.3589 64.7455C77.3589 64.7455 77.3589 76.962 77.1319 77.2461C76.9049 77.5302 76.9049 77.3882 77.0184 77.9564C77.1319 78.5246 77.586 78.3825 77.2454 78.8087C76.9049 79.2349 76.7914 78.5246 76.9049 79.2349L77.0184 79.9451L73.6131 80.0061C73.6131 80.0061 73.1591 78.8087 73.3861 78.3825C73.6131 77.9564 73.5995 78.0727 73.3225 77.3753C73.0456 76.6779 72.9321 76.5359 73.0456 76.3938C73.1591 76.2518 73.1591 75.4962 73.1591 75.4962L73.7266 61.9045C73.7266 61.9045 73.8401 47.5572 73.8401 47.1311C73.8487 46.9118 73.8164 46.693 73.7458 46.492V45.9136L74.1807 43.8639L75.6976 38.9355Z" fill="#2F2E41"/>
<path d="M64.6582 42.5919L66.4845 44.4351L76.441 34.7768L75.8518 17.9668C75.2919 18.5274 74.8263 19.2214 74.482 20.0086C74.1378 20.7958 73.9216 21.6606 73.8461 22.5531L72.1403 32.0488L64.6582 42.5919Z" fill="#E6E6E6"/>
<path d="M74.0859 43.182C77.6102 43.7456 80.8573 42.0379 83.9246 40.749C85.3093 40.1671 86.7042 40.7745 87.9896 39.7905C87.4338 32.9387 87.9735 25.2207 89.1542 16.9958C89.2216 16.5302 89.1513 16.0498 88.9565 15.6443C88.7616 15.2388 88.4556 14.9358 88.0954 14.7919L84.2906 13.4258L83.1192 11.8086L80.0937 12.7697L79.0347 15.1654L75.3953 18.2428C75.1829 18.4223 75.0164 18.6748 74.9159 18.9699C74.8154 19.2649 74.7852 19.5901 74.8288 19.9062C75.9222 27.6413 75.6688 35.5806 74.0859 43.182Z" fill="#E6E6E6"/>
<path d="M85.3338 45.3015C85.6569 45.0897 85.9005 44.7275 86.0122 44.293C86.1239 43.8585 86.0947 43.3864 85.9308 42.9786C85.8944 42.8886 85.8517 42.8028 85.8032 42.7222L88.4984 37.6074L85.979 37.6095L83.8058 42.4663C83.5305 42.7693 83.3616 43.1956 83.3356 43.6532C83.3095 44.1107 83.4284 44.5628 83.6665 44.9115C83.8678 45.2036 84.1425 45.4013 84.4455 45.4722C84.7485 45.543 85.0617 45.4828 85.3338 45.3015Z" fill="#FFB6B6"/>
<path d="M84.5723 40.5274L86.2219 43.1816L91.9954 32.4174L91.4961 21.4815C91.4325 20.0887 91.0884 18.7386 90.4959 17.5569C89.9033 16.3752 89.0816 15.4002 88.1071 14.7227L88.2249 31.5326L84.5723 40.5274Z" fill="#E6E6E6"/>
<path d="M80.4266 11.1826C82.4657 11.1826 84.1188 9.1139 84.1188 6.56201C84.1188 4.01012 82.4657 1.94141 80.4266 1.94141C78.3874 1.94141 76.7344 4.01012 76.7344 6.56201C76.7344 9.1139 78.3874 11.1826 80.4266 11.1826Z" fill="#FFB6B6"/>
<path d="M78.0745 3.85033C78.2174 3.85172 78.3596 3.87508 78.4979 3.91986C78.7705 4.00189 79.0474 4.06 79.3266 4.09377C80.1813 4.1944 80.9845 4.65059 81.6077 5.38946C82.231 6.12834 82.6385 7.10728 82.765 8.16994C82.9795 7.93586 83.4677 7.50525 83.8679 7.90545C83.874 7.9118 83.8775 7.91507 83.8916 7.90672C84.1573 7.74897 84.6291 5.80709 84.6434 4.09731C84.6509 3.18981 84.5367 2.03099 83.9503 1.66402L83.9194 1.64468L83.9113 1.60266C83.8721 1.39852 83.4343 1.05007 82.6735 0.778854C81.2908 0.285987 79.2297 -0.674127 78.0691 0.738847C77.9812 1.21519 77.6955 2.23458 77.4068 2.35012C77.0872 2.47802 76.8111 2.58839 76.7676 3.07908C76.7313 3.77737 76.7339 4.47798 76.7755 5.1758C76.8838 4.74879 77.0964 4.37505 77.3834 4.1072C77.5874 3.9353 77.8286 3.84566 78.0745 3.85033Z" fill="#2F2E41"/>
<path d="M102 84.8239C102 84.847 101.996 84.8698 101.989 84.8911C101.982 84.9125 101.972 84.9318 101.959 84.9481C101.946 84.9645 101.931 84.9774 101.914 84.9862C101.896 84.995 101.878 84.9995 101.86 84.9994H0.140215C0.103028 84.9994 0.0673651 84.9809 0.0410696 84.948C0.0147742 84.9151 0 84.8704 0 84.8239C0 84.7774 0.0147742 84.7327 0.0410696 84.6998C0.0673651 84.6669 0.103028 84.6484 0.140215 84.6484H101.86C101.878 84.6484 101.896 84.6529 101.914 84.6617C101.931 84.6704 101.946 84.6834 101.959 84.6997C101.972 84.716 101.982 84.7354 101.989 84.7567C101.996 84.778 102 84.8008 102 84.8239Z" fill="#CCCCCC"/>
<path d="M42.0972 14.9106L28.2377 18.8128C27.8663 18.9179 27.5435 19.203 27.3399 19.6057C27.1364 20.0083 27.0688 20.4955 27.1519 20.9605L30.9523 42.1004L47.2364 37.5156C47.3702 37.4785 47.4927 37.394 47.5891 37.2721L43.8134 16.2694C43.7294 15.8047 43.5015 15.4007 43.1798 15.1459C42.858 14.8912 42.4687 14.8066 42.0972 14.9106Z" fill="#E6E6E6"/>
<path d="M37.0632 17.8218L29.4679 19.9602C29.1297 20.0559 28.8357 20.3154 28.6503 20.682C28.4649 21.0486 28.4032 21.4922 28.4788 21.9156L32.0519 41.7912L46.5146 37.7192L43.9124 23.2447C43.5772 21.3901 42.6678 19.7776 41.3838 18.7609C40.0998 17.7443 38.546 17.4065 37.0632 17.8218Z" fill="white"/>
<path d="M43.7332 36.6486L34.1984 39.3332C34.1576 39.3446 34.1189 39.366 34.0846 39.3961C34.0503 39.4262 34.0212 39.4645 33.9987 39.5088C33.9763 39.5531 33.9611 39.6024 33.9539 39.6541C33.9467 39.7057 33.9478 39.7586 33.957 39.8097C33.9662 39.8609 33.9833 39.9092 34.0075 39.9521C34.0316 39.9949 34.0623 40.0313 34.0977 40.0593C34.1331 40.0873 34.1726 40.1063 34.2139 40.1151C34.2552 40.124 34.2974 40.1226 34.3383 40.111L43.8731 37.4265C43.914 37.4151 43.9527 37.3937 43.987 37.3636C44.0213 37.3335 44.0505 37.2952 44.0729 37.2509C44.0954 37.2066 44.1107 37.1572 44.1178 37.1056C44.125 37.0539 44.124 37.001 44.1148 36.9498C44.1056 36.8986 44.0884 36.8503 44.0642 36.8074C44.0401 36.7646 44.0094 36.7281 43.9739 36.7001C43.9385 36.6722 43.899 36.6532 43.8577 36.6444C43.8164 36.6355 43.7741 36.637 43.7332 36.6486Z" fill="#E4E4E4"/>
<path d="M43.4555 35.1093L33.9207 37.7939C33.8382 37.8171 33.7665 37.8804 33.7213 37.9698C33.6761 38.0593 33.6611 38.1675 33.6797 38.2708C33.6982 38.374 33.7488 38.4638 33.8203 38.5204C33.8917 38.577 33.9782 38.5957 34.0607 38.5725L43.5955 35.888C43.6364 35.8764 43.675 35.855 43.7092 35.8248C43.7435 35.7946 43.7726 35.7563 43.795 35.712C43.8174 35.6677 43.8326 35.6183 43.8397 35.5667C43.8469 35.5151 43.8458 35.4622 43.8366 35.4111C43.8274 35.3599 43.8103 35.3116 43.7862 35.2687C43.762 35.2259 43.7314 35.1894 43.696 35.1614C43.6606 35.1334 43.6212 35.1144 43.5799 35.1055C43.5387 35.0965 43.4964 35.0978 43.4555 35.1093Z" fill="#E4E4E4"/>
<path d="M37.7783 35.0939L33.6451 36.2576C33.5627 36.2809 33.491 36.3441 33.4458 36.4334C33.4007 36.5228 33.3857 36.6309 33.4043 36.7341C33.4228 36.8372 33.4733 36.9269 33.5447 36.9834C33.6161 37.0399 33.7025 37.0587 33.7849 37.0355L37.9181 35.8718C37.959 35.8604 37.9977 35.839 38.032 35.8089C38.0663 35.7788 38.0955 35.7405 38.118 35.6962C38.1405 35.6519 38.1557 35.6025 38.1629 35.5509C38.1701 35.4992 38.169 35.4463 38.1598 35.3951C38.1506 35.344 38.1334 35.2956 38.1093 35.2527C38.0851 35.2099 38.0544 35.1734 38.019 35.1455C37.9835 35.1175 37.944 35.0985 37.9027 35.0897C37.8614 35.0808 37.8191 35.0823 37.7783 35.0939Z" fill="#E4E4E4"/>
<path d="M42.6001 30.3515L33.0653 33.0361C33.0244 33.0476 32.9858 33.069 32.9516 33.0992C32.9173 33.1294 32.8882 33.1677 32.8658 33.212C32.8206 33.3015 32.8056 33.4097 32.8242 33.513C32.8427 33.6162 32.8933 33.706 32.9648 33.7626C33.0363 33.8192 33.1228 33.8379 33.2053 33.8147L42.7401 31.1301C42.7809 31.1186 42.8195 31.0972 42.8538 31.067C42.888 31.0368 42.9171 30.9985 42.9395 30.9542C42.9619 30.9099 42.9771 30.8605 42.9843 30.8089C42.9914 30.7573 42.9903 30.7044 42.9811 30.6532C42.972 30.6021 42.9548 30.5538 42.9307 30.5109C42.9066 30.4681 42.8759 30.4316 42.8405 30.4036C42.8052 30.3756 42.7657 30.3566 42.7244 30.3476C42.6832 30.3387 42.6409 30.34 42.6001 30.3515Z" fill="#E4E4E4"/>
<path d="M42.325 28.8145L32.7902 31.499C32.7494 31.5104 32.7107 31.5318 32.6764 31.562C32.6421 31.5921 32.613 31.6304 32.5905 31.6746C32.5681 31.7189 32.5529 31.7683 32.5457 31.8199C32.5385 31.8716 32.5396 31.9245 32.5488 31.9756C32.558 32.0267 32.5751 32.0751 32.5993 32.1179C32.6234 32.1607 32.6541 32.1972 32.6895 32.2252C32.7249 32.2532 32.7644 32.2721 32.8057 32.281C32.847 32.2899 32.8892 32.2884 32.9301 32.2768L42.4649 29.5923C42.5057 29.5809 42.5443 29.5594 42.5786 29.5293C42.6128 29.4992 42.6419 29.4609 42.6643 29.4166C42.6867 29.3724 42.7019 29.323 42.7091 29.2714C42.7162 29.2198 42.7152 29.1669 42.706 29.1158C42.6968 29.0647 42.6797 29.0164 42.6555 28.9736C42.6314 28.9308 42.6008 28.8943 42.5654 28.8663C42.53 28.8384 42.4906 28.8194 42.4494 28.8105C42.4081 28.8016 42.3659 28.8029 42.325 28.8145Z" fill="#E4E4E4"/>
<path d="M36.6457 28.7968L32.5125 29.9605C32.4717 29.972 32.433 29.9935 32.3988 30.0237C32.3646 30.0539 32.3355 30.0922 32.3131 30.1365C32.2907 30.1808 32.2755 30.2302 32.2683 30.2818C32.2612 30.3334 32.2623 30.3863 32.2714 30.4374C32.2806 30.4886 32.2978 30.5369 32.3219 30.5798C32.346 30.6226 32.3767 30.659 32.4121 30.6871C32.4474 30.7151 32.4869 30.7341 32.5281 30.743C32.5694 30.752 32.6117 30.7507 32.6525 30.7392L36.7857 29.5755C36.8266 29.5639 36.8652 29.5425 36.8994 29.5123C36.9336 29.4821 36.9628 29.4438 36.9852 29.3995C37.0076 29.3552 37.0228 29.3058 37.0299 29.2542C37.037 29.2026 37.036 29.1497 37.0268 29.0986C37.0176 29.0474 37.0005 28.9991 36.9763 28.9562C36.9522 28.9134 36.9216 28.8769 36.8862 28.8489C36.8508 28.8209 36.8114 28.8019 36.7701 28.793C36.7288 28.784 36.6866 28.7853 36.6457 28.7968Z" fill="#E4E4E4"/>
<path d="M41.4692 24.0547L31.9344 26.7392C31.8519 26.7624 31.7802 26.8257 31.7349 26.9151C31.6897 27.0046 31.6748 27.1128 31.6933 27.2161C31.7119 27.3193 31.7625 27.4091 31.8339 27.4657C31.9054 27.5223 31.9919 27.541 32.0744 27.5178L41.6092 24.8333C41.65 24.8218 41.6887 24.8003 41.7229 24.7701C41.7571 24.7399 41.7863 24.7016 41.8087 24.6573C41.831 24.613 41.8463 24.5637 41.8534 24.512C41.8605 24.4604 41.8595 24.4075 41.8503 24.3564C41.8411 24.3052 41.8239 24.2569 41.7998 24.2141C41.7757 24.1712 41.7451 24.1348 41.7097 24.1067C41.6743 24.0787 41.6348 24.0597 41.5936 24.0508C41.5523 24.0418 41.5101 24.0432 41.4692 24.0547Z" fill="#E6E6E6"/>
<path d="M41.1919 22.5175L31.6571 25.2021C31.6162 25.2136 31.5776 25.235 31.5434 25.2652C31.5091 25.2954 31.48 25.3338 31.4576 25.378C31.4124 25.4675 31.3974 25.5757 31.416 25.679C31.4345 25.7822 31.4851 25.872 31.5566 25.9286C31.628 25.9852 31.7145 26.0039 31.7971 25.9807L41.3319 23.2962C41.3727 23.2847 41.4113 23.2632 41.4456 23.233C41.4798 23.2028 41.5089 23.1645 41.5313 23.1202C41.5537 23.0759 41.5689 23.0265 41.576 22.9749C41.5832 22.9233 41.5821 22.8704 41.5729 22.8193C41.5638 22.7681 41.5466 22.7198 41.5225 22.6769C41.4984 22.6341 41.4677 22.5977 41.4323 22.5696C41.397 22.5416 41.3575 22.5226 41.3162 22.5137C41.275 22.5047 41.2327 22.506 41.1919 22.5175Z" fill="#E6E6E6"/>
<path d="M35.5149 22.5L31.3817 23.6637C31.2992 23.6869 31.2274 23.7502 31.1822 23.8396C31.137 23.9291 31.122 24.0373 31.1406 24.1406C31.1592 24.2438 31.2097 24.3336 31.2812 24.3902C31.3527 24.4468 31.4392 24.4655 31.5217 24.4423L35.6548 23.2786C35.6957 23.2671 35.7343 23.2456 35.7686 23.2154C35.8028 23.1852 35.8319 23.1469 35.8543 23.1026C35.8767 23.0583 35.8919 23.009 35.899 22.9573C35.9062 22.9057 35.9051 22.8528 35.8959 22.8017C35.8867 22.7506 35.8696 22.7022 35.8455 22.6594C35.8213 22.6165 35.7907 22.5801 35.7553 22.5521C35.7199 22.524 35.6805 22.505 35.6392 22.4961C35.598 22.4871 35.5557 22.4885 35.5149 22.5Z" fill="#E6E6E6"/>
<path d="M14.4482 39.4395C14.3578 39.4396 14.2712 39.4846 14.2073 39.5645C14.1435 39.6444 14.1075 39.7528 14.1074 39.8659V83.9622C14.1075 84.0753 14.1435 84.1837 14.2073 84.2637C14.2712 84.3436 14.3578 84.3886 14.4482 84.3887H58.6272C58.7176 84.3886 58.8042 84.3436 58.8681 84.2636C58.9319 84.1837 58.9679 84.0753 58.9679 83.9622V46.9443C58.9679 46.8312 58.9319 46.7228 58.8681 46.6429C58.8042 46.5629 58.7176 46.5179 58.6272 46.5178H33.2714C33.014 46.518 32.7658 46.398 32.5754 46.1812L26.875 39.6994C26.728 39.532 26.5362 39.4392 26.3374 39.4395H14.4482Z" fill="#3F3D56"/>
<path d="M67.1711 27.9048L43.5157 15.1777C42.8814 14.8375 42.1652 14.8261 41.5242 15.1459C40.8832 15.4657 40.3697 16.0907 40.0965 16.8837L27.7012 52.9654L55.495 67.919C55.7229 68.0427 55.9744 68.0816 56.2195 68.0312L68.5343 32.1838C68.8061 31.39 68.8153 30.4937 68.5597 29.6916C68.3041 28.8894 67.8048 28.2468 67.1711 27.9048Z" fill="#E6E6E6"/>
<path d="M57.3077 25.4748L44.3439 18.5001C43.7664 18.1902 43.1143 18.1796 42.5305 18.4706C41.9468 18.7617 41.4791 19.3306 41.2301 20.0525L29.5762 53.9763L54.2611 67.2572L62.7481 42.5521C63.8329 39.3842 63.8694 35.8072 62.8495 32.6057C61.8296 29.4042 59.8366 26.8397 57.3077 25.4748Z" fill="white"/>
<path d="M51.092 61.981L34.818 53.2252C34.7483 53.1876 34.6734 53.1675 34.5975 53.1661C34.5216 53.1647 34.4462 53.1821 34.3757 53.2172C34.3052 53.2523 34.2409 53.3044 34.1865 53.3707C34.1321 53.4369 34.0886 53.5159 34.0587 53.6032C34.0287 53.6904 34.0127 53.7842 34.0118 53.8792C34.0108 53.9742 34.0248 54.0685 34.0529 54.1567C34.0811 54.2449 34.1229 54.3253 34.1759 54.3932C34.2289 54.4612 34.2921 54.5154 34.3619 54.5528L50.6359 63.3085C50.7056 63.3462 50.7805 63.3663 50.8564 63.3677C50.9323 63.3691 51.0077 63.3517 51.0782 63.3166C51.1487 63.2815 51.213 63.2293 51.2674 63.1631C51.3218 63.0969 51.3653 63.0179 51.3952 62.9306C51.4252 62.8433 51.4411 62.7495 51.4421 62.6546C51.4431 62.5596 51.4291 62.4653 51.401 62.3771C51.3728 62.2889 51.331 62.2085 51.278 62.1405C51.225 62.0726 51.1618 62.0183 51.092 61.981Z" fill="#E4E4E4"/>
<path d="M51.9941 59.3554L35.7201 50.5997C35.5793 50.524 35.4202 50.5214 35.2779 50.5925C35.1355 50.6636 35.0216 50.8024 34.9611 50.9786C34.9005 51.1548 34.8984 51.3539 34.9551 51.532C35.0118 51.7102 35.1228 51.8528 35.2635 51.9286L51.5375 60.6844C51.6073 60.7219 51.6822 60.7419 51.7581 60.7431C51.834 60.7444 51.9093 60.7269 51.9798 60.6918C52.0503 60.6566 52.1146 60.6044 52.169 60.5381C52.2234 60.4719 52.2668 60.3928 52.2968 60.3056C52.3268 60.2183 52.3427 60.1245 52.3437 60.0296C52.3447 59.9346 52.3308 59.8403 52.3027 59.7521C52.2746 59.6638 52.2328 59.5834 52.1799 59.5153C52.127 59.4473 52.0638 59.393 51.9941 59.3554Z" fill="#E4E4E4"/>
<path d="M43.6748 51.7705L36.6203 47.975C36.5506 47.9374 36.4757 47.9174 36.3999 47.9161C36.324 47.9148 36.2487 47.9321 36.1782 47.9673C36.1077 48.0024 36.0435 48.0545 35.9891 48.1208C35.9348 48.187 35.8914 48.266 35.8614 48.3532C35.8314 48.4404 35.8155 48.5341 35.8145 48.6291C35.8135 48.724 35.8275 48.8182 35.8556 48.9064C35.8837 48.9946 35.9255 49.075 35.9784 49.1429C36.0314 49.2109 36.0945 49.2652 36.1642 49.3026L43.2188 53.0981C43.2884 53.1356 43.3633 53.1557 43.4392 53.157C43.515 53.1583 43.5904 53.1409 43.6608 53.1058C43.7313 53.0707 43.7956 53.0185 43.8499 52.9523C43.9043 52.8861 43.9477 52.8071 43.9777 52.7199C44.0076 52.6327 44.0236 52.5389 44.0246 52.444C44.0256 52.3491 44.0116 52.2548 43.9835 52.1666C43.9553 52.0785 43.9136 51.9981 43.8607 51.9301C43.8077 51.8622 43.7446 51.8079 43.6748 51.7705Z" fill="#E4E4E4"/>
<path d="M54.7828 51.2341L38.5087 42.4784C38.368 42.4029 38.209 42.4004 38.0667 42.4715C37.9245 42.5426 37.8106 42.6814 37.7501 42.8575C37.6896 43.0336 37.6875 43.2326 37.7441 43.4107C37.8007 43.5888 37.9116 43.7314 38.0522 43.8073L54.3262 52.5631C54.396 52.6008 54.471 52.6209 54.5469 52.6222C54.6229 52.6236 54.6983 52.6062 54.7689 52.5711C54.8395 52.5359 54.9039 52.4837 54.9583 52.4174C55.0127 52.3511 55.0562 52.272 55.0862 52.1847C55.1162 52.0974 55.1322 52.0035 55.1332 51.9084C55.1341 51.8133 55.1201 51.719 55.092 51.6307C55.0638 51.5424 55.022 51.4619 54.9689 51.3939C54.9159 51.3259 54.8526 51.2716 54.7828 51.2341Z" fill="#E4E4E4"/>
<path d="M55.6838 48.6099L39.4098 39.8541C39.3401 39.8165 39.2652 39.7964 39.1893 39.795C39.1134 39.7936 39.038 39.811 38.9675 39.8461C38.897 39.8812 38.8327 39.9333 38.7783 39.9996C38.7239 40.0658 38.6804 40.1448 38.6505 40.2321C38.6205 40.3193 38.6045 40.4131 38.6036 40.5081C38.6026 40.6031 38.6166 40.6974 38.6447 40.7856C38.6729 40.8738 38.7147 40.9542 38.7677 41.0221C38.8207 41.0901 38.8839 41.1443 38.9537 41.1817L55.2277 49.9374C55.2974 49.9751 55.3723 49.9952 55.4482 49.9966C55.5241 49.998 55.5995 49.9806 55.67 49.9455C55.7405 49.9104 55.8048 49.8582 55.8592 49.792C55.9136 49.7258 55.9571 49.6468 55.987 49.5595C56.017 49.4722 56.0329 49.3784 56.0339 49.2835C56.0349 49.1885 56.0209 49.0942 55.9927 49.006C55.9646 48.9178 55.9228 48.8374 55.8698 48.7694C55.8168 48.7015 55.7536 48.6472 55.6838 48.6099Z" fill="#E4E4E4"/>
<path d="M47.3664 41.0241L40.3119 37.2286C40.1711 37.1529 40.012 37.1503 39.8697 37.2214C39.7273 37.2925 39.6134 37.4313 39.5528 37.6075C39.4923 37.7837 39.4902 37.9828 39.5469 38.1609C39.6036 38.3391 39.7146 38.4817 39.8553 38.5575L46.9099 42.353C46.9796 42.3906 47.0545 42.4106 47.1305 42.4119C47.2064 42.4132 47.2817 42.3957 47.3523 42.3606C47.4228 42.3254 47.4871 42.2732 47.5415 42.2069C47.5959 42.1406 47.6393 42.0616 47.6693 41.9743C47.6993 41.887 47.7152 41.7932 47.7162 41.6982C47.7172 41.6032 47.7033 41.5089 47.6751 41.4207C47.647 41.3324 47.6053 41.252 47.5523 41.1839C47.4993 41.1159 47.4361 41.0616 47.3664 41.0241Z" fill="#E4E4E4"/>
<path d="M58.476 40.488L42.2019 31.7322C42.0612 31.6568 41.9022 31.6543 41.76 31.7254C41.6178 31.7965 41.504 31.9354 41.4435 32.1114C41.383 32.2875 41.3808 32.4864 41.4374 32.6645C41.494 32.8425 41.6048 32.9852 41.7454 33.0612L58.0194 41.8169C58.0892 41.8545 58.1641 41.8745 58.24 41.8758C58.3159 41.877 58.3913 41.8596 58.4618 41.8244C58.5324 41.7893 58.5967 41.7371 58.6511 41.6708C58.7055 41.6045 58.7489 41.5255 58.7789 41.4382C58.8089 41.3509 58.8248 41.2571 58.8258 41.1621C58.8268 41.0671 58.8128 40.9728 58.7847 40.8846C58.7566 40.7963 58.7148 40.7159 58.6619 40.6478C58.6089 40.5798 58.5457 40.5255 58.476 40.488Z" fill="#0071F2"/>
<path d="M59.3765 37.8631L43.1025 29.1073C42.9617 29.0318 42.8027 29.0293 42.6605 29.1004C42.5182 29.1715 42.4044 29.3103 42.3439 29.4864C42.2834 29.6625 42.2812 29.8615 42.3378 30.0396C42.3945 30.2177 42.5053 30.3603 42.646 30.4363L58.92 39.192C58.9898 39.2298 59.0648 39.2501 59.1408 39.2516C59.2169 39.253 59.2924 39.2357 59.3631 39.2006C59.4337 39.1655 59.4982 39.1133 59.5527 39.0469C59.6072 38.9806 59.6507 38.9015 59.6808 38.814C59.7108 38.7266 59.7268 38.6326 59.7277 38.5375C59.7287 38.4423 59.7146 38.3479 59.6864 38.2595C59.6581 38.1712 59.6162 38.0907 59.563 38.0227C59.5098 37.9546 59.4465 37.9004 59.3765 37.8631Z" fill="#0071F2"/>
<path d="M51.0597 30.278L44.0052 26.4825C43.8644 26.4068 43.7054 26.4043 43.563 26.4753C43.4207 26.5464 43.3067 26.6853 43.2462 26.8614C43.1857 27.0376 43.1835 27.2367 43.2403 27.4148C43.297 27.593 43.4079 27.7356 43.5487 27.8115L50.6032 31.6069C50.6729 31.6445 50.7479 31.6645 50.8238 31.6658C50.8997 31.6671 50.9751 31.6496 51.0456 31.6145C51.1161 31.5793 51.1804 31.5271 51.2348 31.4608C51.2892 31.3945 51.3327 31.3155 51.3626 31.2282C51.3926 31.141 51.4086 31.0471 51.4096 30.9521C51.4106 30.8571 51.3966 30.7628 51.3685 30.6746C51.3404 30.5863 51.2986 30.5059 51.2456 30.4378C51.1927 30.3698 51.1295 30.3155 51.0597 30.278Z" fill="#0071F2"/>
<path d="M33.4956 41.0102L19.6361 44.9124C19.2648 45.0175 18.9419 45.3026 18.7384 45.7053C18.5348 46.1079 18.4672 46.5951 18.5503 47.0601L22.3507 68.2001L38.6349 63.6152C38.7687 63.5781 38.8911 63.4936 38.9875 63.3717L35.2118 42.369C35.1278 41.9043 34.8999 41.5003 34.5782 41.2455C34.2565 40.9908 33.8672 40.9062 33.4956 41.0102Z" fill="#E6E6E6"/>
<path d="M28.4617 43.9214L20.8663 46.0598C20.5282 46.1555 20.2341 46.415 20.0487 46.7816C19.8633 47.1482 19.8016 47.5918 19.8772 48.0152L23.4503 67.8908L37.913 63.8189L35.3108 49.3443C34.9756 47.4897 34.0663 45.8772 32.7823 44.8605C31.4982 43.8439 29.9444 43.5061 28.4617 43.9214Z" fill="white"/>
<path d="M35.1317 62.7482L25.5969 65.4328C25.556 65.4442 25.5173 65.4656 25.483 65.4957C25.4488 65.5258 25.4196 65.5641 25.3972 65.6084C25.3747 65.6527 25.3595 65.702 25.3523 65.7537C25.3452 65.8053 25.3462 65.8582 25.3554 65.9094C25.3646 65.9605 25.3818 66.0088 25.4059 66.0517C25.4301 66.0945 25.4607 66.1309 25.4961 66.1589C25.5316 66.1869 25.571 66.2059 25.6123 66.2147C25.6536 66.2236 25.6959 66.2222 25.7367 66.2106L35.2715 63.5261C35.3124 63.5147 35.3511 63.4933 35.3854 63.4632C35.4197 63.4331 35.4489 63.3948 35.4714 63.3505C35.4938 63.3062 35.5091 63.2568 35.5163 63.2052C35.5234 63.1535 35.5224 63.1006 35.5132 63.0494C35.504 62.9983 35.4868 62.9499 35.4627 62.907C35.4385 62.8642 35.4078 62.8277 35.3724 62.7997C35.3369 62.7718 35.2974 62.7528 35.2561 62.744C35.2148 62.7351 35.1725 62.7366 35.1317 62.7482Z" fill="#E4E4E4"/>
<path d="M34.854 61.209L25.3192 63.8935C25.2367 63.9167 25.1649 63.98 25.1197 64.0694C25.0745 64.1589 25.0595 64.2671 25.0781 64.3704C25.0967 64.4736 25.1472 64.5634 25.2187 64.62C25.2902 64.6766 25.3767 64.6953 25.4592 64.6721L34.994 61.9876C35.0765 61.9643 35.1482 61.901 35.1934 61.8116C35.2386 61.7222 35.2536 61.6139 35.2351 61.5107C35.2165 61.4074 35.1659 61.3176 35.0944 61.261C35.023 61.2045 34.9365 61.1857 34.854 61.209Z" fill="#E4E4E4"/>
<path d="M29.1767 61.1936L25.0435 62.3573C25.0027 62.3687 24.9641 62.3902 24.9299 62.4203C24.8957 62.4505 24.8666 62.4888 24.8443 62.533C24.8219 62.5773 24.8067 62.6266 24.7996 62.6782C24.7925 62.7298 24.7935 62.7826 24.8027 62.8337C24.8119 62.8847 24.829 62.933 24.8531 62.9758C24.8772 63.0186 24.9078 63.055 24.9431 63.083C24.9785 63.111 25.0179 63.13 25.0591 63.139C25.1003 63.1479 25.1426 63.1466 25.1834 63.1351L29.3166 61.9714C29.3575 61.96 29.3962 61.9386 29.4305 61.9085C29.4648 61.8784 29.494 61.8401 29.5164 61.7958C29.5389 61.7515 29.5541 61.7022 29.5613 61.6505C29.5685 61.5988 29.5674 61.5459 29.5583 61.4947C29.5491 61.4436 29.5319 61.3952 29.5077 61.3523C29.4836 61.3095 29.4529 61.273 29.4174 61.2451C29.382 61.2171 29.3425 61.1981 29.3012 61.1893C29.2599 61.1805 29.2176 61.1819 29.1767 61.1936Z" fill="#E4E4E4"/>
<path d="M33.9985 56.4511L24.4637 59.1357C24.4229 59.1472 24.3842 59.1686 24.35 59.1988C24.3158 59.229 24.2866 59.2673 24.2642 59.3116C24.219 59.4011 24.2041 59.5093 24.2226 59.6126C24.2412 59.7158 24.2918 59.8056 24.3632 59.8622C24.4347 59.9188 24.5212 59.9375 24.6037 59.9143L34.1385 57.2297C34.221 57.2065 34.2927 57.1432 34.338 57.0538C34.3832 56.9644 34.3981 56.8561 34.3796 56.7529C34.361 56.6496 34.3104 56.5598 34.239 56.5032C34.1675 56.4466 34.081 56.4279 33.9985 56.4511Z" fill="#E4E4E4"/>
<path d="M33.7235 54.9141L24.1887 57.5986C24.1478 57.61 24.1091 57.6314 24.0748 57.6616C24.0406 57.6917 24.0114 57.73 23.989 57.7743C23.9665 57.8185 23.9513 57.8679 23.9441 57.9195C23.937 57.9712 23.938 58.0241 23.9472 58.0752C23.9564 58.1263 23.9736 58.1747 23.9977 58.2175C24.0219 58.2604 24.0525 58.2968 24.0879 58.3248C24.1234 58.3528 24.1628 58.3717 24.2041 58.3806C24.2454 58.3895 24.2877 58.3881 24.3285 58.3764L33.8633 55.6919C33.9041 55.6805 33.9428 55.6591 33.977 55.6289C34.0112 55.5988 34.0404 55.5605 34.0628 55.5162C34.0852 55.472 34.1004 55.4226 34.1075 55.371C34.1147 55.3194 34.1136 55.2665 34.1044 55.2154C34.0953 55.1643 34.0781 55.116 34.054 55.0732C34.0299 55.0304 33.9992 54.9939 33.9639 54.966C33.9285 54.938 33.889 54.919 33.8478 54.9101C33.8065 54.9012 33.7643 54.9026 33.7235 54.9141Z" fill="#E4E4E4"/>
<path d="M28.0442 54.8965L23.911 56.0602C23.8285 56.0834 23.7567 56.1467 23.7115 56.2361C23.6663 56.3255 23.6513 56.4338 23.6699 56.537C23.6884 56.6403 23.739 56.7301 23.8105 56.7867C23.882 56.8432 23.9685 56.862 24.051 56.8388L28.1841 55.6751C28.2666 55.6518 28.3384 55.5885 28.3836 55.4991C28.4288 55.4097 28.4438 55.3014 28.4252 55.1982C28.4067 55.0949 28.3561 55.0051 28.2846 54.9485C28.2132 54.892 28.1267 54.8732 28.0442 54.8965Z" fill="#E4E4E4"/>
<path d="M32.8677 50.1543L23.3329 52.8388C23.292 52.8503 23.2534 52.8718 23.2191 52.9019C23.1849 52.9321 23.1558 52.9705 23.1334 53.0148C23.0882 53.1042 23.0732 53.2124 23.0918 53.3157C23.1103 53.4189 23.1609 53.5087 23.2324 53.5653C23.3038 53.6219 23.3903 53.6406 23.4728 53.6174L33.0076 50.9329C33.0485 50.9214 33.0871 50.8999 33.1213 50.8697C33.1556 50.8395 33.1847 50.8012 33.2071 50.7569C33.2295 50.7126 33.2447 50.6633 33.2518 50.6116C33.259 50.56 33.2579 50.5071 33.2487 50.456C33.2395 50.4049 33.2224 50.3565 33.1983 50.3137C33.1741 50.2708 33.1435 50.2344 33.1081 50.2064C33.0727 50.1783 33.0333 50.1593 32.992 50.1504C32.9508 50.1414 32.9085 50.1428 32.8677 50.1543Z" fill="#E6E6E6"/>
<path d="M32.5903 48.6172L23.0555 51.3017C23.0147 51.3132 22.976 51.3346 22.9418 51.3648C22.9076 51.395 22.8784 51.4334 22.856 51.4776C22.8108 51.5671 22.7959 51.6753 22.8144 51.7786C22.833 51.8818 22.8836 51.9716 22.955 52.0282C23.0265 52.0848 23.113 52.1035 23.1955 52.0803L32.7303 49.3958C32.8128 49.3725 32.8845 49.3092 32.9298 49.2198C32.975 49.1304 32.9899 49.0221 32.9714 48.9189C32.9528 48.8156 32.9022 48.7258 32.8308 48.6692C32.7593 48.6127 32.6728 48.5939 32.5903 48.6172Z" fill="#E6E6E6"/>
<path d="M26.9133 48.5996L22.7801 49.7633C22.6976 49.7865 22.6259 49.8498 22.5807 49.9392C22.5354 50.0287 22.5205 50.1369 22.539 50.2402C22.5576 50.3434 22.6082 50.4332 22.6796 50.4898C22.7511 50.5464 22.8376 50.5651 22.9201 50.5419L27.0533 49.3782C27.0941 49.3667 27.1328 49.3452 27.167 49.315C27.2012 49.2848 27.2304 49.2465 27.2528 49.2022C27.2751 49.1579 27.2903 49.1086 27.2975 49.0569C27.3046 49.0053 27.3036 48.9524 27.2944 48.9013C27.2852 48.8502 27.268 48.8018 27.2439 48.759C27.2198 48.7161 27.1892 48.6797 27.1538 48.6517C27.1184 48.6236 27.0789 48.6046 27.0377 48.5957C26.9964 48.5868 26.9542 48.5881 26.9133 48.5996Z" fill="#E6E6E6"/>
<path d="M14.1552 51.0215C14.1105 51.0215 14.0662 51.0325 14.0248 51.0539C13.9835 51.0753 13.9459 51.1067 13.9143 51.1463C13.8826 51.1859 13.8575 51.2329 13.8404 51.2846C13.8233 51.3364 13.8145 51.3918 13.8145 51.4478C13.8145 51.4638 13.8249 84.3049 13.8249 84.3049C13.8343 84.4091 13.874 84.5054 13.9364 84.5752C13.9989 84.6451 14.0798 84.6837 14.1636 84.6836H61.6214C61.7052 84.6837 61.786 84.6451 61.8485 84.5753C61.911 84.5054 61.9507 84.4091 61.96 84.3049L64.914 51.4957C64.9194 51.436 64.9146 51.3756 64.9001 51.3184C64.8855 51.2612 64.8615 51.2085 64.8295 51.1638C64.7977 51.1188 64.7586 51.0828 64.7148 51.0582C64.671 51.0337 64.6235 51.0212 64.5755 51.0215L14.1552 51.0215Z" fill="#3F3D56"/>
<path d="M17.5031 52.8389C17.0217 52.8406 16.5601 53.0794 16.2181 53.5036C15.8762 53.9278 15.6814 54.5033 15.6758 55.1059L15.735 80.5578C15.7329 80.8598 15.7786 81.1594 15.8695 81.4391C15.9604 81.7189 16.0947 81.9734 16.2646 82.1879C16.4345 82.4024 16.6367 82.5726 16.8594 82.6888C17.0822 82.8049 17.3211 82.8647 17.5625 82.8647H47.6884C51.1435 82.8676 54.4783 81.2762 57.0546 78.3949C59.6309 75.5136 61.2679 71.5448 61.6525 67.2476L62.7208 55.3819C62.7497 55.062 62.7242 54.7381 62.6461 54.4313C62.568 54.1246 62.439 53.8419 62.2676 53.6019C62.0961 53.3618 61.8862 53.1698 61.6513 53.0383C61.4165 52.9068 61.1622 52.8388 60.9049 52.8389H17.5031ZM63.6694 52.8389L63.664 52.6914H63.6694V52.8389Z" fill="#0071F2"/>
<path d="M30.6622 71.9076H18.9918C18.8712 71.9076 18.7556 71.8477 18.6703 71.741C18.585 71.6343 18.5371 71.4895 18.5371 71.3386C18.5371 71.1877 18.585 71.043 18.6703 70.9363C18.7556 70.8296 18.8712 70.7696 18.9918 70.7696H30.6622C31.2486 70.7594 31.2544 71.918 30.6622 71.9076Z" fill="#E4E4E4"/>
<path d="M46.3835 74.8842H18.9918C18.8712 74.8842 18.7556 74.8243 18.6703 74.7175C18.585 74.6108 18.5371 74.4661 18.5371 74.3152C18.5371 74.1643 18.585 74.0195 18.6703 73.9128C18.7556 73.8061 18.8712 73.7462 18.9918 73.7462H46.3835C46.9699 73.7359 46.9758 74.8945 46.3835 74.8842Z" fill="#E4E4E4"/>
</g>
<defs>
<clipPath id="clip0_1569_41">
<rect width="102" height="85" fill="white"/>
</clipPath>
</defs>
</svg>
