<svg width="100" height="98" viewBox="0 0 100 98" fill="none" xmlns="http://www.w3.org/2000/svg">
<path d="M34.5273 85.821L37.4577 84.0156L39.8729 85.821L37.4577 84.7934L34.5273 85.821Z" fill="#BCBEC0"/>
<path d="M42.2762 83.6016L42.0879 84.919L43.2637 85.4169L43.6761 83.7035L42.2762 83.6016Z" fill="#F9B499"/>
<path d="M38.4844 83.8689L38.6288 85.1949L39.8716 85.2236L39.8427 83.4355L38.4844 83.8689Z" fill="#F9B499"/>
<path d="M89.9207 15.4004H10.0684V70.724H89.9207V15.4004Z" fill="white"/>
<path d="M82.9933 67.2282H16.4355V24.2734H82.9933V67.2282ZM16.6319 66.99H82.805V24.5117H16.6319V66.99Z" fill="#CCCCCC"/>
<path d="M82.898 32.8828H16.5332V33.121H82.898V32.8828Z" fill="#CCCCCC"/>
<path d="M82.898 41.4922H16.5332V41.7304H82.898V41.4922Z" fill="#CCCCCC"/>
<path d="M82.8297 49.8633H16.4648V50.1015H82.8297V49.8633Z" fill="#CCCCCC"/>
<path d="M82.8297 58.4727H16.4648V58.7109H82.8297V58.4727Z" fill="#CCCCCC"/>
<path d="M26.1273 24.3926H25.9355V67.1091H26.1273V24.3926Z" fill="#CCCCCC"/>
<path d="M35.6331 24.3926H35.4414V67.1091H35.6331V24.3926Z" fill="#CCCCCC"/>
<path d="M45.0511 24.3926H44.8594V67.1091H45.0511V24.3926Z" fill="#CCCCCC"/>
<path d="M54.5648 24.3926H54.373V67.1091H54.5648V24.3926Z" fill="#CCCCCC"/>
<path d="M64.0706 24.3926H63.8789V67.1091H64.0706V24.3926Z" fill="#CCCCCC"/>
<path d="M73.4886 24.3926H73.2969V67.1091H73.4886V24.3926Z" fill="#CCCCCC"/>
<path d="M89.9199 11.3438H91.1997C91.4316 11.3438 91.6613 11.4005 91.8756 11.5108C92.0898 11.621 92.2845 11.7827 92.4485 11.9864C92.6125 12.1902 92.7426 12.4321 92.8314 12.6983C92.9201 12.9645 92.9658 13.2498 92.9658 13.538V72.5197C92.9658 72.7522 92.9289 72.9825 92.8573 73.1974C92.7857 73.4122 92.6807 73.6074 92.5483 73.7719C92.416 73.9363 92.2588 74.0668 92.0859 74.1557C91.913 74.2447 91.7276 74.2905 91.5405 74.2905H89.9234V11.3438H89.9199Z" fill="#2F2E41"/>
<path opacity="0.2" d="M89.9199 11.3438H91.1997C91.4316 11.3438 91.6613 11.4005 91.8756 11.5108C92.0898 11.621 92.2845 11.7827 92.4485 11.9864C92.6125 12.1902 92.7426 12.4321 92.8314 12.6983C92.9201 12.9645 92.9658 13.2498 92.9658 13.538V72.5197C92.9658 72.7522 92.9289 72.9825 92.8573 73.1974C92.7857 73.4122 92.6807 73.6074 92.5483 73.7719C92.416 73.9363 92.2588 74.0668 92.0859 74.1557C91.913 74.2447 91.7276 74.2905 91.5405 74.2905H89.9234V11.3438H89.9199Z" fill="#231F20"/>
<path d="M90.7882 11.3438H8.50554C8.11557 11.3438 7.74157 11.5362 7.46582 11.8788C7.19007 12.2214 7.03516 12.6861 7.03516 13.1706V72.4709C7.03607 72.9546 7.19139 73.4182 7.46705 73.7599C7.7427 74.1015 8.11617 74.2934 8.50554 74.2934H90.7882C91.1779 74.2942 91.552 74.1026 91.8281 73.7609C92.1043 73.4191 92.2599 72.9551 92.2609 72.4709V13.1706C92.2609 12.9305 92.2227 12.6927 92.1487 12.4708C92.0747 12.249 91.9662 12.0475 91.8294 11.8778C91.6926 11.7081 91.5302 11.5736 91.3516 11.482C91.1729 11.3903 90.9814 11.3434 90.7882 11.3438ZM89.3443 69.8131C89.3445 69.8803 89.334 69.9469 89.3134 70.0091C89.2928 70.0712 89.2625 70.1277 89.2243 70.1753C89.1861 70.2229 89.1407 70.2606 89.0908 70.2864C89.0408 70.3122 88.9872 70.3254 88.9331 70.3254H10.4807C10.3713 70.3254 10.2664 70.2715 10.1891 70.1754C10.1118 70.0793 10.0683 69.949 10.0683 69.8131V15.913C10.0683 15.7772 10.1118 15.6469 10.1891 15.5508C10.2664 15.4547 10.3713 15.4007 10.4807 15.4007H88.9331C88.9872 15.4007 89.0408 15.414 89.0908 15.4397C89.1407 15.4655 89.1861 15.5033 89.2243 15.5509C89.2625 15.5985 89.2928 15.6549 89.3134 15.7171C89.334 15.7792 89.3445 15.8458 89.3443 15.913V69.8131Z" fill="#2F2E41"/>
<path d="M23.4554 19.4258H19.9902V21.3029H23.4554V19.4258Z" fill="#2F2E41"/>
<path d="M33.2288 19.4258H29.7637V21.3029H33.2288V19.4258Z" fill="#2F2E41"/>
<path d="M43.0023 19.4258H39.5371V21.3029H43.0023V19.4258Z" fill="#2F2E41"/>
<path d="M52.1527 19.4258H48.6875V21.3029H52.1527V19.4258Z" fill="#2F2E41"/>
<path d="M61.8363 19.4258H58.3711V21.3029H61.8363V19.4258Z" fill="#2F2E41"/>
<path d="M71.0745 19.4258H67.6094V21.3029H71.0745V19.4258Z" fill="#2F2E41"/>
<path d="M79.9593 19.4258H76.4941V21.3029H79.9593V19.4258Z" fill="#2F2E41"/>
<path d="M35.0055 37.0127V33.5039H26.4512V40.5358C26.4512 40.7055 26.5054 40.8683 26.6021 40.9884C26.6987 41.1084 26.8297 41.1758 26.9663 41.1758H32.8571C32.8571 41.1758 31.8048 37.6556 35.0055 37.0127Z" fill="#2F2E41"/>
<path opacity="0.2" d="M26.4512 39.9531H27.3325V41.1772H26.9767C26.9077 41.1772 26.8394 41.1604 26.7756 41.1275C26.7118 41.0947 26.6539 41.0466 26.6051 40.986C26.5563 40.9254 26.5176 40.8534 26.4912 40.7742C26.4648 40.6949 26.4512 40.61 26.4512 40.5243V39.9531Z" fill="black"/>
<path d="M34.4678 34.4941H26.8906V34.9146H34.4678V34.4941Z" fill="white"/>
<path d="M34.4365 36.4961H26.8594V36.9166H34.4365V36.4961Z" fill="white"/>
<path d="M34.4365 35.4961H26.8594V35.9166H34.4365V35.4961Z" fill="white"/>
<path d="M36.6825 38.5952L34.8737 41.6648L34.7582 41.4496C34.5783 41.111 34.3729 40.7943 34.1449 40.5038C33.8789 40.1666 33.5842 39.8663 33.2659 39.6083L33.423 39.3084C33.9928 39.768 34.4881 40.3566 34.883 41.0434L36.5 38.3168C36.1434 37.849 35.6548 37.5711 35.1367 37.5417C34.6187 37.5122 34.1116 37.7334 33.7221 38.1587C33.3325 38.5841 33.0909 39.1805 33.0479 39.8226C33.0049 40.4647 33.164 41.1025 33.4916 41.6019C33.8192 42.1014 34.2899 42.4236 34.8048 42.5008C35.3196 42.5781 35.8385 42.4043 36.2524 42.0162C36.6663 41.628 36.943 41.0555 37.0243 40.4192C37.1056 39.7828 36.9851 39.1321 36.6883 38.6038L36.6825 38.5952Z" fill="#2F2E41"/>
<path d="M55.5197 29.8672L53.7098 32.9368L53.5942 32.7215C53.2027 31.9876 52.694 31.3614 52.0996 30.8818L52.2555 30.5804C52.5927 30.8525 52.9049 31.1696 53.1865 31.5261C53.3791 31.772 53.5567 32.0354 53.7178 32.314L55.328 29.5873C54.9735 29.126 54.4889 28.8532 53.9761 28.8264C53.4632 28.7996 52.9618 29.0207 52.5774 29.4435C52.193 29.8662 51.9554 30.4575 51.9145 31.0933C51.8736 31.7291 52.0326 32.3598 52.3581 32.853C52.6836 33.3462 53.1503 33.6635 53.6601 33.7382C54.1699 33.8129 54.6832 33.6392 55.0922 33.2537C55.5011 32.8681 55.7739 32.3007 55.8532 31.6705C55.9325 31.0404 55.8121 30.3966 55.5174 29.8743L55.5197 29.8672Z" fill="#2F2E41"/>
<path d="M53.8805 28.3545V24.8457H45.3262V31.8776C45.3262 32.047 45.3803 32.2094 45.4767 32.3291C45.5731 32.4489 45.7038 32.5162 45.8402 32.5162H51.7309C51.7309 32.5162 50.6798 28.9974 53.8805 28.3545Z" fill="#2F2E41"/>
<path opacity="0.2" d="M45.3262 31.293H46.2029V32.5157H45.8563C45.7874 32.5158 45.7191 32.4991 45.6553 32.4665C45.5916 32.4338 45.5336 32.3859 45.4848 32.3253C45.436 32.2648 45.3972 32.1929 45.3708 32.1138C45.3444 32.0346 45.3308 31.9498 45.3308 31.8641L45.3262 31.293Z" fill="black"/>
<path d="M53.3428 25.8359H45.7656V26.2564H53.3428V25.8359Z" fill="white"/>
<path d="M53.3135 27.8359H45.7363V28.2564H53.3135V27.8359Z" fill="white"/>
<path d="M53.3135 26.8359H45.7363V27.2564H53.3135V26.8359Z" fill="white"/>
<path d="M54.8105 58.998H63.6444V66.8479H55.9055C55.6167 66.8479 55.3396 66.7053 55.1353 66.4516C54.9311 66.1978 54.8163 65.8536 54.8163 65.4946V58.998H54.8105Z" fill="#2F2E41"/>
<path opacity="0.2" d="M54.8105 65.7266H55.9217V66.8517H55.6387C55.53 66.8517 55.4223 66.825 55.3218 66.7733C55.2213 66.7216 55.13 66.6458 55.0531 66.5503C54.9762 66.4547 54.9152 66.3413 54.8736 66.2165C54.832 66.0916 54.8105 65.9578 54.8105 65.8227V65.7266Z" fill="black"/>
<path d="M63.0279 60.0977H55.3652V60.4392H63.0279V60.0977Z" fill="white"/>
<path d="M63.0279 61.9863H55.3652V62.3279H63.0279V61.9863Z" fill="white"/>
<path d="M63.0279 61.0527H55.3652V61.3943H63.0279V61.0527Z" fill="white"/>
<path d="M64.2676 41.8711H73.0968V49.721H65.3579C65.0691 49.721 64.792 49.5784 64.5878 49.3246C64.3835 49.0708 64.2687 48.7266 64.2687 48.3677V41.8711H64.2676Z" fill="#2F2E41"/>
<path opacity="0.2" d="M64.2691 48.5957H65.3768V49.7208H65.0938C64.8742 49.7208 64.6635 49.6124 64.5082 49.4194C64.3529 49.2265 64.2656 48.9647 64.2656 48.6919V48.5957H64.2691Z" fill="black"/>
<path d="M72.4869 42.9707H64.8242V43.3123H72.4869V42.9707Z" fill="white"/>
<path d="M72.4869 44.8613H64.8242V45.2029H72.4869V44.8613Z" fill="white"/>
<path d="M72.4869 43.9258H64.8242V44.2673H72.4869V43.9258Z" fill="white"/>
<path d="M20.6171 53.4448L15.2441 85.2051L15.5256 85.2786L20.8986 53.5183L20.6171 53.4448Z" fill="#A7A9AC"/>
<path d="M26.7181 52.7888L22.4297 85.2188L22.7135 85.2767L27.0019 52.8467L26.7181 52.7888Z" fill="#A7A9AC"/>
<path d="M20.1052 57.2366L20.0977 57.4746L26.217 57.7747L26.2246 57.5366L20.1052 57.2366Z" fill="#A7A9AC"/>
<path d="M19.0756 62.928L19.0684 63.166L25.4628 63.4657L25.47 63.2276L19.0756 62.928Z" fill="#A7A9AC"/>
<path d="M18.1772 68.7677L18.1719 69.0059L24.6862 69.2291L24.6915 68.991L18.1772 68.7677Z" fill="#A7A9AC"/>
<path d="M17.1875 74.4396L17.1836 74.6777L23.9497 74.8494L23.9536 74.6112L17.1875 74.4396Z" fill="#A7A9AC"/>
<path d="M16.3945 79.3438L16.3926 79.582L23.3214 79.6677L23.3233 79.4295L16.3945 79.3438Z" fill="#A7A9AC"/>
<path d="M45.0605 75.0127L40.498 73.0753L35.5775 72.8457C35.5775 72.8457 35.1154 74.6711 35.3649 76.0029C35.4261 76.3194 35.5685 76.6026 35.7706 76.8097C35.9727 77.0168 36.2236 77.1366 36.4853 77.1509L43.1373 77.5111L42.0862 83.9302L43.7183 84.2072L45.7535 76.9543C45.7535 76.9543 46.398 75.581 45.0605 75.0127Z" fill="#2F2E41"/>
<path d="M38.3516 84.406H39.9167L41.6388 77.433L38.9118 77.2852L38.3516 84.406Z" fill="#2F2E41"/>
<g opacity="0.2">
<path d="M45.0605 75.0127L40.498 73.0753L35.5775 72.8457C35.5775 72.8457 35.1154 74.6711 35.3649 76.0029C35.4261 76.3194 35.5685 76.6026 35.7706 76.8097C35.9727 77.0168 36.2236 77.1366 36.4853 77.1509L43.1373 77.5111L42.0862 83.9302L43.7183 84.2072L45.7535 76.9543C45.7535 76.9543 46.398 75.581 45.0605 75.0127Z" fill="black"/>
<path d="M38.3516 84.406H39.9167L41.6388 77.433L38.9118 77.2852L38.3516 84.406Z" fill="black"/>
</g>
<path d="M36.9197 74.541H35.9355V77.2849H36.9197V74.541Z" fill="#BCBEC0"/>
<path d="M37.703 77.9863H37.2109V85.8219H37.703V77.9863Z" fill="#BCBEC0"/>
<path d="M37.4626 86.6557C37.7095 86.6557 37.9096 86.407 37.9096 86.1003C37.9096 85.7936 37.7095 85.5449 37.4626 85.5449C37.2158 85.5449 37.0156 85.7936 37.0156 86.1003C37.0156 86.407 37.2158 86.6557 37.4626 86.6557Z" fill="#A7A9AC"/>
<path d="M34.4372 86.6557C34.6841 86.6557 34.8842 86.407 34.8842 86.1003C34.8842 85.7936 34.6841 85.5449 34.4372 85.5449C34.1904 85.5449 33.9902 85.7936 33.9902 86.1003C33.9902 86.407 34.1904 86.6557 34.4372 86.6557Z" fill="#A7A9AC"/>
<path d="M39.9958 86.6557C40.2427 86.6557 40.4428 86.407 40.4428 86.1003C40.4428 85.7936 40.2427 85.5449 39.9958 85.5449C39.749 85.5449 39.5488 85.7936 39.5488 86.1003C39.5488 86.407 39.749 86.6557 39.9958 86.6557Z" fill="#A7A9AC"/>
<path d="M46.918 69.1785L48.4034 67.9902L48.937 69.0436L47.7369 70.671L46.918 69.1785Z" fill="#F9B499"/>
<path d="M50.4336 67.7969L48.9321 69.0425L48.3984 67.9892C48.3984 67.9892 49.0014 67.0291 49.3548 66.4292C49.3999 66.3532 49.4611 66.3001 49.5246 66.3489L50.4267 67.5572C50.4431 67.5696 50.4567 67.5868 50.4664 67.6073C50.4761 67.6278 50.4815 67.651 50.4822 67.6747C50.4829 67.6985 50.4788 67.7221 50.4703 67.7434C50.4619 67.7647 50.4493 67.7831 50.4336 67.7969Z" fill="#F9B499"/>
<path d="M35.6035 60.963L38.7984 58.6855L39.5792 59.6743L37.0843 62.1412L35.6035 60.963Z" fill="#F9B499"/>
<path d="M39.7795 57.1698C39.4226 57.751 38.7988 58.6852 38.7988 58.6852L39.5796 59.674L40.9507 58.5647C41.0021 58.5232 41.0449 58.4674 41.0759 58.4018C41.1069 58.3362 41.1251 58.2625 41.1291 58.1865C41.1332 58.1106 41.1229 58.0346 41.0992 57.9644C41.0754 57.8943 41.0388 57.832 40.9923 57.7825L40.3501 57.0951C40.3093 57.0516 40.2619 57.0188 40.2106 56.9989C40.1593 56.9789 40.1052 56.9723 40.0518 56.9793C39.9983 56.9862 39.9466 57.0067 39.8998 57.0395C39.8529 57.0723 39.812 57.1166 39.7795 57.1698Z" fill="#F9B499"/>
<path d="M39.9648 63.9263C40.2396 63.6854 40.4475 63.3444 40.5597 62.9505L42.1918 61.623L43.0997 62.1411C43.0997 62.1411 42.8167 65.5049 41.2851 64.6783L40.7607 65.1792L39.9648 63.9263Z" fill="#F9B499"/>
<path d="M28.7246 42.8044L29.599 41.332L30.2782 42.1759L29.4315 43.4775L28.7246 42.8044Z" fill="#F9B499"/>
<path d="M29.9661 39.9585L29.5977 41.3305L30.2768 42.1743L31.1916 40.8483C31.231 40.7909 31.2599 40.7237 31.2763 40.6512C31.2928 40.5786 31.2964 40.5026 31.287 40.4281C31.2776 40.3537 31.2553 40.2827 31.2217 40.2199C31.1881 40.1572 31.1439 40.1043 31.0923 40.0647L30.5818 39.6773C30.5279 39.6366 30.4673 39.6116 30.4046 39.604C30.3419 39.5964 30.2785 39.6065 30.2194 39.6336C30.1602 39.6606 30.1067 39.7039 30.0629 39.7601C30.019 39.8164 29.986 39.8842 29.9661 39.9585Z" fill="#F9B499"/>
<path d="M17.6406 49.0791L18.6282 50.3563L19.3282 49.5469L18.5531 48.1836L17.6406 49.0791Z" fill="#F9B499"/>
<path d="M19.1487 51.411L19.4478 49.6559L19.3289 49.5469L18.6289 50.3563L19.1487 51.411Z" fill="#F9B499"/>
<path d="M15.9222 54.7676L18.1665 56.3075C18.1665 56.3075 18.3975 53.1962 19.3296 51.5086L17.3267 50.1797C17.3267 50.1797 15.5941 52.9795 15.9222 54.7676Z" fill="#2F2E41"/>
<path opacity="0.2" d="M15.9222 54.7676L18.1665 56.3075C18.1665 56.3075 18.3975 53.1962 19.3296 51.5086L17.3267 50.1797C17.3267 50.1797 15.5941 52.9795 15.9222 54.7676Z" fill="black"/>
<path d="M23.4528 67.0743C23.3118 66.3826 22.9977 64.9001 22.7308 64.174C22.7308 64.174 22.0286 61.3684 22.2688 59.8228C22.2688 59.8228 23.3627 59.6205 23.8281 59.5918C23.8281 59.5918 24.1169 64.6634 24.2648 66.4228C24.2979 66.8418 24.4216 67.242 24.6228 67.5809C24.8192 67.9066 25.1056 68.2654 25.466 68.4017L23.8154 67.5924C23.7261 67.5482 23.6466 67.4781 23.5835 67.388C23.5204 67.2979 23.4756 67.1903 23.4528 67.0743Z" fill="#F9B499"/>
<path d="M18.9435 59.6739C18.8903 59.6581 18.642 62.6058 18.9435 64.7885C18.9435 64.7885 19.0174 66.3901 18.828 67.1406C18.828 67.1406 20.0154 68.4695 20.7546 68.5384C20.7546 68.5384 19.6527 67.4133 19.7913 65.9811L20.5709 59.9867C20.0241 59.9206 19.4808 59.8162 18.9435 59.6739Z" fill="#F9B499"/>
<path d="M19.4645 49.5473C19.4645 49.5473 18.9874 48.7365 18.8777 45.9152C18.8774 45.9055 18.8752 45.8961 18.8715 45.8877C18.8677 45.8792 18.8625 45.8719 18.8561 45.8664C18.8498 45.8608 18.8425 45.8572 18.8348 45.8557C18.8271 45.8542 18.8193 45.8549 18.8119 45.8578L17.6406 46.3428C17.6406 46.3428 18.3198 47.323 18.2182 47.6904L18.5543 48.184L17.6418 49.0795C17.6418 49.0795 15.3975 46.3945 16.0363 45.2952L19.4656 42.0735C19.4656 42.0735 21.5725 40.1548 23.7336 42.0735C23.7336 42.0735 26.3059 44.9106 28.1378 43.5559L28.6333 42.8226C28.644 42.806 28.6593 42.795 28.6762 42.7918C28.6931 42.7887 28.7104 42.7935 28.7246 42.8053L29.4176 43.3535C29.4256 43.3599 29.4324 43.3682 29.4377 43.378C29.443 43.3877 29.4466 43.3987 29.4483 43.4103C29.45 43.4219 29.4499 43.4337 29.4477 43.4452C29.4456 43.4567 29.4417 43.4675 29.4361 43.477L29.1069 44.0424C29.1502 44.297 29.1369 44.5614 29.0685 44.8074C29.0002 45.0533 28.8793 45.2716 28.7188 45.4387L27.5002 46.7059C27.3763 46.839 27.2259 46.9281 27.0647 46.964C26.9035 46.9998 26.7376 46.9811 26.5842 46.9097C26.5169 46.8766 26.4541 46.8306 26.3983 46.7733C26.2285 46.5851 26.0329 46.4364 25.8207 46.3342C25.3804 46.1312 24.9101 46.0475 24.4416 46.0888C24.4031 46.0937 24.3674 46.116 24.3412 46.1514C24.315 46.1869 24.3002 46.233 24.2995 46.2811C24.2995 46.4303 24.2886 46.5792 24.2672 46.726C24.1957 47.2324 24.1491 47.7438 24.1274 48.2572C24.0962 48.8944 24.0246 49.6191 23.8641 49.8544C23.856 49.8544 20.5491 50.0683 19.4645 49.5473Z" fill="#0071F2"/>
<path d="M22.8468 38.8062H24.0342C24.0342 38.8062 24.3484 37.6122 23.2442 37.3496C23.2442 37.3496 22.5788 37.7127 22.8468 38.8062Z" fill="#2F2E41"/>
<path d="M21.1376 41.2927L21.8156 40.1877L21.6238 39.2649L21.8156 39.0109L22.2164 39.3137L22.2788 39.6696L22.8563 38.8086H23.9698C23.9698 38.8086 24.0598 41.5352 23.1762 41.1449L22.7928 40.8909L22.5236 41.3659C22.4768 41.4508 22.4108 41.5165 22.3339 41.5548C22.257 41.5932 22.1727 41.6023 22.0916 41.5812L21.1514 41.3415C21.1475 41.3401 21.1439 41.3376 21.1409 41.3342C21.1379 41.3307 21.1356 41.3264 21.1343 41.3216C21.1329 41.3168 21.1325 41.3117 21.1331 41.3067C21.1336 41.3016 21.1352 41.2968 21.1376 41.2927Z" fill="#F9B499"/>
<path d="M22.0324 40.1145L21.7552 40.3628C21.7552 40.3628 20.8208 38.6823 21.6155 37.8184C21.6155 37.8184 20.599 37.0764 21.664 36.1881C21.664 36.1881 22.3108 35.7935 22.4506 37.0764C22.4506 37.0764 22.9877 36.953 23.2452 37.3491C23.2452 37.3491 22.5892 37.6705 22.8479 38.8057C22.8479 38.8057 22.4298 39.6667 22.2115 39.6954C22.2115 39.6954 22.1525 39.0784 21.8938 39.3252C21.8938 39.3209 21.6351 39.6079 22.0324 40.1145Z" fill="#2F2E41"/>
<path opacity="0.2" d="M22.8468 38.8062H24.0342C24.0342 38.8062 24.3484 37.6122 23.2442 37.3496C23.2442 37.3496 22.5788 37.7127 22.8468 38.8062Z" fill="#231F20"/>
<path d="M19.4643 49.5469L17.8184 59.2293C17.8184 59.2293 19.6353 60.3889 22.1544 59.8421C22.1544 59.8421 24.2335 59.4331 24.7152 59.6039L23.8558 49.8454C23.8558 49.8454 20.4796 50.0592 19.4643 49.5469Z" fill="#2F2E41"/>
<path d="M18.4316 67.6892L18.7782 66.3847C18.7837 66.3653 18.7951 66.3493 18.81 66.3402C18.8249 66.331 18.8421 66.3295 18.8579 66.336L19.075 66.4264L19.3788 67.0994L19.9933 67.0277L20.8642 68.3766C20.878 68.3987 20.8873 68.4246 20.8911 68.4521C20.895 68.4797 20.8932 68.508 20.8861 68.5345C20.8807 68.5555 20.8719 68.575 20.8603 68.5917C20.8487 68.6085 20.8345 68.6222 20.8186 68.6321C20.8027 68.642 20.7853 68.6479 20.7676 68.6493C20.7498 68.6508 20.732 68.6479 20.7152 68.6407L19.0415 67.9447L19.0323 67.6921C19.0306 67.6612 19.021 67.6317 19.0047 67.6082C18.9885 67.5846 18.9665 67.5683 18.9422 67.5615C18.915 67.5546 18.8868 67.5601 18.8626 67.577C18.8384 67.5939 18.8199 67.621 18.8105 67.6534L18.7631 67.8299L18.4316 67.6892Z" fill="#0071F2"/>
<path d="M23.1367 68.4134L23.3111 67.0558C23.3124 67.0457 23.3153 67.036 23.3195 67.0273C23.3238 67.0186 23.3295 67.011 23.3361 67.005C23.3428 66.999 23.3503 66.9947 23.3583 66.9923C23.3663 66.99 23.3746 66.9896 23.3827 66.9912L23.6138 67.0357L24.0019 67.6385L24.5979 67.4404L25.6374 68.5885C25.6535 68.6063 25.6658 68.6286 25.6735 68.6536C25.6811 68.6785 25.6838 68.7054 25.6813 68.732C25.6791 68.7542 25.6732 68.7757 25.6641 68.795C25.6551 68.8144 25.6429 68.8313 25.6285 68.8447C25.614 68.8581 25.5976 68.8677 25.58 68.873C25.5625 68.8783 25.5443 68.8791 25.5265 68.8755L23.7824 68.5311L23.7397 68.2842C23.7342 68.254 23.721 68.2267 23.7021 68.2065C23.6831 68.1864 23.6594 68.1744 23.6345 68.1723C23.607 68.1718 23.5803 68.1835 23.5591 68.2054C23.5379 68.2272 23.5237 68.2577 23.519 68.2914L23.4959 68.4751L23.1367 68.4134Z" fill="#0071F2"/>
<path d="M36.474 67.1768C36.474 67.1768 36.295 70.9553 35.7128 72.0675L35.5765 72.8453L40.005 73.0678C41.5066 73.2615 42.2862 69.8446 42.2862 69.8446C42.7113 70.3727 44.9694 71.3902 44.9694 71.3902C46.2666 72.0202 47.4967 71.1505 47.4967 71.1505C47.4967 71.1505 47.4078 70.7889 47.6122 71.205C47.8166 71.6212 47.9483 71.205 47.9483 71.205C47.9483 70.9281 46.9192 69.1773 46.9192 69.1773C46.3601 68.6219 46.4052 69.427 46.4052 69.427C45.778 69.7886 44.9036 68.6764 44.9036 68.6764L41.1693 65.2036C40.6992 63.3136 39.111 63.7584 39.111 63.7584L35.7348 61.0634C35.2196 60.5912 34.8396 61.0634 34.8396 61.0634L34.4596 62.1755C34.1015 62.8142 34.6606 63.1801 34.6606 63.1801C35.2866 63.3466 35.8688 65.8192 35.8688 65.8192C36.0247 66.7635 36.4729 66.9859 36.4729 66.9859" fill="#0071F2"/>
<path d="M41.2844 63.5501C41.1173 63.627 40.9356 63.6405 40.7624 63.5889C40.6212 63.5397 40.4981 63.4314 40.4139 63.2823C40.3297 63.1332 40.2896 62.9525 40.3003 62.7709C40.3231 62.4633 40.315 62.1533 40.2761 61.8481C40.2761 61.8481 39.9746 60.2853 41.3491 60.482C41.5537 60.5137 41.7602 60.5219 41.9659 60.5063C42.421 60.4647 43.1984 60.4532 43.1984 60.8551C43.1984 60.8551 43.4398 61.7089 43.0979 62.1466C43.0979 62.1466 42.4522 62.0534 42.3517 62.5542C42.3517 62.5542 42.1507 63.0048 41.989 63.055C41.989 63.055 42.1854 62.1036 41.7649 62.3045C41.7661 62.2988 41.3514 62.4738 41.2844 63.5501Z" fill="#2F2E41"/>
<path d="M38.112 70.8164H34.7427C34.3638 70.8164 34.0566 71.1981 34.0566 71.6688V74.0209C34.0566 74.4917 34.3638 74.8734 34.7427 74.8734H38.112C38.491 74.8734 38.7981 74.4917 38.7981 74.0209V71.6688C38.7981 71.1981 38.491 70.8164 38.112 70.8164Z" fill="#A7A9AC"/>
<path d="M40.3932 77.1523H35.3248C35.0818 77.1523 34.8848 77.3971 34.8848 77.6991V77.801C34.8848 78.103 35.0818 78.3478 35.3248 78.3478H40.3932C40.6363 78.3478 40.8333 78.103 40.8333 77.801V77.6991C40.8333 77.3971 40.6363 77.1523 40.3932 77.1523Z" fill="#A7A9AC"/>
<path d="M45.6311 86.2296C45.6311 86.2296 45.295 85.4159 44.6042 85.2767C44.6042 85.2767 43.5947 84.9897 43.5046 84.4271C43.5046 84.4271 43.1662 85.5322 42.4374 85.0012L41.9753 84.3281C41.9753 84.3281 41.8067 85.8378 41.9753 86.2325L45.6311 86.2296Z" fill="#0071F2"/>
<path d="M42.0873 86.2296C42.0873 86.2296 41.7512 85.4159 41.0593 85.2767C41.0593 85.2767 40.0498 84.9897 39.9597 84.4271C39.9597 84.4271 39.6213 85.5322 38.8924 85.0012L38.4304 84.3281C38.4304 84.3281 38.2618 85.8378 38.4304 86.2325L42.0873 86.2296Z" fill="#0071F2"/>
<path d="M22.7842 40.8885L22.6837 41.0708C22.6837 41.0708 22.4296 40.7134 22.4527 40.3633C22.4492 40.3633 22.6063 40.8569 22.7842 40.8885Z" fill="#F4A48E"/>
<path d="M41.2834 64.6767L41.1424 64.8115C41.0039 64.539 40.9563 64.21 41.0096 63.8945C41.0096 63.8945 41.0258 64.4915 41.2834 64.6767Z" fill="#F4A48E"/>
</svg>
