<svg width="82" height="76" viewBox="0 0 82 76" fill="none" xmlns="http://www.w3.org/2000/svg">
<g clip-path="url(#clip0_1557_41)">
<path d="M30.6862 12.7745C33.0988 15.2897 35.7883 13.1839 38.3661 13.023C39.5615 12.9484 40.7545 13.3075 41.9326 13.5753C43.0509 13.8296 44.1651 14.1994 45.1874 14.83C46.3017 15.4933 47.2496 16.5231 47.9287 17.8082C48.0636 18.0709 48.267 17.8769 48.2655 17.5629C48.2493 14.2287 47.0922 14.4987 45.8841 14.7446C44.7356 14.9784 43.7592 13.5583 42.6258 13.2527C41.4398 12.9554 40.2412 12.7426 39.0358 12.6153C37.7289 12.4536 36.4189 12.344 35.1055 12.2863C33.6329 12.2216 32.1598 12.2223 30.6862 12.2885C30.4359 12.2996 30.4347 12.7856 30.6862 12.7745Z" fill="#3F3D56"/>
<path d="M22.5478 39.5974C22.5822 39.6434 22.601 39.7044 22.6001 39.7673C22.5992 39.8303 22.5787 39.8903 22.543 39.9348C22.5073 39.9794 22.4591 40.0049 22.4085 40.006C22.358 40.0071 22.3091 39.9837 22.2721 39.9408C20.678 38.2382 19.0839 36.5367 17.4898 34.8363C17.4879 34.8337 17.4857 34.8315 17.4833 34.8299C17.3726 34.7263 17.2679 34.6132 17.1699 34.4913C15.6863 34.2758 14.0558 33.5631 12.5111 33.2537C11.1471 33.5064 9.78705 33.8077 8.41918 34.0312C7.22739 34.2376 6.02589 34.3448 4.82266 34.352C3.84357 34.3455 4.12684 31.2184 3.23876 30.6417C2.31557 30.0423 0.464194 31.982 0.227545 30.7703C0.110623 30.15 0.0345218 29.5188 0 28.883V24.932C0.126125 23.2116 2.32467 23.7423 3.36878 22.5419C4.93559 20.7406 5.46759 16.5147 7.47258 16.4645C9.86196 16.4017 12.2521 16.5321 14.6279 16.8549C16.5653 17.1206 18.6028 17.3782 20.3945 18.4068C21.163 18.8491 21.8872 21.407 22.4164 22.238C23.0204 23.2088 23.3622 24.3928 23.3929 25.6205C23.4879 28.227 22.5361 30.6115 22.0147 33.0722C21.5622 35.2025 21.3073 37.7846 22.5478 39.5974Z" fill="#F2F2F2"/>
<path d="M17.6718 35.0859C19.288 36.8117 20.9044 38.5373 22.521 40.2625C22.558 40.3055 22.6069 40.3289 22.6575 40.3278C22.708 40.3267 22.7563 40.3011 22.792 40.2566C22.8278 40.212 22.8483 40.1519 22.8492 40.0889C22.8501 40.0259 22.8313 39.9649 22.7968 39.9189C21.5564 38.1075 21.8113 35.5252 22.2634 33.3938C22.7855 30.9329 23.7372 28.5491 23.642 25.9433C23.6118 24.7153 23.2698 23.5309 22.6652 22.5604C22.1187 21.7437 21.4265 21.0975 20.6438 20.6734C18.8522 19.6448 16.815 19.3861 14.8768 19.1211C12.5013 18.798 10.1114 18.6674 7.7223 18.7301C5.71671 18.7815 3.37061 18.8271 1.8039 20.629C0.377083 22.27 0.182201 24.8506 0.19596 27.1291C0.203931 28.4491 0.224258 29.8049 0.476134 31.0932C0.712905 32.3042 1.22636 33.4837 2.14984 34.0829C3.03808 34.6593 4.09336 34.6683 5.07154 34.6742C6.27476 34.6679 7.47626 34.5604 8.66788 34.3526C11.0528 33.9639 13.415 33.3362 15.8192 33.1465C16.4076 33.1 16.9977 33.0794 17.5871 33.0947C17.8383 33.1013 17.8382 32.6153 17.5871 32.6087C15.2495 32.5479 12.9358 33.048 10.6358 33.5035C8.41105 33.9441 6.13683 34.3594 3.87869 34.1365C3.38366 34.1076 2.89692 33.9673 2.44201 33.7224C2.00266 33.4623 1.63091 33.0534 1.36926 32.5425C0.781377 31.4019 0.669992 29.9731 0.619211 28.6424C0.561279 27.4908 0.56986 26.3354 0.644884 25.1853C0.731524 24.0702 0.940172 22.9391 1.41679 21.9764C2.50397 19.7804 4.70209 18.8666 6.57811 19.2611C8.69068 19.7053 10.3066 21.8092 13.5303 19.4449C14.5422 18.7028 15.8683 19.7355 17.0294 19.9538C17.8971 20.1029 18.753 20.3442 19.5877 20.6752C20.3909 20.9805 21.1392 21.4761 21.7916 22.1346C22.4745 22.8542 22.9499 23.8321 23.1454 24.9194C23.5931 27.4233 22.7056 29.9227 22.1192 32.2659C21.5964 34.3547 21.1504 36.8079 21.8543 38.9155C22.0185 39.4053 22.2434 39.8598 22.521 40.2625L22.7968 39.9189C21.1806 38.193 19.5642 36.4675 17.9476 34.7422C17.758 34.5397 17.4808 34.8819 17.6718 35.0859Z" fill="#E6E6E6"/>
<path d="M10.7845 23.7784H4.9046C4.85065 23.7784 4.7989 23.7517 4.76075 23.7041C4.7226 23.6566 4.70117 23.5922 4.70117 23.5249C4.70117 23.4577 4.7226 23.3932 4.76075 23.3457C4.7989 23.2982 4.85065 23.2715 4.9046 23.2715H10.7845C10.8384 23.2715 10.8901 23.2982 10.9283 23.3457C10.9664 23.3932 10.9879 23.4577 10.9879 23.5249C10.9879 23.5922 10.9664 23.6566 10.9283 23.7041C10.8901 23.7517 10.8384 23.7784 10.7845 23.7784Z" fill="white"/>
<path d="M10.7845 29.1827H4.9046C4.87789 29.1827 4.85143 29.1761 4.82675 29.1634C4.80207 29.1506 4.77964 29.132 4.76075 29.1084C4.74186 29.0849 4.72688 29.057 4.71666 29.0262C4.70643 28.9955 4.70117 28.9625 4.70117 28.9292C4.70117 28.8959 4.70643 28.863 4.71666 28.8322C4.72688 28.8015 4.74186 28.7735 4.76075 28.75C4.77964 28.7265 4.80207 28.7078 4.82675 28.6951C4.85143 28.6823 4.87789 28.6758 4.9046 28.6758H10.7845C10.8384 28.6758 10.8901 28.7025 10.9283 28.75C10.9664 28.7975 10.9879 28.862 10.9879 28.9292C10.9879 28.9964 10.9664 29.0609 10.9283 29.1084C10.8901 29.156 10.8384 29.1827 10.7845 29.1827Z" fill="white"/>
<path d="M15.5598 26.4835H4.9046C4.85065 26.4835 4.7989 26.4568 4.76075 26.4092C4.7226 26.3617 4.70117 26.2972 4.70117 26.23C4.70117 26.1628 4.7226 26.0983 4.76075 26.0508C4.7989 26.0033 4.85065 25.9766 4.9046 25.9766H15.5598C15.6138 25.9766 15.6655 26.0033 15.7037 26.0508C15.7418 26.0983 15.7632 26.1628 15.7632 26.23C15.7632 26.2972 15.7418 26.3617 15.7037 26.4092C15.6655 26.4568 15.6138 26.4835 15.5598 26.4835Z" fill="white"/>
<path d="M29.0499 51.9093C29.0843 51.9554 29.1031 52.0163 29.1022 52.0792C29.1013 52.1422 29.0808 52.2022 29.0451 52.2468C29.0094 52.2913 28.9611 52.3168 28.9106 52.3179C28.8601 52.319 28.8112 52.2956 28.7742 52.2527C27.1801 50.5502 25.586 48.8487 23.9919 47.1483C23.99 47.1456 23.9878 47.1434 23.9854 47.1418C23.8747 47.0382 23.7699 46.9251 23.672 46.8032C22.1884 46.5878 20.5579 45.875 19.0132 45.5656C17.6492 45.8183 16.0291 47.7396 14.6612 47.9631C13.4694 48.1695 12.2679 48.2766 11.0647 48.2839C10.0856 48.2774 10.3689 44.3403 9.48079 43.7636C8.55761 43.1642 6.96628 44.2939 6.72963 43.0822C6.60871 42.465 6.01166 41.8316 5.97266 41.195V37.2439C6.09878 35.5235 7.01309 33.8193 8.0572 32.619C9.62401 30.8176 11.9697 30.7706 13.9747 30.7204C16.364 30.6576 18.7542 30.788 21.13 31.1108C23.0674 31.3765 25.1049 31.634 26.8966 32.6627C27.6793 33.0872 28.3716 33.7334 28.9185 34.5499C29.5225 35.5207 29.8643 36.7047 29.895 37.9324C29.99 40.5389 29.0382 42.9234 28.5168 45.3841C28.0643 47.5144 27.8094 50.0966 29.0499 51.9093Z" fill="#F2F2F2"/>
<path d="M24.1718 47.3984C25.788 49.1242 27.4044 50.8498 29.021 52.575C29.058 52.618 29.1069 52.6414 29.1575 52.6403C29.208 52.6392 29.2563 52.6136 29.292 52.5691C29.3278 52.5245 29.3483 52.4644 29.3492 52.4014C29.3501 52.3384 29.3313 52.2774 29.2968 52.2314C28.0564 50.42 28.3113 47.8377 28.7634 45.7063C29.2855 43.2454 30.2372 40.8616 30.142 38.2558C30.1118 37.0278 29.7698 35.8434 29.1652 34.8729C28.6187 34.0562 27.9265 33.41 27.1438 32.9859C25.3522 31.9573 23.315 31.6986 21.3768 31.4336C19.0013 31.1105 16.6114 30.9799 14.2223 31.0426C12.2167 31.094 9.87061 31.1396 8.3039 32.9415C6.87708 34.5825 6.6822 37.1631 6.69596 39.4416C6.70393 40.7616 6.72426 42.1174 6.97613 43.4057C7.2129 44.6167 7.72636 45.7962 8.64984 46.3954C9.53808 46.9718 10.5934 46.9808 11.5715 46.9867C12.7748 46.9804 13.9763 46.8729 15.1679 46.6651C17.5528 46.2764 19.915 45.6487 22.3192 45.459C22.9076 45.4125 23.4977 45.3919 24.0871 45.4072C24.3383 45.4138 24.3382 44.9278 24.0871 44.9212C21.7495 44.8604 19.4358 45.3605 17.1358 45.816C14.9111 46.2566 12.6368 46.6719 10.3787 46.449C9.88366 46.4201 9.39692 46.2798 8.94201 46.0349C8.50266 45.7748 8.13091 45.3659 7.86926 44.855C7.28138 43.7144 7.16999 42.2856 7.11921 40.9549C7.06128 39.8033 7.06986 38.6479 7.14488 37.4978C7.23152 36.3827 7.44017 35.2516 7.91679 34.2889C9.00397 32.0929 11.4826 30.2825 13.0781 31.5736C14.9011 33.0487 17.2326 33.1125 20.0303 31.7574C21.1247 31.2273 22.3683 32.048 23.5294 32.2663C24.3971 32.4154 25.253 32.6567 26.0877 32.9877C26.8909 33.293 27.6392 33.7886 28.2916 34.4471C28.9745 35.1667 29.4499 36.1446 29.6454 37.2319C30.0931 39.7358 29.2056 42.2352 28.6192 44.5784C28.0964 46.6672 27.6504 49.1204 28.3543 51.228C28.5185 51.7178 28.7434 52.1723 29.021 52.575L29.2968 52.2314C27.6806 50.5055 26.0642 48.78 24.4476 47.0547C24.258 46.8522 23.9808 47.1944 24.1718 47.3984Z" fill="#E6E6E6"/>
<path d="M17.2864 36.0909H11.4066C11.3526 36.0909 11.3009 36.0642 11.2627 36.0166C11.2246 35.9691 11.2031 35.9047 11.2031 35.8374C11.2031 35.7702 11.2246 35.7057 11.2627 35.6582C11.3009 35.6107 11.3526 35.584 11.4066 35.584H17.2864C17.3404 35.584 17.3921 35.6107 17.4302 35.6582C17.4684 35.7057 17.4898 35.7702 17.4898 35.8374C17.4898 35.9047 17.4684 35.9691 17.4302 36.0166C17.3921 36.0642 17.3404 36.0909 17.2864 36.0909Z" fill="white"/>
<path d="M17.2864 41.4952H11.4066C11.3526 41.4952 11.3009 41.4685 11.2627 41.4209C11.2246 41.3734 11.2031 41.3089 11.2031 41.2417C11.2031 41.1745 11.2246 41.11 11.2627 41.0625C11.3009 41.015 11.3526 40.9883 11.4066 40.9883H17.2864C17.3404 40.9883 17.3921 41.015 17.4302 41.0625C17.4684 41.11 17.4898 41.1745 17.4898 41.2417C17.4898 41.3089 17.4684 41.3734 17.4302 41.4209C17.3921 41.4685 17.3404 41.4952 17.2864 41.4952Z" fill="white"/>
<path d="M22.0618 38.794H11.4066C11.3526 38.794 11.3009 38.7673 11.2627 38.7198C11.2246 38.6722 11.2031 38.6078 11.2031 38.5406C11.2031 38.4733 11.2246 38.4089 11.2627 38.3613C11.3009 38.3138 11.3526 38.2871 11.4066 38.2871H22.0618C22.1157 38.2871 22.1675 38.3138 22.2056 38.3613C22.2438 38.4089 22.2652 38.4733 22.2652 38.5406C22.2652 38.6078 22.2438 38.6722 22.2056 38.7198C22.1675 38.7673 22.1157 38.794 22.0618 38.794Z" fill="white"/>
<path d="M61.1 60.8951H44.6681C44.5173 60.8951 44.3727 60.8205 44.2661 60.6876C44.1595 60.5548 44.0996 60.3747 44.0996 60.1868C44.0996 59.999 44.1595 59.8188 44.2661 59.686C44.3727 59.5531 44.5173 59.4785 44.6681 59.4785H61.1C61.2507 59.4785 61.3953 59.5531 61.502 59.686C61.6086 59.8188 61.6685 59.999 61.6685 60.1868C61.6685 60.3747 61.6086 60.5548 61.502 60.6876C61.3953 60.8205 61.2507 60.8951 61.1 60.8951Z" fill="#F2F2F2"/>
<path d="M61.1 76.0006H44.6681C44.5173 76.0006 44.3727 75.9259 44.2661 75.7931C44.1595 75.6603 44.0996 75.4801 44.0996 75.2923C44.0996 75.1044 44.1595 74.9243 44.2661 74.7914C44.3727 74.6586 44.5173 74.584 44.6681 74.584H61.1C61.2507 74.584 61.3953 74.6586 61.502 74.7914C61.6086 74.9243 61.6685 75.1044 61.6685 75.2923C61.6685 75.4801 61.6086 75.6603 61.502 75.7931C61.3953 75.9259 61.2507 76.0006 61.1 76.0006Z" fill="#F2F2F2"/>
<path d="M74.4441 68.4537H44.667C44.5923 68.4538 44.5183 68.4356 44.4492 68.4001C44.3801 68.3646 44.3174 68.3124 44.2645 68.2466C44.2116 68.1808 44.1696 68.1027 44.141 68.0167C44.1124 67.9307 44.0977 67.8385 44.0977 67.7454C44.0977 67.6523 44.1124 67.5601 44.141 67.4741C44.1696 67.3881 44.2116 67.31 44.2645 67.2442C44.3174 67.1784 44.3801 67.1263 44.4492 67.0907C44.5183 67.0552 44.5923 67.037 44.667 67.0371H74.4441C74.5948 67.0374 74.7391 67.1121 74.8456 67.2449C74.952 67.3777 75.0118 67.5577 75.0118 67.7454C75.0118 67.9331 74.952 68.1131 74.8456 68.2459C74.7391 68.3787 74.5948 68.4534 74.4441 68.4537Z" fill="#F2F2F2"/>
<path d="M35.3926 67.658L36.3262 68.7526L40.2347 64.6878L38.857 63.0723L35.3926 67.658Z" fill="#FFB6B6"/>
<path d="M37.0924 72.3918L36.5737 69.3782L37.2024 68.546L36.864 68.1932L35.8131 67.1022L35.556 66.834L33.1387 69.5427L33.8394 70.3633L34.5864 69.6864L34.2833 70.8847L36.1391 73.0613C36.2281 73.1656 36.3415 73.2317 36.4628 73.2501C36.5841 73.2684 36.7069 73.238 36.8133 73.1632C36.9198 73.0885 37.0043 72.9733 37.0545 72.8346C37.1047 72.6958 37.1179 72.5407 37.0924 72.3918Z" fill="#2F2E41"/>
<path d="M30.8418 71.89L32.1092 72.1301L33.4718 66.0182L31.6014 65.6641L30.8418 71.89Z" fill="#FFB6B6"/>
<path d="M34.3986 74.5817L32.5974 72.469L32.7352 71.339L32.2958 71.2883L30.9335 71.1344L30.5996 71.0957L29.8457 75.0359L30.7966 75.2151L31.1025 74.1293L31.3996 75.33L33.9194 75.8074C34.0402 75.8302 34.1637 75.8044 34.2719 75.7336C34.3801 75.6629 34.4673 75.5509 34.5208 75.414C34.5742 75.2772 34.5912 75.1226 34.5693 74.9729C34.5473 74.8231 34.4875 74.6861 34.3986 74.5817Z" fill="#2F2E41"/>
<path d="M43.0353 28.4727L46.6699 36.5828C46.6699 36.5828 46.5182 53.2625 47.0013 53.8812C47.4843 54.4998 47.9216 55.0547 47.4843 55.0497C47.047 55.0447 47.1881 58.9905 47.1881 58.9905L39.1265 66.7663L37.1761 64.8223L42.0691 57.2978L39.3669 41.8959C39.3669 41.8959 37.4255 56.4613 37.0756 56.8972C36.7258 57.3331 36.5147 57.33 36.8827 57.7675C37.2506 58.2049 36.8827 59.1943 36.8827 59.1943L33.0472 69.1117L30.9668 68.7848C30.9668 68.7848 31.3275 60.6885 32.5834 57.2128V40.7873C32.4888 42.1956 36.9137 27.9419 34.2078 29.0117C35.0639 28.6732 43.0353 28.4727 43.0353 28.4727Z" fill="#2F2E41"/>
<path d="M41.3671 9.14648H38.3623L37.9369 11.2665L35.6267 12.0624C35.6267 12.0624 34.4839 21.5034 35.4437 22.265C36.4034 23.0265 35.7342 25.4086 35.7342 25.4086C35.7342 25.4086 33.3442 28.6244 33.631 29.1008C33.9178 29.5773 34.4996 28.8523 33.8263 29.6912C33.153 30.5301 32.7706 30.411 32.9618 30.6492C33.08 30.8003 33.1716 30.9804 33.2308 31.1781L32.4062 33.8531C32.4062 33.8531 36.7858 34.937 38.9846 33.3886C41.1834 31.8403 46.059 34.8179 46.059 34.8179C46.059 34.8179 45.8082 33.2545 45.599 33.0238C45.3898 32.7931 44.902 33.3764 45.2415 32.6083C45.581 31.8402 45.8678 32.1976 45.581 31.8403C45.2942 31.4829 44.0514 26.7187 44.0514 26.7187C44.0514 26.7187 43.0954 24.0984 44.147 23.0265C45.1986 21.9545 45.599 18.4386 45.599 18.4386L44.3384 12.0624L42.235 11.4733L41.3671 9.14648Z" fill="#E6E6E6"/>
<path d="M29.4728 33.4886L30.1945 29.8848L28.5996 29.084L27.9454 32.9279C27.7961 33.0655 27.6807 33.2522 27.6119 33.4671C27.5432 33.682 27.5239 33.9164 27.5563 34.1442C27.5887 34.372 27.6714 34.584 27.7952 34.7564C27.9189 34.9288 28.0789 35.0547 28.257 35.1201C28.435 35.1855 28.6242 35.1876 28.8033 35.1264C28.9823 35.0652 29.1441 34.9429 29.2704 34.7734C29.3967 34.6039 29.4826 34.3938 29.5183 34.1669C29.5541 33.9399 29.5383 33.705 29.4728 33.4886Z" fill="#FFB6B6"/>
<path d="M36.4835 11.8197L36.436 11.8095C35.9932 11.7147 35.5385 11.7558 35.1114 11.9293C34.6842 12.1027 34.2974 12.4032 33.9845 12.8048C33.1676 13.852 29.5208 21.6392 29.6521 22.9407C29.7745 24.1544 29.8216 23.8844 29.3761 24.5041C28.9306 25.1238 28.7611 24.1801 28.7543 25.4703C28.7474 26.7605 29.1431 26.7492 28.7225 27.0647C28.3019 27.3802 28.0238 27.1604 28.1006 28.0309C28.1775 28.9013 28.0599 29.1323 28.035 29.4366C28.0101 29.7408 27.4062 31.6929 27.4062 31.6929C27.4062 31.6929 29.1834 32.2875 29.9001 33.1778C29.9001 33.1778 29.9817 30.9748 30.3435 30.7749C30.7053 30.5749 31.0422 30.6792 30.9404 30.1129C30.8387 29.5467 30.3164 29.2959 30.9563 29.3157C31.5962 29.3355 32.5846 25.096 32.5846 25.096L36.8583 15.3813L36.4835 11.8197Z" fill="#E6E6E6"/>
<path d="M46.1283 35.2726L46.2567 31.5618L47.9684 31.3574L47.7206 35.2747C47.8324 35.4593 47.9006 35.6792 47.9176 35.9095C47.9346 36.1399 47.8997 36.3715 47.8168 36.5785C47.7339 36.7855 47.6063 36.9595 47.4484 37.0811C47.2904 37.2027 47.1084 37.267 46.9227 37.2667C46.7371 37.2665 46.5551 37.2017 46.3974 37.0797C46.2397 36.9577 46.1124 36.7833 46.0298 36.5761C45.9473 36.369 45.9128 36.1372 45.9302 35.9069C45.9476 35.6766 46.0162 35.457 46.1283 35.2726Z" fill="#FFB6B6"/>
<path d="M44.3382 12.0176L44.3862 12.0246C44.8323 12.0902 45.259 12.2903 45.6291 12.6075C45.9992 12.9248 46.3017 13.3497 46.5103 13.8454C47.0553 15.1382 48.7795 23.8942 48.3573 25.0959C47.9636 26.2165 47.9799 25.9409 48.266 26.6926C48.5521 27.4443 48.9295 26.5992 48.6424 27.8389C48.3552 29.0785 47.9783 28.9279 48.3098 29.379C48.6413 29.8302 48.958 29.7177 48.6862 30.5253C48.4144 31.3329 48.4745 31.5959 48.4291 31.8964C48.3837 32.197 48.5184 34.2823 48.5184 34.2823C48.5184 34.2823 46.6788 34.2245 45.7888 34.8249C45.7888 34.8249 46.2122 32.6836 45.9108 32.364C45.6094 32.0444 45.2626 32.0253 45.489 31.5183C45.7155 31.0113 46.2734 30.9554 45.6553 30.7482C45.0372 30.5411 45.0546 26.1264 45.0546 26.1264L43.168 15.3005L44.3382 12.0176Z" fill="#E6E6E6"/>
<path d="M33.0382 6.64521C33.0143 7.92299 33.3976 9.16025 33.9482 10.247C34.1322 9.61597 34.3898 9.02217 34.7127 8.48473C34.5581 9.67547 34.7228 10.8965 35.1813 11.9589C35.1975 11.9733 35.2142 11.9866 35.2315 11.9989C35.6803 12.3353 36.2493 12.4715 36.7348 12.2286C35.7317 10.8814 35.604 8.6492 36.445 7.13807C36.6832 6.70929 36.9911 6.33005 37.1386 5.84208C37.3715 5.0635 37.1476 4.20626 37.0064 3.3945C36.8744 2.639 36.8513 1.73995 37.2581 1.18627C37.2146 1.10889 37.1554 1.0473 37.0866 1.0078C37.0177 0.968308 36.9417 0.95233 36.8663 0.961504C36.6154 1.00565 36.4328 1.27728 36.3166 1.55704C36.2003 1.83679 36.1236 2.14686 35.9615 2.38849C35.6614 2.84077 35.1503 2.9477 34.7196 3.18606C33.6765 3.76489 33.0632 5.22339 33.0382 6.64521Z" fill="#2F2E41"/>
<path d="M41.8189 5.91435C41.7592 5.65443 42.1701 7.24324 41.9718 7.27193C41.0689 7.40098 39.8294 8.07283 39.2005 8.38626C39.1722 8.38216 39.1438 8.37807 39.1164 8.37295C39.0489 8.36372 38.9831 8.35041 38.9181 8.33505C37.4538 7.98986 36.8906 5.18736 36.8906 5.16175C36.8906 5.03577 37.1333 1.57545 37.5157 1.52424C37.6161 1.51066 37.717 1.50382 37.818 1.50375H38.7668C38.9631 1.45104 39.1621 1.41511 39.3624 1.3962H39.364C41.274 1.2149 42.78 2.66529 42.6393 4.43015C42.6384 4.4322 42.6368 4.43425 42.6359 4.4363C42.5951 4.51209 42.5593 4.5838 42.5277 4.65242C42.4968 4.71695 42.471 4.77841 42.4485 4.83679C42.2744 5.28749 42.7219 5.85459 42.4252 5.96045C42.0305 6.10123 43.4632 10.7285 41.9011 10.7285C42.6609 10.9977 41.9833 6.63135 41.8189 5.91435Z" fill="#2F2E41"/>
<path d="M40.1135 8.62842C41.3541 8.62842 42.3598 7.37545 42.3598 5.82984C42.3598 4.28422 41.3541 3.03125 40.1135 3.03125C38.8729 3.03125 37.8672 4.28422 37.8672 5.82984C37.8672 7.37545 38.8729 8.62842 40.1135 8.62842Z" fill="#FFB6B6"/>
<path d="M42.6377 4.58136C42.6002 4.60595 42.5636 4.62848 42.5261 4.65102C42.4869 4.67458 42.4478 4.69814 42.4086 4.71965C41.6565 5.14473 41.0442 5.19184 40.6727 4.58137C40.6628 4.26015 40.6049 3.94405 40.502 3.64926C40.5201 3.97869 40.4504 4.30638 40.3037 4.58137H39.5557C38.7852 5.21848 38.3895 5.28506 38.9243 7.37666C39.0734 7.95948 39.6663 11.3509 39.433 11.8538C39.3656 11.8446 38.6478 8.12996 38.5828 8.1146C37.1184 7.76941 36.188 4.76369 36.3071 4.59366C36.3065 4.11014 36.3958 3.63301 36.5678 3.1996C36.7855 2.65051 37.1249 2.19057 37.5457 1.87417C37.7966 1.72262 38.0581 1.60021 38.3271 1.5085C38.3337 1.50645 38.3396 1.50439 38.3462 1.50235C38.4287 1.47469 38.5128 1.44909 38.5969 1.42757C38.7707 1.38185 38.9465 1.34868 39.1234 1.32822C39.1359 1.3272 39.1484 1.32617 39.16 1.32617C39.2307 1.32638 39.3 1.35007 39.3608 1.3948C39.3616 1.3948 39.3616 1.39582 39.3624 1.39582C39.4059 1.42746 39.4439 1.4696 39.4741 1.51976C39.5273 1.60416 39.556 1.70847 39.5557 1.81578H40.3887C40.4195 1.81578 40.4503 1.81681 40.4811 1.81885C41.0371 1.84252 41.5659 2.1238 41.9642 2.60765C42.3624 3.0915 42.6014 3.74309 42.6344 4.4349C42.6369 4.48406 42.6377 4.53219 42.6377 4.58136Z" fill="#2F2E41"/>
<path d="M37.7279 3.68745C38.5452 3.68745 39.2078 2.86199 39.2078 1.84373C39.2078 0.825464 38.5452 0 37.7279 0C36.9106 0 36.248 0.825464 36.248 1.84373C36.248 2.86199 36.9106 3.68745 37.7279 3.68745Z" fill="#2F2E41"/>
<path d="M51.7892 57.3932C51.8497 57.3966 51.9095 57.3768 51.9606 57.3365C52.0118 57.2962 52.0517 57.2373 52.075 57.1677C52.0984 57.0982 52.104 57.0214 52.0911 56.9477C52.0783 56.8741 52.0475 56.8071 52.0031 56.756L51.9829 56.6558C51.9855 56.6478 51.9882 56.6398 51.9909 56.6318C52.0518 56.4526 52.1538 56.2999 52.2842 56.1927C52.4145 56.0855 52.5674 56.0287 52.7236 56.0295C52.8797 56.0302 53.0322 56.0884 53.162 56.1967C53.2917 56.3051 53.3928 56.4588 53.4526 56.6386C53.6916 57.3559 53.996 58.0745 54.071 58.8329C54.104 59.1682 54.09 59.508 54.0298 59.8374C54.5913 58.3114 54.8829 56.6528 54.8847 54.9742C54.8849 54.5529 54.8661 54.132 54.8285 53.7134C54.7974 53.3702 54.7543 53.0294 54.6991 52.6911C54.3982 50.8555 53.752 49.135 52.8138 47.671C52.3596 47.3623 51.9924 46.8875 51.7615 46.3108C51.6778 46.1035 51.6187 45.8821 51.5859 45.6537C51.6372 45.6621 51.7791 44.6901 51.7405 44.6304C51.8118 44.4954 51.9396 44.4284 52.0176 44.2966C52.4054 43.6416 52.9396 43.756 53.2185 44.6461C53.8144 45.0208 53.8201 45.6421 53.4545 46.2396C53.222 46.6198 53.19 47.1342 52.9859 47.5412C53.0069 47.5747 53.0287 47.6071 53.0497 47.6406C53.4335 48.2555 53.7681 48.9157 54.0485 49.6119C53.9803 48.832 54.0617 48.0431 54.286 47.31C54.5133 46.6268 54.9393 46.0514 55.3145 45.4608C55.4138 45.3022 55.5485 45.1837 55.7018 45.1205C55.855 45.0572 56.0199 45.052 56.1755 45.1055C56.3312 45.1589 56.4706 45.2687 56.5762 45.4208C56.6818 45.573 56.7488 45.7607 56.7687 45.9603C56.7695 45.969 56.7702 45.9777 56.771 45.9864C56.7153 46.0256 56.6607 46.0672 56.6073 46.1111C56.5403 46.167 56.4883 46.2467 56.4583 46.3399C56.4282 46.4332 56.4215 46.5355 56.4389 46.6336C56.4564 46.7317 56.4972 46.821 56.556 46.8897C56.6149 46.9583 56.689 47.0033 56.7687 47.0186L56.7769 47.0202C56.757 47.2704 56.7219 47.5184 56.6719 47.762C57.1532 50.0811 56.1141 50.9257 54.6303 50.9637C54.5975 50.9846 54.5656 51.0055 54.5329 51.0254C54.8146 52.0202 54.9913 53.0563 55.0586 54.1078C55.0967 54.7282 55.0944 55.3514 55.0519 55.9713L55.0544 55.9493C55.1619 55.26 55.457 54.638 55.89 54.1884C56.5331 53.5303 57.4416 53.2879 58.1353 52.7589C58.2091 52.6999 58.2948 52.6685 58.3824 52.6682C58.47 52.6679 58.5559 52.6989 58.6298 52.7574C58.7038 52.8159 58.7628 52.8996 58.7998 52.9985C58.8369 53.0974 58.8504 53.2075 58.8389 53.3157L58.8361 53.3388C58.7327 53.3913 58.632 53.4517 58.5346 53.5198C58.4789 53.559 58.4243 53.6005 58.3709 53.6445C58.3039 53.7003 58.2519 53.7801 58.2219 53.8733C58.1918 53.9665 58.1851 54.0689 58.2025 54.167C58.22 54.2651 58.2608 54.3543 58.3196 54.423C58.3785 54.4917 58.4526 54.5367 58.5323 54.552L58.5405 54.5535C58.5464 54.5546 58.5514 54.5556 58.5573 54.5567C58.3806 55.0823 58.1326 55.5662 57.8241 55.987C57.5232 58.0114 56.2305 58.2035 54.8478 57.614H54.8469C54.6952 58.4353 54.4754 59.2348 54.191 59.9996H51.848C51.8396 59.9671 51.832 59.9336 51.8244 59.9012C52.0413 59.9182 52.2591 59.902 52.4728 59.8531C52.2989 59.5873 52.1251 59.3195 51.9513 59.0537C51.9474 59.0487 51.9437 59.0435 51.9403 59.038C51.8522 58.902 51.7631 58.767 51.6749 58.631L51.6749 58.6308C51.6702 58.2139 51.7087 57.7979 51.7892 57.3932Z" fill="#F2F2F2"/>
<path d="M17.5508 75.7807C17.5507 75.806 17.5547 75.8311 17.5624 75.8545C17.5702 75.878 17.5816 75.8992 17.596 75.9172C17.6104 75.9351 17.6274 75.9493 17.6462 75.9589C17.665 75.9686 17.6852 75.9735 17.7055 75.9734H81.846C81.887 75.9734 81.9264 75.9531 81.9554 75.917C81.9844 75.8808 82.0007 75.8318 82.0007 75.7807C82.0007 75.7295 81.9844 75.6805 81.9554 75.6444C81.9264 75.6082 81.887 75.5879 81.846 75.5879H17.7055C17.6852 75.5878 17.665 75.5927 17.6462 75.6024C17.6274 75.6121 17.6104 75.6263 17.596 75.6442C17.5816 75.6621 17.5702 75.6834 17.5624 75.7068C17.5547 75.7302 17.5507 75.7553 17.5508 75.7807Z" fill="#CCCCCC"/>
<path d="M46.5956 34.4146C46.7765 34.6524 46.5023 34.9613 46.2913 34.7575C44.5314 33.0577 42.7715 31.3589 41.0116 29.6612C41.0096 29.6585 41.0071 29.6563 41.0044 29.6547C40.883 29.5521 40.7674 29.4392 40.6585 29.3167C39.0206 29.1016 37.2205 28.3899 35.5152 28.081C34.0094 28.3333 32.5079 28.6342 30.9978 28.8574C29.6807 29.0635 28.3548 29.1705 27.0273 29.1776C25.9464 29.1711 24.7822 29.1631 23.8018 28.5873C22.7826 27.9888 22.2156 26.8114 21.9543 25.6016C21.8255 24.9842 21.7414 24.3535 21.7031 23.7174V19.7726C21.8424 18.0549 22.2673 16.3535 23.42 15.155C25.1497 13.3565 27.7393 13.3096 29.9528 13.2594C32.5897 13.1967 35.2274 13.3269 37.8522 13.6492C39.991 13.9145 42.2404 14.1716 44.2185 15.1987C45.0668 15.6402 45.8664 16.2532 46.4506 17.0829C47.1081 18.0229 47.4884 19.2142 47.5286 20.46C47.6334 23.0623 46.5827 25.4431 46.0071 27.8999C45.5075 30.0267 45.2262 32.6048 46.5956 34.4146Z" fill="#0071F2"/>
<path d="M33.5384 17.6221H27.6585C27.6318 17.6221 27.6053 17.6156 27.5807 17.6028C27.556 17.5901 27.5335 17.5714 27.5147 17.5479C27.4958 17.5244 27.4808 17.4964 27.4706 17.4657C27.4603 17.4349 27.4551 17.402 27.4551 17.3687C27.4551 17.3354 27.4603 17.3024 27.4706 17.2717C27.4808 17.2409 27.4958 17.213 27.5147 17.1895C27.5335 17.1659 27.556 17.1473 27.5807 17.1345C27.6053 17.1218 27.6318 17.1152 27.6585 17.1152H33.5384C33.5923 17.1152 33.6441 17.1419 33.6822 17.1895C33.7204 17.237 33.7418 17.3015 33.7418 17.3687C33.7418 17.4359 33.7204 17.5004 33.6822 17.5479C33.6441 17.5954 33.5923 17.6221 33.5384 17.6221Z" fill="white"/>
<path d="M33.5384 23.0284H27.6585C27.6046 23.0284 27.5528 23.0017 27.5147 22.9541C27.4765 22.9066 27.4551 22.8422 27.4551 22.7749C27.4551 22.7077 27.4765 22.6432 27.5147 22.5957C27.5528 22.5482 27.6046 22.5215 27.6585 22.5215H33.5384C33.5923 22.5215 33.6441 22.5482 33.6822 22.5957C33.7204 22.6432 33.7418 22.7077 33.7418 22.7749C33.7418 22.8422 33.7204 22.9066 33.6822 22.9541C33.6441 23.0017 33.5923 23.0284 33.5384 23.0284Z" fill="white"/>
<path d="M38.3137 20.3272H27.6585C27.6046 20.3272 27.5528 20.3005 27.5147 20.253C27.4765 20.2054 27.4551 20.141 27.4551 20.0738C27.4551 20.0065 27.4765 19.9421 27.5147 19.8945C27.5528 19.847 27.6046 19.8203 27.6585 19.8203H38.3137C38.3677 19.8203 38.4194 19.847 38.4576 19.8945C38.4957 19.9421 38.5172 20.0065 38.5172 20.0738C38.5172 20.141 38.4957 20.2054 38.4576 20.253C38.4194 20.3005 38.3677 20.3272 38.3137 20.3272Z" fill="white"/>
<path d="M47.927 17.8084C48.472 18.8918 48.7803 20.1388 48.6859 21.4241C48.6044 22.5332 48.2393 23.5762 47.8401 24.5592C47.4263 25.5778 46.9632 26.5669 46.6248 27.6304C46.2534 28.7896 46.1162 30.0447 46.2251 31.2855C46.292 32.091 46.4225 32.8857 46.5454 33.6801L46.9206 36.1052L47.2466 35.8688L41.8534 30.06C41.6644 29.8564 41.3873 30.1987 41.5776 30.4036L46.9708 36.2125C47.0017 36.2486 47.0411 36.2714 47.0832 36.2774C47.1254 36.2834 47.1679 36.2722 47.2045 36.2457C47.2412 36.2191 47.2699 36.1785 47.2865 36.1299C47.3032 36.0813 47.3068 36.0274 47.2968 35.9761C47.0763 34.5512 46.8159 33.1257 46.6544 31.6882C46.5616 30.9634 46.5486 30.2261 46.6157 29.4969C46.6817 28.9411 46.799 28.3965 46.9652 27.8742C47.612 25.7683 48.8236 23.9262 49.0571 21.6367C49.2034 20.2022 48.8743 18.7767 48.2638 17.5631C48.1308 17.2987 47.7931 17.5424 47.927 17.8084Z" fill="#3F3D56"/>
<path d="M42.1949 27.9325L34.2188 29.1081L30.2308 29.6959C29.0158 29.875 27.7497 30.1264 26.5357 29.8096C24.4919 29.2761 23.2228 26.9688 22.8236 24.5373C22.5765 23.0321 22.664 21.4572 22.8719 19.9535C22.9827 19.1518 23.129 18.3584 23.2871 17.5694C23.4279 16.8662 23.533 16.109 23.7764 15.4471C23.9707 14.9088 24.2597 14.432 24.6221 14.052C24.9845 13.6719 25.4109 13.3985 25.8697 13.2518C26.1563 13.1786 26.4466 13.1307 26.7386 13.1084C27.0666 13.0674 27.3949 13.0296 27.7235 12.9951C28.3805 12.9262 29.0383 12.8703 29.6969 12.8276C30.0261 12.8062 30.3555 12.7881 30.685 12.7733C30.9352 12.7619 30.9364 12.2758 30.685 12.2873C29.3139 12.3498 27.9456 12.4682 26.5799 12.6425C26.0235 12.7139 25.5091 12.8171 25.0069 13.1418C24.5729 13.4246 24.1918 13.8184 23.8884 14.2974C23.5776 14.7916 23.3495 15.3586 23.2179 15.9646C23.0384 16.7699 22.8754 17.5832 22.7268 18.3981C22.4272 20.0408 22.2119 21.734 22.3119 23.4228C22.4599 25.9206 23.4197 28.5855 25.2825 29.7746C26.3825 30.4768 27.6378 30.5083 28.8431 30.3742C30.1874 30.2247 31.5278 29.9907 32.868 29.7932L41.1657 28.5702L42.1949 28.4185C42.4411 28.3822 42.4441 27.8958 42.1949 27.9325Z" fill="#3F3D56"/>
</g>
<defs>
<clipPath id="clip0_1557_41">
<rect width="82" height="76" fill="white"/>
</clipPath>
</defs>
</svg>
